<svg enable-background="new 0 0 442 550" height="550" viewBox="0 0 442 550" width="442" xmlns="http://www.w3.org/2000/svg"><path d="m265.95 545.812c-94.056 0-170.297-26.68-170.297-59.598s76.241-59.604 170.297-59.604c94.058 0 170.3 26.686 170.3 59.604s-76.242 59.598-170.3 59.598z" fill="#9edaf1"/><path d="m196.18 461.421c-7.872 0-7.83 5.707-1.619 5.707 6.212 0 17.347 5.239 17.347 11.652 0 2.804-2.208 31.727-4.69 63.391 2.921.376 5.88.723 8.874 1.043 1.244-30.389 2.333-58.609 2.333-64.358 0-10.02-9.748-17.435-22.245-17.435zm139.541 0c-12.496 0-22.243 7.415-22.243 17.435 0 5.806-3.206 34.518-6.849 65.24 2.894-.247 5.756-.521 8.588-.82 2.519-32.094 4.776-61.657 4.776-64.495 0-6.413 11.134-11.652 17.347-11.652 6.212-.001 6.253-5.708-1.619-5.708zm-33.855 10.729c-12.497 0-22.244 7.414-22.244 17.434 0 4.995-2.134 28.544-4.814 56.148 2.713-.049 5.409-.122 8.088-.214 1.788-29.112 3.242-53.541 3.242-56.009 0-6.413 11.134-11.652 17.347-11.652 6.211 0 6.25-5.707-1.619-5.707zm-72.414 0c-7.872 0-7.831 5.707-1.619 5.707s17.347 5.239 17.347 11.652c0 2.457-1.952 26.7-4.358 55.655 2.809.146 5.639.266 8.491.363 1.328-27.517 2.383-50.963 2.383-55.944-.001-10.019-9.748-17.433-22.244-17.433z" fill="#7fbce7"/><path d="m337.34 460.174c-6.213 0-17.347-5.24-17.347-11.652 0-6.413-11.542-151.725-11.542-151.725h-.039c.21-4.182-2.27-40.146-54.006-40.146-51.733 0-54.214 35.964-54.003 40.146h-.039v25.353s11.544 119.959 11.544 126.372c0 6.412-11.134 11.652-17.347 11.652-6.211 0-6.253 5.706 1.619 5.706 12.497 0 22.245-7.414 22.245-17.434 0-12.346-5.016-108.76-5.823-124.204l19.95 3.412c2.659 26.438 12.628 125.93 12.628 131.488 0 6.412-11.135 11.652-17.347 11.652s-6.253 5.706 1.619 5.706c12.496 0 22.243-7.415 22.243-17.435 0-11.396-5.521-102.752-7.188-130.11l20.825 1.446c3.553 28.987 14.29 117.462 14.29 128.664 0 10.02 9.747 17.435 22.244 17.435 7.869 0 7.83-5.706 1.618-5.706-6.213 0-17.347-5.24-17.347-11.652 0-5.412-6.986-99.938-9.166-129.291l21.21-3.063c3.219 21.36 15.296 109.864 15.296 121.658 0 10.02 9.747 17.434 22.243 17.434 7.873 0 7.832-5.706 1.62-5.706z" fill="#010101"/><path d="m204.79 322.814s-56.924 1.895-93.331-36.028c-5.195-5.411-17.436-5.387-23.414-3.407-6.032 1.999-7.922 13.081 3.432 9.903 4.572-1.279 13.31-5.229 17.377-.885 8.816 9.418 28.114 38.417 95.936 45.097" fill="#010101"/><path d="m94.203 284.33c-1.432.096-2.555.725-2.509 1.403.046.681 1.244 1.152 2.675 1.056s2.555-.726 2.509-1.404c-.045-.68-1.243-1.153-2.675-1.055zm8.53.497c-1.135-.237-2.145.007-2.258.544-.113.539.716 1.167 1.85 1.405 1.135.236 2.145-.007 2.258-.545.112-.539-.716-1.166-1.85-1.404zm7.065 2.562c-.946-.439-1.881-.431-2.09.018-.209.45.39 1.168 1.335 1.608.947.438 1.882.43 2.09-.02.21-.449-.389-1.168-1.335-1.606zm3.064 4.468c-.316.383.081 1.229.883 1.895.805.665 1.711.894 2.027.512.316-.383-.081-1.228-.884-1.892-.804-.667-1.71-.895-2.026-.515zm7.55 4.874c-1.169-.787-2.418-.975-2.792-.424-.375.559.271 1.643 1.438 2.431 1.169.787 2.418.977 2.791.421.374-.553-.271-1.638-1.437-2.428zm6.356 4.837c-1.234-.833-2.553-1.03-2.948-.448-.396.586.286 1.733 1.518 2.564 1.235.833 2.553 1.031 2.947.445.396-.584-.285-1.731-1.517-2.561zm7.087 4.427c-1.555-.726-3.091-.713-3.437.021-.345.739.637 1.921 2.189 2.648 1.555.724 3.092.713 3.436-.025.346-.737-.635-1.92-2.188-2.644zm8.063 4.3c-1.592-.641-3.126-.546-3.431.206-.304.758.74 1.885 2.329 2.525 1.593.641 3.126.545 3.43-.21.306-.754-.739-1.883-2.328-2.521zm8.118 4.066c-1.658-.445-3.169-.167-3.382.614-.213.788.958 1.783 2.613 2.229 1.658.445 3.167.169 3.38-.617.213-.782-.958-1.78-2.611-2.226zm9.205 3.239c-1.692-.277-3.168.15-3.302.95-.131.807 1.132 1.679 2.825 1.957 1.692.277 3.168-.148 3.302-.953.131-.802-1.134-1.677-2.825-1.954zm9.353 2.884c-1.694-.276-3.168.151-3.303.951-.132.806 1.133 1.678 2.824 1.955 1.694.278 3.169-.149 3.3-.951.134-.801-1.13-1.677-2.821-1.955zm9.528 2.116c-1.694-.278-3.169.15-3.304.951-.131.806 1.134 1.678 2.824 1.954 1.694.279 3.169-.148 3.301-.95.135-.802-1.13-1.678-2.821-1.955zm9.797 1.512c-1.709-.152-3.148.384-3.224 1.191-.071.813 1.254 1.589 2.96 1.741 1.709.153 3.15-.381 3.222-1.191.076-.809-1.252-1.588-2.958-1.741zm9.65 1.328c-1.716.026-3.092.709-3.083 1.52.015.817 1.412 1.452 3.126 1.423 1.716-.024 3.094-.707 3.081-1.521-.011-.813-1.411-1.451-3.124-1.422z" fill="#c4e5d9"/><path d="m240.937 260.899-1.603-.039c-.604 24.426 21.576 39.416 21.8 39.564l.886-1.337c-.217-.145-21.667-14.637-21.083-38.188zm36.252 6.367-1.565-.349c-3.683 16.468 4.868 22.622 5.234 22.875l.916-1.315c-.328-.232-8.018-5.857-4.585-21.211z" fill="#a8aaad"/><path d="m279.789 285.146-22.74 15.216 18.681 27.914.625.126 22.742-15.217-18.68-27.915z" fill="#a8aaad"/><path d="m264.079 289.917h27.359v33.589h-27.359z" fill="#f2f2f2" transform="matrix(.831 -.5562 .5562 .831 -123.6648 206.3075)"/><path d="m272.058 322.788 18.183-22.022-6.328-9.456-18.185 22.022z" fill="#373636"/><path d="m262.546 302.024c-.573-.856-.398-1.828.423-2.378.971-.65 1.812-.37 2.409.521.6.896.467 1.777-.429 2.377-.828.556-1.74.472-2.403-.52zm1.841-1.193c-.32-.479-.708-.775-1.014-.572-.243.159-.178.618.151 1.11.348.519.754.723 1.008.553.249-.166.184-.599-.145-1.091z" fill="#b7202a"/><path d="m267.135 299.406c-.135-.187-.345-.372-.527-.25-.233.156-.182.483-.009.741.172.258.464.359.72.194.214-.136.294-.316.328-.547l.62.171c-.051.327-.272.769-.7 1.054-.582.391-1.326.377-1.799-.328-.469-.702-.21-1.327.297-1.667.27-.18.526-.14.646-.106l-.06-.235.468-.312.599.896z" fill="#b7202a"/><path d="m267.567 297.819-.244-.364.572-.722.401.599.377-.252.344.516-.376.252.472.705c.09.134.185.336.339.233.052-.035.15-.153.205-.235l.339.507c-.087.127-.337.336-.428.396-.596.398-.833.087-1.185-.413l-.471-.705-.215.144-.345-.516z" fill="#b7202a"/><path d="m269.514 297.941c-.439-.665-.15-1.393.396-1.758.632-.411 1.348-.346 1.803.309.447.652.212 1.355-.39 1.759-.568.379-1.348.397-1.809-.31zm1.385-.905c-.198-.298-.455-.458-.645-.338-.155.104-.119.413.073.703.219.325.488.454.654.343.172-.115.118-.41-.082-.708z" fill="#b7202a"/><path d="m273.193 295.352c-.136-.185-.346-.371-.528-.249-.233.157-.181.483-.009.741s.464.36.721.194c.213-.136.293-.317.328-.547l.619.171c-.051.326-.272.769-.7 1.055-.582.39-1.325.376-1.798-.33-.469-.7-.211-1.327.296-1.667.271-.18.526-.14.647-.105l-.061-.235.468-.312.599.896z" fill="#b7202a"/><path d="m273.605 294.02c.096-.2.312-.615.676-.859.476-.317 1.193-.539 1.62.098l.518.773.237-.159.34.507-.848.567-.215-.114c-.012.3-.223.517-.365.611-.376.252-.917.32-1.224-.139-.3-.448-.112-.981.336-1.281.234-.156.449-.134.486-.123l-.094-.139c-.119-.179-.311-.114-.524.029-.233.156-.373.395-.469.577zm1.866.336c-.024-.013-.144-.071-.31.04-.159.106-.173.241-.09.363.074.112.216.127.334.047.12-.079.171-.217.167-.3z" fill="#b7202a"/><path d="m275.924 292.227-.243-.363.572-.722.4.598.377-.252.345.516-.376.253.472.704c.09.134.185.336.339.233.051-.035.15-.153.204-.235l.34.507c-.087.127-.338.336-.429.396-.595.397-.832.086-1.184-.414l-.472-.704-.214.143-.345-.516z" fill="#b7202a"/><path d="m277.937 319.267.467.697-.559.374-.188-.28-.477.318.367.549.6-.402.28.421-.599.401.268.4.321-.215.281.42-1.174.785-.281-.42.196-.131-.916-1.369-.195.131-.279-.417z" fill="#b7202a"/><path d="m279.537 321.39-.278-.413.14-.093-.505-.754-.135.091-.274-.412.593-.396.229.138c-.02-.207-.023-.391.301-.608l.381.568c-.284.19-.397.37-.212.647l.219.325.157-.105.277.414z" fill="#b7202a"/><path d="m280.266 319.75c-.35-.529-.119-1.108.315-1.398.503-.328 1.073-.275 1.435.245.356.521.17 1.079-.311 1.401-.45.301-1.073.314-1.439-.248zm1.103-.72c-.159-.237-.363-.365-.514-.269-.123.082-.095.328.059.559.174.258.389.362.521.273.136-.09.092-.326-.066-.563z" fill="#b7202a"/><path d="m282.651 319.305-.276-.413.132-.089-.504-.754-.133.089-.273-.41.671-.45.204.146c.008-.22.083-.422.282-.555.489-.327.813-.019 1.035.312l.353.527.148-.1.277.414-.796.531-.576-.861c-.072-.106-.187-.301-.373-.176-.161.107-.093.292-.002.428l.299.448.228-.152.277.413z" fill="#b7202a"/><path d="m283.774 316.27-.194-.291.456-.576.319.479.3-.201.274.411-.3.199.375.562c.072.107.147.268.271.185.042-.027.12-.121.163-.188l.27.405c-.068.101-.269.266-.341.314-.474.316-.662.069-.942-.328l-.375-.562-.171.114-.274-.411z" fill="#afadad"/><path d="m286.177 315.552.28.419-.915.613-.28-.419z" fill="#afadad"/><path d="m287.48 312.88.467.697-.547.365-.188-.28-.504.338.291.436.599-.401.281.419-.599.401.344.515.505-.338-.196-.294.546-.365.478.714-1.902 1.273-.281-.42.198-.133-.916-1.369-.199.133-.278-.417z" fill="#afadad"/><path d="m289.112 314.981-.277-.413.133-.089-.504-.754-.134.089-.274-.41.673-.451.204.147c.008-.22.082-.422.281-.555.489-.327.814-.019 1.036.312l.353.527.147-.1.277.413-.795.532-.577-.861c-.071-.106-.187-.3-.373-.176-.16.107-.093.292-.002.428l.3.448.227-.152.277.413z" fill="#afadad"/><path d="m290.779 311.032-.274-.41.786-.525 1.31 1.956.15-.102.276.411-.739.493-.132-.08c-.016.065-.082.265-.301.411-.444.298-.995.096-1.289-.343-.329-.493-.195-1.035.193-1.295.224-.15.393-.145.479-.146l-.314-.467zm.952 1.592c.123-.082.133-.312-.046-.553-.144-.214-.361-.306-.481-.226-.133.088-.12.303.04.543.127.19.349.33.487.236z" fill="#afadad"/><path d="m267.446 302.998c-.028-.017-.052-.042-.075-.076l-.261-.391-.118.078-.059-.09.116-.078-.103-.153.074-.106.129.192.193-.129.061.09-.193.129.251.376c.014.021.026.033.042.043.027.014.059.008.097-.018.037-.025.071-.074.093-.117l.051.105c-.02.04-.052.088-.109.126-.068.045-.131.05-.189.019z" fill="#373636"/><path d="m267.204 301.812-.061-.089.203-.136.379.566c.015-.11.06-.222.149-.282.074-.05.145-.06.205-.038.053.018.1.059.139.116l.227.34.103-.067.06.089-.303.202-.06-.089.099-.066-.214-.319c-.03-.046-.061-.07-.094-.08-.039-.013-.082-.004-.124.025-.078.053-.119.149-.133.249l.232.348.099-.066.059.089-.301.202-.06-.089.101-.067-.604-.903z" fill="#373636"/><path d="m268.605 301.898c.108.13.245.137.381.045.084-.056.13-.126.176-.219l.058.106c-.038.083-.106.159-.186.212-.201.135-.425.091-.553-.1-.118-.177-.104-.408.089-.537.188-.125.383-.052.486.105.017.023.028.044.034.062zm-.052-.082.386-.258c-.081-.106-.196-.14-.315-.06-.098.065-.136.189-.071.318z" fill="#373636"/><path d="m269.535 301.234c-.118-.178-.09-.414.105-.544.195-.131.423-.068.543.11.119.179.09.413-.105.544-.197.132-.422.071-.543-.11zm.541-.362c-.093-.139-.248-.179-.376-.093-.129.086-.151.245-.059.384.095.141.248.178.376.092.129-.086.154-.242.059-.383z" fill="#373636"/><path d="m270.373 300.387c.012-.109.061-.228.15-.287.082-.055.157-.06.222-.031.045.023.084.061.119.112l.227.339.102-.067.06.089-.303.202-.059-.089.099-.066-.213-.318c-.023-.034-.046-.06-.073-.073-.043-.025-.09-.02-.142.015-.078.052-.118.149-.133.249l.232.348.099-.066.06.089-.302.202-.059-.089.101-.067-.302-.45-.101.066-.061-.09.198-.133z" fill="#373636"/><path d="m271.252 300.129c.107.128.245.135.381.044.084-.057.13-.126.175-.218l.058.105c-.038.083-.105.158-.186.212-.201.135-.424.092-.554-.101-.117-.175-.102-.407.09-.535.188-.127.382-.053.487.104.016.024.027.044.033.063zm-.054-.083.387-.258c-.083-.105-.197-.141-.317-.06-.096.064-.135.188-.07.318z" fill="#373636"/><path d="m272.28 299.608c-.077-.114-.026-.259.114-.353.068-.046.162-.083.202-.092l-.059-.086c-.023-.037-.054-.061-.087-.071-.05-.013-.107-.001-.171.042-.051.033-.068.064-.08.092.011.007.024.019.034.031.023.037.017.083-.024.109-.038.026-.084.014-.11-.024-.048-.072-.015-.202.137-.304.093-.062.18-.079.252-.061.056.014.102.05.138.104l.229.343.102-.068.06.089-.196.133-.053-.08c-.019.085-.072.182-.158.238-.122.081-.257.068-.33-.042zm.432-.272-.071-.105c-.057.019-.126.047-.187.088-.101.067-.119.148-.075.214.04.062.116.074.202.017.075-.051.114-.134.131-.214z" fill="#373636"/><path d="m272.968 298.65c.013-.109.062-.228.151-.287.081-.055.156-.061.221-.031.044.022.085.06.12.111l.227.34.101-.067.06.089-.302.202-.06-.089.1-.067-.213-.318c-.023-.034-.046-.06-.073-.072-.043-.026-.091-.021-.143.014-.077.053-.117.15-.132.25l.232.348.099-.066.06.089-.302.202-.06-.089.101-.068-.301-.45-.102.067-.061-.09.198-.133z" fill="#373636"/><path d="m273.728 298.435c-.118-.179-.099-.414.091-.54.079-.053.166-.068.246-.055l-.286-.427-.118.078-.06-.089.22-.147.665.993.103-.067.06.089-.201.135-.06-.089c-.015.095-.051.18-.145.242-.167.111-.387.068-.515-.123zm.6-.201-.206-.309c-.075-.009-.155-.002-.238.054-.124.083-.143.244-.05.383.092.142.244.176.363.096.081-.055.116-.137.131-.224z" fill="#373636"/><path d="m274.872 297.663c-.119-.178-.09-.414.105-.544.194-.131.423-.068.542.11s.091.413-.104.544c-.197.131-.423.071-.543-.11zm.541-.362c-.094-.14-.247-.18-.377-.094-.128.086-.151.245-.058.385.095.14.247.178.377.092.128-.086.152-.244.058-.383z" fill="#373636"/><path d="m275.71 296.815c.013-.109.061-.228.151-.287.08-.055.155-.06.221-.031.044.023.084.06.119.111l.228.34.101-.067.059.089-.301.202-.06-.089.099-.066-.214-.318c-.022-.034-.046-.06-.072-.073-.043-.026-.09-.021-.142.014-.078.053-.118.15-.133.25l.232.348.1-.066.059.089-.301.202-.06-.089.101-.067-.303-.451-.1.067-.061-.09.198-.133z" fill="#373636"/><path d="m276.602 296.832.106-.07-.604-.904-.106.07-.061-.089.209-.14.665.993.105-.07.06.089-.314.21z" fill="#373636"/><path d="m277.365 296.878c-.06.039-.132.038-.165-.01-.027-.04-.015-.083.021-.106.035-.024.075-.013.104.01.018-.024.027-.061.027-.122 0-.031-.006-.072-.013-.119l-.014-.104-.574-.347-.086.059-.062-.09.295-.197.059.087-.099.067s.449.285.447.286l-.09-.526-.104.069-.06-.087.29-.194.061.091-.086.057.131.839c.006.044.01.085.009.124-.001.098-.027.171-.091.213z" fill="#373636"/><path d="m279.29 323.763c-.032-.049-.081-.132-.103-.186l-.004.001c.035.143-.014.283-.134.364-.183.122-.359.05-.504-.167-.18-.268-.124-.505.099-.653.049-.033.098-.063.16-.095l-.231-.347.078-.052.722 1.079zm-.437-.663c-.065.023-.123.055-.176.091-.17.113-.212.286-.053.523.119.18.257.249.393.158.167-.112.112-.358.023-.491z" fill="#cdcccc"/><path d="m280.146 322.603-.507.339c.156.255.318.292.494.174.072-.049.137-.112.179-.181l.063.056c-.05.073-.122.146-.214.207-.212.143-.406.099-.578-.157-.146-.22-.139-.46.058-.593.198-.132.369-.049.473.105.005.009.015.024.032.05zm-.47-.091c-.114.076-.142.214-.073.361l.415-.277c-.082-.131-.217-.167-.342-.084z" fill="#cdcccc"/><path d="m280.995 322.641c-.057.037-.125.073-.178.091l-.039-.089c.059-.014.131-.047.187-.085.116-.076.164-.187.104-.275-.134-.2-.434.184-.611-.082-.08-.119-.042-.271.136-.39.047-.031.109-.063.161-.082l.034.077c-.056.016-.115.042-.167.076-.121.082-.146.174-.092.255.136.201.437-.18.609.078.084.124.044.3-.144.426z" fill="#cdcccc"/><path d="m281.183 321.171c-.033.021-.077.014-.1-.021-.021-.032-.013-.076.02-.099.033-.021.076-.014.099.02.022.033.013.077-.019.1zm.572.942-.491-.734.078-.053.492.735z" fill="#cdcccc"/><path d="m282.846 321.939c-.182.122-.357.123-.451-.017-.063-.095-.051-.207-.007-.299-.059.014-.114-.01-.146-.057-.031-.048-.031-.109-.001-.168-.096.005-.18-.036-.246-.134-.097-.145-.07-.346.119-.472.033-.023.058-.033.097-.049l.249-.167.042.062-.144.096c.076.005.149.047.199.122.099.146.082.336-.123.474-.038.026-.071.041-.109.051-.028.045-.029.088-.01.119.032.047.09.033.185-.025l.158-.098c.164-.102.301-.078.383.046.104.155.022.371-.195.516zm-.696-1.079c-.134.09-.153.229-.077.341.082.124.203.146.333.059.127-.086.159-.211.076-.335-.082-.123-.205-.15-.332-.065zm.536.608-.162.1c-.017.012-.037.025-.053.032-.041.097-.049.188-.002.258.071.105.215.097.348.008.177-.119.223-.267.149-.375-.06-.09-.154-.101-.28-.023z" fill="#cdcccc"/><path d="m283.876 320.694-.319-.478c-.087-.13-.173-.182-.296-.1-.146.098-.153.305-.024.498l.234.351-.077.052-.492-.735.08-.053c.038.055.083.133.106.186h.004c-.036-.143.01-.282.142-.37.17-.114.292-.046.38.087l.342.511z" fill="#cdcccc"/><path d="m285.283 319.765c-.147.099-.352.148-.546-.142-.164-.244-.147-.482.071-.629.077-.052.155-.085.224-.099l.023.078c-.064.014-.149.045-.222.093-.154.104-.15.298-.027.482.109.163.251.271.449.138.072-.049.131-.108.17-.173l.061.052c-.046.073-.121.146-.203.2z" fill="#cdcccc"/><path d="m286.16 319.184c-.191.129-.396.088-.568-.169-.135-.202-.134-.46.086-.607.166-.109.378-.12.562.156.144.212.136.475-.08.62zm-.45-.705c-.127.085-.185.262-.041.477.136.202.307.257.464.151.126-.084.18-.258.029-.483-.129-.193-.291-.254-.452-.145z" fill="#cdcccc"/><path d="m287.432 318.315-.32-.479c-.087-.13-.173-.182-.295-.099-.146.097-.154.305-.025.498l.234.35-.077.053-.492-.734.081-.055c.037.056.083.133.105.186h.004c-.036-.143.01-.282.142-.37.171-.113.292-.044.38.088l.342.51z" fill="#cdcccc"/><path d="m287.786 316.623c-.047.017-.094.038-.136.066-.125.084-.129.196-.023.355l.035.052.235-.156.042.061-.235.158.449.673-.078.052-.45-.672-.174.116-.042-.062.174-.117-.031-.049c-.14-.206-.098-.372.068-.482.043-.028.085-.05.13-.067z" fill="#cdcccc"/><path d="m288.996 316.68-.506.339c.156.255.317.291.494.174.071-.049.136-.112.178-.181l.062.056c-.049.073-.12.146-.212.207-.212.143-.407.098-.579-.158-.146-.219-.139-.459.059-.592.197-.132.369-.049.473.105.006.009.015.024.031.05zm-.471-.091c-.113.076-.141.214-.071.361l.415-.277c-.083-.131-.217-.167-.344-.084z" fill="#cdcccc"/><path d="m289.616 315.886c-.191.089-.179.282-.002.547l.194.291-.078.053-.492-.734.082-.055c.036.054.082.135.114.213l.004-.001c-.049-.131-.05-.302.129-.393z" fill="#cdcccc"/><path d="m290.704 315.536-.505.339c.154.256.316.292.492.174.073-.049.137-.112.179-.181l.063.056c-.05.074-.121.146-.212.208-.214.143-.408.099-.58-.158-.146-.22-.138-.46.059-.592.198-.133.37-.049.473.104.006.009.015.025.031.05zm-.47-.091c-.114.077-.142.215-.072.362l.416-.277c-.084-.132-.219-.168-.344-.085z" fill="#cdcccc"/><path d="m291.922 315.31-.319-.478c-.087-.13-.172-.182-.296-.1-.146.098-.154.305-.023.498l.234.35-.079.053-.491-.734.081-.055c.037.056.083.133.106.187l.004-.001c-.036-.143.01-.282.141-.37.17-.114.293-.044.381.088l.34.51z" fill="#cdcccc"/><path d="m292.772 314.753c-.148.1-.353.149-.547-.141-.164-.245-.147-.483.071-.63.076-.051.155-.085.223-.098l.025.078c-.066.014-.15.045-.222.093-.154.104-.15.298-.027.482.109.162.25.271.448.138.072-.049.131-.108.17-.174l.061.052c-.045.074-.121.146-.202.2z" fill="#cdcccc"/><path d="m293.667 313.554-.505.338c.155.256.316.292.492.175.073-.049.137-.112.179-.182l.063.057c-.049.073-.121.146-.212.207-.214.143-.408.099-.579-.158-.146-.219-.139-.46.058-.591.198-.133.37-.05.473.104.006.008.015.023.031.05zm-.47-.091c-.114.077-.141.214-.072.362l.416-.278c-.084-.131-.219-.168-.344-.084z" fill="#cdcccc"/><path d="m270.688 315.545.152-.186-.99-1.291-.174.209-.162-.209.457-.557c.121-.147.236-.247.356-.297.166-.071.348-.05.488.065.22.182.229.486.08.733.183-.127.42-.143.583-.009.136.113.205.256.209.416.003.132-.039.278-.123.426-.042.08-.102.164-.169.246l-.547.664zm-.119-1.327c.228-.276.265-.532.08-.685-.077-.063-.182-.083-.282-.029-.067.035-.144.098-.228.198l-.111.136.411.538zm.658.682c.051-.062.09-.125.12-.181.05-.096.068-.179.061-.26-.009-.09-.052-.168-.132-.233-.146-.119-.355-.064-.545.165l-.143.172.44.579z" fill="#fff"/><path d="m271.849 313.596.038.03c.16.132.372.091.531-.103.093-.112.154-.237.191-.43l.168.209c-.036.156-.092.264-.216.414-.209.255-.563.357-.854.117-.359-.297-.433-.804-.172-1.12.213-.259.502-.307.751-.102.066.055.13.128.189.222zm-.13-.158.455-.553c-.021-.034-.05-.066-.079-.091-.11-.091-.254-.085-.38.068s-.118.38.004.576z" fill="#fff"/><path d="m272.945 312.805c-.033-.027-.066-.067-.1-.106l-1.062-1.389-.164.2-.146-.198.338-.409 1.209 1.575c.034.045.068.085.093.105.052.042.098.042.132 0 .041-.049.041-.123-.053-.287l.111-.065c.16.239.146.401.04.529-.117.146-.268.151-.398.045z" fill="#fff"/><path d="m273.25 311.919c-.325-.268-.423-.774-.136-1.123.253-.306.614-.297.868-.089.323.267.422.774.135 1.122-.253.307-.614.298-.867.09zm.552-.996c-.185-.15-.387-.119-.513.034-.171.207-.109.539.139.745.187.152.391.121.517-.031.17-.208.105-.543-.143-.748z" fill="#fff"/><path d="m273.945 310.198-.151.186-.145-.197.269-.326.949.574c-.05-.358-.146-.67-.273-.847-.064.039-.152.05-.227-.012-.082-.067-.094-.187-.025-.271.077-.094.206-.104.324-.006.224.186.389.71.448 1.338l-.116.142z" fill="#fff"/><path d="m275.395 309.289.038.032c.159.131.372.091.531-.103.093-.113.153-.237.19-.43l.169.208c-.036.156-.092.265-.216.415-.21.254-.564.356-.855.116-.36-.296-.432-.804-.172-1.119.214-.259.503-.307.751-.103.067.056.131.128.189.222zm-.131-.156.456-.554c-.022-.034-.05-.065-.08-.091-.109-.091-.253-.084-.379.069-.127.154-.118.38.003.576z" fill="#fff"/><path d="m276.046 307.237c.13-.158.347-.186.508-.12l-.636-.827-.163.198-.147-.195.338-.41 1.208 1.584c.038.048.069.086.094.106.048.038.092.041.127-.001.034-.042.035-.119-.058-.283l.113-.068c.159.239.138.412.042.528-.105.128-.258.136-.388.028l-.01-.008c.056.194.051.406-.081.567-.176.212-.472.229-.729.018-.368-.302-.469-.814-.218-1.117zm.681.098c-.159-.132-.335-.131-.467.029-.17.208-.074.549.166.744.152.128.331.137.452-.011.175-.212.086-.567-.151-.762z" fill="#fff"/><path d="m278.002 306.662.155-.188-.944-1.349-.174.212-.164-.209.325-.396 1.259.565-.424-1.58.34-.412.162.212-.154.188 1.035 1.238.177-.215.164.209-.517.627-.164-.209.159-.192-.85-1.026.392 1.507-.029.034-1.2-.524.788 1.102.181-.22.162.211-.515.625z" fill="#fff"/><path d="m279.591 304.315c-.363-.3-.472-.812-.217-1.12.132-.16.348-.186.514-.111l-.181-.264.167-.203.604.812c.033.049.066.089.092.109.047.038.093.039.127-.003.032-.04.036-.12-.06-.28l.114-.069c.159.239.14.409.042.528-.104.126-.256.134-.384.027l-.012-.01c.05.194.049.41-.083.569-.173.215-.463.229-.723.015zm.456-1.016c-.158-.131-.326-.136-.461.026-.171.208-.075.548.166.744.155.13.326.142.448-.007.18-.216.078-.572-.153-.763z" fill="#fff"/><path d="m281.055 303.127c-.076.007-.146-.006-.197-.05-.078-.064-.093-.168-.033-.239.057-.069.152-.073.217-.021.024.021.043.053.049.081.017-.002.035-.008.059-.017.065-.029.142-.087.205-.163.091-.111.124-.242.038-.312-.09-.074-.221-.004-.37.071-.189.094-.381.176-.552.035-.17-.14-.198-.407.02-.672.12-.146.269-.229.397-.24.071-.007.14.012.188.052.081.066.089.169.034.235-.056.066-.154.076-.219.023-.021-.018-.035-.037-.05-.079-.012.004-.027.008-.051.021-.045.025-.099.068-.144.123-.089.109-.115.231-.038.295.081.067.215 0 .373-.077.188-.091.383-.166.547-.03.211.173.187.439-.021.69-.134.165-.306.262-.452.274z" fill="#fff"/><path d="m281.57 301.814c-.338-.278-.399-.802-.121-1.14.193-.235.464-.272.62-.144.091.074.12.194.048.284-.056.066-.156.083-.234.018-.033-.026-.058-.076-.057-.121-.069.001-.135.042-.198.118-.159.192-.161.534.109.758.186.152.405.126.554-.054.103-.123.157-.29.162-.469l.192.169c-.01.164-.073.328-.19.469-.231.282-.588.357-.885.112z" fill="#fff"/><path d="m282.536 300.643c-.325-.268-.423-.773-.136-1.122.252-.306.614-.299.868-.089.323.266.421.773.134 1.121-.252.306-.614.298-.866.09zm.551-.997c-.184-.149-.387-.118-.512.035-.171.206-.11.539.14.744.186.153.39.121.515-.031.17-.206.106-.541-.143-.748z" fill="#fff"/><path d="m283.506 298.59.435.585c.027.04.059.074.081.092.06.049.12.042.16-.008.047-.058.065-.13.081-.29l.167.009c.007.238-.051.384-.137.488-.107.13-.268.174-.418.049-.037-.029-.073-.071-.113-.122l-.435-.586-.159.192-.148-.192.161-.195-.191-.261.114-.304.256.348.27-.326.143.198z" fill="#fff"/><path d="m278.297 311.103c-.005.17-.064.356-.19.51-.229.278-.599.323-.91.066-.402-.331-.522-.957-.18-1.373.128-.155.3-.248.432-.265.069-.009.144-.002.205.048.071.06.072.143.032.192-.045.055-.104.061-.15.023-.033-.028-.049-.079-.037-.136-.021-.002-.047-.001-.074.005-.093.023-.211.091-.315.218-.312.38-.144.907.178 1.172.238.196.534.205.741-.047.123-.15.187-.334.186-.522l-.224-.297-.297.362-.074-.1.383-.466.474.624-.084.103z" fill="#fff"/><path d="m277.883 309.693c-.045-.037-.054-.104-.017-.149.035-.044.104-.048.148-.012.046.038.054.105.019.148-.038.047-.104.051-.15.013zm.785.94c-.021-.018-.052-.056-.071-.086l-.384-.551-.131.159-.069-.094.213-.26.46.657c.02.03.05.062.063.075.038.031.084.027.111-.007.034-.041.023-.104-.034-.213l.066-.043c.082.131.101.241.029.327-.068.087-.173.101-.253.036z" fill="#fff"/><path d="m278.72 309.38.406.544c.02.025.038.047.061.065.025.022.076.026.113-.018.035-.043.049-.118.062-.238l.093.007c-.008.148-.024.25-.085.324-.073.089-.18.103-.255.04-.023-.02-.047-.048-.074-.082l-.4-.544-.116.14-.067-.095.113-.138-.155-.21.057-.131.179.242.203-.245.068.095z" fill="#fff"/><path d="m279.568 309.598.13-.157-.854-1.113-.146.176-.075-.101.362-.441.077.101-.13.157.373.486.598-.725-.375-.484-.146.176-.076-.1.363-.441.076.101-.129.157.854 1.113.146-.176.075.101-.362.44-.077-.101.131-.156-.401-.527-.597.725.401.524.146-.176.076.102-.363.44z" fill="#fff"/><path d="m280.357 307.213.404.56c.021.03.051.063.085.093.064.052.155.042.223-.04.097-.117.096-.373-.079-.609l-.301-.405.081-.099.473.64c.024.033.05.063.064.076.038.031.083.026.111-.007.034-.042.023-.105-.035-.212l.067-.045c.081.131.101.241.028.328-.066.082-.162.095-.247.026-.018-.016-.038-.037-.06-.065.06.165.069.336-.031.458-.104.126-.256.152-.373.057-.04-.033-.069-.073-.095-.105l-.329-.456-.124.151-.069-.095z" fill="#fff"/><path d="m280.672 305.804-.124.151-.069-.092.205-.25.6.787c-.037-.14-.037-.299.065-.423.143-.173.384-.199.589-.031.278.229.32.61.141.828-.115.14-.281.175-.425.104l.148.199-.08.099zm1.188.258c-.156-.129-.323-.131-.436.006-.155.188-.054.524.132.676.138.114.31.106.431-.041.155-.187.072-.479-.127-.641z" fill="#fff"/><path d="m244.057 279.057c-.253.047-.509.094-.752.14 4.688 10.035 12.286 16.913 15.856 19.753l.692-.464c-3.403-2.65-11.085-9.393-15.796-19.429zm31.703-.886c-.282-.045-.563-.088-.847-.13.478 3.773 1.714 6.517 2.939 8.399l.687-.457c-1.137-1.757-2.291-4.316-2.779-7.812z" fill="#f2f2f2"/><path d="m275.73 328.276-18.681-27.914 22.74-15.216z" fill="#f2f2f2" opacity=".1"/><path d="m137.001 264.288s.978-8.845-25.293.221l1.265 5.603 10.653 2.811c-.001 0 13.84-2.202 13.375-8.635z" fill="#fee7ad"/><path d="m109.436 254.309c-16.179 2.683-28.973 6.808-28.573 9.211l22.576 83.078c.282 1.7 9.794 1.54 21.245-.359 11.451-1.898 20.515-4.817 20.233-6.519l-5.46-85.917c-.4-2.404-13.841-2.178-30.021.506z" fill="#69aee0" opacity=".1"/><path d="m136.428 256.384 5.841 80.61c.253 1.525-7.875 4.144-18.149 5.848s-18.807 1.848-19.06.322l-20.5-78.179c-2.243-.249-3.577-.735-3.697-1.466l22.576 83.078c.282 1.7 9.794 1.54 21.245-.359 11.451-1.898 20.515-4.817 20.233-6.519l-5.46-85.917c.119.73-.986 1.621-3.029 2.582z" fill="#69aee0" opacity=".1"/><path d="m105.06 343.164c.253 1.525 8.787 1.382 19.06-.322s18.402-4.322 18.149-5.848l-5.268-72.706c-1.866 6.955-24.185 1.424-30.159-1.7-11.649-6.093-24.692-4.074-22.282 2.397z" fill="#edd8a2"/><path d="m138.225 305.427c-.387 0-.702.315-.702.702 0 .388.315.701.702.701.388 0 .703-.313.703-.701 0-.387-.315-.702-.703-.702zm-.156.749c-.138 0-.251-.112-.251-.254 0-.139.114-.251.251-.251.139 0 .25.112.25.251.001.141-.111.254-.25.254z" fill="#010101" opacity=".1"/><path d="m134.696 308.979c-.307 0-.557.249-.557.559 0 .307.25.556.557.556.309 0 .557-.249.557-.556 0-.309-.248-.559-.557-.559zm-.123.592c-.109 0-.199-.088-.199-.197s.089-.198.199-.198.199.089.199.198-.089.197-.199.197z" fill="#010101" opacity=".1"/><path d="m107.089 304.67c-.392 0-.708.316-.708.708 0 .391.317.706.708.706.392 0 .708-.315.708-.706.001-.392-.316-.708-.708-.708zm-.157.753c-.14 0-.253-.113-.253-.254 0-.139.113-.251.253-.251s.253.112.253.251c0 .141-.113.254-.253.254z" fill="#010101" opacity=".1"/><path d="m100.412 271.86c-.589 0-1.064.477-1.064 1.063s.475 1.062 1.064 1.062c.587 0 1.062-.475 1.062-1.062s-.475-1.063-1.062-1.063zm-.237 1.131c-.21 0-.38-.168-.38-.381 0-.208.17-.378.38-.378s.379.17.379.378c0 .213-.169.381-.379.381z" fill="#010101" opacity=".1"/><path d="m86.146 258.706c-.588 0-1.064.476-1.064 1.063s.476 1.062 1.064 1.062c.587 0 1.062-.474 1.062-1.062 0-.587-.475-1.063-1.062-1.063zm-.236 1.13c-.21 0-.38-.167-.38-.38 0-.208.17-.379.38-.379.209 0 .379.17.379.379 0 .213-.17.38-.379.38z" fill="#010101" opacity=".1"/><path d="m95.873 277.377c-.668 0-1.209.54-1.209 1.209 0 .67.541 1.209 1.209 1.209.667 0 1.21-.539 1.21-1.209 0-.669-.543-1.209-1.21-1.209zm-.268 1.287c-.239 0-.432-.192-.432-.432 0-.238.193-.435.432-.435.238 0 .431.196.431.435 0 .24-.193.432-.431.432z" fill="#010101" opacity=".1"/><path d="m130.123 299.276c-.694 0-1.256.56-1.256 1.256 0 .693.562 1.257 1.256 1.257.693 0 1.254-.563 1.254-1.257 0-.696-.561-1.256-1.254-1.256zm-.279 1.339c-.25 0-.449-.202-.449-.45 0-.246.199-.45.449-.45.247 0 .448.204.448.45 0 .248-.201.45-.448.45z" fill="#010101" opacity=".1"/><path d="m111.544 308.122c-.475 0-.859.382-.859.857s.384.86.859.86.859-.386.859-.86c0-.475-.384-.857-.859-.857zm-.19.914c-.17 0-.308-.136-.308-.308 0-.17.138-.308.308-.308.169 0 .305.138.305.308 0 .172-.136.308-.305.308z" fill="#010101" opacity=".1"/><path d="m130.252 278.628c-.475 0-.859.382-.859.857s.384.86.859.86.859-.386.859-.86c0-.475-.383-.857-.859-.857zm-.19.915c-.17 0-.309-.137-.309-.308s.138-.309.309-.309c.169 0 .305.138.305.309s-.136.308-.305.308z" fill="#010101" opacity=".1"/><path d="m121.027 307.469c-.509 0-.922.412-.922.922s.413.924.922.924.922-.414.922-.924-.413-.922-.922-.922zm-.205.981c-.183 0-.331-.147-.331-.33 0-.18.147-.329.331-.329.182 0 .329.149.329.329 0 .183-.147.33-.329.33z" fill="#010101" opacity=".1"/><path d="m125.605 308.996c-.379 0-.688.308-.688.688s.308.687.688.687c.381 0 .688-.307.688-.687-.001-.38-.307-.688-.688-.688zm-.152.732c-.137 0-.247-.109-.247-.244 0-.136.109-.246.247-.246.135 0 .244.11.244.246 0 .134-.109.244-.244.244z" fill="#010101" opacity=".1"/><path d="m108.878 285.796c-.5 0-.905.405-.905.907 0 .499.405.904.905.904s.904-.405.904-.904c0-.502-.404-.907-.904-.907zm-.201.966c-.178 0-.322-.146-.322-.324 0-.179.144-.324.322-.324.179 0 .323.146.323.324 0 .177-.145.324-.323.324z" fill="#010101" opacity=".1"/><path d="m100.41 298.497c-.806 0-1.459.652-1.459 1.462 0 .807.653 1.458 1.459 1.458.807 0 1.46-.651 1.46-1.458 0-.81-.654-1.462-1.46-1.462zm-.324 1.555c-.288 0-.521-.232-.521-.521 0-.288.234-.521.521-.521s.521.233.521.521-.234.521-.521.521z" fill="#010101" opacity=".1"/><path d="m129.75 309.68c-.276 0-.5.224-.5.502 0 .277.224.502.5.502.278 0 .501-.225.501-.502 0-.279-.223-.502-.501-.502zm-.11.534c-.099 0-.179-.082-.179-.18 0-.1.08-.18.179-.18s.179.08.179.18c-.001.098-.081.18-.179.18z" fill="#010101" opacity=".1"/><path d="m134.499 313.006c-.344 0-.62.277-.62.62 0 .345.276.622.62.622s.62-.277.62-.622c0-.343-.276-.62-.62-.62zm-.138.659c-.122 0-.221-.097-.221-.221 0-.122.099-.222.221-.222.124 0 .223.1.223.222-.001.124-.099.221-.223.221z" fill="#010101" opacity=".1"/><path d="m135.118 314.817c-.278 0-.504.225-.504.504 0 .277.226.504.504.504.279 0 .506-.227.506-.504 0-.279-.227-.504-.506-.504zm-.112.536c-.099 0-.18-.079-.18-.18s.082-.18.18-.18c.1 0 .182.079.182.18s-.082.18-.182.18z" fill="#010101" opacity=".1"/><path d="m124.506 303.284c-.395 0-.714.32-.714.716 0 .394.319.714.714.714.396 0 .715-.32.715-.714 0-.396-.319-.716-.715-.716zm-.158.761c-.142 0-.256-.114-.256-.256 0-.141.114-.254.256-.254s.256.113.256.254c0 .142-.115.256-.256.256z" fill="#010101" opacity=".1"/><path d="m102.74 288.837c-1.288 0-2.33 1.039-2.33 2.33 0 1.286 1.042 2.327 2.33 2.327s2.33-1.041 2.33-2.327c0-1.291-1.042-2.33-2.33-2.33zm-.517 2.478c-.459 0-.833-.37-.833-.832 0-.46.374-.832.833-.832.46 0 .833.372.833.832-.001.462-.373.832-.833.832z" fill="#010101" opacity=".1"/><path d="m106.24 265.184c-1.287 0-2.33 1.041-2.33 2.33 0 1.287 1.042 2.328 2.33 2.328s2.33-1.041 2.33-2.328c0-1.289-1.043-2.33-2.33-2.33zm-.517 2.478c-.46 0-.833-.37-.833-.832 0-.46.373-.833.833-.833s.833.373.833.833c-.001.462-.373.832-.833.832z" fill="#010101" opacity=".1"/><path d="m118.3 310.103c-.606 0-1.097.49-1.097 1.096 0 .607.491 1.097 1.097 1.097s1.097-.489 1.097-1.097c0-.606-.49-1.096-1.097-1.096zm-.243 1.166c-.216 0-.391-.176-.391-.391 0-.216.175-.391.391-.391.217 0 .392.175.392.391 0 .215-.176.391-.392.391z" fill="#010101" opacity=".1"/><path d="m119.611 303.179c-.352 0-.636.283-.636.638 0 .351.285.636.636.636s.637-.285.637-.636c.001-.355-.285-.638-.637-.638zm-.141.679c-.125 0-.227-.104-.227-.229 0-.124.102-.227.227-.227s.228.103.228.227c-.001.126-.103.229-.228.229z" fill="#010101" opacity=".1"/><path d="m104.914 314.329c-.451 0-.814.364-.814.816 0 .45.364.814.814.814.451 0 .816-.364.816-.814 0-.452-.365-.816-.816-.816zm-.18.869c-.162 0-.293-.129-.293-.291s.131-.292.293-.292c.16 0 .291.13.291.292s-.131.291-.291.291z" fill="#010101" opacity=".1"/><path d="m105.518 310.204c-.399 0-.723.324-.723.723s.324.722.723.722.722-.322.722-.722c0-.399-.323-.723-.722-.723zm-.161.768c-.143 0-.258-.113-.258-.258 0-.143.116-.259.258-.259s.257.116.257.259c0 .144-.114.258-.257.258z" fill="#010101" opacity=".1"/><path d="m102.22 276.715c-1.167 0-2.112.942-2.112 2.109s.944 2.11 2.112 2.11c1.165 0 2.109-.943 2.109-2.11s-.944-2.109-2.109-2.109zm-.47 2.246c-.417 0-.754-.336-.754-.756 0-.417.337-.752.754-.752s.754.335.754.752c0 .42-.337.756-.754.756z" fill="#010101" opacity=".1"/><path d="m141.018 319.723-.867-11.953c-10.031-5.091-19.953-11.882-28.692-20.983-4.857-5.06-15.872-5.366-22.17-3.767l2.655 10.123c4.676-1.394 12.974-4.95 16.91-.745 5.008 5.35 13.414 17.019 32.164 27.325z" fill="#010101" opacity=".1"/><path d="m126.768 301.568c-1.234-.833-2.553-1.03-2.948-.448-.396.586.286 1.733 1.518 2.564 1.235.833 2.553 1.031 2.947.445.396-.584-.285-1.731-1.517-2.561zm-13.906-9.711c-.316.383.081 1.229.883 1.895.805.665 1.711.894 2.027.512.316-.383-.081-1.228-.884-1.892-.804-.667-1.71-.895-2.026-.515zm7.55 4.874c-1.169-.787-2.418-.975-2.792-.424-.375.559.271 1.643 1.438 2.431 1.169.787 2.418.977 2.791.421.374-.553-.271-1.638-1.437-2.428zm-10.614-9.342c-.946-.439-1.881-.431-2.09.018-.209.45.39 1.168 1.335 1.608.947.438 1.882.43 2.09-.02.21-.449-.389-1.168-1.335-1.606zm-7.065-2.562c-1.135-.237-2.145.007-2.258.544-.113.539.716 1.167 1.85 1.405 1.135.236 2.145-.007 2.258-.545.112-.539-.716-1.166-1.85-1.404zm-8.53-.497c-1.432.096-2.555.725-2.509 1.403.046.681 1.244 1.152 2.675 1.056s2.555-.726 2.509-1.404c-.045-.68-1.243-1.153-2.675-1.055zm46.103 25.562c-.908-.082-1.622.125-1.818.609-.285.709.618 1.737 2.034 2.392zm-6.451-3.897c-1.555-.726-3.091-.713-3.437.021-.345.739.637 1.921 2.189 2.648 1.555.724 3.092.713 3.436-.025.346-.737-.635-1.92-2.188-2.644z" fill="#edd8a2"/><g fill="#010101"><path d="m116.838 291.194c-.335 0-.606.274-.606.61 0 .334.271.604.606.604s.606-.271.606-.604c0-.335-.271-.61-.606-.61zm-.135.65c-.119 0-.215-.099-.215-.219s.096-.214.215-.214c.12 0 .216.094.216.214s-.097.219-.216.219z" opacity=".1"/><path d="m104.099 272.923c-.226 0-.408.183-.408.406 0 .228.182.409.408.409.225 0 .408-.182.408-.409 0-.224-.183-.406-.408-.406zm-.091.434c-.081 0-.146-.066-.146-.145 0-.083.065-.146.146-.146.08 0 .146.063.146.146 0 .079-.066.145-.146.145z" opacity=".1"/><path d="m135.208 291.165c-.427 0-.772.347-.772.773s.346.773.772.773.772-.347.772-.773-.345-.773-.772-.773zm-.171.825c-.153 0-.276-.124-.276-.277 0-.152.123-.275.276-.275.151 0 .276.123.276.275 0 .153-.125.277-.276.277z" opacity=".1"/><path d="m111.805 271.743c-.38 0-.688.31-.688.687 0 .381.307.69.688.69.38 0 .687-.31.687-.69-.001-.377-.307-.687-.687-.687zm-.153.733c-.137 0-.246-.109-.246-.245 0-.137.109-.243.246-.243.135 0 .246.106.246.243 0 .135-.11.245-.246.245z" opacity=".1"/><path d="m125.981 295.199c-.349 0-.632.282-.632.632 0 .349.283.63.632.63.348 0 .629-.281.629-.63 0-.35-.281-.632-.629-.632zm-.14.672c-.126 0-.226-.099-.226-.225s.099-.227.226-.227c.124 0 .225.101.225.227s-.102.225-.225.225z" opacity=".1"/><path d="m91.475 270.398c-.372 0-.674.302-.674.673 0 .373.302.672.674.672s.672-.299.672-.672c0-.37-.3-.673-.672-.673zm-.15.717c-.133 0-.24-.107-.24-.239 0-.136.107-.244.24-.244s.241.107.241.244c0 .132-.108.239-.241.239z" opacity=".1"/><path d="m130.067 290.703c-.384 0-.694.312-.694.697 0 .384.311.691.694.691s.694-.308.694-.691c0-.385-.31-.697-.694-.697zm-.153.74c-.138 0-.249-.111-.249-.249 0-.136.111-.249.249-.249.136 0 .247.113.247.249 0 .138-.111.249-.247.249z" opacity=".1"/><path d="m117.675 297.796c-.217 0-.393.178-.393.396 0 .22.176.395.393.395.218 0 .394-.175.394-.395 0-.218-.176-.396-.394-.396zm-.088.422c-.078 0-.14-.064-.14-.143 0-.077.062-.141.14-.141.079 0 .142.063.142.141s-.063.143-.142.143z" opacity=".1"/><path d="m107.241 322.521c-.338 0-.613.275-.613.615 0 .341.275.613.613.613.339 0 .614-.272.614-.613-.001-.34-.275-.615-.614-.615zm-.136.655c-.121 0-.219-.097-.219-.219s.099-.22.219-.22.219.098.219.22-.098.219-.219.219z" opacity=".1"/><path d="m103.691 317.989c-.338 0-.614.275-.614.615 0 .342.275.614.614.614s.614-.272.614-.614c0-.339-.275-.615-.614-.615zm-.136.657c-.121 0-.219-.098-.219-.22 0-.121.099-.219.219-.219s.22.098.22.219c-.001.122-.1.22-.22.22z" opacity=".1"/><path d="m137.813 318.603c-.245 0-.442.199-.442.444 0 .244.197.44.442.44.243 0 .44-.196.44-.44.001-.245-.196-.444-.44-.444zm-.098.473c-.087 0-.158-.072-.158-.16s.07-.158.158-.158.158.07.158.158-.071.16-.158.16z" opacity=".1"/><path d="m134.532 328.951c-.418 0-.756.337-.756.755 0 .42.338.756.756.756s.757-.336.757-.756c0-.418-.339-.755-.757-.755zm-.169.804c-.147 0-.27-.12-.27-.27 0-.148.122-.271.27-.271.151 0 .271.123.271.271.001.15-.12.27-.271.27z" opacity=".1"/><path d="m115.232 298.815c-1.054.033-1.882.917-1.849 1.97.032 1.054.913 1.88 1.968 1.848 1.053-.032 1.88-.913 1.848-1.966-.033-1.055-.913-1.884-1.967-1.852zm-.36 2.048c-.377.011-.691-.285-.704-.663-.012-.377.283-.691.661-.703.376-.011.692.282.704.661.012.377-.284.694-.661.705z" opacity=".1"/><path d="m128.136 270.523c-1.054.032-1.882.915-1.849 1.97.032 1.054.913 1.88 1.968 1.848 1.053-.034 1.88-.913 1.848-1.966-.034-1.055-.914-1.885-1.967-1.852zm-.361 2.047c-.377.013-.692-.285-.704-.663s.283-.69.661-.702c.376-.012.692.281.704.66.012.378-.284.695-.661.705z" opacity=".1"/><path d="m132.301 271.211c-1.054.033-1.882.916-1.849 1.971.033 1.053.914 1.879 1.968 1.846 1.054-.032 1.88-.912 1.847-1.965-.033-1.055-.913-1.885-1.966-1.852zm-.361 2.048c-.377.012-.691-.285-.704-.663-.012-.378.283-.691.662-.703.376-.012.692.282.704.661.011.377-.286.693-.662.705z" opacity=".1"/><path d="m123.663 316.14c-.513 0-.928.414-.928.925 0 .512.415.927.928.927s.926-.415.926-.927c0-.511-.414-.925-.926-.925zm-.207.986c-.183 0-.332-.149-.332-.331 0-.186.149-.332.332-.332s.332.146.332.332c0 .182-.149.331-.332.331z" opacity=".1"/><path d="m110.315 315.837c-.678 0-1.226.548-1.226 1.228 0 .677.548 1.229 1.226 1.229.679 0 1.229-.552 1.229-1.229 0-.68-.55-1.228-1.229-1.228zm-.272 1.306c-.241 0-.438-.194-.438-.438 0-.241.197-.438.438-.438.243 0 .44.197.44.438 0 .243-.197.438-.44.438z" opacity=".1"/><path d="m122.314 271.694c-.678 0-1.227.549-1.227 1.228 0 .678.549 1.229 1.227 1.229s1.228-.552 1.228-1.229c0-.679-.549-1.228-1.228-1.228zm-.272 1.307c-.241 0-.438-.194-.438-.438 0-.241.197-.438.438-.438.243 0 .44.197.44.438 0 .244-.197.438-.44.438z" opacity=".1"/><path d="m119.291 319.685c-.547 0-.99.443-.99.989 0 .548.443.991.99.991s.989-.443.989-.991c0-.546-.443-.989-.989-.989zm-.221 1.055c-.196 0-.354-.16-.354-.354 0-.197.158-.354.354-.354s.354.157.354.354c0 .194-.158.354-.354.354z" opacity=".1"/><path d="m114.511 319.691c-.379 0-.686.307-.686.687 0 .378.307.687.686.687s.687-.309.687-.687c-.001-.38-.308-.687-.687-.687zm-.152.731c-.135 0-.245-.109-.245-.245s.11-.244.245-.244c.136 0 .245.108.245.244s-.109.245-.245.245z" opacity=".1"/><path d="m122.315 334.165c-.509 0-.923.413-.923.923 0 .512.414.923.923.923s.922-.411.922-.923c0-.51-.413-.923-.922-.923zm-.205.982c-.183 0-.331-.148-.331-.328 0-.184.147-.331.331-.331.181 0 .329.147.329.331 0 .18-.147.328-.329.328z" opacity=".1"/><path d="m128.624 328.784c-.509 0-.922.413-.922.922 0 .512.413.924.922.924s.922-.412.922-.924c0-.509-.413-.922-.922-.922zm-.205.984c-.182 0-.33-.149-.33-.329 0-.183.148-.33.33-.33s.329.147.329.33c0 .179-.147.329-.329.329z" opacity=".1"/><path d="m125.606 325.894c-.527 0-.952.426-.952.952 0 .525.425.951.952.951.524 0 .95-.426.95-.951 0-.527-.426-.952-.95-.952zm-.212 1.012c-.188 0-.34-.152-.34-.341 0-.188.152-.338.34-.338s.34.15.34.338c-.001.189-.152.341-.34.341z" opacity=".1"/><path d="m133.067 323.758c-.39 0-.707.317-.707.71 0 .39.317.706.707.706.392 0 .708-.316.708-.706 0-.393-.316-.71-.708-.71zm-.156.753c-.139 0-.252-.111-.252-.249 0-.143.113-.255.252-.255.14 0 .253.112.253.255 0 .137-.113.249-.253.249z" opacity=".1"/><path d="m111.805 322.935c-.266 0-.48.216-.48.481 0 .264.214.479.48.479.265 0 .479-.216.479-.479 0-.266-.215-.481-.479-.481zm-.107.512c-.094 0-.17-.078-.17-.171 0-.096.077-.174.17-.174.095 0 .171.078.171.174.001.093-.076.171-.171.171z" opacity=".1"/><path d="m120.28 327.317c-.265 0-.479.216-.479.48s.215.479.479.479.479-.214.479-.479-.214-.48-.479-.48zm-.106.512c-.094 0-.171-.078-.171-.17 0-.096.077-.175.171-.175.095 0 .171.079.171.175.001.092-.076.17-.171.17z" opacity=".1"/><path d="m98.952 307.145c-.266 0-.48.216-.48.481 0 .264.215.479.48.479s.479-.215.479-.479c-.001-.266-.215-.481-.479-.481zm-.107.511c-.094 0-.17-.077-.17-.17 0-.096.077-.175.17-.175.095 0 .171.079.171.175 0 .093-.077.17-.171.17z" opacity=".1"/><path d="m109.862 298.563c-.543 0-.984.44-.984.983 0 .547.441.985.984.985.545 0 .986-.438.986-.985 0-.542-.441-.983-.986-.983zm-.218 1.048c-.195 0-.352-.157-.352-.351 0-.195.156-.354.352-.354.195 0 .352.159.352.354 0 .194-.158.351-.352.351z" opacity=".1"/><path d="m122.188 297.891c-.178 0-.32.145-.32.319 0 .179.143.321.32.321s.321-.143.321-.321c0-.175-.145-.319-.321-.319zm-.072.34c-.063 0-.115-.051-.115-.113 0-.064.052-.115.115-.115s.115.051.115.115c0 .063-.051.113-.115.113z" opacity=".1"/><path d="m122.314 289.089c-.27 0-.487.218-.487.487s.217.488.487.488c.269 0 .487-.219.487-.488s-.218-.487-.487-.487zm-.108.516c-.096 0-.174-.077-.174-.173 0-.094.079-.173.174-.173.096 0 .174.079.174.173 0 .096-.078.173-.174.173z" opacity=".1"/><path d="m136.585 297.014c-.549 0-.994.446-.994.994 0 .552.444.994.994.994.549 0 .994-.442.994-.994 0-.548-.445-.994-.994-.994zm-.221 1.06c-.195 0-.354-.158-.354-.356 0-.196.159-.354.354-.354.197 0 .356.158.356.354.001.198-.159.356-.356.356z" opacity=".1"/><path d="m108.877 332.599c-.38 0-.69.311-.69.691 0 .382.31.688.69.688.381 0 .689-.307.689-.688s-.308-.691-.689-.691zm-.152.736c-.137 0-.247-.109-.247-.249 0-.133.11-.246.247-.246.135 0 .246.113.246.246 0 .14-.111.249-.246.249z" opacity=".1"/><path d="m115.99 322.499c-.352 0-.635.285-.635.637 0 .351.283.635.635.635s.636-.284.636-.635c0-.352-.284-.637-.636-.637zm-.141.677c-.126 0-.228-.102-.228-.225 0-.128.102-.23.228-.23s.227.103.227.23c0 .123-.1.225-.227.225z" opacity=".1"/><path d="m119.689 337.597c-.398 0-.721.323-.721.722s.323.723.721.723.722-.324.722-.723-.324-.722-.722-.722zm-.161.77c-.143 0-.258-.115-.258-.259 0-.145.115-.258.258-.258.142 0 .258.113.258.258.001.144-.116.259-.258.259z" opacity=".1"/><path d="m113.825 337.597c-.398 0-.721.323-.721.722s.323.723.721.723.721-.324.721-.723-.322-.722-.721-.722zm-.16.77c-.143 0-.257-.115-.257-.259 0-.145.115-.258.257-.258s.258.113.258.258c0 .144-.116.259-.258.259z" opacity=".1"/><path d="m131.937 332.219c-.457 0-.826.371-.826.827 0 .455.369.822.826.822.456 0 .825-.367.825-.822 0-.456-.369-.827-.825-.827zm-.184.88c-.164 0-.295-.131-.295-.294 0-.164.131-.297.295-.297.163 0 .295.133.295.297 0 .163-.132.294-.295.294z" opacity=".1"/><path d="m133.776 335.927c-.457 0-.826.37-.826.826 0 .455.369.823.826.823.456 0 .825-.368.825-.823.001-.456-.369-.826-.825-.826zm-.183.879c-.164 0-.295-.131-.295-.294 0-.164.131-.297.295-.297.163 0 .295.133.295.297 0 .163-.133.294-.295.294z" opacity=".1"/><path d="m114.511 330.213c-.465 0-.843.379-.843.844s.378.843.843.843c.466 0 .845-.378.845-.843s-.379-.844-.845-.844zm-.187.897c-.166 0-.301-.131-.301-.3 0-.168.135-.301.301-.301.167 0 .302.133.302.301 0 .169-.135.3-.302.3z" opacity=".1"/><path d="m118.299 326.002c-.465 0-.843.379-.843.844s.378.843.843.843c.467 0 .845-.378.845-.843s-.378-.844-.845-.844zm-.187.897c-.166 0-.301-.132-.301-.3s.135-.303.301-.303c.167 0 .302.135.302.303s-.135.3-.302.3z" opacity=".1"/><path d="m104.098 304.534c-.465 0-.843.379-.843.844 0 .466.378.844.843.844.467 0 .845-.378.845-.844 0-.465-.378-.844-.845-.844zm-.187.898c-.166 0-.301-.131-.301-.298 0-.17.135-.303.301-.303.167 0 .302.133.302.303 0 .167-.135.298-.302.298z" opacity=".1"/><path d="m129.373 318.737c-.414 0-.75.334-.75.748s.335.75.75.75.75-.336.75-.75-.336-.748-.75-.748zm-.167.797c-.148 0-.267-.12-.267-.269s.119-.268.267-.268.268.118.268.268c0 .149-.12.269-.268.269z" opacity=".1"/></g><path d="m113.09 275.799c-7.634 1.215-12.837 8.389-11.621 16.025 1.216 7.632 8.391 12.835 16.023 11.62 7.634-1.218 12.837-8.389 11.622-16.024-1.217-7.635-8.39-12.837-16.024-11.621z" fill="#fff"/><path d="m128.199 287.565c-1.135-7.13-7.834-11.988-14.964-10.853-7.129 1.135-11.988 7.835-10.852 14.966 1.135 7.126 7.835 11.986 14.963 10.851 7.131-1.134 11.989-7.834 10.853-14.964zm-12.059 8.384.318-.05.729 4.576c-.055.01-.106.026-.162.034-.052.01-.104.01-.155.018zm1.628-.12c.511.282.576 1.152.576 1.152l.489 3.071c-.124.041-.248.081-.374.119zm-2.582 4.806-.488-3.061s-.23-.909.173-1.306l.695 4.364c-.128.005-.254.005-.38.003zm4.794-1.041-.568-3.563c-.191-1.19-.795-1.739-1.338-1.994 2.635-.704 5.349-2.121 4.611-6.757-.207-1.296-.838-2.28-1.729-2.991.074-.319.289-1.59-.616-3.122 0 0-1.048-.162-3.071 1.737-.989-.113-2.026-.085-3.035.073-1.007.164-2.002.457-2.908.872-2.513-1.176-3.458-.697-3.458-.697-.386 1.738.213 2.879.383 3.159-.625.953-.919 2.085-.713 3.381.738 4.637 3.764 5.148 6.489 4.999-.341.319-.657.817-.695 1.575-.475.335-2.016 1.207-3.274-.327 0 0-.713-.919-1.778-.825 0 0-1.027.15.029.649 0 0 .738.213 1.407 1.348 0 0 .953 1.966 3.813.821l.419 2.627c-4.756-.585-8.754-4.235-9.544-9.202-.958-6.015 3.14-11.667 9.154-12.625 6.015-.957 11.666 3.142 12.623 9.157.79 4.963-1.869 9.672-6.201 11.705z" fill="#242424"/><path d="m88.932 286.25c-.643.146-1.204.367-1.724.62l1.901 6.995c8.714 0 13.574-2.663 12.957-5.392-.617-2.728-4.769-4.114-13.134-2.223z" fill="#010101" opacity=".1"/><path d="m109.436 254.309c-16.179 2.683-28.973 6.808-28.573 9.211.398 2.404 13.838 2.177 30.017-.506 16.18-2.684 28.974-6.807 28.576-9.211-.399-2.404-13.84-2.178-30.02.506zm1.273 7.675c-14.425 2.392-26.368 2.844-26.672 1.009-.305-1.835 11.145-5.263 25.57-7.655 14.426-2.393 26.369-2.844 26.672-1.01.304 1.836-11.144 5.263-25.57 7.656z" fill="#69aee0" opacity=".1"/><path d="m74.116 257.838c-1.246.535-2.688-.091-3.201-1.347-.513-1.255.091-2.689 1.346-3.203 1.256-.511 5.527-1.046 7.517.795-3.495.624-3.019 2.62-5.662 3.755z" fill="#edd8a2"/><path d="m75.875 264.967c-.731.545-1.774.363-2.305-.379-.532-.741-.363-1.772.38-2.305.74-.531 3.45-1.552 5.04-.658-2.189.955-1.564 2.185-3.115 3.342z" fill="#edd8a2"/><path d="m66.356 264.658c-1.028.766-2.493.509-3.241-.533-.747-1.042-.508-2.492.534-3.239 1.041-.749 4.849-2.181 7.083-.926-3.075 1.341-2.196 3.072-4.376 4.698z" fill="#edd8a2"/><path d="m117.368 261.824c-2.248.482-3.702.727-3.702.727l13.798 83.196c10.1-1.882 17.711-4.467 17.453-6.027l-5.46-85.917c.341 2.07-9.116 5.419-22.089 8.021z" fill="#274254" opacity=".1"/><path d="m100.335 286.136c.617 2.729-2.534 5.769-10.899 7.659-4.79 1.084-6.156-1.197-6.774-3.928-.617-2.729 1.119-5.182 4.54-5.955 8.365-1.891 12.516-.505 13.133 2.224z" fill="#010101"/><path d="m136.279 254.328c.054.325-.277.701-.909 1.11 1.058-.556 1.63-1.062 1.56-1.483-.304-1.834-12.246-1.383-26.672 1.01-11.875 1.97-21.717 4.639-24.661 6.545 3.561-1.871 12.888-4.329 24.01-6.173 14.426-2.392 26.369-2.843 26.672-1.009zm-24.748 8.313c-16.179 2.683-29.618 2.91-30.017.507-.089-.534.503-1.153 1.605-1.821-1.537.811-2.362 1.562-2.257 2.193.398 2.404 13.838 2.177 30.017-.506 12.593-2.088 23.102-5.046 26.969-7.389-4.315 2.277-14.386 5.037-26.317 7.016z" fill="#fff"/><path d="m84.037 262.993c.048.113.117.219.193.319 1.465 1.312 10.852 1 22.611-.724-1.922-.374-5.86-5.53-13.369-6.764-11.459-1.884-18.145 3.306-13.914 4.321 4.226 1.014 4.478 2.842 4.479 2.848z" fill="#edd8a2"/><path d="m128.199 287.565c-.987-6.2-6.182-10.677-12.208-10.994l.345 2.084c4.887.463 9.038 4.159 9.844 9.233.791 4.963-1.868 9.672-6.2 11.705l-.568-3.563c-.071-.439-.209-.768-.368-1.05l1.121 6.76c5.537-2.221 9.013-8.032 8.034-14.175zm-5.514-.286c-.207-1.296-.838-2.28-1.729-2.991.074-.319.289-1.59-.616-3.122 0 0-1.048-.162-3.071 1.737-.076-.009-.154-.004-.229-.01l1.808 10.905c2.36-.782 4.501-2.338 3.837-6.519z" fill="#010101"/><path d="m142.275 336.835c.271 1.593-7.844 4.307-18.119 6.058-10.276 1.752-18.824 1.879-19.094.286-.271-1.59 7.839-4.303 18.115-6.054 10.277-1.756 18.829-1.885 19.098-.29z" fill="#274254" opacity=".1"/><path d="m123.057 336.291c-10.275 1.75-18.332 4.781-17.995 6.762.001.013.012.022.015.034.042-1.604 8.019-4.244 18.101-5.962 10.235-1.747 18.753-1.883 19.088-.307 0-.036.016-.072.01-.108-.338-1.986-8.943-2.175-19.219-.419z" fill="#fff" opacity=".1"/><path d="m94.64 259.741c-.589 0-1.063.476-1.063 1.063s.475 1.062 1.063 1.062c.587 0 1.062-.475 1.062-1.062s-.475-1.063-1.062-1.063zm-.237 1.13c-.21 0-.38-.167-.38-.38 0-.208.169-.379.38-.379.209 0 .379.17.379.379 0 .213-.169.38-.379.38z" fill="#010101" opacity=".1"/><path d="m88.954 259.213c-.668 0-1.209.54-1.209 1.208 0 .67.541 1.208 1.209 1.208s1.21-.539 1.21-1.208c0-.668-.542-1.208-1.21-1.208zm-.268 1.287c-.239 0-.432-.193-.432-.432 0-.238.193-.434.432-.434.238 0 .431.196.431.434 0 .239-.193.432-.431.432z" fill="#010101" opacity=".1"/><path d="m85.704 258.279c-.372 0-.674.302-.674.672 0 .374.302.673.674.673s.672-.299.672-.673c0-.37-.3-.672-.672-.672zm-.15.716c-.133 0-.24-.107-.24-.239 0-.136.107-.243.24-.243.132 0 .241.107.241.243 0 .132-.108.239-.241.239z" fill="#010101" opacity=".1"/><path d="m89.628 257.357c-.372 0-.674.302-.674.672 0 .374.302.673.674.673s.672-.299.672-.673c.001-.369-.3-.672-.672-.672zm-.149.717c-.133 0-.24-.107-.24-.238 0-.137.107-.244.24-.244.132 0 .241.107.241.244 0 .131-.109.238-.241.238z" fill="#010101" opacity=".1"/><path d="m403.726 245.358c-19.525-6.348-39.227-11.194-59.78-12.581-2.015-.136-2.002 2.991 0 3.126 20.297 1.37 39.677 6.204 58.951 12.469 1.921.626 2.737-2.393.829-3.014z" fill="#010101"/><path d="m405.851 233.493c-19.972-4.8-39.966-8.114-60.582-7.881-2.015.022-2.017 3.149 0 3.126 20.323-.229 40.059 3.037 59.751 7.769 1.959.471 2.791-2.544.831-3.014z" fill="#010101"/><path d="m237.364 272.156s47.807 7.078 74.9-2.763c26.384-9.583 61.356-26.251 69.98-97.098 6-49.281-14.831-81.938-36.91-100.613-19.785-16.735-45.513-33.292-80.783-38.794-35.271-5.502-65.108-7.692-100.221 10.907-30.156 15.972-58.446 35.719-65.27 99.186-3.995 37.141 10.719 63.051 19.263 74.247 11.203 14.677 43.307 43.113 119.041 54.928z" fill="#010101"/><path d="m265.569 263.601c20.534 1.986 53.038-2.939 69.859-18.502 24.604-22.763 26.818-44.616 28.515-54.285 3.289-18.769-2.564-48.365-19.919-51.743-21.955-4.273-23.689-1.593-54.913-6.465-33.873-5.284-50.726-20.27-74.169-18.753-21.333 1.38-49.331 20.812-53.586 49.889-5.699 38.92 15.837 60.567 28.147 71.114 20.526 17.583 48.741 26.102 76.066 28.745z" fill="#f4cbb4"/><path d="m282.018 257.172s7.414-1.102 8.816-7.214c0 0 1.003 7.615-8.816 7.214z" fill="#010101" opacity=".15"/><path d="m243.508 181.377c-3.04 19.485-15.9 33.661-28.725 31.66-12.822-2-20.753-19.42-17.712-38.904 3.038-19.488 15.896-33.663 28.724-31.662 12.822 2 20.753 19.418 17.713 38.906z" fill="#fff"/><ellipse cx="213.18" cy="180.741" fill="#ae5d53" rx="16.438" ry="23.634" transform="matrix(.9881 .1541 -.1541 .9881 30.4008 -30.694)"/><path d="m349.758 193.166c-3.041 19.484-15.109 33.784-26.956 31.936-11.847-1.849-17.833-19.145-14.793-38.629 3.042-19.488 13.955-33.786 25.802-31.938 11.844 1.848 18.988 19.143 15.947 38.631z" fill="#fff"/><path d="m241.717 224.41c3.66 19.417 23.398 32.743 41.332 26.419 3.275-1.154 3.022-4.02 5.601-7.21 3.291-4.069 10.836-10.866 14.564-13.662-6.907 1.836-16.951 4.149-30.433 3.307-9.431-.592-20.156-3.787-31.064-8.854z" fill="#853b37"/><path d="m332.984 195.433c-1.818 11.654-9.36 20.15-16.848 18.984-7.488-1.17-12.083-11.561-10.266-23.215 1.817-11.65 9.361-20.149 16.848-18.981 7.491 1.168 12.086 11.561 10.266 23.212z" fill="#ae5d53"/><path d="m283.759 215.372c-.531 3.399-3.775 5.713-7.249 5.169-3.473-.541-5.434-3.541-4.905-6.94.531-3.398 3.353-5.903 6.824-5.361 3.472.543 5.858 3.736 5.33 7.132z" fill="#ae5d53"/><path d="m163.019 16.109c-14.998-6.746-35.438-10.896-38.591-8.8-4.879 3.25-8.183 21.309-7.346 43.245.339 8.966 4.531 38.261 9.707 39.708 16.905 4.728 80.759-39.372 70.507-50.395-10.963-11.791-23.793-19.041-34.277-23.758z" fill="#010101"/><path d="m363.459 51.809c16.384 2.103 34.456 13.167 36.05 16.253 2.465 4.782-8.974 22.593-15.288 31.233-4.861 6.652-20.067 27.463-31.814 29.291-15.923 2.479-44.852-70.774-31.71-75.046 14.056-4.568 34.225-2.828 42.762-1.731z" fill="#010101"/><path d="m6.63 210.675c41.872-7.633 83.949-12.3 126.566-9.198 2.013.146 1.999-2.981 0-3.126-42.902-3.123-85.252 1.626-127.398 9.309-1.981.361-1.139 3.374.832 3.015z" fill="#010101"/><path d="m4.496 190.257c42.326-4.324 84.668-5.75 126.901.687 1.972.301 2.819-2.71.832-3.013-42.533-6.483-85.099-5.156-127.733-.8-1.985.202-2.004 3.331 0 3.126z" fill="#010101"/><path d="m191.937 196.989c19.352 15.739 36.311 16.887 49.576 14.538-2.728 8.52-11.435 20.409-25.729 19.023-22.617-2.192-22.714-31.042-23.847-33.561z" fill="#f4cbb4"/><path d="m250.928 172.258c-32.224-10.893-47.052 13.354-59.35 7.518-.177-10.127 17.13-36.465 33.873-34.175 27.222 3.725 14.427 6.207 25.477 26.657z" fill="#010101" opacity=".15"/><path d="m250.928 172.258c-34.761-15.67-48.473 11.829-59.35 7.518-.177-10.127 15.521-47.173 32.264-44.882 27.22 3.725 33.191 16.9 27.086 37.364z" fill="#f4cbb4"/><path d="m302.287 206.45c22.936 7.912 36.522 3.5 48.528-2.527-2.726 8.52-13.867 26.771-28.164 25.385-22.614-2.193-19.326-18.908-20.364-22.858z" fill="#f4cbb4"/><path d="m353.747 197.359c-13.207 1.142-26.579 1.533-53.473-15.491-.174-10.128 12.172-40.599 28.913-38.308 27.22 3.725 30.662 33.336 24.56 53.799z" fill="#f4cbb4"/><path d="m303.214 229.957c-.81 2.459-13.74 9.568-15.709 10.877-8.223 3.741-19.575 3.143-28.51.565-10.221-2.947-16.949-12.031-17.278-16.989 10.765 4.57 18.244 7.288 29.939 8.55 10.086 1.09 25.267-1.748 31.558-3.003z" fill="#fff"/><path d="m284.327 244.79c-5.183 1.645-8.199 1.942-14.193 1.611-5.982-.331-12.902-1.376-19.949-4.996 8.087 8.957 20.415 13.414 32.094 9.668 1.893-1.557 2.359-5.416 2.048-6.283z" fill="#fff"/><path d="m164.675 136.017c7.892-4.232 24.382-14.042 41.118-16.548 25.951-3.886 58.39 15.514 85.624 18.617 38.369 4.372 52.697 1.458 66.055 10.686 7.37 5.093 11.866 13.559 16.027 20.156 4.404 6.984 12.048-28.248-10.313-39.629-22.366-11.383-57.812-6.054-78.238-14.255-20.42-8.2-77.11-23.378-87.718-11.672-10.609 11.707-32.555 32.645-32.555 32.645z" fill="#010101" opacity=".2"/><path d="m191.578 179.776c10.877 4.312 24.589-23.188 59.35-7.518-30.641-20.452-49.357 9.046-59.35 7.518z" fill="#b59585"/><path d="m353.747 197.359c-13.187 1.14-26.538 1.529-53.345-15.414 18.218 19.499 43.6 20.033 53.345 15.414z" fill="#010101" opacity=".15"/><path d="m300.274 181.868s26.276 19.977 53.473 15.491c0 0-25.595-.199-53.473-15.491z" fill="#b59585"/><path d="m303.214 229.957c-6.291 1.255-21.472 4.093-31.558 3.003-11.695-1.263-19.175-3.98-29.939-8.55 0 0 26.051 19.532 61.497 5.547z" fill="#010101" opacity=".05"/><path d="m234.62 227.419s-1.391-8.141 10.521-9.531c.001 0-13.798-2.481-10.521 9.531z" fill="#010101" opacity=".15"/></svg>