<svg enable-background="new 0 0 1000 638.968" height="638.968" viewBox="0 0 1000 638.968" width="1000" xmlns="http://www.w3.org/2000/svg"><g clip-rule="evenodd" fill-rule="evenodd"><g fill="#efefef"><path d="m908.141 204.127-.727-.363"/><path d="m907.414 203.764-.727.363"/><path d="m658.729 151.772.726.364"/><path d="m659.455 152.136.728-.364"/><path d="m961.587 175.041.363.727"/><path d="m890.689 298.657-.727-.364"/><path d="m889.962 298.293-.727.364"/><path d="m643.458 359.01.364-.727"/><path d="m643.822 358.283-.364-.727"/><path d="m661.637 324.106c1.175-.205 1.253.688 2.182.728.287 1.411-3.312 1.062-2.182-.728z"/><path d="m53.012 66.695.363-.727"/><path d="m51.558 65.968h1.817"/><path d="m53.375 65.968-.363-.727"/><path d="m640.913 95.054.363.727"/><path d="m636.914 101.599-.727-.364"/><path d="m670.363 131.412v-.727"/><path d="m669.272 132.502c.488-.748.722-1.288 1.091-1.818"/><path d="m670.363 130.685h-.727"/><path d="m685.633 147.409v.727"/><path d="m685.633 148.136c.256-.472.278-1.176.364-1.818"/><path d="m685.633 148.136h.727"/><path d="m900.87 254.301-.727-.364"/><path d="m900.143 253.937-.727.364"/><path d="m636.187 367.736v-.727"/><path d="m634.369 368.1.364-.364"/><path d="m634.733 367.736-.364.364"/><path d="m636.187 367.009h-.727"/><path d="m867.784 287.386-.364-.364"/><path d="m879.782 300.111.364.727"/><path d="m880.146 300.838.364.727"/><path d="m880.51 309.564v-.727"/><path d="m756.166 343.74.364-.727"/><path d="m770.709 327.016c.474-.472 1.177-1.177 1.818-1.818"/><path d="m771.437 327.016c1.968 2.925.2.042 1.454-1.455"/><path d="m772.891 325.561-.364-.364"/><path d="m770.709 327.016h.728"/><path d="m871.783 274.66-.726-.363"/><path d="m871.057 274.297-.728.363"/><path d="m820.883 435.361h-.727"/><path d="m823.792 437.179c-.967-1.164-2.17-1.44-3.636-1.817"/><path d="m820.156 435.361v.727"/><path d="m695.086 502.985-.728-.362"/><path d="m680.543 321.198-.363-.364"/><path d="m680.18 322.289c0-.484 0-.969 0-1.454"/><path d="m680.18 320.834-.365.364"/><path d="m920.503 159.771c-3.139-3.208-1.222-8.264-2.182-14.543-.217-1.419-1.471-3.324-1.454-4.363.072-4.354 3.07-9.427 2.908-13.816-.05-1.373-.613-3.157-1.454-4.363.161-1.995 2.584-2.438 3.636-3.636 1.242-1.416 1.492-2.933 2.908-4.363-2.422-5.435-2.983-12.685-.728-18.906 1.821.091 2.277 1.388 2.909-.727 3.659 8.677 6.184 18.499 9.453 28.359.48 1.451.858 3.453 1.455 5.09.432 1.187 1.83 2.451 2.181 3.636.479 1.622-.011 3.622.728 5.09 2.195 4.368 7.919 5.918 6.544 11.634-4.286.318-5.163 4.047-7.271 6.544-6.956 1.044-12.908 3.09-19.633 4.364z"/><path d="m919.049 160.498c-5.012-.164-8.12 1.577-12.362 2.182-1.43-7.441-1.95-19.178-7.271-20.36 1.112-3.767-2.364-6.876-2.909-10.18-.22-1.33.723-3.211.728-4.362.004-1.021-.469-3.541-.728-4.363-.417-1.323-1.725-2.397-2.182-3.635-.31-.838.18-2.029 0-2.909-.421-2.071-1.718-3.924-1.454-5.818 9.388-2.731 18.736-5.501 29.086-7.271 1.001 2.201-.346 2.598 0 5.817.631 2.289 1.511 2.527 1.454 4.363-.112 3.643-4.577 5.342-5.816 7.999 2.781 6.366-1.437 12.97-1.455 18.906-.008 2.731 2.131 7.571 2.182 11.634.035 2.833-1.239 5.147.727 7.997z"/></g><path d="m911.05 206.854c.363 1.636-.728 3.818-2.363 3.818-3.091 2.727-3.312-6.964-3.453-4.363-7.667-1.787-14.076-4.831-21.088-7.271-1.873-1.055-1.525-4.934-2.908-6.544-.89-1.034-1.957-.496-3.637-1.455-1.03-.589-1.716-2.106-2.181-2.182-1.64-.266-5.969 1.372-9.453 2.182-2.975.691-6.715 1.576-9.453 2.182-17.476 3.866-40.352 8.824-58.172 10.907.92-1.076-.89-2.377-.728-3.636.275-2.141 1.891-2.325 3.636-4.363 1.196-1.398 1.96-3.194 2.909-4.363 1.125-1.387 2.665-2.349 3.636-3.636.482-.641.227-.932.727-1.455.35-.363 1.475-1.822 2.182-2.908.365-3.031-2.126-3.207-1.455-6.544-1.332-.85-3.301-1.062-3.635-2.909-.653-3.015 3.991-3.056 6.544-4.363 2.179-1.116 8.309-3.697 13.816-2.909 1.688.242 2.778 1.361 4.362 1.454 3.256-1.107 5.793-2.933 10.907-2.181 2.578-2.027 4.708-4.503 6.544-7.272 1.131-1.051 2.834-1.529 4.363-2.181.325-3.234-.517-5.301-1.454-7.272-.184-2.608 2.184-2.664 2.182-5.09-2.998 2.036-1.896-3.458-4.363 0-1.513-3.258 4.657-6.62 6.545-9.453-.666-2.428.571-3.67 1.454-5.09.675-1.086 1.333-2.17 2.182-3.636 2.628-4.541 6.964-9.011 12.361-10.18 6.276-1.359 14.757-2.373 20.36-5.09 1.709.965.262 2.182.727 3.636.303.946 1.185 1.167 1.454 2.182.236.885-.308 2.049 0 2.909.883 2.463 2.874 3.963 2.909 7.999.015 1.702-.991 2.694-.728 4.362.608 3.847 3.855 7.639 2.909 12.362 1.868 1.948 1.039-1.948 2.909 0 2.015 4.446 2.72 10.093 3.636 16.725.112.816 1.643 1.304 1.453 2.181-.781 3.63-1.32 9.796-.728 15.27.148 1.355 1.109 2.173 1.455 3.636.923 3.902.948 9.296 2.182 13.816 1.335 4.896 1.765 4.604-1.455 7.999z" fill="#d6d6d6"/><path d="m930.502 201.218c-.078-.714 2.362-1.636 2.362-1.636 2.363.364 2.287-1.894 5.817-1.272-1.905 1.003-2.503 3.86-5.09 4.181.001 0-3.001-.442-3.089-1.273z" fill="#efefef"/><path d="m931.047 203.4-.545.727c.173 2.306-2.168 1.228-4.183 2.181-.369.175-.419 1.288-.727 1.455-1.032.559-2.605.182-3.636.727-.883.467-1.436 1.77-2.182 2.182-2.023 1.116-4.197 1.802-6.544 2.909-2.008.946-3.696 3.427-6.545 2.182-.165-4.771 5.444-3.767 5.817-7.999 3.622-.257 6.525-1.231 7.999-3.636 3.531.138 6.457-3.057 8.544-4.363-.182 1.273-3.734 3.896-.363 3.272z" fill="#efefef"/><path d="m961.95 175.768c-.088 1.85-1.059 2.82-2.908 2.908.527-2.224-1.255-2.138-.728-4.362-2.672 1.448-4.062 4.178-5.817 6.544-2.583-.083-2.926-2.406-2.908-5.09-.679.533-1.102 1.322-1.454 2.181-2.215-1.178-3.097-3.689-4.363-5.817-13.601 1.184-23.194 6.376-37.085 7.271.406-6.472.837-8.72.728-15.998 8.979-1.826 21.948-4.52 30.541-6.544 2.59-.61 5.704-3.308 6.543-6.545.846.119 1.295-.16 1.455-.727 2.184 1.624 2.603 6.641 6.544 4.363-2.678 1.927-4.326 4.884-5.817 7.999.139.589.73.725.728 1.454 1.244 2.181 2.646.808 5.09.728.965 1.702 3.605 1.727 2.909 5.09 3.315.562 3.19 4.567 6.544 5.09" fill="#efefef"/><path d="m961.587 175.041c2.462.472 6.787-1.333 8.727-3.757l-1.212-.97-1.939 1.454-.242.97s-2.908 1.212-3.878.728c-.971-.485-1.092.848-1.092.848z" fill="#efefef"/><path d="m961.223 181.585c.133 1.587-.595 2.313-2.181 2.182.776-.678.227-2.683 2.181-2.182z" fill="#efefef"/><path d="m943.045 172.859c1.444 2.469 1.687 4.205.727 6.544 1.257 1.652 1.755 4.062 1.454 7.271-1.646.779-3.197 1.651-4.362 2.909-.596-3.509-2.472-10.115-3.636-15.27 1.706-.716 3.572-1.274 5.817-1.454z" fill="#efefef"/><path d="m887.78 273.933c-.551-10.664-7.749-21.264-6.543-31.994 2.054.601 1.883-1.025 3.635-.728.417 2.052-1.426 3.214-1.454 5.09-.051 3.417 2.666 6.441 5.09 8 .366 2.768.985 4.159 2.909 6.544 1.799 2.23 1.929 3.835 5.817 3.635-.232 1.708-1.149 2.729-.728 5.09.131 1.171 3.456-1.184 2.909 2.182-4.269.335-7.237 1.973-11.635 2.181z" fill="#efefef"/><path d="m908.141 180.858c9.416-1.976 18.508-4.276 27.633-6.544 1.227 5.074 3.36 9.242 3.636 15.27-4.431-.61-6.194 5.228-9.454 1.454-.064 1.984 1.212 1.464 0 2.909-3.617.745-6.758 1.01-9.452 2.908-.753.532-.792 1.625-1.454 2.182-.431.363-1.733-.344-2.182 0-.629.483-.188 1.643-.728 2.182-.481.481-1.691.256-2.182.727-.926.891-1.464 2.588-2.908 2.909-.845.119-1.294-.161-1.454-.727-.64-2.336 2.396-.996 2.182-2.909-1.238-6.763-3.311-12.689-3.637-20.361z" fill="#efefef"/><path d="m889.235 201.218c-2.098 3.235-2.318 8.347-5.09 10.907-.284 2.286 1.531 1.228 1.454 3.636-.031.959-1.585 2.304-1.454 2.908.447 2.068 1.345 3.008 2.908 4.363.515.446.271.974.727 1.455.653.688 1.349.915 2.182 1.454 1.282.83 2.76 3.187 5.091 3.636-.256 2.411-2.178 3.154-3.636 4.363-1.263 1.404-1.647 3.686-2.909 5.09-1.244-.032-1.883.54-2.182 1.454-1.454 0-2.908 0-4.362 0-1.406 1.017-2.156 2.691-2.908 4.363-27.639 5.811-55.76 11.139-83.623 16.725-2.496-9.668-5.146-26.326-7.271-39.266-.802-4.876-2.813-10.738-2.182-13.089.295-1.102.953-1.918 2.182-2.909.57-.461 1.533-.242 2.181-.727 1.376-1.032 3.97-4.68 6.544-5.09.232 1.707 1.149 2.729.728 5.09 16.577-2.5 35.829-6.392 53.809-10.18 1.661-.351 2.773-1.113 4.363-1.455 2.952-.634 6.758-.686 10.181-1.454 3.589-.806 6.378-2.555 8.726-2.182 2.088.332 3.044 3.329 5.09 2.182 2.004 4.054 2.992 9.125 9.451 8.726z" fill="#d6d6d6"/><path d="m899.416 254.301c0-.243 0-.485 0-.728-1.507.433-4.777-.898-5.091.728-3.342-2.962-12.592-5.01-7.271-13.089 2.054-.205 2.004-1.015 4.363-2.181-.612-3.279 1.701-3.631 2.181-5.817 1.176-.205 1.253.687 2.182.728-1.577-1.514.089-2.351.728-3.636.126-1.865-1.9-.808-2.909-2.182-1.653-2.252.927-1.341-1.454-2.181-.29-.102-1.807-.445-2.182-.728-.693-.522-.193-1.475-.727-2.181-1.025-1.357-3.14-1.118-3.636-2.909.115-3.134 2.82-5.145 0-7.271.208-2.188 2.201-3.406 2.908-5.09.782-1.863-.236-4.01 1.454-5.09.825.138.404.729 0 .727 2.355.448 2.674-.23 5.817.727-.147-.045 2.027.615 2.182.727.153.111-.162 1.405 0 1.454.366.111 1.305-.869 2.182-.727.689.112 3.565 1.907 5.091 2.182.705 6.523-4.466 7.168-2.909 14.543 2.295.355 2.567-1.311 5.09-.727 1.913 2.635.138 6.483 0 9.453-.134 2.889 1.375 5.901-.728 7.271.929.348 1.844.509.728 2.909-.162.348-1.66.995-2.181 2.182-.965 2.196-.024 5.136-2.909 5.817.601 2.964.111 2.504 0 5.817-.589-.138-.726-.729-1.454-.727" fill="#efefef"/><path d="m860.877 268.843c1.714-2.339 2.938 2.557 0 0z" fill="#efefef"/><path d="m870.329 274.66c-.707-.02-.564-.89-.728-1.454-2.645 6.051 5.79 7.291 7.999 10.907-2.024.546-8.972-.221-9.453-3.636-.852.118-.613 1.326-.728 2.181-1.822-.601-2.299-2.547-3.635-3.635-1.916-.219-2.387 1.007-2.182 2.909-3.838-3.602 2.646-8.151 2.182-13.089-.805-2.584-2.935-.442-4.363-.727-1.549-.31-2.105-1.721-3.636-2.182-1.171-.353-2.633 1.073-3.636 0 .51-3.66-1.508-4.793-5.09-4.363-1.029-2.122-2.969-2.485-3.15-5.454-.849-.606-3.15-.97-4.363-1.091-1.212-.121-2.908-.727-3.394.242-.485.97-2.303.728-2.909 1.455-.605.727-1.817 3.272-2.908 3.03s-3.029-1.575-3.515-1.454c-.484.121-.727.363-1.211 1.454-.485 1.091-1.576 2.908-2.909 3.03s-2.06.485-2.424 1.333c-.363.849-.969 2.424-1.817 3.151-.849.727-2.183 1.09-2.788 2.787l-1.939-11.149 32.601-6.06c4.476-.887 11.927-2.452 17.452-3.636 3.769-.807 10.457-2.978 15.997-3.636-.601 2.056 1.024 1.884.728 3.636l.12.485c2.546 8.241 4.292 17.887 7.15 25.693 3.347-.791 9.005-3.643 11.636-.728-1.41 2.712-3.038 5.204-3.637 8.726-3.266.371-4.492 2.78-7.999 2.909.379-1.076 1.076-1.833 1.455-2.909-.197-.663-3.22-1.931-2.909-.728-2.162.315.748-1.766.728-2.181-.038-.822-2.683-1.62-1.454-3.636-1.327-.38-.922 1.853-1.454 2.182-.292.181-1.94-2.91-2.182.727-1.285-.653-2.123-1.755-3.636-2.181-.528-2.225 1.254-2.139.728-4.363 2.282.807 1.921.34 3.636-.727.122-1.577-2.58-.33-3.636-.728.129-2.169-2.795-4.451 0-5.09-.109-1.345-2.463-.446-2.909-1.454-.459-1.078 1.629-2.49.728-4.363-.333-.69-1.543-.884-1.454 0-.452-4.49-.631-5.794 5.09-7.271-2.281-.986-2.739-1.464-1.334-3.636l-.12-.728c-1.131-1.198-2.833.249-4.363.728-.298 1.751 1.328 1.581.728 3.636-1.237.268-1.373-.567-1.455-1.454-2.155 1.37-1.152 3.133-3.636 2.908-.065 1.984 1.211 1.464 0 2.909-.585-.385-1.18-.758-2.182-.727.812.895.634 1.494-.728 1.454-.339 2.279 1.83 2.05 2.909 2.909-1.276 4.289 1.091 8.344 1.454 13.088" fill="#efefef"/><path d="m816.521 269.57c2.893-.743 3.593-3.678 5.09-5.817 2.257.052 4.514-.975 5.091-4.362 1.384.312 1.826 1.566 3.635 1.454 2.068-.125 2.442-2.619 3.636-3.636 1.038-.884 3.247.022 2.909-2.182 1.363 1.277 4.41.492 5.817 1.454.236.162-.21 1.245 0 1.455.198.199 1.312-.229 1.454 0 .445.72.435 1.711.728 2.182.887 1.428 1.336 2.254.727 5.09-4.138-.167-6.91-4.958-10.181-3.636-1.833 2.386-.819 5.564-1.454 7.999-.101.387-1.372 1.182-1.454 1.455-.17.564.301 1.684 0 2.182-.755 1.246-4.555.353-3.636 4.363-7.09-1.031-3.542 8.577-7.271 10.907-3.209.404-3.831-4.364-6.545-2.182-1.641 1.62-.263 3.285-.727 5.09-.413 1.606-2.339 3.517-2.909 5.09-.389 1.074.364 2.551 0 3.636-.92 2.742-3.68 4.323-4.362 7.999-.364 1.96 1.002 4.38 0 6.544-4.022-.144-4.619 3.138-8.726 2.909-.977.478-1.354 1.554-1.455 2.909-2.738-.279-5.5 3.176-7.998.727-1.646 1.021-2.39 2.943-4.363 3.636-3.451-1.153-6.902-2.309-7.271-6.544-5.244-.034-7.038-3.107-10.18-7.271-1.622-2.149-4.095-4.861-4.363-5.817-.495-1.767 1.245-4.222 0-5.817 4.979 1.101 2.886-4.87 6.545-5.09-1.6-2.699-.611-8.097.727-10.18 2.279-.34 2.051 1.828 2.908 2.909 3.422-2.266.858-6.37 2.182-9.453.721-1.679 4.599-1.41 2.909-4.363 1.151.06 2.773-.35 2.908.727 1.782-.872 2.862-2.657 4.363-4.363 1.026-1.167 3.059-2.807 3.636-4.363.375-1.013.342-2.919.484-3.999.209-1.579-.22-5.114.243-6.787 2.544-9.21-.606-12.604.605-13.573.97 4.363 2.843 18.002 3.757 21.451 6.705-.566 12.134-2.409 18.905-2.908.947 3.901 1.419 8.276 2.182 12.361.648-.322 1.301-.638 1.455-1.454v-.732z" fill="#efefef"/><path d="m643.458 357.556c2.522-6.641-3.418-12.933 2.909-15.271 3.529.327 6.557 4.289 10.18 2.182.652-3.561-2.4-3.416-1.454-7.271 2.521-.388 3.871-1.945 6.544-2.181 1.424-2.584-.949-2.643-.727-5.817.79-1.433 5.255-2.93 3.636-4.363 1.318-.831 3.524-.672 4.363.727 2.749-.936.995-1.864 3.636-2.909 2.775.375 5.449.853 6.544 2.909 2.11-1.041 2.067-4.235 4.362-5.09 1.842.825 4.123 1.209 5.091 2.908 1.786-1.849 1.659-5.611 3.636-7.271 2.246-2.258 1.229 2.462 4.362 1.455.86 1.958 3.791-.003 5.091 0 .433-1.507-.899-4.777.727-5.09-.11-2.292 2.948-1.414 3.636-2.908-.547-3.941 2.51-4.276 3.637-6.545.297-1.751-1.329-1.581-.728-3.635 1.132-2.005 3.352.776 3.636.727 2.542-.437 3.027-4.075 7.271-3.636.164-3.072-1.12-4.696-1.454-7.271.788-1.521 2.335.083 3.636 0 1.521-.097 2.282-1.176 3.637-.727 3.097 1.026 3.735 4.777 5.816 6.544 4.053-.417 6.939.333 8.726 2.182 2.32.624 2.249-1.145 3.637-1.454 3.114-.163 2.965 2.419 5.817.727 2.351-.315 2.885-2.447 4.362-3.636 1.901 2.461 4.436 4.291 7.271 5.817.008 2.264 1.72 4.738 0 6.544 4.207 4.519 6.622 10.829 12.361 13.816 1.3-.205 1.491.688.728.728-2.147 5.612-8.724 7.123-11.635 13.088-1.16 2.378-1.311 2.862-3.636 5.09-.896.858-1.981 2.766-2.182 2.908-.512.367-2.558.168-3.636.727-.316.165-.464 1.336-.728 1.455-.395.178-1.072-.202-1.453 0-1.488.788-3.13 2.553-4.363 2.909-2.01.58-7.172.2-10.907.727-1.548.218-6.396 1.281-8.726 1.455-3.046.226-5.808-.299-8.727 0-3.929.402-8.946 1.825-14.543 2.181-2.864.183-5.787-.21-8.726 0-10.923.78-21.912 4.193-31.268 2.181-.583 2.522 1.084 2.795.728 5.09-7.322.192-13.477 1.551-21.088 1.455" fill="#efefef"/><path d="m790.343 239.03c-1.083.855-2.053 1.825-2.908 2.909 4.044 2.127 1.336 8.763.728 15.997-.193 2.281.33 4.746 0 5.817-1.363 4.405-5.593 6.035-6.545 8.727-1.617-1.202-3.943.154-4.363-.728-1.215.234.509 1.922-.728 3.636-.245.341-2.069.493-2.181.727-.666 1.402 1.024 4.275-1.455 4.363-.357 2.283 2.507 1.921.728 3.636-1.983.53-1.464-1.445-2.909-1.455-1.914 1.265-3.57 3.21-3.635 6.545-.027 1.382 1.113 2.368.728 3.636-.431 1.412-.893 1.117-1.455 2.181-.415.786-.138 2.264-.727 2.909-.609.667-1.659-.988-2.182-.727-.097.048 1.308 1.521 0 1.455-3.444-.176-2.499-2.712-6.545-3.636-.312-1.385-1.566-1.827-1.454-3.635-2.787.605-4.408 2.378-5.816 4.363-2.61.428-3.519-.845-5.091-1.455-1.891.291-2.192 2.17-4.363 2.182-1.872-2.227-4.254-3.658-7.999-2.182-1.011-2.139-3.55-2.751-3.635-5.817-3.909-1.426-7.175-.617-10.181-1.455-1.404-21.136-4.949-40.134-6.544-61.081 6.194-.423 11.724-1.181 16.725-2.181 1.821-.365 3.969-1.495 5.816-1.455.067.001-.083 1.371 0 1.455-.119-.12 2.173-.887 2.909-.728 2.396.519 4.962 2.411 7.271 2.909-.257.955-1.28 1.144-1.454 2.181 2.264-.26 5.189-.11 3.636-.727 2.033-1.777 3.551.875 5.816.727 3.284-.214 5.468-3.028 7.999-4.362 4.017 1.692 6.411-.978 8.727-3.636 1.114-1.28 1.706-2.559 2.908-3.636 1.965-1.76 4.707-2.529 6.544-3.636 2.293-1.381 3.8-3.471 6.545-3.636 1.067 10.567 2.912 20.356 5.09 29.813z" fill="#efefef"/><path d="m661.516 147.288 2.425-1.939c-.035.777-1.939 3.636-.243 3.636-.337.856-2.423 1.566-2.909 2.181-.484 1.939-2.183 4.273-2.787 4.242-.575-.544-.709-1.288-.542-1.978.168-.69.517-2.418 1.147-2.749z" fill="#efefef"/><path d="m743.27 203.824c.949.764 2.019-3.881 2.23-5.157-.373-.86-1.412 0-2.007.516-.596.515-.974 4.037-.223 4.641z" fill="#efefef"/><path d="m746.593 201.339c.922-1.383 2.626 1.009 3.757 2.061-.461 2.689-8.004 5.556-6.423 2.787.969-1.696 1.695-3.393 2.666-4.848z" fill="#efefef"/><path d="m635.339 103.417 1.575-1.818c1.603-1.791 3.598-3.189 4.362-5.817v-1.454c-4.489 1.085-8.057 3.093-8.725 7.999 2.287.833 2.302-.182 2.908-1.455v.728z" fill="#efefef"/><path d="m669.636 130.685c-.138-.589-.729-.725-.727-1.455-4.156-.762-3.188 3.6-6.545 3.636 0-1.212 0-2.424 0-3.636-2.291 1.149-2.208 4.34-3.636 6.545-1.943 3-3.857 8.827-5.816 13.088-2.487-.387-1.114-3.503-.728-5.09.521-1.179-3.43-1.179-2.909 0-.765-4.44 1.765-10.657-5.817-10.18.233-1.686-.116-2.792-.727-3.636-2.092 1.022-4.397-1.305-6.545-1.455-1.864-.13-4.298.996-7.271 0-.38-.127-1.182-1.371-1.455-1.454-4.817-1.457-12.509-2.115-18.905-3.636-.264-2.645-1.719-4.1-4.363-4.363.567-2.099 3.517-1.815 5.09-2.909 1.751-1.157 2.41-3.408 4.363-4.363 6.612 1.038 7.694-3.455 12.361-4.363 1.024-1.885 2.46-3.357 3.636-5.09 4.47.378 4.21 5.485 5.091 9.453 2.297.359.269-3.608 2.907-2.909.134.619-.283.686-.727.727 2.188.866 2.854-1.997 5.09-2.181 5.068-.418 8.891 4.975 10.908 8.726 5.6-.579 7.66-.485 12.361.728 2.314.437 2.103-2.143 2.908-2.909.534-.508 1.966-.646 2.909-1.454 1.729-1.483 1.222-1.92 5.089-2.909 2.045-.522 4.167.1 7.271-.727 2.79-.743 4.928-3.575 8-2.909-.226 2.648.114 4.732.727 6.544 3.613.888 6.916-1.924 7.998.727 1.48-.216 1.938-1.456 2.909-2.182 2.138.529 3.065 2.267 2.908 5.09 1.586 2.294 4.979 2.778 5.817 5.817-3.964-.157-8.742.501-11.635-.728-1.857.082-1.443 2.436-1.454 4.363-2.132-.05-2.7-1.663-3.636-2.909-3.433-.2-6.709-1.948-9.453-.727-1.796.627-2.151 2.696-3.636 3.636-3.715.425-6.695-.25-8.726 1.454-1.375 1.154-.836 3.09-2.908 4.363" fill="#efefef"/><path d="m686.36 148.136v5.09c.364 2.146.958-.972 2.182-.728.003.001.173 1.152.728.728 1.042-.8 1.988-2.703 2.182-4.363.193-1.669-1.319-4.163-.728-5.817.996-2.789 2.419-4.301 5.816-4.363.993-3.175-2.815-1.547-2.182-4.363.319-3.074 2.952-3.835 4.363-5.817 1.841-.595 2.255 1.684 4.363 2.182 2.788.659 6.666-.6 7.271 2.909 6.479.55 11.521 2.538 14.543 6.544.116 2.056-2.185 1.693-2.182 3.636.565 2.101 2.655 2.677 3.636 4.363.194 4.543 2.457 10.921-2.182 13.089.56 2.74-.887 3.476-.727 5.817-1.485.696-2.878 1.486-4.363 2.182-.695 6.004.187 8.714 5.09 9.453 1.712-3.136 5.202-4.493 5.091-9.453 3.386-.491 3.951-3.805 7.998-3.636 6.408 4.984 5.33 17.454 10.907 23.269-1.432 1.962-.434 6.354-.727 9.453-2.353.898-.557-2.353-2.909-1.455-2.24 1.395-3.384 3.889-2.908 7.999-1.449.733-2.546 1.816-3.636 2.909 1.246 7.063-3.377 8.258-3.637 13.816-7.248.504-14.381 3.309-21.813 3.635-2.069.091-4.388-.749-6.545-.727-6.276.064-13.701 2.121-20.36 2.908-2.537.3-5.41-.162-7.999.727-2.39.53-1.112-1.445 0-1.454 1.174-2.035 1.608-3.786 2.909-7.271 1.329-3.559 3.369-9.521 2.908-15.997-.317-4.459-2.799-7.963-2.181-11.635-2.779-.965-2.901-2.813-4.363-5.817-.354-.729-1.278-1.187-1.454-2.182-.316-1.789 1.31-2.381 1.454-4.363.169-2.322-.872-4.126-2.182-5.817 1.102-3.533 4.247-6.178 3.636-12.361-.116-1.177-.827-2.29-.728-2.909.39-2.408 3.245-3.425 2.182-5.817 2.464-1.171 4.672-2.6 5.817-5.09" fill="#efefef"/><path d="m617.645 90.777c0 1.255 6.908-1.966 7.999-2.247s4.362-3.65 4.362-4.773-3.636 2.808-4.727 3.65-7.634 1.966-7.634 3.37z" fill="#efefef"/><path d="m679.815 321.198c-.955.128-1.143 1.451-2.182 1.455-1.524.005-1.849-1.265-2.908-1.455-1.22-.218-4.904.613-5.09.728-.172.106.169 2.156 0 2.181-.925.141-.3-1.141-.727-1.454-1.108-.812-4.874 2.111-6.545.727-.409-3.318 1.289-4.528.728-7.999 1.482-.406 1.426-2.188 2.908-.727-1.166-3.336 3.154-6.857 3.636-10.908.589.139.725.73 1.455.728-.891-1.208-.834-4.436-1.455-6.544-.079-.271-1.684-1.998-1.454-2.181 1.378-1.103-1.116.162-1.454-1.455 1.065-1.6-.087-5.419 2.182-5.817-2.565-18.039-3.461-37.745-5.817-55.991-2.067.559 3.445.507 3.636.727-.02-.023-.832 1.451-.728 1.455-.248-.008 2.738-1.167 4.363-2.182 1.279-.8 2.079-2.083 3.636-2.909.862-.457 1.361.75 1.454.727.818-.208.366-.83 0-.727 5.086-1.434 11.873-1.297 18.178-2.182 3.562-.5 10.557-1.523 15.999-2.182.759.94.034 2.286 0 2.182.31.933 1.257 1.157 1.454 2.182.267 1.39-.125 2.951 0 4.363.518 5.854 2.145 12.683 2.907 19.633.621 5.654.805 11.672 1.455 17.452.573 5.093 2.032 10.29 2.182 14.542.084 2.391-1.062 3.465 0 5.818-3.574-2.53 2.414 3.688-1.455 1.454.657 2.448 1.627.085 2.909 1.454.312 1.171-2.712 2.44-2.909.727-1-2.005.062 1.898-.727 2.182-.536.192-1.756-.458-1.455-.727-.771.691.761 1.929-.727 2.182-.859.146-1.037-1.327-1.454-1.455-.951-.292-2.948 2.458-2.908 0-2.585 1.447-.214 3.329-.728 6.544-4.017.167-2.139 8.238-6.544 5.818-.596 2.313-.464 5.354-1.455 7.271-2.115 1.321-3.407-1.452-2.908-1.455-.742.004-.75 2.026-2.182 1.455-.006-2.176-1.307-3.056-2.908-3.636-2.479-.871-.506 2.704 0 1.455-.357.885-1.671.781-2.182 1.454-.785 1.034-.488 3.129-.727 3.636-.158.333-2.368.274-.728.727-.577 1.675-3.418-.376-3.636-1.455-1.858-.784-2.545 3.13-3.636.728-1.14.256.636 1.28-.728 1.454" fill="#efefef"/><path d="m660.91 334.287c-3.548.088-5.499 1.772-7.271 3.636-.083 2.697 3.377 4.258 1.454 6.544-4.874-2.599-12.207-4.685-13.816 2.182-1.901.08-4.399-2.543-5.09-4.363-.374-.987.766-2.167.728-3.635-.071-2.728-2.627-4.321-1.454-6.544-2.876-.81-3.969-4.18-6.544-5.817-.405-.257-1.875.349-2.182 0-.191-.217.229-1.302 0-1.454-.726-.478-2.544-.16-3.637-.728-.317-.164-.463-1.335-.727-1.454-4.442-2.002-5.488-5.534-2.182-10.907.801-1.302.524-4.119 1.454-7.272-1.269-1.277-3.704-2.967-5.817-2.909-1.814.05-2.605 1.648-4.362 1.454-1.043-2.444-.702-5.521-2.182-7.999-1.528-2.559-3.696-2.586-5.817-4.362-.594-.498-.881-1.624-1.454-2.182-.746-.729-4.419-3.266-5.09-4.363-.741-1.209-.94-4.15-1.454-5.817-.61-1.977-1.491-3.25-1.454-5.09.075-3.836 3.113-2.775 1.454-7.999.766-2.143 3.289-2.528 5.09-3.636-.68-4.316 1.985-5.286 2.908-7.999-.384-4.573-4.564-4.579-2.908-9.453 4.316-1.017 7.938-2.726 11.635-4.363.748-5.367 4.526-7.545 3.635-12.362-.453-2.453-1.711-3.178-3.635-4.363-1.447-.89-1.34-2.676-2.909-4.363-1.249-1.341-3.069.004-2.182-2.182 16.966-.001 31.917-2.017 47.992-2.908-.739 3.741.677 5.478 2.181 7.999.263.44 1.352 1.193 1.455 1.454.244.609-.291 1.597 0 2.181 1.124 2.255 3.033 4.711 3.636 7.272.768 3.258.347 7.651.728 11.634 1.045 10.929 2.717 23.459 3.636 33.449.265 2.877.835 6.188.727 8.726-.08 1.867-1.075 2.071-1.454 3.636-.209.868.668.43.728.728.088.44-.845 1.755-.728 2.908.256 2.544 2.997 5.021 2.909 8.726-.035 1.423-.696 1.719-1.455 3.636-1.058 2.677-1.035 3.111-2.181 5.09-.665 1.147-1.852 3.9-3.637 4.363 1.177 2.829-.453 5.169-.727 7.999-.092.95.834 2.363.727 3.636-.157 1.844-2.513 4-.728 7.271z" fill="#d6d6d6"/><path d="m647.821 135.775c1.064 3.228-.006 4.268 0 7.999.226.987 1.821.604 2.909.727-.996 4.147 1.906 4.395 1.454 7.999-.647.565-1.643.782-2.909.728.142 4.521-4.088 6.838-2.182 10.907 1.798.746 2.133-.76 2.909-1.455 2.062-1.849 2.808-5.217 5.816-7.271 4.695 1.693.397 5.384 0 8.726-.397 3.35-.618 5.32.728 7.999-2.021.402-2.036 2.812-2.908 4.363-.826 2.314.796 4.613.727 6.544-.092 2.583-1.906 5.532-2.181 8.726-.171 1.976.51 5.166.728 6.544.121.771-.724 1.475-.728 1.454.186.858 1.042 2.071 1.454 2.909 1.179 2.397 1.877 4.876 1.454 10.18-16.544.422-31.15 2.783-47.992 2.909-2.348.65-1.021-2.373-2.182-2.909-2.604-.061-4.201-1.131-6.544-1.454-.088-4.065-4.258-9.193-.728-12.362-.257-2.011-2.216-2.085-2.908-3.635-1.213-2.716-.351-6.824-1.454-9.453-.902-2.148-2.128-4.051-3.636-5.09-.843-.582-3.109-.438-4.363-1.454-2.253-1.829-3.376-5.326-5.817-7.271-.43-.343-2.469-.678-3.635-1.455-.791-.525-1.636-1.917-2.182-2.182-1.322-.638-3.206-.023-4.363-.727-1.527-.928-1.281-3.296-3.636-2.908 1.784-5.058-1.293-11.833 2.182-15.998-.845-2.306-2.022-4.28-4.363-5.09-1.067-1.622.749-1.362 1.454-2.909.404-.887.249-3.049.728-3.636.271-.333 1.808-.495 2.182-.727 1.207-.75 3.231-2.702 5.09-3.636.506-5.596-.727-9.453-.727-14.543 1.586.132 2.312-.595 2.181-2.182 6.281 4.518 14.89-4.161 21.088-5.817 1.395 2.106-1.601 4.85-1.454 7.999 6.721-1.486 12.828 1.586 15.27 6.544 4.319.536 7.436.723 11.634 1.454.969.169 2.853.491 3.637.727 2.001.603 3.774 2.479 5.817 2.909 3.223.678 7.083-.265 10.906.727.31 1.387 2.078 1.316 1.455 3.636 2.253-.074 3.473.888 5.089 1.454z" fill="#efefef"/><path d="m501.492 212.455c1.504-.935 1.989-5.055 1.989-7.721 0-2.667-2.182-1.697-1.454-2.909.727-1.212-1.211-4.121-.242-4.605s.969-.484.969-.484 82.168-1.212 90.41-3.151c0 0-.242 2.909 1.575 3.635 3.33-.359.077 3.166 0 5.09-.132 3.335 2.353 6.042 2.908 9.453 2.482.184 3.494 1.838 6.545 1.454.936 1.714-.096 1.353.727 3.636.44 1.104 3.675 1.788 4.363 3.636.116.312-1.077 1.083-.727 1.455.405.431 1.712.368 2.181.727.487.373.915 1.016 1.455 1.454 3.227 2.625 3.721 4.588.727 9.453-1.442.98.229 5.076-2.182 5.09-1.282 2.212-2.251-1.985-2.908 0 1.795 2.794-5.127 3.092-7.999 3.636.42 1.943-2.15 4.543 0 5.817.678 1.746 2.923 1.925 2.182 5.09.772 2.711-2.727 1.151-2.182 3.635.526 2.222-.743 2.65-.728 4.363-1.304-.093-1.533.89-2.424 1.211 0 0-2.544 1.939-2.302 4.605.239 2.641-4.525-4.612-6.908-5.09-.552-.111-6.322 1.276-7.999 1.454-18.486 1.96-43.256 2.092-62.534 2.181.67-1.49-1.836-2.126-2.182-3.635-.213-.931.815-3.143.728-4.363-.138-1.881-1.103-4.616-1.455-7.271-.072-.54.769-.756.728-1.454.001.023-.661-.991-.728-1.455-.403-2.875.051-2.193-1.454-3.636-1.118-1.071.238-1.201-.728-2.181.383.389-1.764.54-1.454-.727.692-9.175-5.413-11.555-5.091-20.36-1.846-1.324-4.111-4.497-1.453-4.363-1.295-.634-2.847.182-2.909-2.181-.034-1.304.556-1.489.728-.727" fill="#efefef"/><path d="m575.106 113.233c-.873-.955-.283-1.144 0-2.182-2.914.936.199 1.504 0 3.636-2.052.131-.907 3.456-3.636 2.909-.471 5.471.74 11.794 0 15.27-2.489 1.643-5.464 1.934-7.271 4.363-.376.506-.063 2.452-.728 3.636-.35.624-1.906.699-1.454 2.182.263 2.646 3.141 2.675 4.362 4.363.38 2.114-1.144 2.941-1.454 5.09-.445 3.084.873 6.238.728 8.726-.066 1.128-1.654 1.623-1.454 2.181.338.945 1.217 2.576 0 2.182.253 1.231 1.014-.487 2.181 0 .187.078-.157 1.296 0 1.454.223.223 1.266-.244 1.455 0 .402.521.176 2.282 0 2.182.191.11 1.042-.728 1.454-.728.809 0 .424.792 0 .728 1.765.269 1.535-.139 3.636 0 1.022 2.537-.492 1.119 1.454 2.182.882.481 3.28 1.925 5.09 2.181 1.028 2.608 3.146 4.126 4.363 6.544 1.466.913 4.055.768 5.09 1.454 3.482 2.311 3.164 6.97 4.363 10.908-28.641 2.143-58.52 3.046-89.439 2.909-2.102-11.387 3.434-36.831-1.455-44.356-.119-.185-1.418-.601-1.454-.728-.091-.317 1.064-1.078.728-1.454.015.016-2.117 1.15-2.908.727-.562-.3.009-4.046-2.182-3.635.636-1.071 1.406-.915 2.909-2.909.215-.285 1.396-1.308 1.454-1.455.171-.426-.311-1.87 0-2.182-.005.005 1.939.958 2.182 0 .173-.682-1.218.192-1.454-.727-.676-2.632.135-6.483-.728-10.181-.532-2.285-2.542-3.401-2.908-7.271-.308-3.235-.53-6.576-.728-9.453-.077-1.102.728-2.9.728-2.909-.136-1.467-1.271-3.118-1.455-4.363-.558-3.769-.178-7.342 0-10.18-.728-1.001-1.199.31-2.182-1.455-.449-5.09-2.875-9.851-2.182-17.452.277-3.036.25-6.23-1.454-9.453 9.05-2.044 25.97.535 32.722-1.455 1.391-1.054-.054-4.489 0-7.999h3.636c.777-.68.044 3.231 0 2.909.118.866.837.342.728 0 .684 2.129 1.73 4.362 2.181 6.544.194.938.46 4.427.728 3.636-.974 2.884-1.851-.882-3.636.728.585.597 1.292.594 2.182.727-.141-.021.337 1.215.727.727 1.609-2.011 2.228.24 4.363.728.38.087 1.314-.788 2.182-.728-.199-.014 5.637 1.106 6.544 1.455.296.114 1.241-.214 1.454 0 .779.778-.048 2.016 1.455 2.181 1.086.12 4.65-.101 4.362 0 2.169-.76 1.269-2.649 3.637-2.908 1.871-.204 4.645.031 6.543.727.455.167 2.809 1.371 2.909 1.454.825.683-.288 3.895 2.182 2.182.28 2.628 2.345 3.472 3.636 5.09 2.36-.063.512-4.335 3.636-3.635 1.289.213.917 2.141 2.182 2.909 1.06.644 4.667-.424 3.635 2.908 2.615 1.348 7.318-.069 8.727.727-.097-1.391 2.439-2.972 4.363-4.362 2.729-.548 1.584 2.777 3.636 2.908 3.262-.81 6.229-1.138 9.452-.728 1.586.202 3.845 3.232 6.545 1.455-.331 1.94-2.83 3.629-4.363 2.182-1.642.407.883 1.134-.727 2.182-3.833 1.256-8.329 1.852-10.18 5.09-.943.555-1.556-1.143-2.182-.728-.068.046.81 1.138.727 1.455-.022.088-2.386 1.624-2.908 2.182-1.037 1.106-1.66 3.157-3.636 2.909.754 2.736-1.733 2.853-2.909 4.363-.241.31-.428 1.942-.728 2.181-.863.689-1.903-.275-2.181 0-.196.195.946 1.015.727 1.455-.061.122-2.898 1.468-3.636 2.181-.993.955-1.791 3.415-4.366 3.634z" fill="#efefef"/><path d="m634.733 367.736c1.192 6.649-9.266 5.109-12.362 5.09.207-3.914 4.361-3.879 5.09-7.271-1.01-1.11-1.22-3.728-2.182-4.363-1.99-1.313-19.475 1.115-26.178 1.454-18.829.953-43.709 1.659-59.626 2.182-.266-21.306-.465-42.679-1.454-63.262-1.095-1.328-3.138-1.71-4.362-2.908.245-4.367-4.201-4.042-4.363-7.999 1.104-1.32 1.826-3.022 3.636-3.636.703-5.229-3.324-3.821-5.817-4.363.203-1.816-2.052-1.168-2.909-2.181-1.03-1.219-1.314-3.622-2.182-5.09-1.691-2.87-5.109-5.181-5.089-8.726 13.744.019 30.172.213 45.083-.727 2.935-.185 8.307-.419 13.089-.727 4.627-.298 9.352-2.15 12.361-1.455 2.977.689 4.255 4.014 6.545 5.09-1.528 5.114-.255 11.279 2.182 15.27.828 1.357 2.266 2.312 3.635 3.636.532.515 1.731.896 2.182 1.455.489.607.146 1.697.727 2.182.686.57 2.911.917 3.637 1.454 1.157.855.754 2.077 2.182 2.181 1.011 3.11.86 7.379 2.908 9.453 2.619.438 2.144-2.22 4.362-2.182 1.57.855 3.34 1.509 5.09 2.182-.437 6.402-6.073 11.791-2.181 16.724 1.164 1.476 2.121 2.527 3.636 3.636.959.702 3.669.635 3.636 2.909 2.607-.882 4.315 1.562 5.817 2.909.454.407 1.855.98 2.182 1.454.445.647.182 2.312.728 3.636.354.864 2.547 2.054 1.453 4.363-.014.032-1.415.875-1.453.727.741 2.824 3.467 4.055 3.635 6.544 1.85 1.299 3.546-.807 5.09 1.455-.908.779.179 1.797 0 2.908-.169 1.06-1.068 1.467-1.454 2.909-.206.768 1.332 1.31 0 2.909.265-.318-1.795-.217-2.182 0-1.517.848-2.287 3.807-2.908 0-1.847 1.679-1.045 3.242-.728 5.817-2.533.36-.945 1.249-1.453 2.181-.366.662-1.243 1.931-.003 2.18" fill="#efefef"/><path d="m626.007 385.915c-.384 3.05 1.271 4.062 1.454 6.544-.558 2.35-2.012 3.805-4.363 4.363.639 1.286 2.306 2.123.728 3.636-1.445 1.211-.925-.065-2.909 0 .204 2.122-.174 2.5-1.454 1.454-.636 3.425-.599 7.154 0 8.726-.785 2.365-4.358 1.943-4.362 5.09-1.445 1.211-.925-.066-2.908 0 .387 2.037 1.067 3.78 1.454 5.817-2.573-.392-3.188 1.177-4.363 2.182.31 1.419 2.078-1.189 1.454 2.182-.809 1.371-1.021 3.341-2.908 3.636-.464 1.586 2.061 2.313-.728 2.181-.713 1.272 1.44 1.847 1.455 2.182.016.381-1.389 1.661-1.455 1.455.944 2.966 2.536 1.559 2.909 3.636.146.816.724 2.14.727 2.182.14 1.66-1.249.987-1.454 2.182-.092.534 1.278 1.726.728 2.908-9.904-.417-19.759 1.695-30.541 1.454-1.492-.033-3.564-.794-5.09-.727-1.514.065-2.783 1.229-4.362 1.454-5.615.797-11.429-.781-16.725 0 0-4.121 0-8.242 0-12.362-.845.118-1.294-.16-1.454-.727-1.297-.829-2.623.003-3.637 0-.062-.001.082-1.374 0-1.455-.838-.839-.974 2.238-2.908 1.455-2.454-15.188-.042-32.439-1.454-47.992-.704-7.763-3.639-14.87-3.637-21.815 23.847-.152 49.454-1.306 73.443-2.909 4.475-.299 11.258-3.108 12.361 2.909.053 2.179-2.139 3.69-3.636 2.182 1.962 1.789-2.689 4.028-.728 5.817 3.926 2.72 6.398-1.021 12.362 0 .831 1.462-1.304 1.078-1.454 1.455-.255.634.597 1.665.727 1.455-1.029 1.674-1.822 1.552-3.636 2.908 1.142 3.333-.26 3.39-2.182 5.09z" fill="#efefef"/><path d="m490.029 65.968c.361 1.992.509 3.431.728 5.09.311 2.357-.17 4.289 0 8.726.025.648.901 1.11.727 2.181-.294 1.812.436 6.166 1.455 9.453.807 2.605 2.463 4.696 2.909 7.272.233 1.356-.728 2.62-.728 2.908.004 1.164 1.294 5.369 1.455 7.999.094 1.547-.769 1.924-.727 2.909.018.417.333 5.591.727 7.999.199 1.222.246 3.049.727 4.363.317.866 1.926 1.998 2.182 2.909.824 2.935.319 5.841 1.454 8.726-41.621 1.869-84.301-1.503-124.342-3.636 2.262-23.673 2.495-49.375 5.817-71.988 34.074 3.492 72.452 2.684 107.616 5.089z" fill="#efefef"/><path d="m501.059 218.549c-3.878-4.605-9.833-5.438-12.483-7.877-2.16.924-5.245.25-7.998.727-2.061.356-3.016.589-4.363 1.454-1.239-.654-3.434-1.152-5.09-2.181-1.446-.898-2.469-2.624-3.636-2.909-3.076-.751-7.003.142-10.18 0-26.858-1.195-60.352-2.047-85.804-4.363.5-24.466 3.688-46.244 5.09-69.807 39.533 3.126 80.739 4.58 123.615 4.363.398 4.518-3.842 4.397-4.362 7.999 1.197 1.226 1.58 3.268 2.909 4.362.932 1.25 3.461.901 3.635 2.909.447 13.368-.918 28.55.728 40.72.308 3.606-2.179.411-2.909 2.182-.421 1.676 1.455 2.154 1.455 3.635 0 1.28-.938 1.502 0 3.636.487 1.11.833 4.802 0 7.271-.386 1.143-2.456 3.389-.848 4.969z" fill="#efefef"/><path d="m522.751 279.75c-39.68 2.111-81.094-.347-119.979-1.454-.556-8.797 1.124-15.359.727-23.996-11.175-1.672-24.517-1.177-35.63-2.909 1.462-15.505 1.672-32.262 3.636-47.265 21.382 2.755 49.962 2.442 73.442 4.363 6.82.558 14.574-1.164 20.36 0 3.012.605 5.589 2.997 8.726 4.363.662.289 1.29.665 1.455 1.455 2.126.668 2.183-1.793 3.636-2.182 1.905-.509 6.514.996 8.726-.727 1.974.241 1.119 2.013 2.909 2.909 1.498.749 3.846 0 5.09.727 1.354.792 2.498 2.765 3.636 3.636 1.45 1.11 2.481 1.997 4.363 2.182-1.476 1.729 1.386 3.918 1.453 5.09.081 1.364-.666 2.876 1.455 5.09.61.636.771 1.897 1.454 3.636.753 1.919 2.095 3.582 1.454 7.999.049 2.133 2.223 2.142 2.909 3.635.69 1.052-.146 2.929 0 3.636.36 1.743 1.282 1.627 1.454 2.909.213 1.588-.77 1.888-.727 2.908.006.164.697 1.31.727 2.182.039 1.146.099.935 0 2.182-.283 3.582 1.346 7.184 2.909 10.18.186.356.374 1.593.728 2.182.919 1.535 4.898 3.838 5.087 7.269z" fill="#efefef"/><path d="m530.022 287.022c-.365.614-1.044 2.241-1.454 3.636-.378 1.285.327 3.413-1.454 3.635.632 2.148 1.089-1.687 2.908-.727-.132 1.586.596 2.313 2.182 2.182-.797 4.917 3.958 4.283 5.091 7.271.086 16.638 1.199 32.249.727 49.446-46.245 2.058-93.542-.274-138.886-1.454 1.022-24.186 1.934-48.482 3.636-71.988 23.355 2.324 49.429.885 74.169 2.909 7.696.629 16.575.326 23.996 0 8.579-.377 16.524-1.962 21.814-.727 2.711.632 2.431.761 4.363 2.908 2.103 2.1 3.315-2.456 3.636.727 1.236-.267 1.372.567 1.454 1.455-3.684-1.034-1.644-.326-2.182.727z" fill="#efefef"/><path d="m529.296 426.635c-2.336-.64-.997 2.397-2.909 2.182-2.287.349-2.842-1.036-4.363-1.454-3.262.069-5 3.718-7.271.727-2.435 1.443-4.943 2.814-7.272 4.363-2.293-.857-4.039-2.262-5.816-3.636-1.715-1.779-1.353 1.086-3.635.728-.232-1.708-2.251-1.628-2.909-2.909-1.348 1.804-4.208 2.095-3.636 5.817-2.28-.503-.948-1.939-.727-3.636-2.09-.15-3.694.185-4.363 1.454-1.723-1.186-2.752-3.064-5.089-3.636-2.351-1.986-2.064 3.32-5.817 2.182 1.235-4.386-4.422-1.88-2.909-6.544-3.029-.121-6.069-.252-7.272 1.454-5.056-1.599-9.996-3.433-14.543-3.636 1.019-4.169-2.669-3.633-2.909-6.544-1.479 3.235-2.422 1.454-4.362 1.454-.461 0-.892.7-.728.728-3.106-.508-4.335-4.476-7.271-5.09.167-15.104.813-29.728 1.455-44.356-4.433-4.161-11.616-1.629-18.179-2.182-11.065-.932-27.96-2.207-39.812-2.727.727-4.726.727-7.09 1.272-10.362 50.987 2.822 104.312 3.307 158.518 2.909-1.228 13.809 3.444 25.184 4.363 37.812.979 13.447-.721 26.806 0 42.175-5.784-1.247-9.011-5.05-13.816-7.273z" fill="#efefef"/><path d="m190.443 35.428c10.23.858 23.035 4.065 33.449 5.817 17.259 2.905 35.631 6.033 53.809 8.726 21.875 3.24 45.165 5.915 67.625 7.999 7.521.698 15.025 1.708 22.542 2.182 4.467.281 8.984.093 13.089.727-3.012 30.922-3.809 64.058-7.271 94.529-30.619-2.643-61.903-5.21-92.348-9.453-8.465-1.18-17.075-3.167-25.451-2.909-2.022 2.098-1.894 6.347-2.181 10.18-3.024.116-1.453-4.365-3.636-5.09-3.958-.807-2.323 3.979-5.817 3.636-3.032-.917-6.34-2.088-9.453-2.182-1.565-.046-2.266 1.309-3.636 1.455-1.378.146-2.746-.733-4.363-.728-2.256.009-3.139.755-5.09 1.455-.815-3.788.018-11-5.817-11.634-1.64-1.572.602-2.48 0-5.09-.271-2.149-2.153-3.366-2.909-5.818-1.053-3.415-.093-7.957-2.182-10.907-2.793-.475-4.035 2.567-5.817 2.908-2.452.47-2.069-.145-5.09-1.454-.955-2.141 1.454-2.206 1.454-3.636 0-.282-.504-1.125-.727-.727 1.007-1.793 1.943-.955 2.909-2.909-1.596-7.179 2.729-11.459 4.363-17.452-.013-2.411-4.109-.738-5.09-2.182 1.93-1.962-.442-.313-1.455-1.454-.477-.537-.307-1.632-.727-2.181-1.12-1.465-1.091-.364-.727-2.182.091-.454-1.204-1.699-1.455-2.182-1.001-1.931-2.357-4.663-3.635-6.544-.83-1.222-1.933-1.73-2.909-2.909-.477-.575-.237-1.527-.728-2.181-.615-.821-1.572-1.455-1.454-2.908.101-1.235.891-1.604.727-2.909-.514-4.101-2.662-6.42-4.363-9.453 1.726-7.242 3.454-14.483 4.364-22.54z" fill="#efefef"/><path d="m373.686 156.135c-3.157 31.019-4.083 64.27-7.271 95.256-42.966-3.086-84.58-7.527-124.343-13.816 3.58-21.927 6.688-46.384 10.18-70.534.519-3.592 1.649-7.173 2.182-10.907.644-4.515-.256-9.448 2.908-12.362 4.566.417 15.417 1.832 23.269 2.909 24.986 3.425 53.143 6.734 79.259 8.726 4.593.351 9.241.944 13.816.728z" fill="#efefef"/><path d="m278.429 244.12c40.579 4.505 81.848 8.318 124.343 10.907-2.059 31.632-2.926 64.457-5.09 95.984-44.517-2.872-88.371-6.767-131.615-11.634-.146-3.683.237-7.808.727-11.634 3.328-25.958 7.23-55.343 10.908-81.441-.063-1.032-.12-2.06.727-2.182z" fill="#efefef"/><path d="m377.321 363.373c-1.073 8.927-.875 18.461-1.454 27.631-1.14 18.013-2.316 35.956-3.636 53.81-.644 8.709-.964 17.252-2.908 25.449-24.131-1.562-47.731-3.654-71.261-5.817-2.498.937 1.93 4.723 0 5.091-10.344-1.29-21.401-1.868-31.268-3.636-2.134 2.471-1.088 8.122-2.908 10.907-4.736-1.08-10.873-.763-15.271-2.182 5.434-44.982 11.567-89.265 16.725-134.523 37.191 4.014 73.852 8.559 113.436 10.18z" fill="#efefef"/><path d="m137.362 428.816c.224-1.714 2.525-1.353 2.181-3.636.713-.71 3.439.925 4.363 0 .08-.079 1.205-3.43 1.455 0 1.09-.629.003-3.851.727-4.363.411-.291 2.177.7 2.182.728-.156-.984-2.103-2.194-2.909-2.909-.894-.792-1.251-1.849-2.909-2.181.971-3.159.1-4.855.727-7.272.232-1.836 3.308.984 3.636.727.439-.343-1.46-1.477-1.454-1.454-.222-.944 3.181-5.091 3.636-6.545.647-2.07-.089-4.524.727-5.817 2.592-4.106 5.924-2.651 8.727-7.271-.063-2.1-1.468-2.806-3.636-4.363-.151-7.479-5.812-13.111-.727-18.179-.192-8.023.245-16.531.727-21.815 3.317-1.125 3.076.573 6.544.728 1.16.537-.166 3.559 2.182 2.909 1.939 1.877 2.289-1.462 3.636-2.909 1.064-1.144 1.461-1.974 2.181-5.817.68-3.633 1.494-9.822 2.182-13.816 10.108 1.723 20.042 4.168 30.541 5.817 1.182.186 2.455-.192 3.636 0 17.282 2.817 39.025 6.059 58.899 8.726-6.182 44.478-11.075 90.241-17.452 134.523-13.624-1.403-26.125-3.931-39.993-5.09-.606-.298-.672-1.76 0-1.455-1.2-.544-6.742-.553-5.09-3.636-1.492 1.703-3.253-.557-5.09-1.454-1.545-.753-4.523-1.597-5.09-2.182-.146-.151 1.063-1.251.727-1.454-.715-.432-.576.697-.727.727-.9.18-.37-.598-.728-.727-3.526-1.26-7.119-3.335-10.18-5.091-2.599-1.489-5.102-2.884-7.271-5.088-.39-.396-1.634.254-1.455-.728-.035.19 1.239-.413.727-.728.013.008-2.939 1.394-3.636 0-.046-.091.973-1.353.727-1.454-.664-.276-1.749.756-3.635 0-1.365-.548-2.342-2.145-3.636-2.908-.779-.46-1.474-.318-2.181-.728-2.349-1.36-6.586-3.63-9.453-5.818-.452-.344-1.625.207-1.455-.727-.034.189 1.239-.411.728-.727-.708-.438-.581.697-.728.727-.649.13-4.549-2.937-5.817-3.636-2.139-1.176-4.616-1.804-6.546-3.634z" fill="#efefef"/><path d="m164.993 347.375c-2.896.23-1.969-3.363-4.363-3.636-2.245.118-4.11-1.718-5.817 0-1.911.383-1.43 2.149-1.454 3.636-.019 1.154.086 1.704 0 2.909-.184 2.57-.534 5.35-.728 7.999-.177 2.431 1.152 4.357.728 6.544-.357 1.839-3.287 2.127-2.182 4.363-15.268-21.352-32.675-47.73-49.446-71.988-2.633-3.809-5.954-7.903-8.726-12.362-1.065-1.713-1.96-3.445-3.636-5.817-.323-.457-1.188-1.025-1.454-1.454-.345-.555-.292-1.542-.728-2.182-.738-1.084-2.128-1.76-2.909-2.908-.473-.698-.318-1.524-.727-2.182-1.374-2.211-4.421-5.543-6.544-8.726-3.466-5.198-5.121-6.028-3.636-12.362.296-1.261 1.159-2.386 1.454-3.636.754-3.182.82-6.825 1.455-9.453 4.122-17.068 9.282-34.541 13.089-51.627 33.23 8.217 67.696 15.199 102.528 21.814-5.363 28.692-10.136 59.279-15.998 87.985-1.864 9.131-2.699 18.658-4.363 27.632-.822 4.43-2.081 8.692-2.908 13.089-.79 4.201-.597 8.861-3.635 12.362z" fill="#efefef"/><path d="m192.625 206.308c17.154 2.722 33.539 6.212 51.628 7.999-.835 8.618-1.985 16.921-3.636 24.723 12.719.854 23.782 3.365 36.357 4.363-4.466 31.408-7.866 63.879-12.361 95.257-32.226-3.406-62.455-8.807-93.076-13.816 7.118-39.42 14.367-78.71 21.088-118.526z" fill="#d6d6d6"/><path d="m142.027 195.946c1.139-7.656 2.822-13.084 4.166-19.733 1.395-6.898 2.22-13.958 3.623-20.527.479-2.242 2.144-3.975 2.898-5.865.732-1.833.583-4.343 1.008-6.169-.685-1.507-3.503-1.083-3.393-3.394-.124-7.456 4.849-8.471 8.906-11.697-1.349-2.284.588-3.269 1.516-4.785.828-1.353 1.994-4.482 2.909-5.817 2.09-3.05 4.675-4.118 4.605-6.787-.05-1.899-1.812-3.508-2.909-5.09-1.053-1.516-1.618-1.737-2.499-3.913l.725-1.466c-.759-1.782.062-2.057-.65-4.801-.216-.833-.295-3.342-.243-4.121-.008.124.682-.748.893-1.341.765-2.162-.061-5.568.319-7.626 1.414-7.641 4.525-15.054 5.575-23.753.647-5.361 2.503-8.429 2.909-12.362.119-1.152.633-3.452.727-3.636.206-.402.988-4.47.969-4.363.676-3.847.353-3.815 1.682-6.303l13.346 2.909c-.914 8.323-2.148 14.575-3.878 22.058 1.708 3.133 3.256 5.422 3.772 9.658.164 1.348-.629 1.729-.729 3.005-.119 1.501.841 2.157 1.459 3.004.493.676.251 1.66.73 2.253.979 1.217 2.085 1.742 2.918 3.004 1.283 1.943 2.644 4.766 3.648 6.76.251.498 1.55 1.785 1.459 2.254-.365 1.876-.395.74.729 2.253.422.568.251 1.698.729 2.253 1.016 1.178 3.702.372 1.765 2.398.984 1.491 4.789-1.132 4.802 1.357-1.64 6.19-5.676 9.164-4.075 16.579-.97 2.018-1.909 1.153-2.919 3.004.224-.411-.232 1.552-.232 1.843 0 1.478-.715 1.667.242 3.878 3.032 1.353 3.6 1.698 6.06 1.212 1.788-.352 2.044-2.915 4.847-2.424 2.026 2.945.546 6.577 1.697 10.423.758 2.532 2.394 3.355 2.666 5.575.604 2.696-1.161 3.951.484 5.574 7.229.81 4.797 5.842 6.06 11.877 1.958-.723 2.826-1.203 5.09-1.212 1.623-.006 2.495.636 3.878.484 1.375-.15 3.519-1.745 5.09-1.696 3.124.096 5.926.993 8.968 1.939 3.507.355 1.845-3.984 5.817-3.151 2.19.75.115 5.452 3.151 5.333l-8.787 59.081z" fill="#efefef"/><path d="m20.29 276.842c2.896.74 2.749 4.522 5.817 5.09.091-.891.125-2.92-.728-6.544-.48-2.045-2.009-4.892-2.181-7.999 1.476-.417 2.213-.115 3.635 0 .662.054 1.104.903 2.182.728.592-.096 3.196-.675 4.363 1.454 2.222.525 2.649-.743 4.363-.727 1.089 1.093 1.301 3.062 2.909 3.636 1.22-4.224-5.312-3.43-3.636-5.818-3.261 2.68-6.282-2.168-8.726 0-2.415-.736-2.277-4.024-5.817-3.636-2.177.732-1.435 4.382-2.182 6.544-1.409-.968-3.062-2.797-4.363-4.363-1.142-1.375-3.294-2.389-2.181-4.363.79.18.493 1.445 1.454 1.454-.331-3.287-.849-6.324-2.181-9.453-.37-.868-.984-.84-1.455-1.455-.371-.485-1.909-2.733-2.182-3.636-.186-.613.283-1.612 0-2.182-1.104-2.225-3.315-4.38-3.636-6.544-.145-.98 1.353-2.86 1.454-5.09.1-2.188-.945-3.934-.727-5.09.744-3.946 3.658-5.03 2.909-10.908-.338-2.655-1.606-6.059-2.909-8.726-.752-1.541-2.757-3.229-2.908-5.09-.399-4.918 2.552-9.438 7.271-10.907-2.067-1.269 1.132-2.464 1.454-3.636.27-.982-.505-3.053 0-4.363.755-1.958 2.865-3.004 3.636-5.09 1.53-4.143-.865-9.978 1.454-14.543 23.812 5.76 45.886 13.256 70.534 18.179-1.906 12.279-5.234 23.983-7.999 35.63-2.779 11.705-5.711 23.292-8.726 34.904 14.515 22.124 30.366 43.373 45.083 65.443.875 1.312 1.286 3.033 2.182 4.362.738 1.097 2.182 1.854 2.908 2.909.897 1.301 1.286 3.032 2.182 4.363.736 1.093 2.191 1.854 2.909 2.908.878 1.29 1.317 3.169 2.182 4.363.793 1.095 2.165 1.835 2.908 2.908.876 1.264 1.395 3.144 2.182 4.363.308.477 1.184 1.019 1.455 1.454 4.565 7.345 10.101 16.05 15.997 23.269-2.289 4.474 4.125 9.092 2.182 13.089.687 2.222 3.539 2.279 3.636 5.09-.626 2.651-3.768 2.534-5.09 3.636-1.151.959-2.837 2.747-3.635 4.363-.94 1.902-.276 5.808-1.455 7.999-.229.425-1.093.911-1.454 1.455-.659.992-1.478 2.204-3.636 2.908.235 3.325.748 4.037-.727 6.545-.094 2.518 3.199 1.648 3.636 3.635.833 3.015-1.529 2.834-1.454 5.091-14.942-1.297-34.565-3.557-51.627-5.091-.749-1.015.719-2.954.727-2.908-.402-2.38-2.018-.72-2.181-2.182-.23-2.058 1.133-5.433.728-8.726-1.113-9.029-8.569-12.271-12.362-19.633-2.06-.758-3.03-.758-5.09 0 .357-3.265-.368-5.449-.727-7.999-5.66-1.629-8.98-1.622-12.361-5.09-.932-.955-.81-2.5-1.455-3.635-1.971-3.47-4.665-5.971-9.453-5.817-2.014-2.98-6.254-3.179-10.18-3.636-1.513-.176-1.942-3.692-4.363-3.635 2.232-3.1 1.541-9.125 3.636-12.362-.069-2.839-2.938-2.878-4.363-4.363.312-1.385 1.566-1.827 1.454-3.636-.255-2.283-2.506-3.307-3.635-5.09-.33-.52.265-1.622 0-2.182-.22-.463-2.38-1.681-2.909-2.909-1.01-2.344-.493-4.852-1.455-7.271-.329-.828-1.699-1.175-2.182-2.182-.526-1.099-.333-2.22-.727-2.909-1.862-3.254-3.309-5.062-2.181-10.907 2.619.438 2.143-2.219 4.363-2.181.225-2.649-.115-4.732-.727-6.544-.306-1.633-3.858-.02-4.363-1.454-1.091-2.346-3.111-3.736-3.636-6.545-.271-1.449 1.316-2.134 1.454-3.635.135-1.469-1.842-4.486-.727-5.09" fill="#efefef"/><path d="m18.836 276.842.727.364" fill="#efefef"/><path d="m19.563 277.206c-.102-1.129.105-2.317.727-3.272" fill="#efefef"/><path d="m19.563 277.206.727-.364" fill="#efefef"/><path d="m16.654 163.406c-1.812-4.748-.346-11.128 2.182-13.816-3.353-6.892 3.177-9.803 3.636-15.27 1.598 2.818 2.935-4.326 3.636 0 2.706-2.436-.668-3.155.727-5.817 1.732-.449 1.194-3.168 4.363-2.181.527-2.224-1.254-2.139-.728-4.363 3.096-3.448 2.819-10.27 6.544-13.089-.734-7.938 6.36-13.873 7.271-22.542 1.076-.842 1.833-.842 2.909 0-.153-.958-1.418-1.139-1.455-2.182-.046-1.325 1.097-1.381 1.455-2.908.288-1.229-.225-2.743 0-3.636.686-2.729 2.22-5.017 2.182-7.999 2.353-.898.556 2.353 2.909 1.454 1.889-2.075 5.967-.192 5.817 2.182 3.591-.682 4.932.885 6.544 2.181-.526.932.67 1.187.727 1.455 1.394 6.58-3.048 8.85 2.182 12.362.866.581 2.008.155 2.909.727.647.412.424 1.277 1.454 1.455 1.421.245 3.722.262 5.09 0 1.488-.285 2.001-1.47 3.636-1.455 4.207.041 7.523 1.623 10.18 4.363 2.788 1.351 5.728-.325 8.726 0 1.4.152 2.888 1.411 4.363 1.454 5.133.149 10.192-1.499 15.271-1.454 1.714.015 4.127.622 5.817.727 1.83.115 3.466-.2 5.09 0 5.185.64 10.278 2.598 15.27 3.636 5.274 1.096 10.279 2.209 15.997 2.908.884 2.158 1.853 3.586 2.909 5.09 1.102 1.568 2.858 2.479 2.909 4.362.07 2.647-2.993 4.974-5.09 7.999-.918 1.324-1.35 3.021-2.182 4.363-.931 1.504-3.535 2.098-2.181 4.363-4.072 3.199-8.85 5.692-8.726 13.088-.111 2.292 2.948 1.415 3.635 2.909-.427 1.811-.174 3.817-.909 5.635-.757 1.875-2.428 3.593-2.908 5.817-1.409 6.516-2.237 13.518-3.636 20.36-1.349 6.595-3.281 13.181-4.363 19.633-34.396-6.441-68.153-15.761-100.165-24.542-1.024-.281-1.753-.589-2.182-.727-7.36-2.365-15.085-2.871-21.815-6.542z" fill="#efefef"/><path d="m83.552 32.519c1.612-.4 1.036 1.389 2.182 1.455-.296 1.81-2.819.043-2.182-1.455z" fill="#efefef"/><path d="m81.371 36.155c1.811.296.043 2.819-1.455 2.182.257-.956 1.281-1.144 1.455-2.182z" fill="#efefef"/><path d="m53.012 65.241c.487-2.714-2.015-4.267 1.454-4.363-.473-.74-1.672-.752-1.454-2.182 1.984-.066 1.463 1.211 2.908 0 1.471-2.332-2.877-2.274-.727-2.909-.074-1.401-2.709 1.129-3.635-.727-.167-3.318 3.998-2.304 5.817-3.636-2.197-.711-2.952-2.865-5.09-3.635 1.236-3.146-.61-6.688 0-10.907.25-1.727 1.099-5.755 0-8.726-.336-.909-1.27-1.169-1.455-2.182-.312-1.708-.185-4.293 0-5.817.007-.057 1.272.952 1.455.727 0 0-.825-1.59-.727-2.181.186-1.135 3.559-2.592.727-2.182.209-1.982 1.222.578 2.181 1.454 1.85 1.69 3.482 1.572 2.181 4.363.74-.473.752-1.672 2.182-1.455.201 3.023 3.293 2.382 6.544 3.636.342.132.458 1.337.727 1.454 1.031.451 3.189.086 4.363.728.998.546 1.843 2.381 4.362.727-.952 3.224 4.162 2.297 2.182 4.363h2.909v4.362c-3.014-1.552-2.73 1.509-4.363 0-1.875.175.999 1.251 0 2.909-.976.677-6.087 3.535-6.544 5.09-.366 1.246 2.782 1.859.728 2.909 1.43-.993 4.153-.694 5.817-1.455-2.082 1.554-3.101 4.17-6.544 4.363 1.474.95.999 3.849 2.909 4.363.679-.533 1.102-1.322 1.454-2.182.039 1.089 1.766 1.301.727 2.909 2.472-1.054 2.74-3.25 4.363-4.363.631-.433.707.73.727.727 1.354-.194 2.827-2.387 4.363-2.908-.591-1.4.69-3.008.727-4.363.018-.662-.618-2.563-.727-2.181.27-.945 1.058-.13 1.454-.728.449-.678-.433-2.219 0-2.909.616-.98 2.643-1.301 2.909-2.909 1.267.657 2.801 1.626 1.454 2.909 2.659-1.382-1.561-3.479-2.182-6.544-.429-2.12 2.002-4.836-.727-6.545 1.089-1.942 2.675-5.623 2.182-8.726-.157-.983-1.157-.149-1.455-.727-.156-.304 1.062-2.244 0-.728-1.234-.472-.454-1.671.728-1.454.037-1.377-1.73-.129-1.455 0-1.811-.851.807-3.015-.727-1.454-1.19-3.363 1.867-.843 2.909-.727 2.208.245 6.137.744 8.726 1.454 2.612.718 5.133 2.31 7.271 2.909 1.123.314 2.49-.233 3.636 0 2.326.473 4.265 2.522 5.817 2.909.404.1 1.771-.885 2.909-.728 1.651.229 3.41 1.739 5.09 2.182 1.136.299 2.491-.267 3.636 0 1.567.366 3.501 1.907 5.09 2.182 4.433.766 8.235 1.933 12.362 2.908 4.434 1.048 8.701 1.205 13.089 2.182.881.196 2.155 1.284 2.908 1.455 5.3 1.196 10.564 1.054 15.271 2.909-1.334 2.466-.776 4.183-1.455 7.999.019-.106-.52 2.51-.727 2.909-.094.182-1.433.627-1.454.727-.09.425.846 1.766.727 2.909-.407 3.901-2.259 7.044-2.908 12.362-1.054 8.629-4.4 17.872-5.818 25.45-.382 2.042.041 3.673-.727 5.817-.211.589-1.462 2.304-1.454 2.182-.053.772 1.237 1.355 1.454 2.182.715 2.723-.761 4.05 0 5.817-5.366.89-10.634-1.757-15.997-2.909-3.181-.683-7.313-.436-10.18-1.455-.24-.085-.579-1.419-.727-1.454-.354-.084-1.34.77-2.182.727-1.342-.068-3.083-1.321-4.363-1.454-2.423-.253-2.804.389-5.09 0-1.15-.196-5.936-.703-5.817-.728-.46.097-.734 1.455-.727 1.455-1.188.052-2.682-.794-4.363-.727-1.475.059-8.141 1.789-9.453 1.454-.512-.131-.783-2.071-2.181-1.454 1.211-1.445-.065-.925 0-2.909-.915.18-.733 1.446 0 1.454-.065 1.454-1.595.03-1.454 0-.628.133-1.213 1.416-1.455 1.455-2.139.346-4.34-.245-7.271 0 .529-1.984-1.446-1.463-1.455-2.909-4.22.138-5.958-2.283-9.453-2.181-.798.023-1.709 1.32-2.181 1.454-1.083.306-1.087-.711-1.455-.727-1.93-.083-2.864 1.571-3.636 1.454-1.608-.243-4.041-3.18-6.544-3.636-.284-4.496.966-7.267 0-10.907-.104-.394-.22-1.926 0-1.455-.514-1.1-.566.083-.727 0-3.087-1.586-1.315-4.818-5.817-2.909 1.35-1.485-.348-.981 0-.727-.659-.482-.821-2.497-2.182-2.908-.5-.151-1.773.305-2.182 0-.525-.392-.384-2.263-2.181-1.455" fill="#efefef"/><path d="m77.735 41.245c-.435 1.89.292 2.617 2.181 2.181.906 3.088-2.419 1.945-2.909 3.636-.983-1.44-2.019-2.829-5.09-2.182-.211-2.824 3.9-2.248 2.181-2.908 1.083-1.568 2.053.795 2.909-1.455" fill="#efefef"/><path d="m77.008 40.518v.727" fill="#efefef"/><path d="m77.008 41.245c.515-.212.845-.609 1.091-1.091" fill="#efefef"/><path d="m77.008 41.245h.727" fill="#efefef"/><path d="m53.878 930.831c2.888.246-.767 5.531-2.181 3.634 1.242-.697 1.594-2.284 2.181-3.634z" fill="#e5e5e5"/><path d="m25.52 933.737c1.174-.203 1.252.688 2.181.728-.618 1.078-1.83 1.564-3.636 1.454.474-.738 1.673-.751 1.455-2.182z" fill="#e5e5e5"/><path d="m12.431 932.283c.542-2.237-1.996-1.396-1.454-3.634 2.002 1.146 3.719 2.6 1.454 4.361-.826-.138-.403-.729 0-.727z" fill="#e5e5e5"/><path d="m1001.216 85.602c1.411-.289 1.063 3.312-.727 2.181 0-.484 0-.97 0-1.454.618.133.686-.284.727-.727z" fill="#efefef"/><path d="m979.402 100.871c2.734.634.829 3.22-1.454 2.909.378-1.076 1.075-1.833 1.454-2.909z" fill="#efefef"/><path d="m927.593 94.146c.12-1.219 1.958-.298 2.909-.728 1.676-.758.946-3.489 3.635-2.908-.419-1.521-1.804-2.075-1.454-4.363.63-2.277 1.802-4.016 3.636-5.09-1.923-1.97.771-2.726.727-4.363-.079-2.941-2.387-5.057-2.182-7.999-.009.144.426-2.933.728-3.636.272-.628 1.36-.424 1.454-1.454.213-2.314-.901-4.902-.727-7.271.152-2.067 1.506-3.095 2.182-5.09.488-1.444.209-3.416.727-5.09.427-1.377 1.049-2.518 1.454-3.636.371-1.023 1.054-2.614 1.455-3.636.382-.971.477-3.311 2.182-2.909 1.901-.557.923 1.326 1.454 2.182.831 1.336 2.318 1.54 2.908 2.909 3.91-1.422 6.55-4.115 9.453-6.545 1.335.235 3.377-.044 5.09.728.622.28.899 1.812 1.455 2.182.639.427 2.439.163 2.908.727.539.649 1.298 3.914 2.182 6.544 1.619 4.822 2.853 10.126 5.09 15.998.683 1.792 2.06 4.471 2.181 7.999 1.336 1.573 4.287 1.53 7.272 1.454-.025 4.874 2.198 7.497 4.363 10.18.744-.71 1.471-1.437 2.181-2.181 1.689.492 1.946 2.417 3.636 2.909-.01 1.445-1.983.925-1.454 2.909.492 1.44 2.417 3.197 2.908.727 1.66 1.513-2.004 6.762-4.363 4.363-.977 2.416-2.336 4.45-4.362 5.817-.789-.18-.492-1.446-1.454-1.455-1.968.177-.796 3.046-.728 2.909-.602 1.195-3.27.355-2.181 2.909-1.275-.665-3.628-.25-4.363-1.454-1.161 1.97-1.579 3.833-3.636 1.454v5.817c-4.499 1.348-2.208-4.095-4.362-5.09-2.122-1.357-.981 2.092-1.455 2.909-.092.16-1.403-.164-1.454 0-.371 1.204.732 2.218.728 3.636-.012 2.535-1.472 4.984-.728 7.999-1.474 1.436-6.209-.392-5.09 3.636-.838 2.353-.823-1.953-.728-2.909-2.217.953-4.137 4.472-5.09.727-1.889 2.276.737 4.571-.728 7.271-.977.495-.449-2.125-.728-2.182-.648-.132-3.056 1.47-3.636 3.636-.33 1.233.24 3.188 0 4.363-.245 1.199-1.353 1.701-1.453 2.181-.269 1.266 1.044 1.568.727 2.909-.257 1.084-1.882 1.962-2.182 2.909-.805 2.544.342 5.107-.727 5.817-1.916.219-2.388-1.006-2.182-2.909-2.459.036-3.154-1.693-4.363-2.908.64-4.306-2.448-7.967-3.636-11.634-.843-2.606-.783-4.458-1.454-7.271-.042-.181-.728-.043-.728-.728 0-.348.625-1.039.728-.727-.303-.917-1.845-1.446-2.182-2.182-.299-.652-.698-2.808-.727-2.909-1.539-5.521-3.128-11.913-5.816-17.453z" fill="#efefef"/><path d="m756.53 343.013c-.969.33-2.017.598-2.909 1.091l2.545-.364c3.081.451 5.023-.502 6.545-.727 7.885-1.166 18.976-2.138 23.27-4.363-.277.144-.922-.646 0-.727-.046.003 1.273 1.367 2.182 1.454 2.749.262 7.485-.365 10.18-.727 10.886-1.464 20.834-4.487 31.267-5.817 3.164-.403 4.098-1.136 5.817-1.454 5.136-.95 8.277-.673 12.361-1.454 9.035-1.729 18.674-4.313 26.178-5.818 2.217-.444 4.92-.156 6.545-.727.467-.164.646-1.273 1.454-1.454-.112.025.783.785 1.454.727 1.259-.108 2.253-1.107 3.636-1.455 2.237-.56 2.979-.04 4.363-1.454-.227.231-.957-.281-.728-.728.287-.557 1.222.184 1.454-.727.146-.571-.648-2.5-.727-2.909.09.476-.705.9-.728.727-.186-1.445 1.449-1.694 0-2.909-2.653-.646-3.872 1.284-5.09 0-.13 3.003 2.456 2.161 2.908 2.909-1.543 1.458-3.239-1.032-5.09-1.454-1.144.553-1.087 2.307-2.908 2.182-.605-2.334-.62-1.508.728-2.909-2.248-1.774-3.901 1.379-5.091-1.455.729.003.865-.589 1.454-.727-1.757 1.833 1.136 1.287 1.455.727-1.065-.632-2.306-1.088-2.182-2.908-1.984-.049-4.358.066-5.817 0 .667.03-1.939-.284-1.455 0-.139-.083.141-1.423 0-1.455-1.529-.347-3.202.891-5.089-.727 2.203-1.047 6.218-1.747 7.271 0 .114-.856-.124-2.064.728-2.182.752 1.288 2.182 3.03 4.363 2.667l2.545 1.697c1.538 1.334 2.475 2.505 4.727 1.454 1.13-2.922-2.061-3.393-3.636-3.272l-2.061-1.212-1.575-.606c-1.364-2.271-4.453-2.818-5.817-5.09 1.483 1.46 1.426-.321 2.908-.727.71 2.838 2.664 2.161 3.636 2.908-.377-.291-.793.343-.727.727.296 1.73 2.708-1.262 2.908 1.455 1.461-1.482-.321-1.426-.727-2.909.729.003.865-.589 1.454-.727l-.728-1.454c-.04-.93-.933-1.007-.727-2.182-.97 0-1.939 0-2.909 0-.302-2.526-2.216-2.012-3.636-2.909-1.83-1.156-3.854-4.216-5.091-5.09.338.239-1.342.771 0-.727-3.125-.344-.93 1.957-2.18 2.182-1.461-1.483.321-1.426.727-2.909-1.295-.402-3.02-.374-3.636-1.455.955-.933 2.681-.933 3.636 0l.848-.364h.605c.226 1.715 2.526 1.353 2.182 3.636 2.493-1.699 1.702.947 2.909.727 2.271-.415 1.017 1.645 4.363 3.636-1.031-.613 2.573.598 2.908.727.312-2.979-.674-4.659-1.454-6.544-4.395 1.088-4.723-6.479-10.301-3.514l-1.333.484c-.226-1.714-2.525-.868-2.182-3.151-2.716.94-5.681 3.56-7.272 0 1.382-1.769.497-5.805 1.455-7.999 1.482 1.461 1.425-.321 2.908-.727.017-1.713-1.252-2.141-.727-4.363-2.157-1.857-3.588 1.203-4.363 0 .815-.153 1.132-.807 1.454-1.454-2.706-.434-6.705-.122-7.271-4.363-.283 1.116-.872.107 0-.727-3.693 1.273-.014-.484-2.909-.727-1.442 1.223-1.159 4.173-2.907 5.09-.021-1.865-1.911-.902-2.909-1.454.286.158 1.118-.461.728-.727-.834-.567-4.116-1.275-6.545-2.909-1.267 1.916.097 4.697-.728 7.271-.051.161-1.322.51-1.454.728-.513.847-.446 3.269-.728 3.635-.606.795-2.307.692-2.908 1.455-1.423 1.804-.834 5.115-4.362 3.636.091 2.012 1.387 2.497-.728 1.454.403 4.282-.827 6.93-2.908 8.726-3.591.682-4.933-.886-6.545-2.182-.231 1.686.118 2.792.728 3.636-3.522.044-2.871 7.877-2.909 7.999-.052.163-1.369-.162-1.454 0-.38.726.204 2.104 0 2.908-.305 1.208-1.211 2.265-1.454 2.909.61-1.61-1.376 1.272-1.455 1.454-.332.775-.744 1.126-.727 2.182.044 2.732 1.324 2.145 1.454 3.636.004.042-1.401-.074-1.454 0-.632.895.641 2.615 1.454 3.635-1.649-1.729-3.435.697-5.09 1.455-.601.274-1.582-.278-2.181 0-1.413.654-1.999 3.612-4.363 2.181-.979 3.361-2.981 3.126-4.363 3.636-2.04.751-3.754.956-5.816 0-.165 2.018-2.307 2.057-2.909 3.636-.786-1.463-2.382-.656-3.636-.727-2.052-.116-.182-.867-.728-1.455.153.166-4.253-.95-4.363-3.635-3.195-.289-1.897 3.918-4.362 4.363l-1.455 1.454c-2.468.924-3.389 3.397-5.816 4.363-.031 1 .342 1.596.728 2.181-4.268.539-2.789 5.708-5.091 6.544-.002-.73.589-.865.728-1.454-2.792.359-2.562 3.739-5.091 4.362l.364.73-.364-.728" fill="#efefef"/><path d="m889.235 298.657c-.146-2.878 1.121-6.968 2.908-8.726.248-1.459-.148-2.275-1.454-2.182.601-1.822 2.548-2.3 3.636-3.636 3.925 1.091-2.364 6.883 0 10.18-1.279 1.387-2.575 2.757-3.636 4.363" fill="#efefef"/><path d="m635.46 367.009c2.179.139.607-2.79.727-2.909.145-.146 1.394.169 1.454 0 .391-1.088-1.28-2.454.728-3.636 9.447-.248 18.101-1.29 26.905-2.181-.398-1.057.85-3.759-.728-3.636 2.974-.185 7.841-.949 12.361-1.454 9.321-1.042 19.159-1.504 29.086-2.182 5.264-.359 10.599-1.779 15.997-2.181 6.607-.493 13.701-.621 20.36-1.455 3.637-.456 7.396-1.809 10.907-2.181 10.545-1.119 22.018-2.082 31.268-5.09 1.62.743-.951 3.343 0 5.817-2.976.66-3.705 3.566-4.362 6.544-4.258-1.91-7.11 2.124-8.727 5.09-1.986-.37-1.095-2.097-2.181-2.182-2.096-.163-2.389 4.616-4.363 2.909-.807 1.375-.927 3.435-1.454 5.09-3.499-1.104-6.296 4.214-8.727 6.544-6.282-.223-9.779 2.339-10.18 7.999-1.521.418-2.075 1.803-4.363 1.454v6.544c-19.234 1.64-38.3 4.446-57.444 5.817-13.603.975-26.818 3.459-40.721 4.363-5.19.337-10.571.424-15.997.727.203-1.494 1.942-1.451 2.909-2.181-1.165-3.433-1.235-5.255.121-7.999 0 0-1.403-1.076-.97-1.454 1.939-1.696 2.256-.861 3.029-2.182.857-1.465-.598-2.549 0-3.636.134-.242 1.92-.484 2.182-.728.608-.566.556-1.971 1.455-2.908 1.533-1.602-.589-1.331-.728-2.909-.2-2.258 2.817-2.886 2.181-5.09" fill="#efefef"/><path d="m892.871 362.646c.093 1.305-.89 1.534-.728 2.909-1.751.297-1.58-1.328-3.636-.727-1.663 2.215-4.24 3.516-7.998 3.636-1.329 1.095-1.711 3.137-2.909 4.363-.374-.826-.512-2.432-2.908-2.908 3.157 6.688-6.084 8.028-5.817 15.997-.954-.257-1.144-1.28-2.181-1.454.029 2.393 1.228 3.62.726 6.544-3.569 1.036-7.795 1.415-10.906 2.909-1.233-.522-1.598-1.998-2.909-2.909-.863-.6-2.718-.798-3.636-1.454-.959-.686-1.873-2.161-2.908-2.909-.551-.398-1.568-.267-2.181-.727-.355-.266-.392-1.218-.728-1.454-.697-.49-1.55-.244-2.182-.728-1.046-.799-2.792-2.521-4.363-3.636-2.255-1.6-5.166-4.115-6.545-4.363-1.442-.259-6.425.968-9.452 1.455-3.603.578-7.335 1.576-11.635 2.181-.188-2.721-1.685-4.132-2.908-5.817-7.479-1.792-13.421-.09-20.36.728-3.064.361-6.199-.046-8.726.727-1.122.343-2.697 1.625-3.636 2.182-.771.458-1.576.163-2.182.727-.927.863-1.57 1.334-3.636 2.181-1.058.434-.778.08-1.454.727-2.895 2.773-12.673 2.625-18.906 3.636-2.284.37-4.793.921-7.271 1.454 0-1.939 0-3.878 0-5.817 2.287.349 2.843-1.036 4.363-1.455-.528-2.224 1.254-2.138.728-4.362 1.897-2.947 6.015-2.321 9.452-4.363 1.512-.898 2.601-2.926 4.363-4.363.916-.747 1.297-1.594 3.636-1.454 1.39-2.731 3.327-4.914 5.09-7.271 1.445.009.925 1.984 2.908 1.455 2.505-1.352 3.942-6.904 7.999-4.363 2.617-1.746 2.014-6.712 5.817-7.271.03-2.394 1.228-3.62.728-6.544 8.274.012 14.825-.822 23.268-2.181 9.533-1.535 21.202-3.583 32.723-5.817 5.217-1.012 12.632-2.975 19.633-4.363 4.505-.893 9.069-1.296 13.089-2.182 3.902-.859 6.246-2.016 10.907-2.909 5.776-1.106 7.598-.258 10.18 5.09-.955-.257-1.143-1.281-2.182-1.455-.031 1.244.541 1.883 1.455 2.182-1.782 1.945-3.294-2.963-5.817-.727.229 1.71 3.446.431 2.908 2.909-1.901.462-2.229.163-4.363 1.454-.298.903-.829 2.114-2.181 3.636-.844-.61-1.949-.959-3.636-.727-.76-1.664-.462-4.387-1.454-5.817-2.789 3.549 1.667 6.063 1.454 9.453 2.188.345 3.169-.311 4.362-1.455 1.533-1.468.699.723 2.909 0 1.622-.531 2.729-1.729 5.09-2.181.557 1.857 1.071 3.343-.728 4.363 2.166 1.045.046 1.832 1.455 3.636 3.427-.412 1.29-5.266 2.182-6.544 1.032.062 2.059.12 2.182-.727 1.972.936 2.203 3.614 2.182 6.544-.728 0-1.455 0-2.182 0-.499 1.025-1.523 5.025-2.909 7.272-2.443-.224-6.303.971-5.817-2.182-.852.118-.613 1.326-.728 2.182-2.681-.137-1.416-2.373-2.182-2.909-2.532-.352-.813 3.548-2.908 3.636-3.116.502-5.519-2.116-7.271-.727 2.339 2.751 7.754 2.426 11.635 3.636.501 1.955-1.503 1.405-2.182 2.181-.898 2.354 2.353.556 1.454 2.909-1.282.656-2.252 1.626-2.908 2.908-1.952-.957-3.865-1.952-5.817-2.908-1.188 1.26 1.488 3.801 3.636 4.362 2.755.72 6.016-2.303 7.999-.727-1.083-2.225.726-2.32.727-.727" fill="#d6d6d6"/><path d="m892.144 361.191.122.849" fill="#efefef"/><path d="m892.266 362.04c.317-.115.927-.379 1.696-.485" fill="#efefef"/><path d="m892.266 362.04.605.606" fill="#efefef"/><path d="m820.156 436.088c-.647-.321-1.301-.638-1.454-1.454-1.536 2.057.86 6.382 2.908 7.271-.301 1.146-.667-.191-1.454 0-.735.178-1.06 2.198-1.454.728-1.875.174.998 1.251 0 2.909-3.016.833-2.833-1.53-5.091-1.455 1.208-5.344-5.599-7.049-2.182-10.181-4.279 3.324-.561-.849-4.362.728-1.14-1.164-.331-2.407-.727-3.636-.473-1.466-1.638-1.729-2.182-2.909-.281-.61.563-1.68.727-1.454-.642-.886-2.489-1.81-3.636-2.908-.785-.752-1.896-.08-2.908-.728-1.146-.73-.643-3.467-2.909-2.182 1.366-1.359-1.331-2.285-1.454-2.908-.089-.453 1.03-.897.727-1.454-.265-.489-.983.658-.727.727-.263-.07-2.396-4.266-2.182-2.181-.062-.608.934-1.331 1.454-1.454-.257-1.019-1.279-.063-1.454.727-.833-1.386-3.127-.539-4.362-1.454-.379-.28-.38-1.809-.728-2.182-.533-.573-2.52-2.699-3.636-3.636-.421-.354-1.691.271-2.182 0-2.269-1.251-2.775-4.315-5.09-5.09.753-2.326.224.013-1.454-2.181-.097-.127-1.478-1.564-1.455-1.455-.238-1.171.9-1.291.728-2.181-.061-.313-.756.39-.728.727-.146-1.708-1.008-1.887.728-2.181-.257-1.019-1.28-.063-1.454.727-1.453-2.426-7.363-.393-7.271-4.363-1.447 1.515-3.105.023-3.636-1.454.896-2.255 1.601-4.701 4.363-5.09-1.929-1.917 2.152-1.538 2.182-3.636 4.405-.819 5.729-.278 5.816-2.908.844-.572 1.297.728 1.454.727 1.015-.004.181-1.172.728-1.454.084-.043 2.972.948 2.908-1.455 3.866.206 8.345-.923 13.089-1.454 5.231-.585 11.796-2.146 13.089 1.454.707-.02.565-.89.728-1.454 2.524.868 3.068 3.718 3.635 6.544 1.391-.397 3.343-1.38 5.091-1.454.664-.028 1.548.711 1.454.727.759-.133 1.72-1.331 2.182-1.455 2.18-.584 5.505-.274 7.999-.727 1.572-.286 3.733-.65 5.089-.727 1.02.256.064 1.28-.727 1.454.387 1.518 1.441-1.105 2.908-.727.022.006.575 2.066.728 2.181.437.33 1.666-.21 2.182 0 .324.132.969 1.156 1.454 1.455.979.603 1.898.7.728 2.181 2.516-.763 1.217-.732 4.363 1.455.705.491 2.71 1.269 2.908 1.454.479.452.17 1.793.727 2.182 1.016.708 3.479-.203 1.454 2.181.648-.565 1.643-.782 2.909-.727.141 2.295 4.989 2.068 2.908 4.363.585-.385 1.181-.759 2.182-.728-.638 2.538-2.918 2.472-4.363 4.363-.479.627-.233.94-.727 1.455-.867.905-1.397 4.104-2.182 5.817-.157.345-1.038-.445-.728-.728-.824.138-.402.729 0 .728-.885.188-2.904 2.771-2.907 1.454-.955.214 1.271 5.49-2.182 5.09.614 1.887 3.188-1.398 4.362.728-.203 1.686-1.941 1.671-2.908.727.432 1.358 1.413 2.682 0 2.182-.86-.304.12 1.4 0 2.181-1.913-.011-4.831.403-2.909-1.454-3.156.954.804 2.962-1.454 2.181-.729-.252.459 2.416 0 2.909-.553 1.144-2.308 1.087-2.182 2.909-2.062.123-1.419-2.46-4.363-1.455.493 1.932 1.393 3.457 2.182 5.09-1.857-.783-2.545 3.131-3.636.728-.825.139-.402.729 0 .728-.452 2.749-3.038-.786-2.908 2.908-3.73 1.396-6.902-1.122-7.999 2.909" fill="#efefef"/><path d="m750.713 488.261c-1.809-.251-3.931 1.706-7.635.91-.939-2.568-2.559-5.799-4.363-8.727-.468-.759-1.222-1.268-1.454-2.182-.511-2.015.434-5.507 0-7.999-.354-2.039-2.059-3.714-2.182-5.09-.372-4.134.471-8.758 2.909-11.635-1.287-1.828-1.172-4.574-2.182-6.543-.435-.849-1.655-.774-2.182-1.454-.528-.685-2.296-4.943-2.908-6.545-2.342-6.125-3.881-14.739-5.817-21.815-2.783-10.169-5.808-19.275-8.12-27.995 15.604-2.334 31.956-2.947 46.659-6.181-1.054 2.098-1.987 4.315-3.636 5.817.442 4.162 5.979 3.23 7.271 6.544 2.237-.509 1.397-.509 3.635 0 2.131 3.268 4.887 9.148 7.999 11.634.62.495 1.599.246 2.182.728 1.246 1.029-1.09 1.503 2.182.727-.32 1.373 2.485 1.387 2.182 2.908.002-.009-1.161.188-.728.727-.025-.031 1.02-.489 1.455 0 1.479 1.665 2.659 2.047 5.816 3.636 1.63 5.399 6.062 7.997 10.908 10.18.336 3.298 2.959 4.312 2.908 7.998.584 1.839 2.993 1.855 4.362 2.908-1.412 1.306.431 1.222 0 .729 2.389 2.74 2.456 4.98 3.636 8.726 2.361-.422 3.384.494 5.091.728-.413 2.775-2.467 4.701-4.363 2.182-.422 2.359.495 3.382.727 5.088-3.776-1.295-2.488 7.512-1.454 8.727-1.643.43-1.845 1.23-2.908 1.454-.248.053-1.538-1.125-2.182 0 .613 1.568 3.75.613 4.362 2.182-.088 2.694-1.058 1.83-2.908 1.454 1.084 5.841-.642 7.433 1.454 11.636-3.311-.083-6.772-.014-7.998-2.182-1.06 1.364-2.395 2.452-3.636 3.636 1.099 1.905 2.396 6.345.728 8.727-2.762.093-1.509-3.825-3.637-4.363-15.251.743-30.624 2.276-46.173 2.725z" fill="#d6d6d6"/><path d="m690.724 503.713c-.97-.108-2.194 2.957-2.909.727-1.975-.52.521 3.429-1.454 2.909-2.405-.505-1.675-4.143-5.09-3.636.482-3.875-.424-6.363-2.909-7.272-1.502 1.893-1.541 5.246-1.454 8.727-1.696 0-3.394 0-5.09 0-1.543-5.877-1.386-12.42-2.182-18.905-.992-8.09-3.94-15.338-2.908-25.451 1.851-18.133.505-42.201 1.454-62.535 1.215-2.738-3.383-3.312-1.454-4.363 17.101-.593 32.74-2.647 48.719-4.363 2.754 11.48 7.473 24.079 10.907 36.358 1.165 4.163 1.543 8.564 2.909 12.361.689 1.919 1.841 4.836 2.907 6.545.677 1.082 2.379 1.732 2.909 2.908.682 1.509-.92 4.373 1.454 5.089-1.375 2.378-1.595 3.869-2.182 7.271-.738 4.289-.251 6.494 2.182 10.181-.148 2.275.491 5.337-.727 6.545.092 3.059 2.815 3.484 2.908 6.545-11.302.579-24.867 3.081-37.084 4.363-5.847.611-13.961-.934-15.998 3.634.501 3.378 3.35 4.408 5.091 6.545-1 2.202.346 2.597.001 5.817z" fill="#efefef"/><path d="m611.706 425.423c.118-.846-.161-1.294-.728-1.454.662-1.278 2.549-1.33 3.637-2.182-2.772-5.817 7.693-8.199 5.089-13.816.981-1.626 2.093-1.636 2.182-2.909.232-3.335.683-2.011 2.182-4.363.3-.47 1.036-1.056.728-2.181 12.954-1.589 27.15-1.936 39.993-3.636-.34 1.552 1.038 1.385 2.182 1.455-.862 18.266-.585 36.839-1.455 55.264-.869 18.387 3.427 35.611 5.091 51.81v1.272c-1.643.406.881 1.133-.728 2.182-1.854-.724-3.528-2.069-4.363 0-2.128-.523-2.369-1.423-4.362-1.454-3.028-.051-6.103 3.067-9.453 2.909-1.364.816-1.545 2.816-2.908 3.634-3.197.288-2.51-3.308-3.637-5.089-.565-2.101-2.655-2.679-3.636-4.363-.646-4.041 1.397-5.391 1.455-8.726-11.779-1.597-24.771 1.89-37.812 1.454-1.852-2.81-1.671-6.68 1.455-5.817-.87-1.045-.618-3.264-.728-3.636-.351-1.188.218-2.5.728-3.637-.026.059 1.247-.31.727-.727-2.079-1.664 3.637-2.912 1.454-5.817 2.003-1.39 3.7-3.087 5.091-5.089-.372-2.131 2.309-4.1-1.454-3.636 1.468-.957 2.53-2.316 4.363-2.909-.298-2.127-2.489-2.36-3.637-3.636 1.593-1.514-.638-2.352.728-3.636-.226-.987-1.821-.604-2.909-.728.711-.743 1.438-1.471 2.182-2.181-.117-.853-1.326-.613-2.182-.728-.345-2.284.907-2.971 2.182-3.636-.199-1.498-2.709-.685-2.908-2.182-1.06-2.969 2.604-2.762 1.454-6.545-.092-.299-1.424-1.283-1.454-1.454-.251-1.404.884-2.449.727-2.908-.693-2.018-2.679-1.825-2.182-3.636 1.054-.886.975-2.904 2.909-2.909-.118-.852-1.326-.612-2.182-.727.08-1.374 2.404-.505 2.182-2.182" fill="#efefef"/><path d="m835.426 524.801c.955.257 1.144 1.279 2.182 1.455-.296 1.809-2.819.043-2.182-1.455z" fill="#efefef"/><path d="m843.062 609.149c1.094-.329 2.658-.436 2.909-1.817" fill="#efefef"/><path d="m845.971 607.332-.365.362" fill="#efefef"/><path d="m796.887 547.342-.727-.363" fill="#efefef"/><path d="m796.16 549.159.727-.363" fill="#efefef"/><path d="m795.433 548.796.727.363" fill="#efefef"/><path d="m796.16 546.979-.727.363" fill="#efefef"/><path d="m795.796 548.069c-.643-6.16 2.44-13.972-.363-21.087-2.603-1.274-3.157-4.599-5.09-6.544-1.804-.944-3.528 1.622-3.636 0-3.858-1.476-5.11-5.557-9.453-6.545 1.267-3.681-2.295-3.367-4.363-5.091-1.152-.961-1.111-2.793-2.182-3.636-.509-.401-5.911-2.669-7.271-2.908-1.581-.277-4.445-.431-5.817 0-.967.303-1.112 1.05-2.182 2.181.073-.076-2.229 2.016-2.182 1.455-.033.405 1.696 1.211 2.182.727-1.103 1.1-2.281.767-3.636 1.455-2.238 1.138-3.298 3.013-4.362 4.362-1.084.926-1.572-1.426-1.454-1.454-1.377.321-1.474 2.151-2.909 2.909-1.935 1.021-4.049-.515-5.09 1.454-1.107-3.016-2.094-6.146-5.818-6.545.729-1.002 1.199.311 2.182-1.454-1.732-1.417-3.765-2.537-6.543-2.909.892-1.289 2.255-2.106 2.908-3.636-.101-2.271-2.314 1.312-2.908 1.455-1.291.308-3.686-2.12-3.637 1.454-2.482-.184-3.493-1.838-6.544-1.454 3.835-3.488-3.678-3.811-5.817-4.363-1.903 2.944-6.531 3.164-10.18 4.363.033-1.195-1.161-2.431-1.455-5.091-2.201-.518-.671 2.447-1.454 2.909-.254.149-.923-1.417-1.454-1.455-1.556-.104-.614 2.245-2.182 4.363h-1.455c-.527-1.225-3.854-3.341-1.453-5.09-.938-2.698-4.929-2.343-5.09-5.817.993-4.49 5.744-2.464 8.725-2.907 13.306-1.978 29.77-3.57 43.63-5.091.956 1.952 1.952 3.864 2.908 5.818 18.938-.008 38.159-3.483 55.264-2.909-.109 1.806.376 3.018 1.454 3.634 6.256.361.565-8.672 2.909-10.905 2.079-.979 5.78 1.706 10.18.727.821 2.193-.386 5.445 2.908 6.545-.022 4.58 2.576 8.375 4.363 12.36 3.874 8.644 9.079 17.587 15.997 23.997-.316 1.079-.93-.288-2.182 0-.6 3.413 1.35 6.466 2.909 9.451 1.378 2.638 3.447 5.519 5.09 7.999 1.251 1.891 1.951 3.332 3.637 5.091 2.312 2.415 3.425 8.224 6.543 10.908.063 1.031.121 2.058-.727 2.181 3.747 1.634 4.625 2.801 6.544 8.725 1.329 4.102 2.799 17.479 1.455 23.271-.411 1.77-1.963 3.424-2.182 5.09-.226 1.709.885 3.494.727 5.091-.176 1.794-2.033 2.604-1.454 4.362-4.363-.727-5.32 5.009-9.453 2.18l-.362-.362-.364.362c-.097-2.327-1.649-3.198-4.363-2.906-1.82-2.421-3.81-4.713-5.817-7.272-1.547-1.974-1.602-3.529-4.363-4.362-2.113-.64-4.01.489-5.816-.728-1.501-2.621-3.225-5.018-3.636-8.727-.203-1.493-1.942-1.45-2.908-2.182.188-2.72 1.685-4.131 2.908-5.817-3.491-.581-3.019 2.799-4.363 4.363-2.437-.983-2.877-6.93-1.454-9.453-.907-1.271-2.979 1.861-5.09 0-2.034.937 2.29 1.505 1.454 3.636-5.191-1.108-6.925-5.68-8.726-10.179-.412-2.255-3.421-1.912-3.636-4.363 2.474.225 1.61-3.192 2.182-4.363.618-1.271 2.846-1.961 2.182-3.636-.937-3.957-3.511-1.538-6.908-3.636l-.364.727c1.403.294.063 3.332 2.909 2.182-.564.647-.782 1.642-.728 2.909-2.717.777-2.073-1.806-4.363-1.454-.601-2.055 1.025-1.885.728-3.637z" fill="#d6d6d6"/><path d="m610.736 448.45c1.796.137-.172 1.63 0 2.909.13.959 1.455 2.106 1.455 2.18-.008.873-1.67 1.254-1.455 2.182.195.839 1.252.949 1.455 1.454.241.604-.299 1.609 0 2.182.705 1.358 1.911 2.307 2.908 3.636-.507 1.916-3.311 1.538-3.636 3.636.532.679 1.321 1.102 2.182 1.454-.21.849-4.126 2.102-.728 2.182-1.391 2.003-3.088 3.7-5.09 5.091 1.314 2.815-3.05 5.991-2.909 7.271.137 1.232.848 1.601.728 2.909-.009.088-1.361-.096-1.454 0-.696.716 1.348 1.978.727 2.908-.585.384-1.18.758-2.182.728.806 2.443 2.175 5.791 0 7.27 13.101-1.2 27.041-1.561 39.994-2.908-1.022 1.886-1.008 4.81-2.182 6.545 1.424 4.761 4.348 6.875 6.544 11.635-.896 2.484-2.161-.385-3.636-.728-1.088-.254-2.604.411-3.636 0-.86-.344-2.56-3.548-5.089-2.908-2.666 1.454-4.51 3.732-5.091 7.271 3.475 3.787 12.124-.425 13.815-.728 2.559 1.245-1.824 1.466-1.454 2.909.968 1.699 3.249 2.082 5.09 2.909 2.087-.582.457-4.876 3.637-4.363-.834 3.015 1.529 2.832 1.454 5.09-3.366-.312-4.892 1.212-3.636 3.636-3.488-.276-.618 1.261-2.909 2.182-.826 2.674 3.038 1.864 4.363 2.907.429.338.184 1.935.728 2.182.333.153 1.334-1.079 2.182-.728.429.18 1.587 2.533 4.361 1.454 1.369 1.687 3.008 3.098 1.455 5.818-1.777-.404-2.657-1.705-3.636-2.909-.739.473-.752 1.673-2.181 1.454.091-1.305-.891-1.532-.728-2.908-2.311 1.101-3.334-.967-4.363-1.455-.537-.254-1.7.339-2.182 0-.393-.274-.324-1.83-.727-2.181-1.156-1.006-2.221.177-4.363-.728-1.379-.581-2.715-2.673-5.09-2.18-.82 3.486 2.772 2.559 3.636 4.361 1.193 1.697-1.399 1.963-1.455 2.182-.264 1.058 2.392 3.789-.727 4.363-2.443.745-1.133-2.263-1.454-3.637-.765-.458-3.015.606-3.636 0-.715-.697.474-1.775-2.182-.727-1.905.753-3.103 1.847-3.636 5.09-2.076-.007-6.436-2.693-7.999-1.454-.639-3.724-4.584-4.141-3.635-9.451-1.552-.341-1.386 1.037-1.455 2.18-2.295.356-2.567-1.309-5.09-.728-.502-3.133-2.423-4.848-6.545-4.361 0-.728 0-1.454 0-2.182-2.646.746-4.497 2.288-7.271 2.909-2.034.935 2.29 1.503 1.454 3.634-1.487-1.086-2.341 1.329-3.636 1.454-1.17.114-3.954-1.239-5.817-1.454-3.44-.395-5.202-1.002-8.727-2.18-1.979-.664-3.225-2.167-5.816-1.454 1.532-2.827.124-5.537-1.454-7.272-.347 1.875-2.459 5.727-1.455 6.545-1.506 2.372-6.739 1.015-9.453 2.182-1.018-1.601 1.619-1.671 2.182-2.909.451-.992-.295-2.577 0-3.636.197-.705 1.339-1.209 1.454-2.182.246-2.049-1.313-3.168-1.454-5.09-.095-1.312.414-4.551.728-5.817.395-1.604 2.506-3.206 2.908-5.091.738-3.456.434-8.608 0-10.181-.315-1.144-2.371-1.983-2.908-2.906-.836-1.439-.342-5.463-2.909-5.818.733-6.065-2.903-7.761-5.089-10.907.535-8.534-.83-15.168-.728-23.269 13.444-.215 28.428-1.452 42.175-2.182 4.707-.25 9.504-.299 13.815 0-1.182 2.721.091 2.237 1.458.728z" fill="#efefef"/><path d="m602.737 531.344c-1.534 1.604-2.148-.933-4.362-.727.72-1.778 4.43-1.954 4.362.727z" fill="#efefef"/><path d="m614.373 534.979c.789.18.492 1.447 1.453 1.455-.642 1.97-3.225-.611-1.453-1.455z" fill="#efefef"/><path d="m490.029 574.246c-2.195-.979-5.802-.979-7.999 0 .839 1.716 1.952.689 2.909 1.454.726.582 1.21 1.621 2.181 2.909-.174 2.978-2.206 4.096-2.181 7.271-4.343.95-5.417-1.368-7.999-2.182-.12 2.302 1.933 2.431 1.455 5.091 2.618.254 3.504 1.112 5.816 0-.95 1.959-.863 4.951-2.908 5.817-1.496 3.307 1.58 4.447 2.181 6.545.562 1.959.21 4.544.727 6.542.44 1.699 1.796 2.812 2.182 4.363.647 2.608-.55 5.571 1.455 7.272.289 1.742-3.312-.404-2.182 2.181-3.532-.043-4.618-4.2-7.998-5.09-3.172-.834-6.395.595-10.908 0-2.561-2.045-4.31-4.899-9.453-4.363-.925-2.953-4.109-3.646-7.999-3.636-.76-.321-.268-1.521-.727-2.182-.129-.185-1.455-.728-1.454-.726-.598-1.536-.228-3.591-.727-5.09-1.095-3.284-3.184-5.791-5.09-7.999-.499-1.517.751-1.932.727-2.909-.039-1.585-1.345-1.822-1.455-2.908-.175-1.75.996-3.644 0-5.817-.79-2.118-2.97-2.848-5.09-3.637-1.82-3.996-4.773-6.86-6.544-10.905-.661-1.279-2.547-1.331-3.635-2.182-.495-1.656-1.067-2.715-1.455-5.817-.012-.098-.369-1.95-1.455-3.636-.178-.277-1.345-.486-1.454-.728-.177-.395.205-1.077 0-1.454-.674-1.245-1.018-2.421-2.181-3.637-.609-.635-.745-3.284-1.455-5.09-1.281-3.26-4.131-5.077-6.544-7.999-1.054-1.275-3.187-3.615-5.09-5.09-.311-.239-1.097-.382-.727 0-2.375-2.453-2.575-3.909-4.363-5.816-3.055.767-7.615.419-12.361-.727-2.57-.623-5.5-3.27-7.271.727-2.437-.974-5.209.436-6.544 2.182-1.145 1.496-2.211 4.924-3.636 7.997-1.242 2.681-4.155 5.315-6.544 7.272-4.125.108-7.178-2.991-10.18-5.091-.958-.669-1.548-1.839-2.182-2.182-1.567-.843-3.646-.44-5.09-1.454-3.015-2.116-4.524-6.614-8.726-7.27-.126-4.184-4.893-6.295-3.636-11.636.394-1.675.523-3.164-.728-5.817-.131-.278-.411-1.654-.727-2.182-.148-.248-1.38-.528-1.454-.727-.296-.799.408-2.171 0-2.909-.67-1.211-1.373-2.022-2.181-2.908-1.129-1.236-2.234-2.64-3.636-3.637-1.061-.751-3.139-1.013-4.363-2.182-.895-.852-1.405-2.559-2.181-3.636-.857-1.187-2.024-1.814-2.909-2.906-3.144-3.883-5.083-7.405-10.18-9.454-.122-2.06-1.333-3.03-1.455-5.09-1.801-2.806-6.374-2.836-5.817-7.999 22.852 2.599 46.284 4.617 70.534 5.817.955-.258 1.144-1.28 2.181-1.454 2.029-36.025 4.809-71.301 7.272-106.892 18.434 1.441 38.107 1.644 56.717 2.909.07 15.825-.204 31.306-1.454 45.811 3.334.786 4.837 3.404 7.271 5.09 3.652.477 5.869-.914 7.999 0 1.211.97.243 4.119 1.454 5.09 5.611.206 10.626 1.007 13.816 3.636 2.753-1.749 3.013-1.979 7.271-1.454-.337 2.276.632 3.245 2.909 2.908-.233 1.687.117 2.792.727 3.636 2.654-.011 3.266-2.067 5.09-2.908 1.753.67 2.965 1.882 3.635 3.636 2.09.15 3.694-.185 4.363-1.454 1.637.302-.108 3.987 2.182 3.636 1.647.089 1.933-2.335 2.909-3.636.265-.353.919-.624.727-1.455 2.803 1.036 3.541 3.016 7.271 1.455.966 2.427 4.114 2.672 5.816 4.362 1.373-1.535 3.643-2.176 5.091-3.636 2.13-.653 2.233-.653 4.363 0 1.813-.367 2.988-1.374 4.362-2.182 1.368.827 5.617 3.193 7.271 0 3.131-.919 5.436 3.421 7.272 4.363.577.297 1.593-.278 2.181 0 .273.13.521 1.383.727 1.454 2.285.792 5.673-.145 6.545 2.908 2.057-.896 4.488-.896 6.545 0 .945 11.901.966 24.728 1.454 37.086 1.122 1.785 2.92 2.896 4.363 4.362-.364 2.287 1.584 2.842 0 4.363.479.853.782 1.905 1.453 2.909.522.779 1.833 1.471 2.182 2.182.283.573-.312 1.622 0 2.182 1.356 2.419 3.222 2.796 2.909 7.27-.004.06-.857.077-.728.728.106.53.674 2.673.728 4.363-3.403 3.587-4.365 11.547-2.182 16.725-1.622 2.531-7.527 5.923-3.636 9.454-1.874 1.099-3.275.835-5.09 1.452-1.954.665-3.531 2.527-5.091 2.908-1.172.288-1.26-.811-2.181-.727-.654.062-3.343 1.058-5.091.727 1.002-.937.721-3.157.728-5.088-2.56-2.034-3.151 1.914-4.362 2.18-1.451.319-1.585-2.856-2.909-.728-.003 3.862 1.596 5.466 2.909 9.454-2.362.547-2.577 3.241-5.091 3.636-.179 6.365-6.527 6.562-9.453 10.181-2.739-.56-3.476.886-5.816.727-.987.225-.603 1.821-.728 2.909-1.606.35-1.043-1.323-2.182-1.454.62.07-2.722 1.641-3.636.727-.144-.144.169-1.395 0-1.454-1.384-.49-4.015 2.361-4.362-1.454-2.132.614.434 2.34 0 3.636-3.153.486-1.675-3.658-5.091-2.909-1.798 1.651 4.141 4.625 1.454 7.272.646-.564 1.643-.783 2.908-.728-2.188 3.406-5.126 2.772-7.27 0-1.667 2.069 1.272 4.979-1.455 6.545-1.006-3.128-4.875 2.409-7.272 0 .812 2.276-.726 4.016 2.182 5.088-.206-1.174.687-1.25.727-2.182 1.817 1.399-2.492 2.792-2.177 5.095z" fill="#efefef"/></g></svg>