<svg enable-background="new 0 0 639 256" height="256" viewBox="0 0 639 256" width="639" xmlns="http://www.w3.org/2000/svg"><g fill="#fff"><path d="m292.816 116.43c1.591-3.425 2.504-7.235 2.504-11.263 0-14.847-12.032-26.88-26.875-26.88-3.202 0-6.265.589-9.105 1.614-5.862-27.536-30.298-48.191-59.583-48.191-20.709 0-38.984 10.328-49.998 26.102-5.597-2.176-11.704-3.413-18.098-3.413-27.693 0-50.167 22.463-50.167 50.164 0 3.481.362 6.876 1.04 10.166-16.51 5.088-28.501 20.471-28.501 38.64 0 22.327 18.092 40.436 40.428 40.436h40.271c14.936 12.662 36.784 20.652 61.144 20.652 24.363 0 46.214-7.989 61.148-20.652h19.35c22.334 0 40.435-18.109 40.435-40.436.001-16.48-9.854-30.62-23.993-36.939z" opacity=".8"/><path d="m571.15 160.846c1.18-2.547 1.86-5.384 1.86-8.388 0-11.048-8.96-19.998-19.991-19.998-2.388 0-4.68.431-6.785 1.202-4.365-20.488-22.548-35.867-44.346-35.867-15.413 0-29.014 7.682-37.211 19.427-4.165-1.625-8.712-2.538-13.454-2.538-20.621 0-37.344 16.714-37.344 37.328 0 2.587.266 5.117.781 7.564-12.295 3.783-21.22 15.23-21.22 28.749 0 16.624 13.472 30.095 30.093 30.095h29.963c11.115 9.423 27.389 15.379 45.506 15.379 18.134 0 34.391-5.957 45.505-15.379h14.4c16.624 0 30.092-13.47 30.092-30.095.001-12.259-7.33-22.777-17.849-27.479z" opacity=".8"/></g></svg>