<svg enable-background="new 0 0 718 248" height="248" viewBox="0 0 718 248" width="718" xmlns="http://www.w3.org/2000/svg" xmlns:xlink="http://www.w3.org/1999/xlink"><linearGradient id="a" gradientTransform="matrix(.9971 -.0757 .0757 .9971 -7.8594 27.3585)" gradientUnits="userSpaceOnUse" x1="127.2493" x2="121.3318" y1="123.7894" y2="10.8763"><stop offset="0" stop-color="#e8eff2"/><stop offset=".1697" stop-color="#f4fbfe"/><stop offset=".7154" stop-color="#f1f8fb"/><stop offset="1" stop-color="#ebf2f5"/></linearGradient><clipPath id="b"><path d="m445.259 180.568s-1.048-9.602 3.293-11.454c4.562-1.947 11.919-3.44 11.919-3.44s26.643-10.652 45.275-12.801c18.631-2.146 26.843-2.573 30.861-2.342 4.019.23 11.861 2.32 12.749 14.034.89 11.714 1.664 21.899-9.896 25.657-11.56 3.759-26.985 5.569-45.705 5.39-18.72-.18-28.684-2.305-28.684-2.305s-4.004-.439-6.558-.463c-3.282-.03-9.28-.495-10.617-2.835-1.77-3.097-2.595-7.958-2.637-9.441z"/></clipPath><linearGradient id="c"><stop offset="0" stop-color="#6a6f73"/><stop offset=".0487" stop-color="#6f7478"/><stop offset=".1078" stop-color="#7e8387"/><stop offset=".172" stop-color="#959b9f"/><stop offset=".1758" stop-color="#979da1"/><stop offset=".4788" stop-color="#dbe2e5"/><stop offset=".7515" stop-color="#aab1b5"/><stop offset=".7518" stop-color="#aab1b5"/><stop offset=".801" stop-color="#bcc3c7"/><stop offset=".8523" stop-color="#c7ced2"/><stop offset=".9091" stop-color="#cbd1d6"/><stop offset="1" stop-color="#f4fbfe"/></linearGradient><linearGradient id="d" gradientTransform="matrix(.9971 -.0757 .0757 .9971 -7.8594 27.3585)" gradientUnits="userSpaceOnUse" x1="492.7364" x2="492.7364" xlink:href="#c" y1="206.6062" y2="163.5639"/><linearGradient id="e"><stop offset="0" stop-color="#0a0a0a"/><stop offset=".0467" stop-color="#2a2a2a"/><stop offset=".1071" stop-color="#4c4c4c"/><stop offset=".1646" stop-color="#646464"/><stop offset=".2172" stop-color="#737373"/><stop offset=".2606" stop-color="#787878"/><stop offset=".8788" stop-color="#fff"/></linearGradient><linearGradient id="f" gradientTransform="matrix(.9971 -.0757 .0757 .9971 -7.8594 27.3585)" gradientUnits="userSpaceOnUse" x1="531.2022" x2="545.2468" xlink:href="#e" y1="183.9669" y2="183.9669"/><linearGradient id="g"><stop offset=".103" stop-color="#aab1b5"/><stop offset=".3013" stop-color="#c9d0d3"/><stop offset=".4424" stop-color="#dae1e4"/><stop offset="1" stop-color="#f4fbfe"/></linearGradient><linearGradient id="h" gradientTransform="matrix(.9971 -.0757 .0757 .9971 -7.8594 27.3585)" gradientUnits="userSpaceOnUse" x1="493.6039" x2="493.6039" xlink:href="#g" y1="207.083" y2="163.1001"/><clipPath id="i"><ellipse cx="542.73" cy="170.047" rx="7.022" ry="16.359" transform="matrix(.9971 -.0757 .0757 .9971 -11.3094 41.5472)"/></clipPath><clipPath id="j"><path d="m682.613 109.05s61.927 16.528 4.009 41.816c0 0-36.661 12.477-78.31 16.475-41.651 3.996-136.138 12.172-136.138 12.172l-175.932 16.361s-40.454 3.965-56.068 3.42c0 0-78.348-.953-176.823-29.099-1.201-.344-3.583-1.061-4.622-1.898-2.211-1.78-2.393-10.07-1.317-11.798 1.117-1.795 1.793-3.354 31.981-10.278 0 0 83.86-14.936 123.439-18.693 39.58-3.756 173.287-19.295 173.287-19.295l205.616-22.753s22.033-2.048 46.782 1.965c24.75 4.014 32.64 11.376 33.371 11.884.828.575 10.725 9.721 10.725 9.721z"/></clipPath><linearGradient id="k" gradientTransform="matrix(.9971 -.0757 .0757 .9971 -7.8594 27.3585)" gradientUnits="userSpaceOnUse" x1="381.617" x2="381.617" y1="191.289" y2="103.3442"><stop offset=".103" stop-color="#aab1b5"/><stop offset=".1263" stop-color="#b0b7bb"/><stop offset=".2572" stop-color="#ced5d8"/><stop offset=".3865" stop-color="#e3eaed"/><stop offset=".5122" stop-color="#f0f7fa"/><stop offset=".6303" stop-color="#f4fbfe"/><stop offset="1" stop-color="#ebf2f5"/></linearGradient><linearGradient id="l" gradientTransform="matrix(.9971 -.0757 .0757 .9971 -7.8594 27.3585)" gradientUnits="userSpaceOnUse" x1="54.0166" x2="54.0166" y1="148.7574" y2="129.7977"><stop offset="0" stop-color="#6a6f73"/><stop offset=".0218" stop-color="#6f7478"/><stop offset=".0482" stop-color="#7d8387"/><stop offset=".077" stop-color="#959b9f"/><stop offset=".103" stop-color="#b0b7bc"/><stop offset=".2242" stop-color="#979da1"/><stop offset=".3636" stop-color="#dbe2e5"/><stop offset=".7515" stop-color="#aab1b5"/><stop offset=".7518" stop-color="#aab1b5"/><stop offset=".801" stop-color="#bcc3c7"/><stop offset=".8523" stop-color="#c7ced2"/><stop offset=".9091" stop-color="#cbd1d6"/><stop offset="1" stop-color="#f4fbfe"/></linearGradient><linearGradient id="m" gradientTransform="matrix(.9971 -.0757 .0757 .9971 -7.8594 27.3585)" gradientUnits="userSpaceOnUse" x1="633.2426" x2="682.4782" y1="130.4136" y2="130.4136"><stop offset="0" stop-color="#aab1b5"/><stop offset=".1434" stop-color="#bcc2c7"/><stop offset=".2965" stop-color="#c7cdd2"/><stop offset=".4606" stop-color="#cbd1d6"/><stop offset=".7643" stop-color="#e5ebef"/><stop offset="1" stop-color="#f4fbfe"/></linearGradient><linearGradient id="n"><stop offset="0" stop-color="#040404"/><stop offset=".125" stop-color="#0a0a0a"/><stop offset=".25" stop-color="#131313"/><stop offset=".7576" stop-color="#787878"/></linearGradient><linearGradient id="o" gradientTransform="matrix(.9971 -.0757 .0757 .9971 -7.8594 27.3585)" gradientUnits="userSpaceOnUse" x1="636.1934" x2="646.7432" xlink:href="#n" y1="130.7882" y2="130.7882"/><linearGradient id="p" gradientTransform="matrix(.9971 -.0757 .0757 .9971 -7.8594 27.3585)" gradientUnits="userSpaceOnUse" x1="649.618" x2="662.7857" xlink:href="#n" y1="130.1012" y2="130.1012"/><linearGradient id="q" gradientTransform="matrix(.9971 -.0757 .0757 .9971 -7.8594 27.3585)" gradientUnits="userSpaceOnUse" x1="661.244" x2="679.7445" xlink:href="#n" y1="128.7263" y2="128.7263"/><linearGradient id="r"><stop offset="0" stop-color="#040404"/><stop offset=".125" stop-color="#0a0a0a"/><stop offset=".25" stop-color="#131313"/><stop offset=".4292" stop-color="#161616"/><stop offset=".5487" stop-color="#1f1f1f"/><stop offset=".6507" stop-color="#2e2e2e"/><stop offset=".743" stop-color="#434343"/><stop offset=".8279" stop-color="#5e5e5e"/><stop offset=".8909" stop-color="#787878"/></linearGradient><linearGradient id="s" gradientTransform="matrix(.9971 -.0757 .0757 .9971 -7.6655 27.6699)" gradientUnits="userSpaceOnUse" x1="572.4305" x2="576.0566" xlink:href="#r" y1="133.4778" y2="133.4778"/><linearGradient id="t" gradientTransform="matrix(.9971 -.0757 .0757 .9971 -7.6655 27.6699)" gradientUnits="userSpaceOnUse" x1="561.9307" x2="565.5569" xlink:href="#r" y1="133.6965" y2="133.6965"/><linearGradient id="u" gradientTransform="matrix(.9971 -.0757 .0757 .9971 -7.6655 27.6699)" gradientUnits="userSpaceOnUse" x1="551.4309" x2="555.0561" xlink:href="#r" y1="133.9157" y2="133.9157"/><linearGradient id="v" gradientTransform="matrix(.9971 -.0757 .0757 .9971 -7.6655 27.6699)" gradientUnits="userSpaceOnUse" x1="540.931" x2="544.5563" xlink:href="#r" y1="134.1345" y2="134.1345"/><linearGradient id="w" gradientTransform="matrix(.9971 -.0757 .0757 .9971 -7.6655 27.6699)" gradientUnits="userSpaceOnUse" x1="530.4312" x2="534.0565" xlink:href="#r" y1="134.3531" y2="134.3531"/><linearGradient id="x" gradientTransform="matrix(.9971 -.0757 .0757 .9971 -7.6655 27.6699)" gradientUnits="userSpaceOnUse" x1="519.9305" x2="523.5567" xlink:href="#r" y1="134.5718" y2="134.5718"/><linearGradient id="y" gradientTransform="matrix(.9971 -.0757 .0757 .9971 -7.6655 27.6699)" gradientUnits="userSpaceOnUse" x1="509.4307" x2="513.0569" xlink:href="#r" y1="134.7904" y2="134.7904"/><linearGradient id="z" gradientTransform="matrix(.9971 -.0757 .0757 .9971 -7.6655 27.6699)" gradientUnits="userSpaceOnUse" x1="498.931" x2="502.5562" xlink:href="#r" y1="135.0091" y2="135.0091"/><linearGradient id="A" gradientTransform="matrix(.9971 -.0757 .0757 .9971 -7.6655 27.6699)" gradientUnits="userSpaceOnUse" x1="488.4311" x2="492.0564" xlink:href="#r" y1="135.2278" y2="135.2278"/><linearGradient id="B" gradientTransform="matrix(.9971 -.0757 .0757 .9971 -7.6655 27.6699)" gradientUnits="userSpaceOnUse" x1="477.9313" x2="481.5565" xlink:href="#r" y1="135.4464" y2="135.4464"/><linearGradient id="C" gradientTransform="matrix(.9971 -.0757 .0757 .9971 -7.6655 27.6699)" gradientUnits="userSpaceOnUse" x1="467.4306" x2="471.0568" xlink:href="#r" y1="135.6651" y2="135.6651"/><linearGradient id="D" gradientTransform="matrix(.9971 -.0757 .0757 .9971 -7.6655 27.6699)" gradientUnits="userSpaceOnUse" x1="456.9308" x2="460.5559" xlink:href="#r" y1="135.8841" y2="135.8841"/><linearGradient id="E" gradientTransform="matrix(.9971 -.0757 .0757 .9971 -7.6655 27.6699)" gradientUnits="userSpaceOnUse" x1="446.431" x2="450.0562" xlink:href="#r" y1="136.1034" y2="136.1034"/><linearGradient id="F" gradientTransform="matrix(.9971 -.0757 .0757 .9971 -7.6655 27.6699)" gradientUnits="userSpaceOnUse" x1="435.9311" x2="439.5564" xlink:href="#r" y1="136.322" y2="136.322"/><linearGradient id="G" gradientTransform="matrix(.9971 -.0757 .0757 .9971 -7.6655 27.6699)" gradientUnits="userSpaceOnUse" x1="425.431" x2="429.0565" xlink:href="#r" y1="136.5407" y2="136.5407"/><linearGradient id="H" gradientTransform="matrix(.9971 -.0757 .0757 .9971 -7.6655 27.6699)" gradientUnits="userSpaceOnUse" x1="414.9306" x2="418.5568" xlink:href="#r" y1="136.7593" y2="136.7593"/><linearGradient id="I" gradientTransform="matrix(.9971 -.0757 .0757 .9971 -7.6655 27.6699)" gradientUnits="userSpaceOnUse" x1="404.4308" x2="408.056" xlink:href="#r" y1="136.9779" y2="136.9779"/><linearGradient id="J" gradientTransform="matrix(.9971 -.0757 .0757 .9971 -7.6655 27.6699)" gradientUnits="userSpaceOnUse" x1="393.9311" x2="397.5563" xlink:href="#r" y1="137.1966" y2="137.1966"/><linearGradient id="K" gradientTransform="matrix(.9971 -.0757 .0757 .9971 -7.6655 27.6699)" gradientUnits="userSpaceOnUse" x1="383.4312" x2="387.0565" xlink:href="#n" y1="137.4153" y2="137.4153"/><linearGradient id="L" gradientTransform="matrix(.9971 -.0757 .0757 .9971 -7.6655 27.6699)" gradientUnits="userSpaceOnUse" x1="372.9311" x2="376.5566" xlink:href="#n" y1="137.6339" y2="137.6339"/><linearGradient id="M" gradientTransform="matrix(.9971 -.0757 .0757 .9971 -7.6655 27.6699)" gradientUnits="userSpaceOnUse" x1="362.4307" x2="366.0563" xlink:href="#n" y1="137.8525" y2="137.8525"/><linearGradient id="N" gradientTransform="matrix(.9971 -.0757 .0757 .9971 -7.6655 27.6699)" gradientUnits="userSpaceOnUse" x1="351.9309" x2="355.5565" xlink:href="#n" y1="138.0712" y2="138.0712"/><linearGradient id="O" gradientTransform="matrix(.9971 -.0757 .0757 .9971 -7.6655 27.6699)" gradientUnits="userSpaceOnUse" x1="341.4311" x2="345.0563" xlink:href="#n" y1="138.2908" y2="138.2908"/><linearGradient id="P" gradientTransform="matrix(.9971 -.0757 .0757 .9971 -7.6655 27.6699)" gradientUnits="userSpaceOnUse" x1="330.9308" x2="334.5565" xlink:href="#n" y1="138.5095" y2="138.5095"/><linearGradient id="Q" gradientTransform="matrix(.9971 -.0757 .0757 .9971 -7.6655 27.6699)" gradientUnits="userSpaceOnUse" x1="320.4311" x2="324.0562" xlink:href="#n" y1="138.7281" y2="138.7281"/><linearGradient id="R" gradientTransform="matrix(.9971 -.0757 .0757 .9971 -7.6655 27.6699)" gradientUnits="userSpaceOnUse" x1="309.9307" x2="313.5563" xlink:href="#n" y1="138.9468" y2="138.9468"/><linearGradient id="S" gradientTransform="matrix(.9971 -.0757 .0757 .9971 -7.6655 27.6699)" gradientUnits="userSpaceOnUse" x1="299.4309" x2="303.0565" xlink:href="#n" y1="139.1655" y2="139.1655"/><linearGradient id="T" gradientTransform="matrix(.9971 -.0757 .0757 .9971 -7.6655 27.6699)" gradientUnits="userSpaceOnUse" x1="288.9312" x2="292.5564" xlink:href="#n" y1="139.3841" y2="139.3841"/><linearGradient id="U" gradientTransform="matrix(.9971 -.0757 .0757 .9971 -7.6655 27.6699)" gradientUnits="userSpaceOnUse" x1="278.4309" x2="282.0566" xlink:href="#n" y1="139.6028" y2="139.6028"/><linearGradient id="V" gradientTransform="matrix(.9971 -.0757 .0757 .9971 -7.6655 27.6699)" gradientUnits="userSpaceOnUse" x1="267.9312" x2="271.5562" xlink:href="#n" y1="139.8214" y2="139.8214"/><linearGradient id="W" gradientTransform="matrix(.9971 -.0757 .0757 .9971 -7.6655 27.6699)" gradientUnits="userSpaceOnUse" x1="257.4308" x2="261.0564" xlink:href="#n" y1="140.0401" y2="140.0401"/><linearGradient id="X" gradientTransform="matrix(.9971 -.0757 .0757 .9971 -7.6655 27.6699)" gradientUnits="userSpaceOnUse" x1="246.931" x2="250.5566" xlink:href="#n" y1="140.2587" y2="140.2587"/><linearGradient id="Y" gradientTransform="matrix(.9971 -.0757 .0757 .9971 -7.6655 27.6699)" gradientUnits="userSpaceOnUse" x1="236.4307" x2="240.0563" xlink:href="#n" y1="140.4783" y2="140.4783"/><linearGradient id="Z" gradientTransform="matrix(.9971 -.0757 .0757 .9971 -7.6655 27.6699)" gradientUnits="userSpaceOnUse" x1="225.9309" x2="229.5565" xlink:href="#n" y1="140.6969" y2="140.6969"/><linearGradient id="aa" gradientTransform="matrix(.9971 -.0757 .0757 .9971 -7.6655 27.6699)" gradientUnits="userSpaceOnUse" x1="215.4312" x2="219.0563" xlink:href="#n" y1="140.9156" y2="140.9156"/><linearGradient id="ab" gradientTransform="matrix(.9971 -.0757 .0757 .9971 -7.6655 27.6699)" gradientUnits="userSpaceOnUse" x1="204.9309" x2="208.5564" xlink:href="#n" y1="141.1342" y2="141.1342"/><linearGradient id="ac" gradientTransform="matrix(.9971 -.0757 .0757 .9971 -7.6655 27.6699)" gradientUnits="userSpaceOnUse" x1="194.4312" x2="198.0562" xlink:href="#n" y1="141.3529" y2="141.3529"/><linearGradient id="ad" gradientTransform="matrix(.9971 -.0757 .0757 .9971 -7.8594 27.3585)" gradientUnits="userSpaceOnUse" x1="324.9155" x2="324.9155" y1="188.0773" y2="173.9354"><stop offset=".0182" stop-color="#aab1b5"/><stop offset=".3515" stop-color="#c4cacf"/><stop offset="1" stop-color="#e7edf1"/></linearGradient><linearGradient id="ae" gradientTransform="matrix(.9971 -.0757 .0757 .9971 -7.8594 27.3585)" gradientUnits="userSpaceOnUse" x1="311.4384" x2="421.8202" y1="149.4384" y2="198.5836"><stop offset=".5636" stop-color="#aab1b5"/><stop offset=".6038" stop-color="#b9c0c3"/><stop offset=".6802" stop-color="#dee5e9"/><stop offset=".6848" stop-color="#e1e8eb"/><stop offset="1" stop-color="#f4fbfe"/></linearGradient><linearGradient id="af" gradientTransform="matrix(.9971 -.0757 .0757 .9971 -7.8594 27.3585)" gradientUnits="userSpaceOnUse" x1="345.0699" x2="382.4936" y1="170.1053" y2="187.5563"><stop offset=".5394" stop-color="#8f969b"/><stop offset=".619" stop-color="#949ba0"/><stop offset=".7153" stop-color="#a3aaaf"/><stop offset=".7758" stop-color="#b0b7bc"/></linearGradient><clipPath id="ag"><path d="m352.632 197.231s-1.094-10.027 3.439-11.962c4.764-2.033 12.448-3.593 12.448-3.593s27.825-11.125 47.283-13.368c19.458-2.242 28.033-2.688 32.231-2.446 4.197.241 12.387 2.424 13.314 14.657.929 12.233 1.737 22.87-10.334 26.795-12.072 3.925-28.183 5.816-47.732 5.629-19.55-.188-29.956-2.407-29.956-2.407s-4.181-.458-6.848-.483c-3.429-.031-9.692-.518-11.089-2.961-1.851-3.236-2.712-8.312-2.756-9.861z"/></clipPath><linearGradient id="ah" gradientTransform="matrix(.9971 -.0757 .0757 .9971 -7.8594 27.3585)" gradientUnits="userSpaceOnUse" x1="401.4392" x2="401.4392" xlink:href="#c" y1="217.0761" y2="172.1249"/><linearGradient id="ai" gradientTransform="matrix(.9971 -.0757 .0757 .9971 -7.8594 27.3585)" gradientUnits="userSpaceOnUse" x1="441.6105" x2="456.2781" xlink:href="#e" y1="193.4326" y2="193.4326"/><linearGradient id="aj" gradientTransform="matrix(.9971 -.0757 .0757 .9971 -7.8594 27.3585)" gradientUnits="userSpaceOnUse" x1="402.3448" x2="402.3448" xlink:href="#g" y1="217.574" y2="171.6404"/><clipPath id="ak"><ellipse cx="454.426" cy="186.244" rx="7.334" ry="17.085" transform="matrix(.9971 -.0757 .0757 .9971 -12.7948 34.9345)"/></clipPath><path d="m185.962 130.754s-16.237-4.384-22.612-11.422c-6.375-7.037-74.533-81.426-74.533-81.426s-3.37-4.759-9.851-4.267-21.587 2.976-21.587 2.976-1.388.44-1.095 2.089 33.92 107.372 33.92 107.372z" fill="url(#a)"/><path d="m112.406 142.481c-.393-.956-39.334-95.599-40.524-98.233-.621-1.372-1.23-1.838-1.631-1.987-.368-.135-.604-.028-.615-.024l-.032.01-11.625 2.086-.044-.246 11.611-2.084c.075-.031.37-.129.778.019.655.235 1.256.95 1.786 2.124 1.192 2.638 40.135 97.285 40.528 98.24z" fill="#b4b4b4"/><path clip-path="url(#b)" d="m445.259 180.568s-1.048-9.602 3.293-11.454c4.562-1.947 11.919-3.44 11.919-3.44s26.643-10.652 45.275-12.801c18.631-2.146 26.843-2.573 30.861-2.342 4.019.23 11.861 2.32 12.749 14.034.89 11.714 1.664 21.899-9.896 25.657-11.56 3.759-26.985 5.569-45.705 5.39-18.72-.18-28.684-2.305-28.684-2.305s-4.004-.439-6.558-.463c-3.282-.03-9.28-.495-10.617-2.835-1.77-3.097-2.595-7.958-2.637-9.441z" fill="url(#d)"/><path clip-path="url(#b)" d="m549.732 169.516c.684 9.009-1.898 16.55-5.764 16.844-3.865.293-7.557-6.771-8.24-15.781-.684-9.008 1.899-16.548 5.764-16.841 3.866-.295 7.557 6.771 8.24 15.778z" fill="url(#f)"/><path clip-path="url(#b)" d="m537.758 190.753c-8.52-7.638-13.711-30.171-1.15-40.222 0 0-38.878-2.385-76.137 15.143 0 0-6.45 14.868 3.746 27.509 0 0 44.403 7.703 73.541-2.43z" fill="url(#h)"/><g clip-path="url(#b)"><g clip-path="url(#i)"><ellipse cx="536.826" cy="171.723" fill="#fff" rx="5.173" ry="12.051" transform="matrix(.9971 -.0757 .0757 .9971 -11.4599 41.1341)"/><ellipse cx="536.826" cy="171.723" fill="#fefefe" rx="5.164" ry="12.031" transform="matrix(.9971 -.0757 .0757 .9971 -11.4528 41.1043)"/><ellipse cx="536.826" cy="171.723" fill="#fdfdfd" rx="5.155" ry="12.011" transform="matrix(.9971 -.0758 .0758 .9971 -11.4697 41.1751)"/><ellipse cx="536.826" cy="171.723" fill="#fcfcfc" rx="5.147" ry="11.99" transform="matrix(.9971 -.0757 .0757 .9971 -11.4594 41.1318)"/><ellipse cx="536.826" cy="171.723" fill="#fbfbfb" rx="5.138" ry="11.971" transform="matrix(.9971 -.0756 .0756 .9971 -11.451 41.0965)"/><ellipse cx="536.826" cy="171.723" fill="#fafafa" rx="5.129" ry="11.95" transform="matrix(.9971 -.0758 .0758 .9971 -11.4679 41.1677)"/><ellipse cx="536.826" cy="171.723" fill="#f9f9f9" rx="5.121" ry="11.931" transform="matrix(.9971 -.0757 .0757 .9971 -11.4608 41.1376)"/><ellipse cx="536.826" cy="171.723" fill="#f8f8f8" rx="5.112" ry="11.91" transform="matrix(.9971 -.0757 .0757 .9971 -11.4536 41.1075)"/><ellipse cx="536.826" cy="171.723" fill="#f7f7f7" rx="5.103" ry="11.891" transform="matrix(.9971 -.0758 .0758 .9971 -11.4706 41.179)"/><ellipse cx="536.826" cy="171.723" fill="#f6f6f6" rx="5.095" ry="11.87" transform="matrix(.9971 -.0757 .0757 .9971 -11.4602 41.1353)"/><ellipse cx="536.826" cy="171.723" fill="#f5f5f5" rx="5.086" ry="11.849" transform="matrix(.9971 -.0756 .0756 .9971 -11.4517 41.0997)"/><ellipse cx="536.826" cy="171.723" fill="#f4f4f4" rx="5.078" ry="11.83" transform="matrix(.9971 -.0758 .0758 .9971 -11.4688 41.1715)"/><ellipse cx="536.826" cy="171.723" fill="#f3f3f3" rx="5.069" ry="11.809" transform="matrix(.9971 -.0757 .0757 .9971 -11.4616 41.1412)"/><ellipse cx="536.826" cy="171.723" fill="#f1f1f1" rx="5.06" ry="11.79" transform="matrix(.9971 -.0757 .0757 .9971 -11.4529 41.1046)"/><ellipse cx="536.826" cy="171.723" fill="#f0f0f0" rx="5.051" ry="11.769" transform="matrix(.9971 -.0758 .0758 .9971 -11.4701 41.1768)"/><ellipse cx="536.826" cy="171.723" fill="#efefef" rx="5.043" ry="11.75" transform="matrix(.9971 -.0757 .0757 .9971 -11.4609 41.1381)"/><ellipse cx="536.826" cy="171.723" fill="#eee" rx="5.034" ry="11.729" transform="matrix(.9971 -.0756 .0756 .9971 -11.4523 41.1021)"/><ellipse cx="536.826" cy="171.723" fill="#ededed" rx="5.026" ry="11.708" transform="matrix(.9971 -.0758 .0758 .9971 -11.4696 41.1747)"/><ellipse cx="536.826" cy="171.723" fill="#ececec" rx="5.017" ry="11.689" transform="matrix(.9971 -.0757 .0757 .9971 -11.461 41.1386)"/><ellipse cx="536.826" cy="171.723" fill="#ebebeb" rx="5.008" ry="11.668" transform="matrix(.9971 -.0757 .0757 .9971 -11.4538 41.1083)"/><ellipse cx="536.826" cy="171.723" fill="#eaeaea" rx="4.999" ry="11.649" transform="matrix(.9971 -.0758 .0758 .9971 -11.4712 41.1813)"/><ellipse cx="536.826" cy="171.723" fill="#e9e9e9" rx="4.991" ry="11.628" transform="matrix(.9971 -.0757 .0757 .9971 -11.4619 41.1422)"/><ellipse cx="536.826" cy="171.723" fill="#e8e8e8" rx="4.983" ry="11.609" transform="matrix(.9971 -.0757 .0757 .9971 -11.4532 41.1058)"/><ellipse cx="536.826" cy="171.723" fill="#e7e7e7" rx="4.974" ry="11.588" transform="matrix(.9971 -.0758 .0758 .9971 -11.4707 41.1792)"/><ellipse cx="536.826" cy="171.723" fill="#e6e6e6" rx="4.965" ry="11.567" transform="matrix(.9971 -.0757 .0757 .9971 -11.462 41.1427)"/><ellipse cx="536.826" cy="171.723" fill="#e5e5e5" rx="4.956" ry="11.548" transform="matrix(.9971 -.0757 .0757 .9971 -11.4545 41.1112)"/><ellipse cx="536.826" cy="171.723" fill="#e4e4e4" rx="4.947" ry="11.527" transform="matrix(.9971 -.0758 .0758 .9971 -11.4718 41.1841)"/><ellipse cx="536.826" cy="171.723" fill="#e3e3e3" rx="4.939" ry="11.508" transform="matrix(.9971 -.0757 .0757 .9971 -11.4625 41.145)"/><ellipse cx="536.826" cy="171.723" fill="#e2e2e2" rx="4.931" ry="11.487" transform="matrix(.9971 -.0757 .0757 .9971 -11.4536 41.1074)"/><ellipse cx="536.826" cy="171.723" fill="#e1e1e1" rx="4.922" ry="11.468" transform="matrix(.9971 -.0758 .0758 .9971 -11.4712 41.1816)"/><ellipse cx="536.826" cy="171.723" fill="#e0e0e0" rx="4.913" ry="11.447" transform="matrix(.9971 -.0757 .0757 .9971 -11.4625 41.1447)"/><ellipse cx="536.826" cy="171.723" fill="#dfdfdf" rx="4.904" ry="11.427" transform="matrix(.9971 -.0757 .0757 .9971 -11.455 41.1133)"/><ellipse cx="536.826" cy="171.723" fill="#dedede" rx="4.896" ry="11.407" transform="matrix(.9971 -.0758 .0758 .9971 -11.4707 41.1794)"/><ellipse cx="536.826" cy="171.723" fill="#ddd" rx="4.888" ry="11.386" transform="matrix(.9971 -.0757 .0757 .9971 -11.4633 41.1484)"/><ellipse cx="536.826" cy="171.723" fill="#dcdcdc" rx="4.879" ry="11.367" transform="matrix(.9971 -.0757 .0757 .9971 -11.4545 41.1112)"/><ellipse cx="536.826" cy="171.723" fill="#dbdbdb" rx="4.87" ry="11.346" transform="matrix(.9971 -.0758 .0758 .9971 -11.4723 41.1862)"/><ellipse cx="536.826" cy="171.723" fill="#dadada" rx="4.861" ry="11.326" transform="matrix(.9971 -.0757 .0757 .9971 -11.4635 41.149)"/><ellipse cx="536.826" cy="171.723" fill="#d8d8d8" rx="4.852" ry="11.306" transform="matrix(.9971 -.0757 .0757 .9971 -11.4559 41.1172)"/><ellipse cx="536.826" cy="171.723" fill="#d7d7d7" rx="4.844" ry="11.286" transform="matrix(.9971 -.0758 .0758 .9971 -11.4718 41.184)"/><ellipse cx="536.826" cy="171.723" fill="#d6d6d6" rx="4.836" ry="11.266" transform="matrix(.9971 -.0757 .0757 .9971 -11.4629 41.1466)"/><ellipse cx="536.826" cy="171.723" fill="#d5d5d5" rx="4.827" ry="11.245" transform="matrix(.9971 -.0757 .0757 .9971 -11.4553 41.1147)"/><ellipse cx="536.826" cy="171.723" fill="#d4d4d4" rx="4.818" ry="11.226" transform="matrix(.9971 -.0758 .0758 .9971 -11.4734 41.1905)"/><ellipse cx="536.826" cy="171.723" fill="#d3d3d3" rx="4.809" ry="11.205" transform="matrix(.9971 -.0757 .0757 .9971 -11.4642 41.1521)"/><ellipse cx="536.826" cy="171.723" fill="#d2d2d2" rx="4.8" ry="11.185" transform="matrix(.9971 -.0757 .0757 .9971 -11.4552 41.1143)"/><ellipse cx="536.826" cy="171.723" fill="#d1d1d1" rx="4.793" ry="11.165" transform="matrix(.9971 -.0758 .0758 .9971 -11.4713 41.1818)"/><ellipse cx="536.826" cy="171.723" fill="#d0d0d0" rx="4.784" ry="11.145" transform="matrix(.9971 -.0757 .0757 .9971 -11.4636 41.1497)"/><ellipse cx="536.826" cy="171.723" fill="#cfcfcf" rx="4.775" ry="11.125" transform="matrix(.9971 -.0757 .0757 .9971 -11.456 41.1174)"/><ellipse cx="536.826" cy="171.723" fill="#cecece" rx="4.766" ry="11.105" transform="matrix(.9971 -.0758 .0758 .9971 -11.4742 41.1941)"/><ellipse cx="536.826" cy="171.723" fill="#cdcdcd" rx="4.757" ry="11.085" transform="matrix(.9971 -.0757 .0757 .9971 -11.4651 41.156)"/><ellipse cx="536.826" cy="171.723" fill="#ccc" rx="4.748" ry="11.064" transform="matrix(.9971 -.0757 .0757 .9971 -11.4561 41.1178)"/><ellipse cx="536.826" cy="171.723" fill="#cbcbcb" rx="4.741" ry="11.044" transform="matrix(.9971 -.0756 .0756 .9971 -11.4462 41.0765)"/><ellipse cx="536.826" cy="171.723" fill="#cacaca" rx="4.732" ry="11.024" transform="matrix(.9971 -.0757 .0757 .9971 -11.4646 41.1536)"/><ellipse cx="536.826" cy="171.723" fill="#c9c9c9" rx="4.723" ry="11.004" transform="matrix(.9971 -.0757 .0757 .9971 -11.4568 41.1211)"/><ellipse cx="536.826" cy="171.723" fill="#c8c8c8" rx="4.714" ry="10.984" transform="matrix(.9971 -.0756 .0756 .9971 -11.4476 41.0825)"/><ellipse cx="536.826" cy="171.723" fill="#c7c7c7" rx="4.705" ry="10.964" transform="matrix(.9971 -.0758 .0758 .9971 -11.4661 41.1601)"/><ellipse cx="536.826" cy="171.723" fill="#c6c6c6" rx="4.697" ry="10.943" transform="matrix(.9971 -.0757 .0757 .9971 -11.4567 41.1206)"/><ellipse cx="536.826" cy="171.723" fill="#c5c5c5" rx="4.689" ry="10.923" transform="matrix(.9971 -.0756 .0756 .9971 -11.447 41.0797)"/><ellipse cx="536.826" cy="171.723" fill="#c4c4c4" rx="4.68" ry="10.903" transform="matrix(.9971 -.0757 .0757 .9971 -11.4653 41.1567)"/><ellipse cx="536.826" cy="171.723" fill="#c3c3c3" rx="4.671" ry="10.883" transform="matrix(.9971 -.0757 .0757 .9971 -11.4575 41.1238)"/><ellipse cx="536.826" cy="171.723" fill="#c2c2c2" rx="4.662" ry="10.863" transform="matrix(.9971 -.0756 .0756 .9971 -11.4482 41.0849)"/><ellipse cx="536.826" cy="171.723" fill="#c1c1c1" rx="4.654" ry="10.843" transform="matrix(.9971 -.0758 .0758 .9971 -11.4669 41.1633)"/><ellipse cx="536.826" cy="171.723" fill="#c0c0c0" rx="4.646" ry="10.823" transform="matrix(.9971 -.0757 .0757 .9971 -11.4555 41.1154)"/><ellipse cx="536.826" cy="171.723" fill="#bebebe" rx="4.637" ry="10.802" transform="matrix(.9971 -.0756 .0756 .9971 -11.4461 41.0762)"/><ellipse cx="536.826" cy="171.723" fill="#bdbdbd" rx="4.628" ry="10.783" transform="matrix(.9971 -.0757 .0757 .9971 -11.4649 41.155)"/><ellipse cx="536.826" cy="171.723" fill="#bcbcbc" rx="4.619" ry="10.762" transform="matrix(.9971 -.0757 .0757 .9971 -11.457 41.1217)"/><ellipse cx="536.826" cy="171.723" fill="#bbb" rx="4.61" ry="10.742" transform="matrix(.9971 -.0756 .0756 .9971 -11.449 41.0883)"/><ellipse cx="536.826" cy="171.723" fill="#bababa" rx="4.602" ry="10.722" transform="matrix(.9971 -.0758 .0758 .9971 -11.4679 41.1676)"/><ellipse cx="536.826" cy="171.723" fill="#b9b9b9" rx="4.594" ry="10.702" transform="matrix(.9971 -.0757 .0757 .9971 -11.4563 41.119)"/><ellipse cx="536.826" cy="171.723" fill="#b8b8b8" rx="4.585" ry="10.682" transform="matrix(.9971 -.0756 .0756 .9971 -11.4469 41.0795)"/><ellipse cx="536.826" cy="171.723" fill="#b7b7b7" rx="4.576" ry="10.661" transform="matrix(.9971 -.0758 .0758 .9971 -11.4659 41.1592)"/><ellipse cx="536.826" cy="171.723" fill="#b6b6b6" rx="4.567" ry="10.642" transform="matrix(.9971 -.0757 .0757 .9971 -11.4579 41.1255)"/><ellipse cx="536.826" cy="171.723" fill="#b5b5b5" rx="4.558" ry="10.621" transform="matrix(.9971 -.0756 .0756 .9971 -11.4496 41.0908)"/><ellipse cx="536.826" cy="171.723" fill="#b4b4b4" rx="4.55" ry="10.601" transform="matrix(.9971 -.0758 .0758 .9971 -11.4687 41.171)"/><ellipse cx="536.826" cy="171.723" fill="#b3b3b3" rx="4.542" ry="10.581" transform="matrix(.9971 -.0757 .0757 .9971 -11.457 41.122)"/><ellipse cx="536.826" cy="171.723" fill="#b2b2b2" rx="4.533" ry="10.561" transform="matrix(.9971 -.0756 .0756 .9971 -11.4475 41.0819)"/><ellipse cx="536.826" cy="171.723" fill="#b1b1b1" rx="4.524" ry="10.541" transform="matrix(.9971 -.0758 .0758 .9971 -11.4667 41.1625)"/><ellipse cx="536.826" cy="171.723" fill="#b0b0b0" rx="4.515" ry="10.52" transform="matrix(.9971 -.0757 .0757 .9971 -11.4586 41.1285)"/><ellipse cx="536.826" cy="171.723" fill="#afafaf" rx="4.507" ry="10.501" transform="matrix(.9971 -.0756 .0756 .9971 -11.4504 41.0943)"/><ellipse cx="536.826" cy="171.723" fill="#aeaeae" rx="4.498" ry="10.48" transform="matrix(.9971 -.0758 .0758 .9971 -11.4698 41.1754)"/><ellipse cx="536.826" cy="171.723" fill="#adadad" rx="4.49" ry="10.46" transform="matrix(.9971 -.0757 .0757 .9971 -11.458 41.1258)"/><ellipse cx="536.826" cy="171.723" fill="#acacac" rx="4.481" ry="10.44" transform="matrix(.9971 -.0756 .0756 .9971 -11.4483 41.0853)"/><ellipse cx="536.826" cy="171.723" fill="#ababab" rx="4.472" ry="10.42" transform="matrix(.9971 -.0758 .0758 .9971 -11.4678 41.1669)"/><ellipse cx="536.826" cy="171.723" fill="#aaa" rx="4.463" ry="10.4" transform="matrix(.9971 -.0757 .0757 .9971 -11.4596 41.1329)"/><ellipse cx="536.826" cy="171.723" fill="#a9a9a9" rx="4.455" ry="10.379" transform="matrix(.9971 -.0756 .0756 .9971 -11.4514 41.0983)"/><ellipse cx="536.826" cy="171.723" fill="#a8a8a8" rx="4.447" ry="10.36" transform="matrix(.9971 -.0758 .0758 .9971 -11.4687 41.1711)"/><ellipse cx="536.826" cy="171.723" fill="#a7a7a7" rx="4.438" ry="10.339" transform="matrix(.9971 -.0757 .0757 .9971 -11.459 41.1303)"/><ellipse cx="536.826" cy="171.723" fill="#a6a6a6" rx="4.429" ry="10.32" transform="matrix(.9971 -.0756 .0756 .9971 -11.449 41.0883)"/><ellipse cx="536.826" cy="171.723" fill="#a4a4a4" rx="4.42" ry="10.299" transform="matrix(.9971 -.0758 .0758 .9971 -11.4687 41.1709)"/><ellipse cx="536.826" cy="171.723" fill="#a3a3a3" rx="4.412" ry="10.279" transform="matrix(.9971 -.0757 .0757 .9971 -11.4589 41.1298)"/><ellipse cx="536.826" cy="171.723" fill="#a2a2a2" rx="4.403" ry="10.259" transform="matrix(.9971 -.0756 .0756 .9971 -11.4505 41.0943)"/><ellipse cx="536.826" cy="171.723" fill="#a1a1a1" rx="4.395" ry="10.238" transform="matrix(.9971 -.0758 .0758 .9971 -11.468 41.1679)"/><ellipse cx="536.826" cy="171.723" fill="#a0a0a0" rx="4.386" ry="10.219" transform="matrix(.9971 -.0757 .0757 .9971 -11.4595 41.1323)"/><ellipse cx="536.826" cy="171.723" fill="#9f9f9f" rx="4.377" ry="10.198" transform="matrix(.9971 -.0756 .0756 .9971 -11.4496 41.0909)"/><ellipse cx="536.826" cy="171.723" fill="#9e9e9e" rx="4.369" ry="10.179" transform="matrix(.9971 -.0758 .0758 .9971 -11.4695 41.1745)"/><ellipse cx="536.826" cy="171.723" fill="#9d9d9d" rx="4.36" ry="10.158" transform="matrix(.9971 -.0757 .0757 .9971 -11.4597 41.1329)"/><ellipse cx="536.826" cy="171.723" fill="#9c9c9c" rx="4.351" ry="10.137" transform="matrix(.9971 -.0756 .0756 .9971 -11.4512 41.0975)"/><ellipse cx="536.826" cy="171.723" fill="#9b9b9b" rx="4.343" ry="10.118" transform="matrix(.9971 -.0758 .0758 .9971 -11.4689 41.1719)"/><ellipse cx="536.826" cy="171.723" fill="#9a9a9a" rx="4.334" ry="10.097" transform="matrix(.9971 -.0757 .0757 .9971 -11.4606 41.137)"/><ellipse cx="536.826" cy="171.723" fill="#999" rx="4.325" ry="10.078" transform="matrix(.9971 -.0756 .0756 .9971 -11.4506 41.0951)"/><ellipse cx="536.826" cy="171.723" fill="#989898" rx="4.317" ry="10.057" transform="matrix(.9971 -.0758 .0758 .9971 -11.4708 41.1796)"/><ellipse cx="536.826" cy="171.723" fill="#979797" rx="4.308" ry="10.038" transform="matrix(.9971 -.0757 .0757 .9971 -11.4605 41.1367)"/><ellipse cx="536.826" cy="171.723" fill="#969696" rx="4.299" ry="10.017" transform="matrix(.9971 -.0756 .0756 .9971 -11.452 41.1008)"/><ellipse cx="536.826" cy="171.723" fill="#959595" rx="4.291" ry="9.998" transform="matrix(.9971 -.0758 .0758 .9971 -11.4699 41.1762)"/><ellipse cx="536.826" cy="171.723" fill="#949494" rx="4.282" ry="9.977" transform="matrix(.9971 -.0757 .0757 .9971 -11.4614 41.1403)"/><ellipse cx="536.826" cy="171.723" fill="#939393" rx="4.273" ry="9.956" transform="matrix(.9971 -.0756 .0756 .9971 -11.4513 41.0978)"/><ellipse cx="536.826" cy="171.723" fill="#929292" rx="4.265" ry="9.937" transform="matrix(.9971 -.0758 .0758 .9971 -11.4717 41.1835)"/><ellipse cx="536.826" cy="171.723" fill="#919191" rx="4.256" ry="9.916" transform="matrix(.9971 -.0757 .0757 .9971 -11.4615 41.1409)"/><ellipse cx="536.826" cy="171.723" fill="#909090" rx="4.247" ry="9.897" transform="matrix(.9971 -.0757 .0757 .9971 -11.4529 41.1046)"/><ellipse cx="536.826" cy="171.723" fill="#8f8f8f" rx="4.239" ry="9.876" transform="matrix(.9971 -.0758 .0758 .9971 -11.4711 41.1809)"/><ellipse cx="536.826" cy="171.723" fill="#8e8e8e" rx="4.23" ry="9.857" transform="matrix(.9971 -.0757 .0757 .9971 -11.4609 41.1381)"/><ellipse cx="536.826" cy="171.723" fill="#8d8d8d" rx="4.222" ry="9.836" transform="matrix(.9971 -.0756 .0756 .9971 -11.4522 41.1017)"/><ellipse cx="536.826" cy="171.723" fill="#8b8b8b" rx="4.213" ry="9.815" transform="matrix(.9971 -.0758 .0758 .9971 -11.4728 41.1883)"/><ellipse cx="536.826" cy="171.723" fill="#8a8a8a" rx="4.204" ry="9.796" transform="matrix(.9971 -.0757 .0757 .9971 -11.4626 41.1452)"/><ellipse cx="536.826" cy="171.723" fill="#898989" rx="4.196" ry="9.775" transform="matrix(.9971 -.0756 .0756 .9971 -11.4499 41.0921)"/><ellipse cx="536.826" cy="171.723" fill="#888" rx="4.187" ry="9.756" transform="matrix(.9971 -.0758 .0758 .9971 -11.4707 41.1793)"/><ellipse cx="536.826" cy="171.723" fill="#878787" rx="4.179" ry="9.735" transform="matrix(.9971 -.0757 .0757 .9971 -11.4617 41.1414)"/><ellipse cx="536.826" cy="171.723" fill="#868686" rx="4.17" ry="9.715" transform="matrix(.9971 -.0757 .0757 .9971 -11.4529 41.1046)"/><ellipse cx="536.826" cy="171.723" fill="#858585" rx="4.161" ry="9.695" transform="matrix(.9971 -.0758 .0758 .9971 -11.4738 41.1923)"/><ellipse cx="536.826" cy="171.723" fill="#848484" rx="4.152" ry="9.675" transform="matrix(.9971 -.0757 .0757 .9971 -11.4634 41.1487)"/><ellipse cx="536.826" cy="171.723" fill="#838383" rx="4.144" ry="9.655" transform="matrix(.9971 -.0756 .0756 .9971 -11.4506 41.0949)"/><ellipse cx="536.826" cy="171.723" fill="#828282" rx="4.135" ry="9.634" transform="matrix(.9971 -.0758 .0758 .9971 -11.4716 41.1831)"/><ellipse cx="536.826" cy="171.723" fill="#818181" rx="4.127" ry="9.615" transform="matrix(.9971 -.0757 .0757 .9971 -11.4627 41.1459)"/><ellipse cx="536.826" cy="171.723" fill="#808080" rx="4.118" ry="9.594" transform="matrix(.9971 -.0757 .0757 .9971 -11.4538 41.1086)"/><ellipse cx="536.826" cy="171.723" fill="#7f7f7f" rx="4.109" ry="9.574" transform="matrix(.9971 -.0758 .0758 .9971 -11.475 41.1974)"/><ellipse cx="536.826" cy="171.723" fill="#7e7e7e" rx="4.1" ry="9.554" transform="matrix(.9971 -.0757 .0757 .9971 -11.4645 41.1533)"/><ellipse cx="536.826" cy="171.723" fill="#7d7d7d" rx="4.092" ry="9.534" transform="matrix(.9971 -.0756 .0756 .9971 -11.4515 41.0988)"/><ellipse cx="536.826" cy="171.723" fill="#7c7c7c" rx="4.083" ry="9.514" transform="matrix(.9971 -.0758 .0758 .9971 -11.4728 41.1882)"/><ellipse cx="536.826" cy="171.723" fill="#7b7b7b" rx="4.075" ry="9.493" transform="matrix(.9971 -.0757 .0757 .9971 -11.4638 41.1505)"/><ellipse cx="536.826" cy="171.723" fill="#7a7a7a" rx="4.066" ry="9.473" transform="matrix(.9971 -.0757 .0757 .9971 -11.4548 41.1126)"/><ellipse cx="536.826" cy="171.723" fill="#797979" rx="4.057" ry="9.453" transform="matrix(.9971 -.0758 .0758 .9971 -11.476 41.2017)"/><ellipse cx="536.826" cy="171.723" fill="#787878" rx="4.048" ry="9.433" transform="matrix(.9971 -.0757 .0757 .9971 -11.4654 41.1569)"/><ellipse cx="536.826" cy="171.723" fill="#777" rx="4.04" ry="9.413" transform="matrix(.9971 -.0756 .0756 .9971 -11.4522 41.1018)"/><ellipse cx="536.826" cy="171.723" fill="#767676" rx="4.032" ry="9.393" transform="matrix(.9971 -.0758 .0758 .9971 -11.4738 41.1923)"/><ellipse cx="536.826" cy="171.723" fill="#757575" rx="4.023" ry="9.373" transform="matrix(.9971 -.0757 .0757 .9971 -11.4647 41.1542)"/><ellipse cx="536.826" cy="171.723" fill="#747474" rx="4.014" ry="9.353" transform="matrix(.9971 -.0757 .0757 .9971 -11.454 41.1091)"/><ellipse cx="536.826" cy="171.723" fill="#737373" rx="4.005" ry="9.332" transform="matrix(.9971 -.0758 .0758 .9971 -11.4757 41.2002)"/><ellipse cx="536.826" cy="171.723" fill="#717171" rx="3.996" ry="9.312" transform="matrix(.9971 -.0758 .0758 .9971 -11.4665 41.1617)"/><ellipse cx="536.826" cy="171.723" fill="#707070" rx="3.988" ry="9.292" transform="matrix(.9971 -.0757 .0757 .9971 -11.4532 41.1059)"/><ellipse cx="536.826" cy="171.723" fill="#6f6f6f" rx="3.98" ry="9.272" transform="matrix(.9971 -.0758 .0758 .9971 -11.4751 41.1976)"/><ellipse cx="536.826" cy="171.723" fill="#6e6e6e" rx="3.971" ry="9.252" transform="matrix(.9971 -.0757 .0757 .9971 -11.4642 41.1521)"/><ellipse cx="536.826" cy="171.723" fill="#6d6d6d" rx="3.962" ry="9.232" transform="matrix(.9971 -.0757 .0757 .9971 -11.455 41.1132)"/><ellipse cx="536.826" cy="171.723" fill="#6c6c6c" rx="3.953" ry="9.212" transform="matrix(.9971 -.0758 .0758 .9971 -11.4769 41.2056)"/><ellipse cx="536.826" cy="171.723" fill="#6b6b6b" rx="3.945" ry="9.191" transform="matrix(.9971 -.0757 .0757 .9971 -11.4652 41.1561)"/><ellipse cx="536.826" cy="171.723" fill="#6a6a6a" rx="3.937" ry="9.171" transform="matrix(.9971 -.0757 .0757 .9971 -11.4542 41.1101)"/><ellipse cx="536.826" cy="171.723" fill="#696969" rx="3.928" ry="9.151" transform="matrix(.9971 -.0758 .0758 .9971 -11.4761 41.2019)"/><ellipse cx="536.826" cy="171.723" fill="#686868" rx="3.919" ry="9.131" transform="matrix(.9971 -.0757 .0757 .9971 -11.4651 41.1558)"/><ellipse cx="536.826" cy="171.723" fill="#676767" rx="3.91" ry="9.111" transform="matrix(.9971 -.0757 .0757 .9971 -11.4559 41.117)"/><ellipse cx="536.826" cy="171.723" fill="#666" rx="3.901" ry="9.091" transform="matrix(.9971 -.0758 .0758 .9971 -11.4781 41.2106)"/><ellipse cx="536.826" cy="171.723" fill="#656565" rx="3.894" ry="9.071" transform="matrix(.9971 -.0758 .0758 .9971 -11.4662 41.1605)"/><ellipse cx="536.826" cy="171.723" fill="#646464" rx="3.885" ry="9.05" transform="matrix(.9971 -.0757 .0757 .9971 -11.4551 41.1138)"/><ellipse cx="536.826" cy="171.723" fill="#636363" rx="3.876" ry="9.03" transform="matrix(.9971 -.0756 .0756 .9971 -11.444 41.067)"/><ellipse cx="536.826" cy="171.723" fill="#626262" rx="3.867" ry="9.01" transform="matrix(.9971 -.0758 .0758 .9971 -11.4664 41.1613)"/><ellipse cx="536.826" cy="171.723" fill="#616161" rx="3.858" ry="8.99" transform="matrix(.9971 -.0757 .0757 .9971 -11.4568 41.1209)"/><ellipse cx="536.826" cy="171.723" fill="#606060" rx="3.849" ry="8.97" transform="matrix(.9971 -.0756 .0756 .9971 -11.4471 41.0803)"/><ellipse cx="536.826" cy="171.723" fill="#5f5f5f" rx="3.842" ry="8.95" transform="matrix(.9971 -.0758 .0758 .9971 -11.4671 41.1644)"/><ellipse cx="536.826" cy="171.723" fill="#5e5e5e" rx="3.833" ry="8.93" transform="matrix(.9971 -.0757 .0757 .9971 -11.4559 41.1172)"/><ellipse cx="536.826" cy="171.723" fill="#5d5d5d" rx="3.824" ry="8.909" transform="matrix(.9971 -.0756 .0756 .9971 -11.4446 41.0697)"/><ellipse cx="536.826" cy="171.723" fill="#5c5c5c" rx="3.815" ry="8.89" transform="matrix(.9971 -.0758 .0758 .9971 -11.4674 41.1653)"/><ellipse cx="536.826" cy="171.723" fill="#5b5b5b" rx="3.806" ry="8.869" transform="matrix(.9971 -.0757 .0757 .9971 -11.4558 41.1167)"/><ellipse cx="536.826" cy="171.723" fill="#5a5a5a" rx="3.798" ry="8.849" transform="matrix(.9971 -.0756 .0756 .9971 -11.4461 41.076)"/><ellipse cx="536.826" cy="171.723" fill="#595959" rx="3.79" ry="8.829" transform="matrix(.9971 -.0758 .0758 .9971 -11.4664 41.1613)"/><ellipse cx="536.826" cy="171.723" fill="#575757" rx="3.781" ry="8.808" transform="matrix(.9971 -.0757 .0757 .9971 -11.4569 41.1212)"/><ellipse cx="536.826" cy="171.723" fill="#565656" rx="3.772" ry="8.789" transform="matrix(.9971 -.0756 .0756 .9971 -11.4454 41.073)"/><ellipse cx="536.826" cy="171.723" fill="#555" rx="3.763" ry="8.768" transform="matrix(.9971 -.0758 .0758 .9971 -11.4685 41.17)"/><ellipse cx="536.826" cy="171.723" fill="#545454" rx="3.754" ry="8.749" transform="matrix(.9971 -.0757 .0757 .9971 -11.457 41.1217)"/><ellipse cx="536.826" cy="171.723" fill="#535353" rx="3.746" ry="8.728" transform="matrix(.9971 -.0756 .0756 .9971 -11.4472 41.0806)"/><ellipse cx="536.826" cy="171.723" fill="#525252" rx="3.738" ry="8.708" transform="matrix(.9971 -.0758 .0758 .9971 -11.4678 41.1671)"/><ellipse cx="536.826" cy="171.723" fill="#515151" rx="3.729" ry="8.688" transform="matrix(.9971 -.0757 .0757 .9971 -11.458 41.1258)"/><ellipse cx="536.826" cy="171.723" fill="#505050" rx="3.72" ry="8.667" transform="matrix(.9971 -.0756 .0756 .9971 -11.4463 41.0771)"/><ellipse cx="536.826" cy="171.723" fill="#4f4f4f" rx="3.711" ry="8.648" transform="matrix(.9971 -.0758 .0758 .9971 -11.4697 41.1753)"/><ellipse cx="536.826" cy="171.723" fill="#4e4e4e" rx="3.702" ry="8.627" transform="matrix(.9971 -.0757 .0757 .9971 -11.4581 41.1264)"/><ellipse cx="536.826" cy="171.723" fill="#4d4d4d" rx="3.695" ry="8.608" transform="matrix(.9971 -.0756 .0756 .9971 -11.4455 41.0735)"/><ellipse cx="536.826" cy="171.723" fill="#4c4c4c" rx="3.686" ry="8.587" transform="matrix(.9971 -.0758 .0758 .9971 -11.469 41.1724)"/><ellipse cx="536.826" cy="171.723" fill="#4b4b4b" rx="3.677" ry="8.568" transform="matrix(.9971 -.0757 .0757 .9971 -11.4588 41.1294)"/><ellipse cx="536.826" cy="171.723" fill="#4a4a4a" rx="3.668" ry="8.547" transform="matrix(.9971 -.0756 .0756 .9971 -11.447 41.08)"/><ellipse cx="536.826" cy="171.723" fill="#494949" rx="3.659" ry="8.526" transform="matrix(.9971 -.0758 .0758 .9971 -11.4708 41.1797)"/><ellipse cx="536.826" cy="171.723" fill="#484848" rx="3.651" ry="8.507" transform="matrix(.9971 -.0757 .0757 .9971 -11.459 41.1301)"/><ellipse cx="536.826" cy="171.723" fill="#474747" rx="3.643" ry="8.486" transform="matrix(.9971 -.0756 .0756 .9971 -11.4462 41.0764)"/><ellipse cx="536.826" cy="171.723" fill="#464646" rx="3.634" ry="8.467" transform="matrix(.9971 -.0758 .0758 .9971 -11.4701 41.1767)"/><ellipse cx="536.826" cy="171.723" fill="#454545" rx="3.625" ry="8.446" transform="matrix(.9971 -.0757 .0757 .9971 -11.46 41.1344)"/><ellipse cx="536.826" cy="171.723" fill="#444" rx="3.616" ry="8.427" transform="matrix(.9971 -.0756 .0756 .9971 -11.448 41.0842)"/><ellipse cx="536.826" cy="171.723" fill="#434343" rx="3.608" ry="8.406" transform="matrix(.9971 -.0758 .0758 .9971 -11.4721 41.1853)"/><ellipse cx="536.826" cy="171.723" fill="#424242" rx="3.599" ry="8.385" transform="matrix(.9971 -.0757 .0757 .9971 -11.4602 41.135)"/><ellipse cx="536.826" cy="171.723" fill="#414141" rx="3.591" ry="8.366" transform="matrix(.9971 -.0756 .0756 .9971 -11.4453 41.0729)"/><ellipse cx="536.826" cy="171.723" fill="#404040" rx="3.582" ry="8.345" transform="matrix(.9971 -.0758 .0758 .9971 -11.4696 41.1748)"/><ellipse cx="536.826" cy="171.723" fill="#3e3e3e" rx="3.573" ry="8.326" transform="matrix(.9971 -.0757 .0757 .9971 -11.4594 41.1317)"/><ellipse cx="536.826" cy="171.723" fill="#3d3d3d" rx="3.564" ry="8.305" transform="matrix(.9971 -.0756 .0756 .9971 -11.4491 41.0885)"/><ellipse cx="536.826" cy="171.723" fill="#3c3c3c" rx="3.556" ry="8.286" transform="matrix(.9971 -.0758 .0758 .9971 -11.4732 41.19)"/><ellipse cx="536.826" cy="171.723" fill="#3b3b3b" rx="3.547" ry="8.265" transform="matrix(.9971 -.0757 .0757 .9971 -11.4611 41.1389)"/><ellipse cx="536.826" cy="171.723" fill="#3a3a3a" rx="3.539" ry="8.245" transform="matrix(.9971 -.0756 .0756 .9971 -11.4461 41.076)"/><ellipse cx="536.826" cy="171.723" fill="#393939" rx="3.53" ry="8.225" transform="matrix(.9971 -.0758 .0758 .9971 -11.4707 41.1793)"/><ellipse cx="536.826" cy="171.723" fill="#383838" rx="3.521" ry="8.204" transform="matrix(.9971 -.0757 .0757 .9971 -11.4603 41.1356)"/><ellipse cx="536.826" cy="171.723" fill="#373737" rx="3.513" ry="8.185" transform="matrix(.9971 -.0756 .0756 .9971 -11.4499 41.0918)"/><ellipse cx="536.826" cy="171.723" fill="#363636" rx="3.504" ry="8.164" transform="matrix(.9971 -.0758 .0758 .9971 -11.4747 41.1959)"/><ellipse cx="536.826" cy="171.723" fill="#353535" rx="3.495" ry="8.144" transform="matrix(.9971 -.0757 .0757 .9971 -11.4623 41.1442)"/><ellipse cx="536.826" cy="171.723" fill="#343434" rx="3.487" ry="8.124" transform="matrix(.9971 -.0756 .0756 .9971 -11.4471 41.0802)"/><ellipse cx="536.826" cy="171.723" fill="#333" rx="3.478" ry="8.104" transform="matrix(.9971 -.0758 .0758 .9971 -11.4721 41.1851)"/><ellipse cx="536.826" cy="171.723" fill="#323232" rx="3.469" ry="8.084" transform="matrix(.9971 -.0757 .0757 .9971 -11.4615 41.1409)"/></g></g><path clip-path="url(#j)" d="m682.613 109.05s61.927 16.528 4.009 41.816c0 0-36.661 12.477-78.31 16.475-41.651 3.996-136.138 12.172-136.138 12.172l-175.932 16.361s-40.454 3.965-56.068 3.42c0 0-78.348-.953-176.823-29.099-1.201-.344-3.583-1.061-4.622-1.898-2.211-1.78-3.243-9.714-2.168-11.442 1.118-1.795 2.644-3.711 32.831-10.635 0 0 83.86-14.936 123.439-18.693 39.58-3.756 173.287-19.295 173.287-19.295l205.617-22.752s22.033-2.048 46.782 1.965c24.75 4.014 32.605 11.351 33.371 11.884.827.576 10.725 9.721 10.725 9.721z" fill="url(#k)"/><path clip-path="url(#j)" d="m61.541 171.27-8.559.649-1.435-18.904 8.559-.649s-1.2 4.979-.856 9.091c.442 5.274 2.291 9.813 2.291 9.813z" fill="url(#l)"/><path clip-path="url(#j)" d="m672.726 99.83-15.87-.362-16.893 2.048s-4.565.96-5.365 5.283c-.801 4.323-.775 7.957-.775 7.957s1.215 2.79 3.334 2.63c2.118-.161 18.755-2.301 18.755-2.301l10.98-3.967 15.723-2.066.138-.172z" fill="url(#m)"/><path d="m637.731 106.811 2.793-2.845 5.982-.454-.927 10.079-7.243 1.197s-1.889-.107-1.628-1.631c.261-1.525 1.023-6.346 1.023-6.346z" fill="url(#o)"/><path d="m650.745 103.19-.634 9.826 3.772-.411 8.514-2.904s1.477-.363-.19-2.493c-1.666-2.13-4.727-5.032-4.727-5.032z" fill="url(#p)"/><path d="m660.928 101.916 5.926 7.072 13.088-.994-7.135-6.478z" fill="url(#q)"/><path d="m576.985 119.067c.062.823-.56 1.547-1.383 1.609l-.623.048c-.823.062-1.547-.56-1.609-1.383l-.289-3.801c-.062-.823.56-1.547 1.383-1.609l.623-.047c.823-.062 1.547.559 1.609 1.382z" fill="url(#s)"/><path d="m592.287 136.71c-1.087 0-2.094-.903-2.291-2.056-2.114-12.32-2.705-24.844-1.756-37.223.094-1.231 1.121-2.303 2.29-2.387 4.547-.332 9.095-.662 13.644-.99.58-.042 1.085.16 1.446.554.365.398.539.947.488 1.548-1.056 12.258-.585 24.679 1.399 36.918.102.627-.046 1.252-.405 1.716-.321.413-.783.667-1.302.713-4.448.399-8.896.798-13.339 1.2-.058.005-.116.007-.174.007zm12.03-42.412c-.041 0-.083.001-.126.004-4.549.328-9.097.658-13.644.99-1.032.075-1.975 1.063-2.058 2.157-.948 12.359-.358 24.862 1.752 37.161.188 1.092 1.176 1.924 2.197 1.843 4.443-.402 8.892-.802 13.34-1.2.447-.041.848-.261 1.126-.618.316-.409.447-.964.357-1.522-1.988-12.259-2.46-24.7-1.403-36.979.046-.53-.104-1.012-.422-1.357-.284-.309-.68-.479-1.119-.479z" fill="#b4b4b4"/><path d="m566.532 120.08c.062.823-.56 1.547-1.383 1.609l-.623.048c-.823.062-1.547-.56-1.609-1.383l-.289-3.801c-.062-.823.56-1.547 1.383-1.609l.623-.047c.823-.062 1.547.559 1.609 1.382z" fill="url(#t)"/><path d="m556.078 121.094c.062.823-.56 1.547-1.383 1.609l-.622.048c-.823.062-1.547-.56-1.609-1.383l-.289-3.802c-.062-.823.56-1.547 1.383-1.609l.622-.047c.823-.062 1.547.559 1.609 1.382z" fill="url(#u)"/><path d="m545.625 122.106c.062.823-.56 1.547-1.383 1.609l-.622.048c-.823.063-1.547-.56-1.609-1.383l-.289-3.801c-.062-.823.56-1.547 1.383-1.609l.622-.048c.823-.062 1.547.56 1.609 1.382z" fill="url(#v)"/><path d="m535.172 123.119c.062.823-.56 1.547-1.383 1.609l-.622.048c-.823.062-1.547-.56-1.609-1.383l-.289-3.801c-.062-.823.56-1.547 1.383-1.609l.622-.048c.823-.062 1.547.56 1.609 1.383z" fill="url(#w)"/><path d="m524.719 124.132c.062.823-.56 1.547-1.383 1.609l-.623.048c-.823.062-1.547-.56-1.609-1.383l-.289-3.801c-.062-.823.56-1.547 1.383-1.609l.623-.048c.823-.063 1.547.56 1.609 1.383z" fill="url(#x)"/><path d="m514.266 125.145c.062.823-.56 1.547-1.383 1.609l-.623.048c-.823.063-1.547-.559-1.609-1.383l-.289-3.801c-.062-.823.56-1.547 1.383-1.609l.623-.048c.823-.062 1.547.56 1.609 1.383z" fill="url(#y)"/><path d="m503.811 126.157c.062.823-.56 1.547-1.383 1.609l-.622.048c-.823.062-1.547-.56-1.609-1.383l-.289-3.801c-.062-.823.559-1.547 1.383-1.609l.622-.048c.823-.062 1.547.56 1.609 1.383z" fill="url(#z)"/><path d="m493.358 127.17c.062.823-.56 1.547-1.383 1.609l-.622.048c-.823.062-1.547-.56-1.609-1.383l-.289-3.801c-.062-.823.56-1.547 1.383-1.609l.622-.048c.823-.062 1.547.56 1.609 1.383z" fill="url(#A)"/><path d="m482.905 128.183c.062.823-.56 1.547-1.383 1.609l-.622.048c-.823.062-1.547-.559-1.609-1.383l-.289-3.801c-.062-.823.56-1.547 1.383-1.609l.622-.048c.823-.062 1.547.56 1.609 1.383z" fill="url(#B)"/><path d="m472.452 129.195c.062.823-.56 1.547-1.383 1.609l-.623.048c-.823.062-1.547-.56-1.609-1.383l-.289-3.801c-.062-.823.56-1.547 1.383-1.609l.623-.048c.823-.062 1.547.56 1.609 1.383z" fill="url(#C)"/><path d="m461.998 130.209c.062.823-.56 1.547-1.383 1.609l-.622.047c-.823.062-1.547-.56-1.609-1.383l-.289-3.801c-.062-.823.56-1.547 1.383-1.609l.622-.047c.823-.062 1.547.56 1.609 1.383z" fill="url(#D)"/><path d="m451.545 131.222c.062.823-.56 1.547-1.383 1.609l-.622.048c-.823.062-1.547-.56-1.609-1.383l-.289-3.801c-.062-.823.56-1.547 1.383-1.609l.622-.048c.823-.062 1.547.56 1.609 1.383z" fill="url(#E)"/><path d="m441.092 132.234c.062.823-.56 1.547-1.383 1.609l-.622.048c-.823.062-1.547-.56-1.609-1.383l-.289-3.801c-.062-.823.56-1.547 1.383-1.609l.622-.048c.823-.062 1.547.56 1.609 1.383z" fill="url(#F)"/><path d="m430.639 133.247c.062.823-.56 1.547-1.383 1.609l-.623.048c-.823.062-1.547-.56-1.609-1.383l-.288-3.801c-.062-.823.56-1.547 1.383-1.609l.622-.048c.823-.062 1.547.559 1.609 1.383z" fill="url(#G)"/><path d="m420.185 134.26c.062.823-.56 1.547-1.383 1.609l-.623.048c-.823.062-1.547-.56-1.609-1.383l-.289-3.801c-.063-.823.56-1.547 1.383-1.609l.623-.048c.823-.063 1.547.559 1.609 1.383z" fill="url(#H)"/><path d="m409.731 135.272c.062.823-.56 1.547-1.383 1.609l-.622.048c-.823.063-1.547-.56-1.609-1.383l-.289-3.801c-.062-.823.56-1.547 1.383-1.609l.622-.048c.823-.062 1.547.56 1.609 1.383z" fill="url(#I)"/><path d="m399.278 136.285c.062.823-.56 1.547-1.383 1.609l-.622.048c-.823.062-1.547-.56-1.609-1.383l-.289-3.801c-.062-.823.56-1.547 1.383-1.609l.622-.048c.823-.062 1.547.56 1.609 1.383z" fill="url(#J)"/><path d="m388.825 137.298c.062.823-.56 1.547-1.383 1.609l-.622.048c-.823.062-1.547-.56-1.609-1.383l-.289-3.801c-.062-.823.56-1.547 1.383-1.609l.622-.048c.823-.062 1.547.56 1.609 1.383z" fill="url(#K)"/><path d="m378.372 138.311c.062.823-.56 1.547-1.382 1.609l-.623.048c-.823.062-1.547-.56-1.609-1.383l-.288-3.801c-.062-.823.559-1.547 1.382-1.609l.624-.048c.823-.062 1.546.56 1.609 1.383z" fill="url(#L)"/><path d="m367.918 139.323c.062.823-.559 1.547-1.382 1.609l-.624.048c-.823.062-1.547-.559-1.609-1.383l-.289-3.801c-.062-.823.56-1.547 1.382-1.609l.624-.048c.823-.062 1.547.56 1.609 1.383z" fill="url(#M)"/><path d="m357.465 140.336c.062.823-.559 1.547-1.382 1.609l-.624.048c-.823.062-1.547-.56-1.609-1.383l-.289-3.801c-.062-.823.56-1.547 1.382-1.609l.624-.048c.823-.062 1.547.56 1.609 1.383z" fill="url(#N)"/><path d="m347.012 141.35c.062.823-.56 1.547-1.382 1.609l-.623.048c-.823.062-1.547-.56-1.609-1.383l-.289-3.801c-.062-.823.56-1.547 1.382-1.609l.623-.048c.823-.062 1.547.56 1.609 1.383z" fill="url(#O)"/><path d="m336.559 142.362c.062.823-.56 1.547-1.382 1.609l-.624.048c-.823.062-1.547-.56-1.609-1.383l-.288-3.801c-.062-.823.559-1.547 1.382-1.609l.624-.048c.823-.062 1.547.56 1.609 1.383z" fill="url(#P)"/><path d="m326.105 143.375c.062.823-.559 1.547-1.382 1.609l-.623.048c-.823.062-1.547-.56-1.609-1.383l-.288-3.801c-.062-.823.559-1.547 1.382-1.609l.623-.048c.823-.062 1.547.56 1.609 1.383z" fill="url(#Q)"/><path d="m315.651 144.388c.062.823-.559 1.547-1.382 1.609l-.624.048c-.823.062-1.547-.56-1.609-1.383l-.289-3.801c-.062-.823.56-1.547 1.382-1.609l.624-.048c.823-.062 1.547.56 1.609 1.383z" fill="url(#R)"/><path d="m305.198 145.4c.062.823-.559 1.547-1.382 1.609l-.624.048c-.823.062-1.547-.56-1.609-1.383l-.289-3.801c-.062-.823.56-1.547 1.382-1.609l.623-.048c.823-.062 1.547.56 1.609 1.383z" fill="url(#S)"/><path d="m294.745 146.413c.062.823-.56 1.547-1.382 1.609l-.623.048c-.823.062-1.547-.56-1.609-1.383l-.289-3.801c-.062-.823.56-1.547 1.382-1.609l.623-.048c.823-.062 1.547.56 1.609 1.383z" fill="url(#T)"/><path d="m284.292 147.426c.062.823-.56 1.547-1.382 1.609l-.624.048c-.823.062-1.547-.56-1.609-1.383l-.288-3.801c-.062-.823.559-1.547 1.382-1.609l.624-.048c.823-.063 1.547.559 1.609 1.383z" fill="url(#U)"/><path d="m273.838 148.438c.062.823-.559 1.547-1.382 1.609l-.623.048c-.823.063-1.547-.56-1.609-1.383l-.288-3.801c-.062-.823.559-1.547 1.382-1.609l.623-.048c.823-.062 1.547.559 1.609 1.383z" fill="url(#V)"/><path d="m263.385 149.451c.062.823-.559 1.547-1.382 1.609l-.624.048c-.823.062-1.547-.56-1.609-1.383l-.289-3.801c-.062-.823.56-1.547 1.382-1.609l.624-.048c.823-.062 1.547.56 1.609 1.383z" fill="url(#W)"/><path d="m252.932 150.464c.062.823-.559 1.547-1.382 1.609l-.624.048c-.823.062-1.547-.56-1.609-1.383l-.289-3.801c-.062-.823.56-1.547 1.382-1.609l.624-.048c.823-.062 1.547.559 1.609 1.383z" fill="url(#X)"/><path d="m242.478 151.477c.062.823-.559 1.547-1.382 1.609l-.624.048c-.823.063-1.547-.559-1.609-1.383l-.288-3.801c-.062-.823.559-1.547 1.382-1.609l.624-.048c.823-.062 1.547.56 1.609 1.383z" fill="url(#Y)"/><path d="m232.025 152.49c.062.823-.559 1.547-1.382 1.609l-.624.048c-.823.062-1.547-.559-1.609-1.383l-.288-3.801c-.062-.823.559-1.547 1.382-1.609l.624-.048c.823-.062 1.547.56 1.609 1.383z" fill="url(#Z)"/><path d="m221.571 153.503c.062.823-.559 1.547-1.382 1.609l-.623.048c-.823.062-1.547-.559-1.609-1.383l-.288-3.801c-.062-.823.559-1.547 1.382-1.609l.623-.048c.823-.062 1.547.56 1.609 1.383z" fill="url(#aa)"/><path d="m211.118 154.516c.062.823-.559 1.547-1.382 1.609l-.624.048c-.823.062-1.547-.56-1.609-1.383l-.288-3.801c-.062-.823.559-1.547 1.382-1.609l.624-.048c.823-.062 1.547.56 1.609 1.383z" fill="url(#ab)"/><path d="m200.665 155.528c.062.823-.56 1.547-1.382 1.609l-.623.048c-.823.062-1.547-.56-1.609-1.383l-.288-3.801c-.062-.823.559-1.547 1.382-1.609l.623-.048c.823-.062 1.547.56 1.609 1.383z" fill="url(#ac)"/><path d="m162.334 179.869c-1.104 0-2.127-.906-2.33-2.063-2-11.387-2.595-22.951-1.77-34.37.087-1.211 1.108-2.28 2.276-2.385 3.35-.3 6.701-.602 10.053-.904.575-.059 1.1.143 1.465.539.358.389.529.928.481 1.519-.926 11.476-.425 23.106 1.49 34.569.105.631-.042 1.254-.401 1.71-.319.405-.78.648-1.297.686-3.277.233-6.554.466-9.83.695-.046.002-.092.004-.137.004zm8.412-39.481c-.052 0-.105.002-.16.007-3.352.303-6.703.604-10.053.905-1.034.093-1.972 1.078-2.049 2.153-.824 11.399-.229 22.942 1.767 34.31.19 1.083 1.165 1.924 2.203 1.852 3.276-.23 6.553-.462 9.83-.695.446-.031.843-.241 1.118-.59.316-.401.444-.953.351-1.515-1.918-11.482-2.42-23.134-1.492-34.63.042-.521-.106-.992-.417-1.329-.278-.302-.668-.468-1.098-.468z" fill="#b4b4b4"/><image height="8" overflow="visible" transform="translate(4.9902 156.8867)" width="123" xlink:href="A1F391DA2F1A62C9.png"/><path d="m304.778 179.233s-8.28 5.496.111 9.989c5.88 3.15 38.886.009 48.818-.744 0 0 9.599-.917 2.196-9.256 0 .001-31.971-5.562-51.125.011z" fill="url(#ad)"/><image height="19" overflow="visible" transform="translate(140.9902 155.8867)" width="311" xlink:href="A1F391DA2F1A62CA.png"/><path d="m135.413 160.45 22.327 8.156-14.689 2.611z" fill="#c2c8cd"/><path d="m369.309 181.59-29.527 3.244-11.05-6.85-20.89 2.254s-4.833-.093-2.504-2.442c2.329-2.351 5.635-4.112 5.635-4.112l34.637-2.903 30.32-5.739s3.467-.571 15.652-.77c13.729-.224 29.806-1.51 29.806-1.51s9.1.98 15.859 4.145c0 0-19.383.634-26.766 2.199-23.338 4.947-41.172 12.484-41.172 12.484z" fill="url(#ae)"/><path d="m347.879 183.944-.625-8.234 34.929-5.351 10.013 3.193-23.678 8.125z" fill="url(#af)"/><path clip-path="url(#ag)" d="m352.632 197.231s-1.094-10.027 3.439-11.962c4.764-2.033 12.448-3.593 12.448-3.593s27.825-11.125 47.283-13.368c19.458-2.242 28.033-2.688 32.231-2.446 4.197.241 12.387 2.424 13.314 14.657.929 12.233 1.737 22.87-10.334 26.795-12.072 3.925-28.183 5.816-47.732 5.629-19.55-.188-29.956-2.407-29.956-2.407s-4.181-.458-6.848-.483c-3.429-.031-9.692-.518-11.089-2.961-1.851-3.236-2.712-8.312-2.756-9.861z" fill="url(#ah)"/><path clip-path="url(#ag)" d="m461.738 185.688c.714 9.409-1.982 17.284-6.02 17.591-4.036.307-7.892-7.071-8.605-16.48-.714-9.407 1.983-17.282 6.02-17.588 4.037-.307 7.891 7.071 8.605 16.477z" fill="url(#ai)"/><path clip-path="url(#ag)" d="m449.232 207.868c-8.897-7.977-14.319-31.509-1.201-42.006 0 0-40.603-2.49-79.513 15.814 0 0-6.737 15.527 3.913 28.729 0 0 46.372 8.045 76.801-2.537z" fill="url(#aj)"/><g clip-path="url(#ag)"><g clip-path="url(#ak)"><ellipse cx="448.259" cy="187.994" fill="#fff" rx="5.402" ry="12.585" transform="matrix(.9971 -.0758 .0758 .9971 -12.9531 34.4971)"/><ellipse cx="448.259" cy="187.994" fill="#fefefe" rx="5.393" ry="12.564" transform="matrix(.9971 -.0757 .0757 .9971 -12.9437 34.4689)"/><ellipse cx="448.259" cy="187.994" fill="#fdfdfd" rx="5.384" ry="12.545" transform="matrix(.9971 -.0758 .0758 .9971 -12.9627 34.5259)"/><ellipse cx="448.259" cy="187.994" fill="#fcfcfc" rx="5.375" ry="12.524" transform="matrix(.9971 -.0758 .0758 .9971 -12.9532 34.4976)"/><ellipse cx="448.259" cy="187.994" fill="#fbfbfb" rx="5.367" ry="12.504" transform="matrix(.9971 -.0757 .0757 .9971 -12.9431 34.467)"/><ellipse cx="448.259" cy="187.994" fill="#fafafa" rx="5.359" ry="12.484" transform="matrix(.9971 -.0758 .0758 .9971 -12.9621 34.5243)"/><ellipse cx="448.259" cy="187.994" fill="#f9f9f9" rx="5.35" ry="12.464" transform="matrix(.9971 -.0758 .0758 .9971 -12.9541 34.5002)"/><ellipse cx="448.259" cy="187.994" fill="#f8f8f8" rx="5.341" ry="12.444" transform="matrix(.9971 -.0757 .0757 .9971 -12.9446 34.4716)"/><ellipse cx="448.259" cy="187.994" fill="#f7f7f7" rx="5.332" ry="12.423" transform="matrix(.9971 -.0758 .0758 .9971 -12.9637 34.5289)"/><ellipse cx="448.259" cy="187.994" fill="#f6f6f6" rx="5.323" ry="12.403" transform="matrix(.9971 -.0758 .0758 .9971 -12.9542 34.5003)"/><ellipse cx="448.259" cy="187.994" fill="#f5f5f5" rx="5.315" ry="12.383" transform="matrix(.9971 -.0757 .0757 .9971 -12.9459 34.4757)"/><ellipse cx="448.259" cy="187.994" fill="#f4f4f4" rx="5.307" ry="12.363" transform="matrix(.9971 -.0758 .0758 .9971 -12.9631 34.5273)"/><ellipse cx="448.259" cy="187.994" fill="#f3f3f3" rx="5.298" ry="12.342" transform="matrix(.9971 -.0758 .0758 .9971 -12.9535 34.4983)"/><ellipse cx="448.259" cy="187.994" fill="#f2f2f2" rx="5.289" ry="12.322" transform="matrix(.9971 -.0757 .0757 .9971 -12.9454 34.4741)"/><ellipse cx="448.259" cy="187.994" fill="#f1f1f1" rx="5.28" ry="12.302" transform="matrix(.9971 -.0758 .0758 .9971 -12.9648 34.5323)"/><ellipse cx="448.259" cy="187.994" fill="#f0f0f0" rx="5.272" ry="12.281" transform="matrix(.9971 -.0758 .0758 .9971 -12.9552 34.5034)"/><ellipse cx="448.259" cy="187.994" fill="#efefef" rx="5.263" ry="12.262" transform="matrix(.9971 -.0757 .0757 .9971 -12.947 34.4789)"/><ellipse cx="448.259" cy="187.994" fill="#eee" rx="5.254" ry="12.241" transform="matrix(.9971 -.0758 .0758 .9971 -12.9665 34.5373)"/><ellipse cx="448.259" cy="187.994" fill="#ededed" rx="5.246" ry="12.222" transform="matrix(.9971 -.0758 .0758 .9971 -12.9546 34.5017)"/><ellipse cx="448.259" cy="187.994" fill="#ececec" rx="5.237" ry="12.201" transform="matrix(.9971 -.0757 .0757 .9971 -12.9463 34.4767)"/><ellipse cx="448.259" cy="187.994" fill="#ebebeb" rx="5.228" ry="12.18" transform="matrix(.9971 -.0758 .0758 .9971 -12.9658 34.5354)"/><ellipse cx="448.259" cy="187.994" fill="#eaeaea" rx="5.22" ry="12.161" transform="matrix(.9971 -.0758 .0758 .9971 -12.9561 34.5063)"/><ellipse cx="448.259" cy="187.994" fill="#e9e9e9" rx="5.211" ry="12.14" transform="matrix(.9971 -.0757 .0757 .9971 -12.9477 34.4808)"/><ellipse cx="448.259" cy="187.994" fill="#e8e8e8" rx="5.202" ry="12.12" transform="matrix(.9971 -.0758 .0758 .9971 -12.9672 34.5396)"/><ellipse cx="448.259" cy="187.994" fill="#e7e7e7" rx="5.193" ry="12.1" transform="matrix(.9971 -.0758 .0758 .9971 -12.9575 34.5103)"/><ellipse cx="448.259" cy="187.994" fill="#e6e6e6" rx="5.185" ry="12.08" transform="matrix(.9971 -.0757 .0757 .9971 -12.9469 34.4786)"/><ellipse cx="448.259" cy="187.994" fill="#e5e5e5" rx="5.176" ry="12.06" transform="matrix(.9971 -.0756 .0756 .9971 -12.9371 34.4491)"/><ellipse cx="448.259" cy="187.994" fill="#e4e4e4" rx="5.168" ry="12.039" transform="matrix(.9971 -.0758 .0758 .9971 -12.9569 34.5085)"/><ellipse cx="448.259" cy="187.994" fill="#e3e3e3" rx="5.159" ry="12.019" transform="matrix(.9971 -.0757 .0757 .9971 -12.9471 34.479)"/><ellipse cx="448.259" cy="187.994" fill="#e2e2e2" rx="5.15" ry="11.999" transform="matrix(.9971 -.0757 .0757 .9971 -12.9388 34.4542)"/><ellipse cx="448.259" cy="187.994" fill="#e1e1e1" rx="5.141" ry="11.979" transform="matrix(.9971 -.0758 .0758 .9971 -12.9587 34.5139)"/><ellipse cx="448.259" cy="187.994" fill="#e0e0e0" rx="5.132" ry="11.958" transform="matrix(.9971 -.0757 .0757 .9971 -12.9503 34.4887)"/><ellipse cx="448.259" cy="187.994" fill="#dfdfdf" rx="5.125" ry="11.939" transform="matrix(.9971 -.0757 .0757 .9971 -12.9381 34.4521)"/><ellipse cx="448.259" cy="187.994" fill="#dedede" rx="5.116" ry="11.918" transform="matrix(.9971 -.0758 .0758 .9971 -12.9581 34.5122)"/><ellipse cx="448.259" cy="187.994" fill="#ddd" rx="5.107" ry="11.897" transform="matrix(.9971 -.0757 .0757 .9971 -12.9482 34.4823)"/><ellipse cx="448.259" cy="187.994" fill="#dcdcdc" rx="5.098" ry="11.878" transform="matrix(.9971 -.0757 .0757 .9971 -12.9396 34.4566)"/><ellipse cx="448.259" cy="187.994" fill="#dbdbdb" rx="5.089" ry="11.857" transform="matrix(.9971 -.0758 .0758 .9971 -12.9596 34.5166)"/><ellipse cx="448.259" cy="187.994" fill="#dadada" rx="5.081" ry="11.838" transform="matrix(.9971 -.0757 .0757 .9971 -12.9496 34.4866)"/><ellipse cx="448.259" cy="187.994" fill="#d9d9d9" rx="5.072" ry="11.817" transform="matrix(.9971 -.0757 .0757 .9971 -12.9411 34.4611)"/><ellipse cx="448.259" cy="187.994" fill="#d8d8d8" rx="5.064" ry="11.797" transform="matrix(.9971 -.0758 .0758 .9971 -12.959 34.5148)"/><ellipse cx="448.259" cy="187.994" fill="#d7d7d7" rx="5.055" ry="11.777" transform="matrix(.9971 -.0757 .0757 .9971 -12.9489 34.4847)"/><ellipse cx="448.259" cy="187.994" fill="#d6d6d6" rx="5.046" ry="11.756" transform="matrix(.9971 -.0757 .0757 .9971 -12.9404 34.459)"/><ellipse cx="448.259" cy="187.994" fill="#d5d5d5" rx="5.037" ry="11.736" transform="matrix(.9971 -.0758 .0758 .9971 -12.9607 34.52)"/><ellipse cx="448.259" cy="187.994" fill="#d4d4d4" rx="5.029" ry="11.716" transform="matrix(.9971 -.0757 .0757 .9971 -12.9506 34.4897)"/><ellipse cx="448.259" cy="187.994" fill="#d3d3d3" rx="5.02" ry="11.696" transform="matrix(.9971 -.0757 .0757 .9971 -12.942 34.4639)"/><ellipse cx="448.259" cy="187.994" fill="#d2d2d2" rx="5.011" ry="11.675" transform="matrix(.9971 -.0758 .0758 .9971 -12.9624 34.5252)"/><ellipse cx="448.259" cy="187.994" fill="#d1d1d1" rx="5.003" ry="11.656" transform="matrix(.9971 -.0757 .0757 .9971 -12.95 34.4878)"/><ellipse cx="448.259" cy="187.994" fill="#d0d0d0" rx="4.994" ry="11.635" transform="matrix(.9971 -.0757 .0757 .9971 -12.9413 34.4618)"/><ellipse cx="448.259" cy="187.994" fill="#cfcfcf" rx="4.985" ry="11.615" transform="matrix(.9971 -.0758 .0758 .9971 -12.9619 34.5235)"/><ellipse cx="448.259" cy="187.994" fill="#cecece" rx="4.977" ry="11.595" transform="matrix(.9971 -.0757 .0757 .9971 -12.9516 34.4925)"/><ellipse cx="448.259" cy="187.994" fill="#cdcdcd" rx="4.968" ry="11.574" transform="matrix(.9971 -.0757 .0757 .9971 -12.9428 34.4661)"/><ellipse cx="448.259" cy="187.994" fill="#ccc" rx="4.959" ry="11.555" transform="matrix(.9971 -.0758 .0758 .9971 -12.9634 34.5281)"/><ellipse cx="448.259" cy="187.994" fill="#cbcbcb" rx="4.95" ry="11.534" transform="matrix(.9971 -.0758 .0758 .9971 -12.9532 34.4974)"/><ellipse cx="448.259" cy="187.994" fill="#cacaca" rx="4.941" ry="11.514" transform="matrix(.9971 -.0757 .0757 .9971 -12.9429 34.4665)"/><ellipse cx="448.259" cy="187.994" fill="#c9c9c9" rx="4.934" ry="11.494" transform="matrix(.9971 -.0758 .0758 .9971 -12.9613 34.5217)"/><ellipse cx="448.259" cy="187.994" fill="#c8c8c8" rx="4.925" ry="11.473" transform="matrix(.9971 -.0757 .0757 .9971 -12.9525 34.4954)"/><ellipse cx="448.259" cy="187.994" fill="#c7c7c7" rx="4.916" ry="11.453" transform="matrix(.9971 -.0757 .0757 .9971 -12.9422 34.4644)"/><ellipse cx="448.259" cy="187.994" fill="#c6c6c6" rx="4.907" ry="11.433" transform="matrix(.9971 -.0758 .0758 .9971 -12.963 34.5271)"/><ellipse cx="448.259" cy="187.994" fill="#c5c5c5" rx="4.898" ry="11.413" transform="matrix(.9971 -.0758 .0758 .9971 -12.9543 34.5007)"/><ellipse cx="448.259" cy="187.994" fill="#c4c4c4" rx="4.889" ry="11.393" transform="matrix(.9971 -.0757 .0757 .9971 -12.9439 34.4695)"/><ellipse cx="448.259" cy="187.994" fill="#c3c3c3" rx="4.881" ry="11.373" transform="matrix(.9971 -.0758 .0758 .9971 -12.9647 34.5321)"/><ellipse cx="448.259" cy="187.994" fill="#c2c2c2" rx="4.873" ry="11.352" transform="matrix(.9971 -.0758 .0758 .9971 -12.9536 34.4988)"/><ellipse cx="448.259" cy="187.994" fill="#c1c1c1" rx="4.864" ry="11.332" transform="matrix(.9971 -.0757 .0757 .9971 -12.9431 34.4671)"/><ellipse cx="448.259" cy="187.994" fill="#c0c0c0" rx="4.855" ry="11.312" transform="matrix(.9971 -.0758 .0758 .9971 -12.964 34.53)"/><ellipse cx="448.259" cy="187.994" fill="#bfbfbf" rx="4.846" ry="11.291" transform="matrix(.9971 -.0758 .0758 .9971 -12.9551 34.5033)"/><ellipse cx="448.259" cy="187.994" fill="#bebebe" rx="4.838" ry="11.272" transform="matrix(.9971 -.0757 .0757 .9971 -12.9447 34.4718)"/><ellipse cx="448.259" cy="187.994" fill="#bdbdbd" rx="4.829" ry="11.251" transform="matrix(.9971 -.0758 .0758 .9971 -12.9658 34.5354)"/><ellipse cx="448.259" cy="187.994" fill="#bcbcbc" rx="4.82" ry="11.231" transform="matrix(.9971 -.0758 .0758 .9971 -12.9569 34.5087)"/><ellipse cx="448.259" cy="187.994" fill="#bbb" rx="4.812" ry="11.211" transform="matrix(.9971 -.0757 .0757 .9971 -12.944 34.4697)"/><ellipse cx="448.259" cy="187.994" fill="#bababa" rx="4.803" ry="11.19" transform="matrix(.9971 -.0758 .0758 .9971 -12.9653 34.5337)"/><ellipse cx="448.259" cy="187.994" fill="#b9b9b9" rx="4.795" ry="11.171" transform="matrix(.9971 -.0758 .0758 .9971 -12.9563 34.5068)"/><ellipse cx="448.259" cy="187.994" fill="#b8b8b8" rx="4.786" ry="11.15" transform="matrix(.9971 -.0757 .0757 .9971 -12.9457 34.4749)"/><ellipse cx="448.259" cy="187.994" fill="#b7b7b7" rx="4.777" ry="11.13" transform="matrix(.9971 -.0758 .0758 .9971 -12.9671 34.5393)"/><ellipse cx="448.259" cy="187.994" fill="#b6b6b6" rx="4.768" ry="11.11" transform="matrix(.9971 -.0758 .0758 .9971 -12.9564 34.507)"/><ellipse cx="448.259" cy="187.994" fill="#b5b5b5" rx="4.759" ry="11.089" transform="matrix(.9971 -.0757 .0757 .9971 -12.9473 34.4798)"/><ellipse cx="448.259" cy="187.994" fill="#b4b4b4" rx="4.751" ry="11.069" transform="matrix(.9971 -.0758 .0758 .9971 -12.9665 34.5375)"/><ellipse cx="448.259" cy="187.994" fill="#b3b3b3" rx="4.743" ry="11.049" transform="matrix(.9971 -.0758 .0758 .9971 -12.9575 34.5103)"/><ellipse cx="448.259" cy="187.994" fill="#b2b2b2" rx="4.734" ry="11.029" transform="matrix(.9971 -.0757 .0757 .9971 -12.9466 34.4778)"/><ellipse cx="448.259" cy="187.994" fill="#b1b1b1" rx="4.725" ry="11.009" transform="matrix(.9971 -.0756 .0756 .9971 -12.9359 34.4455)"/><ellipse cx="448.259" cy="187.994" fill="#b0b0b0" rx="4.716" ry="10.989" transform="matrix(.9971 -.0758 .0758 .9971 -12.9575 34.5106)"/><ellipse cx="448.259" cy="187.994" fill="#afafaf" rx="4.707" ry="10.968" transform="matrix(.9971 -.0757 .0757 .9971 -12.9484 34.4831)"/><ellipse cx="448.259" cy="187.994" fill="#aeaeae" rx="4.699" ry="10.948" transform="matrix(.9971 -.0757 .0757 .9971 -12.9376 34.4506)"/><ellipse cx="448.259" cy="187.994" fill="#adadad" rx="4.691" ry="10.928" transform="matrix(.9971 -.0758 .0758 .9971 -12.9569 34.5086)"/><ellipse cx="448.259" cy="187.994" fill="#acacac" rx="4.682" ry="10.907" transform="matrix(.9971 -.0757 .0757 .9971 -12.9476 34.4806)"/><ellipse cx="448.259" cy="187.994" fill="#ababab" rx="4.673" ry="10.888" transform="matrix(.9971 -.0756 .0756 .9971 -12.9367 34.448)"/><ellipse cx="448.259" cy="187.994" fill="#aaa" rx="4.664" ry="10.867" transform="matrix(.9971 -.0758 .0758 .9971 -12.9586 34.5138)"/><ellipse cx="448.259" cy="187.994" fill="#a9a9a9" rx="4.655" ry="10.847" transform="matrix(.9971 -.0757 .0757 .9971 -12.9493 34.4857)"/><ellipse cx="448.259" cy="187.994" fill="#a8a8a8" rx="4.647" ry="10.827" transform="matrix(.9971 -.0757 .0757 .9971 -12.9382 34.4525)"/><ellipse cx="448.259" cy="187.994" fill="#a7a7a7" rx="4.638" ry="10.806" transform="matrix(.9971 -.0758 .0758 .9971 -12.9601 34.5183)"/><ellipse cx="448.259" cy="187.994" fill="#a6a6a6" rx="4.63" ry="10.787" transform="matrix(.9971 -.0757 .0757 .9971 -12.9485 34.4832)"/><ellipse cx="448.259" cy="187.994" fill="#a5a5a5" rx="4.621" ry="10.766" transform="matrix(.9971 -.0757 .0757 .9971 -12.9373 34.4498)"/><ellipse cx="448.259" cy="187.994" fill="#a4a4a4" rx="4.612" ry="10.746" transform="matrix(.9971 -.0758 .0758 .9971 -12.9595 34.5164)"/><ellipse cx="448.259" cy="187.994" fill="#a3a3a3" rx="4.604" ry="10.726" transform="matrix(.9971 -.0757 .0757 .9971 -12.9503 34.4887)"/><ellipse cx="448.259" cy="187.994" fill="#a2a2a2" rx="4.595" ry="10.705" transform="matrix(.9971 -.0757 .0757 .9971 -12.9392 34.4555)"/><ellipse cx="448.259" cy="187.994" fill="#a1a1a1" rx="4.586" ry="10.685" transform="matrix(.9971 -.0758 .0758 .9971 -12.9615 34.5225)"/><ellipse cx="448.259" cy="187.994" fill="#a0a0a0" rx="4.577" ry="10.665" transform="matrix(.9971 -.0757 .0757 .9971 -12.9521 34.4942)"/><ellipse cx="448.259" cy="187.994" fill="#9f9f9f" rx="4.569" ry="10.645" transform="matrix(.9971 -.0757 .0757 .9971 -12.9385 34.4532)"/><ellipse cx="448.259" cy="187.994" fill="#9e9e9e" rx="4.56" ry="10.624" transform="matrix(.9971 -.0758 .0758 .9971 -12.9609 34.5205)"/><ellipse cx="448.259" cy="187.994" fill="#9d9d9d" rx="4.552" ry="10.605" transform="matrix(.9971 -.0757 .0757 .9971 -12.9497 34.4871)"/><ellipse cx="448.259" cy="187.994" fill="#9c9c9c" rx="4.543" ry="10.584" transform="matrix(.9971 -.0757 .0757 .9971 -12.9403 34.4586)"/><ellipse cx="448.259" cy="187.994" fill="#9b9b9b" rx="4.534" ry="10.564" transform="matrix(.9971 -.0758 .0758 .9971 -12.9627 34.5259)"/><ellipse cx="448.259" cy="187.994" fill="#9a9a9a" rx="4.525" ry="10.544" transform="matrix(.9971 -.0758 .0758 .9971 -12.953 34.497)"/><ellipse cx="448.259" cy="187.994" fill="#999" rx="4.516" ry="10.523" transform="matrix(.9971 -.0757 .0757 .9971 -12.9418 34.4633)"/><ellipse cx="448.259" cy="187.994" fill="#989898" rx="4.509" ry="10.504" transform="matrix(.9971 -.0758 .0758 .9971 -12.962 34.524)"/><ellipse cx="448.259" cy="187.994" fill="#979797" rx="4.5" ry="10.483" transform="matrix(.9971 -.0757 .0757 .9971 -12.9507 34.4898)"/><ellipse cx="448.259" cy="187.994" fill="#969696" rx="4.491" ry="10.463" transform="matrix(.9971 -.0757 .0757 .9971 -12.9411 34.461)"/><ellipse cx="448.259" cy="187.994" fill="#959595" rx="4.482" ry="10.443" transform="matrix(.9971 -.0758 .0758 .9971 -12.9639 34.5295)"/><ellipse cx="448.259" cy="187.994" fill="#949494" rx="4.473" ry="10.422" transform="matrix(.9971 -.0757 .0757 .9971 -12.9525 34.4955)"/><ellipse cx="448.259" cy="187.994" fill="#939393" rx="4.464" ry="10.403" transform="matrix(.9971 -.0757 .0757 .9971 -12.9429 34.4665)"/><ellipse cx="448.259" cy="187.994" fill="#929292" rx="4.456" ry="10.382" transform="matrix(.9971 -.0758 .0758 .9971 -12.9658 34.5354)"/><ellipse cx="448.259" cy="187.994" fill="#919191" rx="4.448" ry="10.362" transform="matrix(.9971 -.0757 .0757 .9971 -12.9518 34.4934)"/><ellipse cx="448.259" cy="187.994" fill="#909090" rx="4.439" ry="10.342" transform="matrix(.9971 -.0757 .0757 .9971 -12.9421 34.4642)"/><ellipse cx="448.259" cy="187.994" fill="#8f8f8f" rx="4.43" ry="10.322" transform="matrix(.9971 -.0758 .0758 .9971 -12.9652 34.5336)"/><ellipse cx="448.259" cy="187.994" fill="#8e8e8e" rx="4.421" ry="10.301" transform="matrix(.9971 -.0758 .0758 .9971 -12.9538 34.4992)"/><ellipse cx="448.259" cy="187.994" fill="#8d8d8d" rx="4.413" ry="10.281" transform="matrix(.9971 -.0757 .0757 .9971 -12.9439 34.4694)"/><ellipse cx="448.259" cy="187.994" fill="#8c8c8c" rx="4.404" ry="10.261" transform="matrix(.9971 -.0758 .0758 .9971 -12.9669 34.5388)"/><ellipse cx="448.259" cy="187.994" fill="#8b8b8b" rx="4.395" ry="10.24" transform="matrix(.9971 -.0758 .0758 .9971 -12.9554 34.5042)"/><ellipse cx="448.259" cy="187.994" fill="#8a8a8a" rx="4.387" ry="10.221" transform="matrix(.9971 -.0757 .0757 .9971 -12.943 34.4667)"/><ellipse cx="448.259" cy="187.994" fill="#898989" rx="4.378" ry="10.2" transform="matrix(.9971 -.0758 .0758 .9971 -12.9663 34.5369)"/><ellipse cx="448.259" cy="187.994" fill="#888" rx="4.37" ry="10.181" transform="matrix(.9971 -.0758 .0758 .9971 -12.9547 34.5021)"/><ellipse cx="448.259" cy="187.994" fill="#878787" rx="4.361" ry="10.16" transform="matrix(.9971 -.0757 .0757 .9971 -12.9449 34.4724)"/><ellipse cx="448.259" cy="187.994" fill="#868686" rx="4.352" ry="10.14" transform="matrix(.9971 -.0759 .0759 .9971 -12.9684 34.543)"/><ellipse cx="448.259" cy="187.994" fill="#858585" rx="4.343" ry="10.12" transform="matrix(.9971 -.0758 .0758 .9971 -12.9567 34.508)"/><ellipse cx="448.259" cy="187.994" fill="#848484" rx="4.334" ry="10.099" transform="matrix(.9971 -.0757 .0757 .9971 -12.945 34.4729)"/><ellipse cx="448.259" cy="187.994" fill="#838383" rx="4.326" ry="10.079" transform="matrix(.9971 -.0758 .0758 .9971 -12.9659 34.5358)"/><ellipse cx="448.259" cy="187.994" fill="#828282" rx="4.318" ry="10.059" transform="matrix(.9971 -.0758 .0758 .9971 -12.956 34.5059)"/><ellipse cx="448.259" cy="187.994" fill="#818181" rx="4.309" ry="10.039" transform="matrix(.9971 -.0757 .0757 .9971 -12.946 34.4759)"/><ellipse cx="448.259" cy="187.994" fill="#808080" rx="4.3" ry="10.018" transform="matrix(.9971 -.0759 .0759 .9971 -12.9697 34.5469)"/><ellipse cx="448.259" cy="187.994" fill="#7f7f7f" rx="4.291" ry="9.998" transform="matrix(.9971 -.0758 .0758 .9971 -12.9577 34.5111)"/><ellipse cx="448.259" cy="187.994" fill="#7e7e7e" rx="4.282" ry="9.978" transform="matrix(.9971 -.0757 .0757 .9971 -12.9459 34.4756)"/><ellipse cx="448.259" cy="187.994" fill="#7d7d7d" rx="4.273" ry="9.958" transform="matrix(.9971 -.0756 .0756 .9971 -12.9358 34.4452)"/><ellipse cx="448.259" cy="187.994" fill="#7c7c7c" rx="4.266" ry="9.938" transform="matrix(.9971 -.0758 .0758 .9971 -12.957 34.509)"/><ellipse cx="448.259" cy="187.994" fill="#7b7b7b" rx="4.257" ry="9.917" transform="matrix(.9971 -.0757 .0757 .9971 -12.9451 34.4732)"/><ellipse cx="448.259" cy="187.994" fill="#7a7a7a" rx="4.248" ry="9.898" transform="matrix(.9971 -.0756 .0756 .9971 -12.935 34.4427)"/><ellipse cx="448.259" cy="187.994" fill="#797979" rx="4.239" ry="9.877" transform="matrix(.9971 -.0758 .0758 .9971 -12.9591 34.5152)"/><ellipse cx="448.259" cy="187.994" fill="#787878" rx="4.23" ry="9.856" transform="matrix(.9971 -.0757 .0757 .9971 -12.9471 34.4791)"/><ellipse cx="448.259" cy="187.994" fill="#777" rx="4.222" ry="9.837" transform="matrix(.9971 -.0756 .0756 .9971 -12.9369 34.4484)"/><ellipse cx="448.259" cy="187.994" fill="#767676" rx="4.213" ry="9.816" transform="matrix(.9971 -.0758 .0758 .9971 -12.9611 34.5213)"/><ellipse cx="448.259" cy="187.994" fill="#757575" rx="4.205" ry="9.796" transform="matrix(.9971 -.0757 .0757 .9971 -12.9463 34.4768)"/><ellipse cx="448.259" cy="187.994" fill="#747474" rx="4.196" ry="9.776" transform="matrix(.9971 -.0756 .0756 .9971 -12.9362 34.4463)"/><ellipse cx="448.259" cy="187.994" fill="#737373" rx="4.187" ry="9.756" transform="matrix(.9971 -.0758 .0758 .9971 -12.9606 34.5196)"/><ellipse cx="448.259" cy="187.994" fill="#727272" rx="4.178" ry="9.736" transform="matrix(.9971 -.0757 .0757 .9971 -12.9483 34.4828)"/><ellipse cx="448.259" cy="187.994" fill="#717171" rx="4.17" ry="9.715" transform="matrix(.9971 -.0757 .0757 .9971 -12.9378 34.4513)"/><ellipse cx="448.259" cy="187.994" fill="#707070" rx="4.161" ry="9.695" transform="matrix(.9971 -.0758 .0758 .9971 -12.9624 34.525)"/><ellipse cx="448.259" cy="187.994" fill="#6f6f6f" rx="4.152" ry="9.675" transform="matrix(.9971 -.0757 .0757 .9971 -12.9502 34.4884)"/><ellipse cx="448.259" cy="187.994" fill="#6e6e6e" rx="4.144" ry="9.655" transform="matrix(.9971 -.0756 .0756 .9971 -12.9368 34.4483)"/><ellipse cx="448.259" cy="187.994" fill="#6d6d6d" rx="4.135" ry="9.634" transform="matrix(.9971 -.0758 .0758 .9971 -12.9616 34.5226)"/><ellipse cx="448.259" cy="187.994" fill="#6c6c6c" rx="4.127" ry="9.615" transform="matrix(.9971 -.0757 .0757 .9971 -12.9493 34.4857)"/><ellipse cx="448.259" cy="187.994" fill="#6b6b6b" rx="4.118" ry="9.594" transform="matrix(.9971 -.0756 .0756 .9971 -12.9369 34.4486)"/><ellipse cx="448.259" cy="187.994" fill="#6a6a6a" rx="4.109" ry="9.574" transform="matrix(.9971 -.0758 .0758 .9971 -12.9618 34.5234)"/><ellipse cx="448.259" cy="187.994" fill="#696969" rx="4.1" ry="9.554" transform="matrix(.9971 -.0757 .0757 .9971 -12.9512 34.4914)"/><ellipse cx="448.259" cy="187.994" fill="#686868" rx="4.091" ry="9.533" transform="matrix(.9971 -.0757 .0757 .9971 -12.9388 34.4542)"/><ellipse cx="448.259" cy="187.994" fill="#676767" rx="4.083" ry="9.514" transform="matrix(.9971 -.0758 .0758 .9971 -12.961 34.5208)"/><ellipse cx="448.259" cy="187.994" fill="#666" rx="4.075" ry="9.493" transform="matrix(.9971 -.0757 .0757 .9971 -12.9504 34.4891)"/><ellipse cx="448.259" cy="187.994" fill="#656565" rx="4.066" ry="9.473" transform="matrix(.9971 -.0757 .0757 .9971 -12.9378 34.4512)"/><ellipse cx="448.259" cy="187.994" fill="#646464" rx="4.057" ry="9.453" transform="matrix(.9971 -.0758 .0758 .9971 -12.9628 34.5264)"/><ellipse cx="448.259" cy="187.994" fill="#636363" rx="4.048" ry="9.432" transform="matrix(.9971 -.0757 .0757 .9971 -12.9524 34.4949)"/><ellipse cx="448.259" cy="187.994" fill="#626262" rx="4.039" ry="9.412" transform="matrix(.9971 -.0757 .0757 .9971 -12.9398 34.4572)"/><ellipse cx="448.259" cy="187.994" fill="#616161" rx="4.031" ry="9.392" transform="matrix(.9971 -.0758 .0758 .9971 -12.9652 34.5334)"/><ellipse cx="448.259" cy="187.994" fill="#606060" rx="4.022" ry="9.372" transform="matrix(.9971 -.0758 .0758 .9971 -12.9545 34.5013)"/><ellipse cx="448.259" cy="187.994" fill="#5f5f5f" rx="4.014" ry="9.352" transform="matrix(.9971 -.0757 .0757 .9971 -12.9389 34.4546)"/><ellipse cx="448.259" cy="187.994" fill="#5e5e5e" rx="4.005" ry="9.331" transform="matrix(.9971 -.0758 .0758 .9971 -12.9645 34.5313)"/><ellipse cx="448.259" cy="187.994" fill="#5d5d5d" rx="3.996" ry="9.311" transform="matrix(.9971 -.0758 .0758 .9971 -12.9537 34.499)"/><ellipse cx="448.259" cy="187.994" fill="#5c5c5c" rx="3.987" ry="9.291" transform="matrix(.9971 -.0757 .0757 .9971 -12.941 34.4608)"/><ellipse cx="448.259" cy="187.994" fill="#5b5b5b" rx="3.979" ry="9.271" transform="matrix(.9971 -.0758 .0758 .9971 -12.9667 34.538)"/><ellipse cx="448.259" cy="187.994" fill="#5a5a5a" rx="3.97" ry="9.25" transform="matrix(.9971 -.0758 .0758 .9971 -12.9557 34.505)"/><ellipse cx="448.259" cy="187.994" fill="#595959" rx="3.961" ry="9.231" transform="matrix(.9971 -.0757 .0757 .9971 -12.9428 34.4661)"/><ellipse cx="448.259" cy="187.994" fill="#585858" rx="3.953" ry="9.21" transform="matrix(.9971 -.0758 .0758 .9971 -12.9658 34.5354)"/><ellipse cx="448.259" cy="187.994" fill="#575757" rx="3.944" ry="9.189" transform="matrix(.9971 -.0758 .0758 .9971 -12.953 34.4968)"/><ellipse cx="448.259" cy="187.994" fill="#565656" rx="3.936" ry="9.17" transform="matrix(.9971 -.0757 .0757 .9971 -12.9419 34.4635)"/><ellipse cx="448.259" cy="187.994" fill="#555" rx="3.927" ry="9.149" transform="matrix(.9971 -.0758 .0758 .9971 -12.9679 34.5417)"/><ellipse cx="448.259" cy="187.994" fill="#545454" rx="3.918" ry="9.13" transform="matrix(.9971 -.0758 .0758 .9971 -12.957 34.5088)"/><ellipse cx="448.259" cy="187.994" fill="#535353" rx="3.909" ry="9.109" transform="matrix(.9971 -.0757 .0757 .9971 -12.944 34.4698)"/><ellipse cx="448.259" cy="187.994" fill="#525252" rx="3.9" ry="9.089" transform="matrix(.9971 -.0759 .0759 .9971 -12.9702 34.5486)"/><ellipse cx="448.259" cy="187.994" fill="#515151" rx="3.893" ry="9.069" transform="matrix(.9971 -.0758 .0758 .9971 -12.9542 34.5006)"/><ellipse cx="448.259" cy="187.994" fill="#505050" rx="3.884" ry="9.048" transform="matrix(.9971 -.0757 .0757 .9971 -12.9431 34.4672)"/><ellipse cx="448.259" cy="187.994" fill="#4f4f4f" rx="3.875" ry="9.028" transform="matrix(.9971 -.0759 .0759 .9971 -12.9695 34.5465)"/><ellipse cx="448.259" cy="187.994" fill="#4e4e4e" rx="3.866" ry="9.008" transform="matrix(.9971 -.0758 .0758 .9971 -12.9564 34.5072)"/><ellipse cx="448.259" cy="187.994" fill="#4d4d4d" rx="3.857" ry="8.988" transform="matrix(.9971 -.0757 .0757 .9971 -12.9453 34.4737)"/><ellipse cx="448.259" cy="187.994" fill="#4c4c4c" rx="3.848" ry="8.967" transform="matrix(.9971 -.0759 .0759 .9971 -12.9717 34.5531)"/><ellipse cx="448.259" cy="187.994" fill="#4b4b4b" rx="3.84" ry="8.948" transform="matrix(.9971 -.0758 .0758 .9971 -12.9584 34.513)"/><ellipse cx="448.259" cy="187.994" fill="#4a4a4a" rx="3.832" ry="8.927" transform="matrix(.9971 -.0757 .0757 .9971 -12.9443 34.4706)"/><ellipse cx="448.259" cy="187.994" fill="#494949" rx="3.823" ry="8.907" transform="matrix(.9971 -.0756 .0756 .9971 -12.9308 34.4303)"/><ellipse cx="448.259" cy="187.994" fill="#484848" rx="3.814" ry="8.887" transform="matrix(.9971 -.0758 .0758 .9971 -12.9576 34.5107)"/><ellipse cx="448.259" cy="187.994" fill="#474747" rx="3.805" ry="8.866" transform="matrix(.9971 -.0757 .0757 .9971 -12.9463 34.4767)"/><ellipse cx="448.259" cy="187.994" fill="#464646" rx="3.797" ry="8.847" transform="matrix(.9971 -.0756 .0756 .9971 -12.9329 34.4365)"/><ellipse cx="448.259" cy="187.994" fill="#454545" rx="3.788" ry="8.826" transform="matrix(.9971 -.0758 .0758 .9971 -12.9599 34.5175)"/><ellipse cx="448.259" cy="187.994" fill="#444" rx="3.779" ry="8.806" transform="matrix(.9971 -.0757 .0757 .9971 -12.9485 34.4834)"/><ellipse cx="448.259" cy="187.994" fill="#434343" rx="3.771" ry="8.786" transform="matrix(.9971 -.0756 .0756 .9971 -12.9319 34.4336)"/><ellipse cx="448.259" cy="187.994" fill="#424242" rx="3.762" ry="8.765" transform="matrix(.9971 -.0758 .0758 .9971 -12.9591 34.5152)"/><ellipse cx="448.259" cy="187.994" fill="#414141" rx="3.753" ry="8.746" transform="matrix(.9971 -.0757 .0757 .9971 -12.9476 34.4807)"/><ellipse cx="448.259" cy="187.994" fill="#404040" rx="3.745" ry="8.725" transform="matrix(.9971 -.0756 .0756 .9971 -12.9341 34.44)"/><ellipse cx="448.259" cy="187.994" fill="#3f3f3f" rx="3.736" ry="8.705" transform="matrix(.9971 -.0758 .0758 .9971 -12.9613 34.5217)"/><ellipse cx="448.259" cy="187.994" fill="#3e3e3e" rx="3.727" ry="8.685" transform="matrix(.9971 -.0757 .0757 .9971 -12.9475 34.4804)"/><ellipse cx="448.259" cy="187.994" fill="#3d3d3d" rx="3.718" ry="8.665" transform="matrix(.9971 -.0756 .0756 .9971 -12.9359 34.4455)"/><ellipse cx="448.259" cy="187.994" fill="#3c3c3c" rx="3.71" ry="8.644" transform="matrix(.9971 -.0758 .0758 .9971 -12.9603 34.5189)"/><ellipse cx="448.259" cy="187.994" fill="#3b3b3b" rx="3.702" ry="8.624" transform="matrix(.9971 -.0757 .0757 .9971 -12.9487 34.4839)"/><ellipse cx="448.259" cy="187.994" fill="#3a3a3a" rx="3.693" ry="8.604" transform="matrix(.9971 -.0756 .0756 .9971 -12.935 34.4427)"/><ellipse cx="448.259" cy="187.994" fill="#393939" rx="3.684" ry="8.583" transform="matrix(.9971 -.0758 .0758 .9971 -12.9627 34.526)"/><ellipse cx="448.259" cy="187.994" fill="#383838" rx="3.675" ry="8.564" transform="matrix(.9971 -.0757 .0757 .9971 -12.9489 34.4846)"/><ellipse cx="448.259" cy="187.994" fill="#373737" rx="3.666" ry="8.543" transform="matrix(.9971 -.0756 .0756 .9971 -12.9371 34.4492)"/><ellipse cx="448.259" cy="187.994" fill="#363636" rx="3.657" ry="8.523" transform="matrix(.9971 -.0758 .0758 .9971 -12.9651 34.5331)"/><ellipse cx="448.259" cy="187.994" fill="#353535" rx="3.65" ry="8.503" transform="matrix(.9971 -.0757 .0757 .9971 -12.948 34.4819)"/><ellipse cx="448.259" cy="187.994" fill="#343434" rx="3.641" ry="8.482" transform="matrix(.9971 -.0756 .0756 .9971 -12.9363 34.4468)"/><ellipse cx="448.259" cy="187.994" fill="#333" rx="3.632" ry="8.463" transform="matrix(.9971 -.0758 .0758 .9971 -12.9645 34.5313)"/><ellipse cx="448.259" cy="187.994" fill="#323232" rx="3.623" ry="8.442" transform="matrix(.9971 -.0757 .0757 .9971 -12.9505 34.4893)"/></g></g></svg>