<?xml version="1.0" encoding="UTF-8" standalone="no"?>
<!DOCTYPE svg PUBLIC "-//W3C//DTD SVG 1.1//EN" "http://www.w3.org/Graphics/SVG/1.1/DTD/svg11.dtd">
<svg width="100%" height="100%" viewBox="0 0 400 400" version="1.1" xmlns="http://www.w3.org/2000/svg" xmlns:xlink="http://www.w3.org/1999/xlink" xml:space="preserve" xmlns:serif="http://www.serif.com/" style="fill-rule:evenodd;clip-rule:evenodd;">
    <g transform="matrix(1.88089,0,0,1.88089,40.9972,13)">
        <g>
            <path d="M113.47,156.8C113.47,156.8 195.47,203.9 143.92,213.62L143.6,218.62C143.6,218.62 216.5,211.82 114.11,150.93L113.47,156.8Z" style="fill:rgb(233,192,155);fill-rule:nonzero;"/>
            <path d="M146.91,213.56C147.91,216.56 147.35,219.56 145.76,220.3C144.17,221.04 142.52,223.73 142.01,226.3C141.5,228.87 139.85,230.75 138.33,230.5C136.81,230.25 136.33,227.83 137.18,225.16C138.03,222.49 136.42,221.34 133.49,222.55L131.78,223.25C128.85,224.46 125.99,224.08 125.36,222.49C124.73,220.9 126.63,218.67 129.62,217.59L131.33,216.96C134.26,215.88 134.33,214.61 131.4,214.1C128.47,213.59 126.12,212 126.19,210.6C126.26,209.2 128.79,208.44 131.91,208.89L135.02,209.33C138.13,209.78 140.02,208.76 139.21,207.04C138.358,205.426 138.853,203.429 140.36,202.4C141.82,201.58 143.73,203.4 144.62,206.34L146.91,213.56Z" style="fill:rgb(233,192,155);fill-rule:nonzero;"/>
            <path d="M121.93,148C129.859,153.488 137.496,159.386 144.81,165.67L134.7,175.67L120.7,164.61L121.93,148Z" style="fill:rgb(39,40,38);fill-rule:nonzero;"/>
            <path d="M84.94,154.7C84.94,154.7 -21.84,184 16.23,134.3L12.8,130C12.8,130 -46.06,194.83 88.69,159.88L84.94,154.7Z" style="fill:rgb(233,192,155);fill-rule:nonzero;"/>
            <path d="M87.73,163.35C87.73,163.35 55.38,173.45 47.37,171.42L46.29,156.67L70.89,154.13L77.82,154.13L87.73,163.35Z" style="fill:rgb(39,40,38);fill-rule:nonzero;"/>
            <path d="M11.52,135.38C8.6,134.17 6.69,131.89 7.27,130.3C7.85,128.71 7.14,125.78 5.74,123.88C4.34,121.98 4.21,119.56 5.36,118.6C6.51,117.64 8.47,118.73 9.68,121.02C10.89,123.31 12.8,122.73 13.94,119.81L14.58,118.28C15.72,115.36 17.88,113.39 19.41,113.9C20.94,114.41 21.12,117.2 19.85,120.06L19.15,121.59C17.88,124.45 18.71,125.28 20.99,123.43C23.27,121.58 25.89,120.76 26.84,121.65C27.79,122.54 26.59,125 24.17,127L21.82,129C19.47,131 18.9,133.06 20.55,133.51C22.189,133.874 23.234,135.484 22.9,137.13C22.52,138.66 19.9,138.97 16.9,137.77L11.52,135.38Z" style="fill:rgb(233,192,155);fill-rule:nonzero;"/>
            <path d="M91.16,221.63L74.89,221.25L69.68,144.53L123.83,142.63L118.94,222.9L97.84,221.69" style="fill:rgb(39,40,38);fill-rule:nonzero;"/>
            <path d="M72.92,163C72.92,163 97.46,183.21 122.18,157L72.92,163Z" style="fill:rgb(18,18,18);fill-rule:nonzero;"/>
            <path d="M124,104.43C127.12,112.63 133.35,114.28 137.86,108.5C142.37,102.72 143.58,91.91 140.72,84.22C137.86,76.53 131.72,74.49 127.06,79.83C122.4,85.17 120.91,96.23 124,104.43Z" style="fill:rgb(208,159,120);fill-rule:nonzero;"/>
            <path d="M58.05,64.89C58.05,64.89 85.44,48.62 92.82,69L91.42,71.28C91.42,71.28 83.85,60.89 58.05,64.89Z" style="fill:rgb(35,31,32);fill-rule:nonzero;"/>
            <path d="M134.32,64.64C132.86,81.99 133.49,109 135.78,124.64C138.07,140.28 128.41,156.74 114.36,161.19C100.31,165.64 81.5,166.46 72.67,163C63.84,159.54 53,141.93 48.52,123.75C44.04,105.57 41.84,77.86 43.52,62.16C45.2,46.46 52.58,29.56 60,24.66C67.42,19.76 85.8,19.32 100.87,23.77C115.94,28.22 130.23,32.1 132.64,32.42C135.05,32.74 135.78,47.29 134.32,64.64Z" style="fill:rgb(233,192,155);fill-rule:nonzero;"/>
            <path d="M88.75,108.88C88.75,108.88 99.11,117.08 115.75,108.88C115.76,108.88 102.22,130.11 88.75,108.88Z" style="fill:rgb(208,159,120);fill-rule:nonzero;"/>
            <path d="M49.09,106.4C44.64,116.76 36.38,117.97 30.72,109.4C25.06,100.83 24,86.25 28.11,76.53C32.22,66.81 40.32,65.08 46.29,73C52.26,80.92 53.54,96 49.09,106.4Z" style="fill:rgb(233,192,155);fill-rule:nonzero;"/>
            <path d="M41.65,100.87C41.65,100.87 47.65,66.29 29.83,87.2C29.77,87.2 42.92,77.1 41.65,100.87Z" style="fill:rgb(208,159,120);fill-rule:nonzero;"/>
            <path d="M41.71,101C41.71,101 41.27,82.18 31.35,101.38C31.29,101.38 39.24,89.81 41.71,101Z" style="fill:rgb(208,159,120);fill-rule:nonzero;"/>
            <path d="M88.94,128.07C88.94,128.07 84.17,146.19 92.31,152.07C92.31,152.07 77.94,155.57 76.31,154.49C76.31,154.49 74.02,153.49 73.77,147.18C73.77,147.18 74.21,126.9 76.31,120.93C76.29,120.89 85.83,128.26 88.94,128.07Z" style="fill:rgb(202,139,132);fill-rule:nonzero;"/>
            <path d="M84.81,153.43C84.81,153.43 79.53,136.08 74,140.28C74,140.28 72.86,155.53 77.82,154.7L84.81,153.43Z" style="fill:rgb(108,46,41);fill-rule:nonzero;"/>
            <path d="M102.6,150L100.6,143.14L74.7,152.48C75.13,154.209 76.825,155.31 78.58,155L102.6,150Z" style="fill:white;fill-rule:nonzero;"/>
            <path d="M82.14,116.63C82.14,116.63 72.48,113.96 71.08,125.53C72.619,120.594 76.989,117.077 82.14,116.63Z" style="fill:rgb(165,128,96);fill-rule:nonzero;"/>
            <path d="M117.16,128.26L118.88,135C118.88,135 93.71,148.73 75,127.63L76.29,121C76.29,120.89 98.73,140.08 117.16,128.26Z" style="fill:white;fill-rule:nonzero;"/>
        </g>
        <path d="M102,154.89C108.23,155.53 104.23,149.62 104.23,149.62C104.23,149.62 86.05,153.81 77.79,154.83C69.53,155.85 76.29,121 76.29,121C100.89,138.29 114.94,132.25 122.56,123.41" style="fill:none;stroke:rgb(165,128,96);stroke-width:2.6px;"/>
        <path d="M74.96,139.07L75.53,143.77L74.51,144.03L74.7,145.11L78.2,144.47L77.82,142.88L76.55,142.94L76.29,139.77L74.96,139.07Z" style="fill:rgb(202,139,132);fill-rule:nonzero;"/>
        <path d="M45.59,111.93C45.59,111.93 49.72,106.84 50.1,103.54C50.1,103.54 50.55,111.74 46.35,115.17L45.59,111.93ZM95,92.16C95,92.16 77.18,67.12 62.88,95C62.88,95 82.77,118.86 95,92.16Z" style="fill:rgb(208,159,120);fill-rule:nonzero;"/>
        <path d="M95,92.16C95,92.16 79.15,74.62 64,94.58C63.9,94.64 77.18,106.78 95,92.16Z" style="fill:white;fill-rule:nonzero;"/>
        <g transform="matrix(1,0,0,1,60,83)">
            <path d="M13.37,10.88C12.521,7.937 14.145,4.849 17.05,3.88C18.415,3.5 19.874,3.678 21.107,4.376C22.34,5.074 23.244,6.234 23.62,7.6C23.625,7.65 23.625,7.7 23.62,7.75C24.469,10.693 22.845,13.781 19.94,14.75C17.098,15.504 14.179,13.832 13.39,11C13.39,11 13.38,10.91 13.37,10.88Z" style="fill:rgb(9,109,122);fill-rule:nonzero;"/>
        </g>
        <g transform="matrix(1,0,0,1,60,83)">
            <path d="M16.35,10C16.005,8.755 16.708,7.459 17.94,7.07C19.119,6.728 20.352,7.403 20.7,8.58C20.705,8.63 20.705,8.68 20.7,8.73C21.045,9.973 20.341,11.265 19.11,11.65C18.544,11.817 17.934,11.752 17.416,11.468C16.898,11.185 16.515,10.707 16.35,10.14C16.354,10.093 16.354,10.047 16.35,10Z" style="fill-rule:nonzero;"/>
        </g>
        <g transform="matrix(1,0,0,1,60,83)">
            <path d="M15.08,8.4C14.898,7.693 15.303,6.967 16,6.75C16.316,6.658 16.655,6.698 16.941,6.86C17.227,7.022 17.436,7.292 17.52,7.61C17.71,8.309 17.319,9.035 16.63,9.26C16.332,9.358 16.007,9.332 15.727,9.19C15.447,9.047 15.236,8.799 15.14,8.5C15.117,8.469 15.097,8.435 15.08,8.4Z" style="fill:white;fill-rule:nonzero;"/>
        </g>
        <path d="M131,89.68C131,89.68 116,68.52 103.81,92.1C103.81,92.1 120.59,112.18 131,89.68Z" style="fill:rgb(208,159,120);fill-rule:nonzero;"/>
        <path d="M131,89.68C131,89.68 117.58,74.81 104.68,91.68C104.7,91.72 115.89,102 131,89.68Z" style="fill:white;fill-rule:nonzero;"/>
        <path d="M57.86,83.9L55.86,78.81C55.86,78.81 73.59,60.89 91.86,77.54L91.16,78.31C91.16,78.37 70.13,69 57.86,83.9ZM132.8,81L134.7,75.72C134.7,75.72 117.7,61.72 103.18,77.95L103.37,78.58C103.37,78.58 120.85,69.15 132.8,81Z" style="fill:rgb(59,36,22);fill-rule:nonzero;"/>
        <g transform="matrix(1,0,0,1,100,82)">
            <path d="M11,9.27C10.319,6.851 11.67,4.326 14.06,3.55C15.199,3.242 16.414,3.399 17.437,3.989C18.459,4.578 19.205,5.55 19.51,6.69C20.192,9.106 18.846,11.63 16.46,12.41C15.362,12.743 14.177,12.625 13.166,12.083C12.154,11.541 11.4,10.619 11.07,9.52C11,9.47 11,9.37 11,9.27Z" style="fill:rgb(9,109,122);fill-rule:nonzero;"/>
        </g>
        <g transform="matrix(1,0,0,1,100,82)">
            <path d="M13.41,8.57C13.136,7.558 13.69,6.506 14.68,6.16C15.14,6.02 15.637,6.069 16.061,6.296C16.485,6.523 16.801,6.909 16.94,7.37L16.94,7.49C17.22,8.505 16.664,9.563 15.67,9.91C15.193,10.038 14.684,9.971 14.256,9.723C13.828,9.476 13.517,9.068 13.39,8.59L13.41,8.57Z" style="fill-rule:nonzero;"/>
        </g>
        <g transform="matrix(1,0,0,1,100,82)">
            <path d="M12.33,7.24C12.205,6.682 12.501,6.116 13.03,5.9C13.293,5.821 13.576,5.853 13.815,5.989C14.053,6.125 14.225,6.353 14.29,6.62C14.419,7.176 14.121,7.742 13.59,7.95C13.329,8.029 13.046,7.999 12.808,7.864C12.57,7.73 12.397,7.505 12.33,7.24Z" style="fill:white;fill-rule:nonzero;"/>
        </g>
        <path d="M45.59,111.93L48.9,111.36L50.36,51.67L131.36,40.11L133.36,74.49C133.36,74.49 134.77,29.94 149,3.18C149,3.18 132.29,15.57 119.58,22.06L109.6,0L103.43,11.31L94.85,4.31L88.11,11.81C88.11,11.81 78.39,5.08 60.78,9.6C60.78,9.6 64.28,12.52 66.19,13.79C66.19,13.79 39.62,16.21 32.69,30.38C32.69,30.38 36.57,26.76 40.38,26.76C40.38,26.76 30.02,51.48 37.71,63.62C37.71,63.62 41.97,68.45 41.97,72.97L45.59,111.93Z" style="fill:rgb(59,36,22);fill-rule:nonzero;"/>
        <path d="M50.8,60.64L131.4,40.11L50.36,51.67L50.8,61.34" style="fill:rgb(208,159,120);fill-opacity:0.55;fill-rule:nonzero;"/>
        <g transform="matrix(0.250823,0,0,0.250823,97.5115,193.552)">
            <g transform="matrix(1,0,0,1,-43.8,-57.45)">
                <clipPath id="_clip1">
                    <rect x="0" y="0" width="87.6" height="114.9"/>
                </clipPath>
                <g clip-path="url(#_clip1)">
                    <g>
                        <path d="M74,51.9C77.1,47.6 79,42.7 79,37.6C79,27.4 67.8,19.2 57,19.2C46.2,19.2 39.4,24.1 30.3,26.8C32.4,29.2 33.2,31.8 33.6,35.5C33.7,36 33.7,37.3 33.7,39.3C34.7,39.2 35.7,39 36.9,38.9C40.8,38.4 44.5,37.9 45.7,37.6C46.3,37.5 46.8,37.3 47.3,37.1L47.3,31.1C49.6,29.9 52.3,29.1 55.2,29.1C61.1,29.1 67.1,33.8 67.1,40.1C67.1,49.5 61,59.1 50.8,63.4L50.8,65.7C57,64.9 63.2,62.1 68.1,58C72.9,61.9 74.6,68.2 74.6,76.4C74.6,85.1 69.5,94 60.8,96.2C56.5,97.2 50.8,97.9 46.5,98.2C46.7,97.5 46.9,96.9 47,95.9C47.3,84.4 47.3,74.2 47.2,59.5C47.2,56.5 47.2,52.3 47.1,48.8L47.3,48.8C50.3,48.8 52.9,49.6 54.1,51.7L55.1,51.5C54.9,47.1 56.3,38.3 58,34.5L57.1,34C54.2,37.7 50.7,40.1 46.2,41.1C43.7,41.6 34.2,42.7 26.5,43.9L26.5,42.7C26.4,33.3 26.4,24.4 26.5,19.9C35.6,14.2 52.3,13.1 62.4,15.6C64,11.6 70.6,4.2 74.8,2.3C69,-0.6 60.8,-0.5 54.5,1.3C45.9,4.2 30.2,9.2 20.2,9.2C15.9,9.5 9.7,8 8.7,7.4C8.7,7.4 7.6,8.6 7.2,9.1C9.7,11.3 12.6,15.1 12.9,18.6C13.3,22.4 13.5,74.5 12.8,82.8C12.6,85.9 11.7,89.1 10.5,89.7C10,87.4 8.1,86.1 5.4,86.4C2.5,86.7 0,89.7 0,92.8C0,95.3 2.1,97.7 4.8,98.1C5.5,98.2 6.2,98.2 7,98.1C10.1,97.8 13.4,96.1 15.2,94.2C16.4,94.7 17.2,95.3 17.7,96.1L17.9,96.3L18.7,96.2L18.8,96C22.4,92.3 27.8,89.2 33.9,87.4C33.8,93.2 33.7,97.7 33.5,99.6C33.3,102.7 32.4,105.9 31.2,106.5C30.7,104.2 28.8,102.9 26.1,103.2C23.3,103.5 20.8,106.5 20.7,109.5C20.7,112 22.8,114.4 25.5,114.8C26.2,114.9 26.9,114.9 27.7,114.8C30.8,114.5 34.1,112.8 35.9,110.9C37.1,111.4 37.9,112 38.4,112.8L38.6,113L39.4,112.9L39.5,112.7C40.3,111.5 41.4,110.1 44,109.2C49.4,107.4 56,107 60.1,106.6C76.8,104.9 87.7,91.6 87.7,76.4C87.6,65.3 82.5,55.6 74,51.9ZM26.6,79C26.9,74.9 26.9,63.8 26.9,52C29.2,51.4 31.6,50.9 34,50.5L34,76.7C31.2,77.3 28.6,78 26.6,79Z" style="fill:white;fill-rule:nonzero;"/>
                        <path d="M60.8,87.9L61.5,87.6L61.6,87.3C63.1,82.9 66.7,73.2 69.9,66.7L70.1,66.3L68.6,64.9L68.2,65.3C68.1,65.4 61,73.4 54.8,74.1C53.8,74.2 52.5,74.3 51,74.5L51,85.3C54.2,85.6 57.1,86.5 60.6,87.7L60.8,87.9Z" style="fill:white;fill-rule:nonzero;"/>
                    </g>
                </g>
            </g>
        </g>
    </g>
</svg>
