<svg height="234" viewBox="0 0 169 234" width="169" xmlns="http://www.w3.org/2000/svg" xmlns:xlink="http://www.w3.org/1999/xlink"><mask id="a" fill="#fff"><path d="m0 0h169v234h-169z" fill="#fff" fill-rule="evenodd"/></mask><mask id="b" fill="#fff"><path d="m38.41 9.16s-19.32-21.35-37.88 3c.06-.01 16.21 14.84 37.88-3z" fill="#fff" fill-rule="evenodd"/></mask><mask id="c" fill="#fff"><path d="m38.41 9.16s-19.32-21.35-37.88 3c.06-.01 16.21 14.84 37.88-3z" fill="#fff" fill-rule="evenodd"/></mask><mask id="d" fill="#fff"><path d="m38.41 9.16s-19.32-21.35-37.88 3c.06-.01 16.21 14.84 37.88-3z" fill="#fff" fill-rule="evenodd"/></mask><mask id="e" fill="#fff"><path d="m31.59 7.94s-15.89-17.61-31.15 2.41c0 0 13.29 12.14 31.15-2.41z" fill="#fff" fill-rule="evenodd"/></mask><mask id="f" fill="#fff"><path d="m31.59 7.94s-15.89-17.61-31.15 2.41c0 0 13.29 12.14 31.15-2.41z" fill="#fff" fill-rule="evenodd"/></mask><mask id="g" fill="#fff"><path d="m31.59 7.94s-15.89-17.61-31.15 2.41c0 0 13.29 12.14 31.15-2.41z" fill="#fff" fill-rule="evenodd"/></mask><g fill="none" fill-rule="evenodd" mask="url(#a)"><g fill-rule="nonzero"><path d="m113.47 156.8s82 47.1 30.45 56.82l-.32 5s72.9-6.8-29.49-67.69z" fill="#e9c09b"/><path d="m76.29 219.22 41.57-1.91-1.53 49.58-3.56-.32.89-37.06-32.03-2.6-.89 39.66h-4.45z" fill="#24416b"/><path d="m146.91 213.56c1 3 .44 6-1.15 6.74s-3.24 3.43-3.75 6-2.16 4.45-3.68 4.2-2-2.67-1.15-5.34-.76-3.82-3.69-2.61l-1.71.7c-2.93 1.21-5.79.83-6.42-.76s1.27-3.82 4.26-4.9l1.71-.63c2.93-1.08 3-2.35.07-2.86s-5.28-2.1-5.21-3.5 2.6-2.16 5.72-1.71l3.11.44c3.11.45 5-.57 4.19-2.29-.851868-1.61413-.357072-3.610521 1.15-4.64 1.46-.82 3.37 1 4.26 3.94z" fill="#e9c09b"/><path d="m121.93 148c7.928922 5.487885 15.565979 11.385909 22.88 17.67l-10.11 10-14-11.06z" fill="#272826"/><path d="m84.94 154.7s-106.78 29.3-68.71-20.4l-3.43-4.3s-58.86 64.83 75.89 29.88z" fill="#e9c09b"/><path d="m87.73 163.35s-32.35 10.1-40.36 8.07l-1.08-14.75 24.6-2.54h6.93z" fill="#272826"/><path d="m11.52 135.38c-2.92-1.21-4.83-3.49-4.25-5.08s-.13-4.52-1.53-6.42-1.53-4.32-.38-5.28 3.11.13 4.32 2.42 3.12 1.71 4.26-1.21l.64-1.53c1.14-2.92 3.3-4.89 4.83-4.38s1.71 3.3.44 6.16l-.7 1.53c-1.27 2.86-.44 3.69 1.84 1.84s4.9-2.67 5.85-1.78-.25 3.35-2.67 5.35l-2.35 2c-2.35 2-2.92 4.06-1.27 4.51 1.6391433.364345 2.6844008 1.974487 2.35 3.62-.38 1.53-3 1.84-6 .64z" fill="#e9c09b"/><path d="m91.16 221.63-16.27-.38-5.21-76.72 54.15-1.9-4.89 80.27-21.1-1.21" fill="#272826"/><path d="m72.92 163s24.54 20.21 49.26-6z" fill="#121212"/><path d="m124 104.43c3.12 8.2 9.35 9.85 13.86 4.07s5.72-16.59 2.86-24.28-9-9.73-13.66-4.39-6.15 16.4-3.06 24.6z" fill="#d09f78"/><path d="m58.05 64.89s27.39-16.27 34.77 4.11l-1.4 2.28s-7.57-10.39-33.37-6.39z" fill="#231f20"/><path d="m134.32 64.64c-1.46 17.35-.83 44.36 1.46 60s-7.37 32.1-21.42 36.55-32.86 5.27-41.69 1.81-19.67-21.07-24.15-39.25-6.68-45.89-5-61.59 9.06-32.6 16.48-37.5 25.8-5.34 40.87-.89 29.36 8.33 31.77 8.65 3.14 14.87 1.68 32.22z" fill="#e9c09b"/><path d="m88.75 108.88s10.36 8.2 27 0c.01 0-13.53 21.23-27 0z" fill="#d09f78"/><path d="m49.09 106.4c-4.45 10.36-12.71 11.57-18.37 3s-6.72-23.15-2.61-32.87 12.21-11.45 18.18-3.53 7.25 23 2.8 33.4z" fill="#e9c09b"/><path d="m41.65 100.87s6-34.58-11.82-13.67c-.06 0 13.09-10.1 11.82 13.67z" fill="#d09f78"/><path d="m41.71 101s-.44-18.82-10.36.38c-.06 0 7.89-11.57 10.36-.38z" fill="#d09f78"/><path d="m88.94 128.07s-4.77 18.12 3.37 24c0 0-14.37 3.5-16 2.42 0 0-2.29-1-2.54-7.31 0 0 .44-20.28 2.54-26.250162-.02-.039838 9.52 7.330162 12.63 7.140162z" fill="#ca8b84"/><path d="m84.81 153.43s-5.28-17.35-10.81-13.15c0 0-1.14 15.25 3.82 14.42z" fill="#6c2e29"/><path d="m102.6 150-2-6.86-25.9 9.34c.4300706 1.729155 2.1253789 2.830232 3.88 2.52z" fill="#fff"/><path d="m82.14 116.63s-9.66-2.67-11.06 8.9c1.5390631-4.936147 5.9088792-8.452545 11.06-8.9z" fill="#a58060"/><path d="m117.16 128.26 1.72 6.74s-25.17 13.73-43.88-7.37l1.29-6.63c0-.11 22.44 19.08 40.87 7.26z" fill="#fff"/></g><path d="m102 154.89c6.23.64 2.23-5.27 2.23-5.27s-18.18 4.19-26.44 5.21-1.5-33.83-1.5-33.83c24.6 17.29 38.65 11.25 46.27 2.41" stroke="#a58060" stroke-width="2.598"/><path d="m74.96 139.07.57 4.7-1.02.26.19 1.08 3.5-.64-.38-1.59-1.27.06-.26-3.17z" fill="#ca8b84" fill-rule="nonzero"/><path d="m45.59 111.93s4.13-5.09 4.51-8.39c0 0 .45 8.2-3.75 11.63zm49.41-19.77s-17.82-25.04-32.12 2.84c0 0 19.89 23.86 32.12-2.84z" fill="#d09f78" fill-rule="nonzero"/><path d="m95 92.16s-15.85-17.54-31 2.42c-.1.06 13.18 12.2 31-2.42z" fill="#fff" fill-rule="nonzero"/><path d="m13.37 10.88c-.8491869-2.94266251.7745134-6.03122296 3.68-7 1.3646036-.38035099 2.824485-.20181881 4.0572164.49616612 1.2327315.69798493 2.1368898 1.8579958 2.5127836 3.22383388.0045273.04989752.0045273.10010248 0 .15.8491869 2.9426625-.7745134 6.031223-3.68 7-2.841753.7537932-5.7613391-.9177255-6.55-3.75 0 0-.01-.09-.02-.12z" fill="#096d7a" fill-rule="nonzero" mask="url(#b)" transform="translate(60 83)"/><path d="m16.35 10c-.3454154-1.24547222.3575088-2.5407979 1.59-2.93 1.1787799-.34198357 2.4123196.33288777 2.76 1.51.0045273.04989752.0045273.10010248 0 .15.344775 1.24291846-.3588898 2.5351834-1.59 2.92-.5662526.1670411-1.175719.101653-1.6936492-.1817074s-.9016608-.7613517-1.0663508-1.3282926c.0044243-.0465618.0044243-.0934382 0-.14z" fill="#000" fill-rule="nonzero" mask="url(#c)" transform="translate(60 83)"/><path d="m15.08 8.4c-.1822027-.70730789.2225254-1.43317883.92-1.65.3157055-.09174365.6550761-.05218623.9412171.10970935s.4948302.43242461.5787829.75029065c.1903531.69928203-.2010883 1.42498804-.89 1.65-.2983556.09756419-.623289.07222943-.902917-.07039962-.279628-.14262904-.4909019-.39079599-.587083-.68960038-.0229559-.03146824-.0430367-.06493624-.06-.1z" fill="#fff" fill-rule="nonzero" mask="url(#d)" transform="translate(60 83)"/><path d="m131 89.68s-15-21.16-27.19 2.42c0 0 16.78 20.08 27.19-2.42z" fill="#d09f78" fill-rule="nonzero"/><path d="m131 89.68s-13.42-14.87-26.32 2c.02.04 11.21 10.32 26.32-2z" fill="#fff" fill-rule="nonzero"/><path d="m57.86 83.9-2-5.09s17.73-17.92 36-1.27l-.7.77c0 .06-21.03-9.31-33.3 5.59zm74.94-2.9 1.9-5.28s-17-14-31.52 2.23l.19.63s17.48-9.43 29.43 2.42z" fill="#3b2416" fill-rule="nonzero"/><path d="m11 9.27c-.681215-2.41899475.6696683-4.94417534 3.06-5.72 1.1391771-.30843523 2.3542791-.15063725 3.3768892.43853626 1.0226101.5891735 1.7685751 1.56123799 2.0731108 2.70146374.6821293 2.41610774-.6636755 4.9400433-3.05 5.72-1.0980013.3327969-2.2832881.2151421-3.2944391-.3270149s-1.7651005-1.4642784-2.0955609-2.5629851c-.07-.05-.07-.15-.07-.25z" fill="#096d7a" fill-rule="nonzero" mask="url(#e)" transform="translate(100 82)"/><path d="m13.41 8.57c-.2737659-1.01203212.2804358-2.06370619 1.27-2.41.460153-.13998714.9571009-.09106929 1.3811267.13595337.4240258.22702267.7402562.61347907.8788733 1.07404663v.12c.2797901 1.01521898-.2755779 2.07347915-1.27 2.42-.477419.1281103-.9861968.06091278-1.4139846-.18675385s-.7393961-.65542951-.8660154-1.13324615z" fill="#000" fill-rule="nonzero" mask="url(#f)" transform="translate(100 82)"/><path d="m12.33 7.24c-.1253172-.5576899.1706684-1.12429084.7-1.34.2627394-.07919647.5464794-.04694184.7847391.08920657s.4101009.36422588.4752609.63079343c.1287201.55557326-.1691675 1.12155969-.7 1.33-.261357.07947137-.5438483.04856382-.7818378-.08554136s-.4107576-.35973272-.4781622-.62445864z" fill="#fff" fill-rule="nonzero" mask="url(#g)" transform="translate(100 82)"/><path d="m45.59 111.93 3.31-.57 1.46-59.69 81-11.56 2 34.38s1.41-44.55 15.64-71.31c0 0-16.71 12.39-29.42 18.88l-9.98-22.06-6.17 11.31-8.58-7-6.74 7.5s-9.72-6.73-27.33-2.21c0 0 3.5 2.92 5.41 4.19 0 0-26.57 2.42-33.5 16.59 0 0 3.88-3.62 7.69-3.62 0 0-10.36 24.72-2.67 36.86 0 0 4.26 4.83 4.26 9.35z" fill="#3b2416" fill-rule="nonzero"/><path d="m50.8 60.64 80.6-20.53-81.04 11.56.44 9.67" fill="#d09f78" fill-rule="nonzero" opacity=".55"/><path d="m98.13 202.62c-.1187072-.003724-.2349965-.034506-.34-.09l-8.51-4.72c-.2019319-.119102-.3354817-.326846-.36-.56l-1.38-13.14c-.0372088-.334363.162091-.649921.48-.76l9.77-3.47c.1527314-.04966.3172686-.04966.47 0l10 3.46c.321002.117865.519439.440325.48.78l-1.59 13.14c-.025897.227522-.15994.428586-.36.54l-8.29 4.72c-.1096427.063169-.2334856.097569-.36.1z" fill="#3ac"/><path d="m102.36 189.5c.213218-.878448.117888-1.803498-.27-2.62 0 0 .71.27.63-.27s-.84-1.13-1.43-1.49c-.586617-.33153-1.220676-.570989-1.88-.71l.18-.4c-.995593-.410954-2.1093431-.432372-3.12-.06h-.06l.17.44c-.4890472.110688-.9602572.289074-1.4.53-3.92 2.1-1.93 6.21-.72 7.18s.66 3 0 4.78h5.26c.1261523-.383582.2132606-.77892.26-1.18.24-1.35 1.19-.85 1.93-.89s.63-.57.62-1.16c.37-.16.37-.34.12-.55.32-.3.27-.3.1-.58s0-.42 0-.42.51-.1.58-.37c0-.59-1.06-1.42-.87-2.23z" fill="#fff"/><path d="m101.27 189.33-.78-.26c0 .11-.44 1.1-.95 1.28l-.49-.66c-.291575.204797-.6444716.303608-1 .28v1.81c-1.1268847.049322-2.2025372-.473461-2.86-1.39l-.65.49c-.566916-.746807-.8662871-1.66253-.85-2.6h.86c.0120436-.738321.2378183-1.457326.65-2.07l.68.48c.3269848-.410502.7588979-.724934 1.25-.91l-.49-1.31c.8499333-.306178 1.7800667-.306178 2.63 0h.07l-.14.39c.291806.128439.5644.296707.81.5l.19-.26c.688066.424371 1.18595 1.097767 1.39 1.88l-.28.11c.204994.7292.204994 1.5008 0 2.23z" fill="#3ac"/><path d="m98 186.94c-.3527152.005766-.6679005.221604-.800789.548379s-.0577952.701327.190789.951621c.245661.248374.6171591.323464.94.19.3230931-.140952.5341573-.457548.54-.81-.0052723-.479936-.3901556-.869243-.87-.88z" fill="#fff"/></g></svg>