<svg data-name="Layer 1" xmlns="http://www.w3.org/2000/svg" viewBox="0 0 168.76 270.75"><defs><clipPath id="a"><path d="M98.41 92.16s-19.32-21.35-37.88 3c.06-.01 16.21 14.84 37.88-3z" fill="none"/></clipPath><clipPath id="b"><path d="M131.59 89.94s-15.89-17.61-31.15 2.41c0 0 13.29 12.14 31.15-2.41z" fill="none"/></clipPath></defs><path d="M113.47 156.8s82 47.1 30.45 56.82l-.32 5s72.9-6.8-29.49-67.69z" fill="#e9c09b"/><path fill="#24416b" d="M76.29 219.22l41.57-1.91-1.53 49.58-3.56-.32.89-37.06-32.03-2.6-.89 39.66h-4.45v-47.35z"/><path d="M115.83 264.28s3 4.89 10.48 4.89l.19 1.53s-9.47.76-12.39-3.81l.19 3.49-3.18-.32 1-6.29zM76.29 264.22s-3.05 4.89-10.49 4.89l-.19 1.53s9.47.76 12.4-3.82l-.19 3.5L81 270l-1-6.29z" fill="#231f20"/><path d="M146.91 213.56c1 3 .44 6-1.15 6.74s-3.24 3.43-3.75 6-2.16 4.45-3.68 4.2-2-2.67-1.15-5.34-.76-3.82-3.69-2.61l-1.71.7c-2.93 1.21-5.79.83-6.42-.76s1.27-3.82 4.26-4.9l1.71-.63c2.93-1.08 3-2.35.07-2.86s-5.28-2.1-5.21-3.5 2.6-2.16 5.72-1.71l3.11.44c3.11.45 5-.57 4.19-2.29a3.59 3.59 0 0 1 1.15-4.64c1.46-.82 3.37 1 4.26 3.94z" fill="#e9c09b"/><path d="M121.93 148a277.1 277.1 0 0 1 22.88 17.67l-10.11 10-14-11.06z" fill="#272826"/><path d="M84.94 154.7S-21.84 184 16.23 134.3L12.8 130s-58.86 64.83 75.89 29.88z" fill="#e9c09b"/><path d="M87.73 163.35s-32.35 10.1-40.36 8.07l-1.08-14.75 24.6-2.54h6.93z" fill="#272826"/><path d="M11.52 135.38c-2.92-1.21-4.83-3.49-4.25-5.08s-.13-4.52-1.53-6.42-1.53-4.32-.38-5.28 3.11.13 4.32 2.42 3.12 1.71 4.26-1.21l.64-1.53c1.14-2.92 3.3-4.89 4.83-4.38s1.71 3.3.44 6.16l-.7 1.53c-1.27 2.86-.44 3.69 1.84 1.84s4.9-2.67 5.85-1.78-.25 3.35-2.67 5.35l-2.35 2c-2.35 2-2.92 4.06-1.27 4.51a3.08 3.08 0 0 1 2.35 3.62c-.38 1.53-3 1.84-6 .64z" fill="#e9c09b"/><path fill="#272826" d="M91.16 221.63l-16.27-.38-5.21-76.72 54.15-1.9-4.89 80.27-21.1-1.21"/><path d="M72.92 163s24.54 20.21 49.26-6z" fill="#121212"/><path d="M124 104.43c3.12 8.2 9.35 9.85 13.86 4.07s5.72-16.59 2.86-24.28-9-9.73-13.66-4.39-6.15 16.4-3.06 24.6z" fill="#d09f78"/><path d="M58.05 64.89S85.44 48.62 92.82 69l-1.4 2.28s-7.57-10.39-33.37-6.39z" fill="#231f20"/><path d="M134.32 64.64c-1.46 17.35-.83 44.36 1.46 60s-7.37 32.1-21.42 36.55-32.86 5.27-41.69 1.81S53 141.93 48.52 123.75s-6.68-45.89-5-61.59 9.06-32.6 16.48-37.5 25.8-5.34 40.87-.89 29.36 8.33 31.77 8.65 3.14 14.87 1.68 32.22z" fill="#e9c09b"/><path d="M88.75 108.88s10.36 8.2 27 0c.01 0-13.53 21.23-27 0z" fill="#d09f78"/><path d="M49.09 106.4c-4.45 10.36-12.71 11.57-18.37 3S24 86.25 28.11 76.53 40.32 65.08 46.29 73s7.25 23 2.8 33.4z" fill="#e9c09b"/><path d="M41.65 100.87s6-34.58-11.82-13.67c-.06 0 13.09-10.1 11.82 13.67z" fill="#d09f78"/><path d="M41.71 101s-.44-18.82-10.36.38c-.06 0 7.89-11.57 10.36-.38z" fill="#d09f78"/><path d="M88.94 128.07s-4.77 18.12 3.37 24c0 0-14.37 3.5-16 2.42 0 0-2.29-1-2.54-7.31 0 0 .44-20.28 2.54-26.25-.02-.04 9.52 7.33 12.63 7.14z" fill="#ca8b84"/><path d="M84.81 153.43S79.53 136.08 74 140.28c0 0-1.14 15.25 3.82 14.42z" fill="#6c2e29"/><path d="M102.6 150l-2-6.86-25.9 9.34a3.39 3.39 0 0 0 3.88 2.52z" fill="#fff"/><path d="M82.14 116.63s-9.66-2.67-11.06 8.9a12.74 12.74 0 0 1 11.06-8.9z" fill="#a58060"/><path d="M117.16 128.26l1.72 6.74S93.71 148.73 75 127.63l1.29-6.63c0-.11 22.44 19.08 40.87 7.26z" fill="#fff"/><path d="M102 154.89c6.23.64 2.23-5.27 2.23-5.27s-18.18 4.19-26.44 5.21-1.5-33.83-1.5-33.83c24.6 17.29 38.65 11.25 46.27 2.41" fill="none" stroke="#a58060" stroke-width="2.598"/><path fill="#ca8b84" d="M74.96 139.07l.57 4.7-1.02.26.19 1.08 3.5-.64-.38-1.59-1.27.06-.26-3.17-1.33-.7z"/><path d="M45.59 111.93s4.13-5.09 4.51-8.39c0 0 .45 8.2-3.75 11.63zM95 92.16S77.18 67.12 62.88 95c0 0 19.89 23.86 32.12-2.84z" fill="#d09f78"/><path d="M95 92.16s-15.85-17.54-31 2.42c-.1.06 13.18 12.2 31-2.42z" fill="#fff"/><g clip-path="url(#a)"><path d="M73.37 93.88a5.71 5.71 0 0 1 3.68-7 5.33 5.33 0 0 1 6.57 3.72.83.83 0 0 1 0 .15 5.71 5.71 0 0 1-3.68 7A5.37 5.37 0 0 1 73.39 94s-.01-.09-.02-.12z" fill="#096d7a"/></g><g clip-path="url(#a)"><path d="M76.35 93a2.4 2.4 0 0 1 1.59-2.93 2.23 2.23 0 0 1 2.76 1.51.83.83 0 0 1 0 .15 2.39 2.39 0 0 1-1.59 2.92 2.22 2.22 0 0 1-2.76-1.51.74.74 0 0 0 0-.14z"/></g><g clip-path="url(#a)"><path d="M75.08 91.4a1.37 1.37 0 0 1 .92-1.65 1.22 1.22 0 0 1 1.52.86 1.36 1.36 0 0 1-.89 1.65 1.18 1.18 0 0 1-1.49-.76.65.65 0 0 1-.06-.1z" fill="#fff"/></g><path d="M131 89.68s-15-21.16-27.19 2.42c0 0 16.78 20.08 27.19-2.42z" fill="#d09f78"/><path d="M131 89.68s-13.42-14.87-26.32 2c.02.04 11.21 10.32 26.32-2z" fill="#fff"/><path d="M57.86 83.9l-2-5.09s17.73-17.92 36-1.27l-.7.77c0 .06-21.03-9.31-33.3 5.59zM132.8 81l1.9-5.28s-17-14-31.52 2.23l.19.63s17.48-9.43 29.43 2.42z" fill="#3b2416"/><g clip-path="url(#b)"><path d="M111 91.27a4.68 4.68 0 0 1 3.06-5.72 4.44 4.44 0 0 1 5.45 3.14 4.68 4.68 0 0 1-3.05 5.72 4.32 4.32 0 0 1-5.39-2.89c-.07-.05-.07-.15-.07-.25z" fill="#096d7a"/></g><g clip-path="url(#b)"><path d="M113.41 90.57a2 2 0 0 1 1.27-2.41 1.81 1.81 0 0 1 2.26 1.21v.12a2 2 0 0 1-1.27 2.42 1.86 1.86 0 0 1-2.28-1.32z"/></g><g clip-path="url(#b)"><path d="M112.33 89.24a1.17 1.17 0 0 1 .7-1.34 1 1 0 0 1 1.26.72 1.15 1.15 0 0 1-.7 1.33 1 1 0 0 1-1.26-.71z" fill="#fff"/></g><path d="M45.59 111.93l3.31-.57 1.46-59.69 81-11.56 2 34.38S134.77 29.94 149 3.18c0 0-16.71 12.39-29.42 18.88L109.6 0l-6.17 11.31-8.58-7-6.74 7.5S78.39 5.08 60.78 9.6c0 0 3.5 2.92 5.41 4.19 0 0-26.57 2.42-33.5 16.59 0 0 3.88-3.62 7.69-3.62 0 0-10.36 24.72-2.67 36.86 0 0 4.26 4.83 4.26 9.35z" fill="#3b2416"/><path style="isolation:isolate" fill="#d09f78" opacity=".55" d="M50.8 60.64l80.6-20.53-81.04 11.56.44 9.67"/><path d="M98.13 202.62a.78.78 0 0 1-.34-.09l-8.51-4.72a.74.74 0 0 1-.36-.56l-1.38-13.14a.72.72 0 0 1 .48-.76l9.77-3.47a.76.76 0 0 1 .47 0l10 3.46a.74.74 0 0 1 .48.78l-1.59 13.14a.71.71 0 0 1-.36.54l-8.29 4.72a.75.75 0 0 1-.36.1z" fill="#3ac" fill-rule="evenodd"/><path d="M102.36 189.5a3.94 3.94 0 0 0-.27-2.62s.71.27.63-.27-.84-1.13-1.43-1.49a6.58 6.58 0 0 0-1.88-.71l.18-.4a4.29 4.29 0 0 0-3.12-.06h-.06l.17.44a5.39 5.39 0 0 0-1.4.53c-3.92 2.1-1.93 6.21-.72 7.18s.66 3 0 4.78h5.26a6 6 0 0 0 .26-1.18c.24-1.35 1.19-.85 1.93-.89s.63-.57.62-1.16c.37-.16.37-.34.12-.55.32-.3.27-.3.1-.58s0-.42 0-.42.51-.1.58-.37c0-.59-1.06-1.42-.87-2.23z" fill="#fff" fill-rule="evenodd"/><path d="M101.27 189.33l-.78-.26c0 .11-.44 1.1-.95 1.28l-.49-.66a1.56 1.56 0 0 1-1 .28v1.81a3.34 3.34 0 0 1-2.86-1.39l-.65.49a4.18 4.18 0 0 1-.85-2.6h.86a3.82 3.82 0 0 1 .65-2.07l.68.48a2.91 2.91 0 0 1 1.25-.91l-.49-1.31a3.88 3.88 0 0 1 2.63 0h.07l-.14.39a3.45 3.45 0 0 1 .81.5l.19-.26a3.14 3.14 0 0 1 1.39 1.88l-.28.11a4.12 4.12 0 0 1 0 2.23z" fill="#3ac" fill-rule="evenodd"/><path d="M98 186.94a.88.88 0 0 0-.61 1.5.86.86 0 0 0 .94.19.9.9 0 0 0 .54-.81.89.89 0 0 0-.87-.88z" fill="#fff" fill-rule="evenodd"/></svg>