<svg width="1452" height="2330" fill="none" xmlns="http://www.w3.org/2000/svg"><g clip-path="url(#clip0_4_2)"><path d="M976.289 1349.38s705.521 405.33 261.991 488.97l-2.75 43.03s627.22-58.52-253.735-582.52l-5.506 50.52Z" fill="#E9C09B"/><path d="m656.394 1886.55 357.666-16.44-13.16 426.67-30.634-2.75 7.657-318.93-275.584-22.37-7.657 341.3h-38.288v-407.48Z" fill="#24416B"/><path d="M996.594 2274.32s25.816 42.08 90.166 42.08l1.64 13.17s-81.48 6.54-106.605-32.79l1.635 30.04-27.361-2.76 8.604-54.13 31.921 4.39Zm-340.2-.52s-26.242 42.09-90.255 42.09l-1.635 13.16s81.479 6.54 106.689-32.87l-1.635 30.12 27.361-2.75-8.604-54.13-31.921 4.38Z" fill="#231F20"/><path d="M1264 1837.84c8.61 25.82 3.79 51.63-9.89 58-13.68 6.37-27.88 29.52-32.27 51.64-4.38 22.11-18.58 38.29-31.66 36.14-13.08-2.15-17.21-22.98-9.89-45.96 7.31-22.97-6.54-32.87-31.75-22.46l-14.71 6.03c-25.21 10.41-49.82 7.14-55.24-6.54-5.42-13.69 10.93-32.88 36.65-42.17l14.71-5.42c25.21-9.3 25.82-20.23.61-24.61-25.21-4.39-45.43-18.08-44.83-30.12.6-12.05 22.37-18.59 49.22-14.72l26.75 3.79c26.76 3.87 43.02-4.91 36.05-19.71a30.924 30.924 0 0 1-2.66-21.85c1.82-7.37 6.29-13.8 12.56-18.08 12.56-7.06 28.99 8.6 36.65 33.91l19.7 62.13Z" fill="#E9C09B"/><path d="M1049.08 1273.65a2382.544 2382.544 0 0 1 196.86 152.06l-86.99 86.06-120.46-95.18 10.59-142.94Z" fill="#272826"/><path d="M730.818 1331.31s-918.728 252.14-591.176-175.56l-29.512-37.01s-506.427 557.91 652.953 257.14l-32.265-44.57Z" fill="#E9C09B"/><path d="M754.823 1405.75s-278.337 86.91-347.255 69.44l-9.292-126.93 211.657-21.86h59.625l85.265 79.35Z" fill="#272826"/><path d="M99.117 1165.04c-25.123-10.41-41.557-30.03-36.566-43.71 4.99-13.69-1.119-38.9-13.164-55.25-12.046-16.35-13.164-37.18-3.27-45.44 9.895-8.26 26.758 1.12 37.17 20.82 10.41 19.71 26.843 14.72 36.652-10.41l5.506-13.16c9.809-25.134 28.393-42.087 41.557-37.698 13.164 4.389 14.713 28.398 3.786 53.008l-6.023 13.17c-10.927 24.61-3.785 31.76 15.832 15.83 19.617-15.92 42.159-22.97 50.333-15.31 8.173 7.66-2.151 28.83-22.973 46.04l-20.219 17.21c-20.219 17.21-25.124 34.94-10.927 38.81a26.53 26.53 0 0 1 16.477 11.44 26.519 26.519 0 0 1 3.742 19.71c-3.269 13.17-25.812 15.84-51.623 5.51l-46.29-20.57Z" fill="#E9C09B"/><path d="m784.335 1907.29-139.986-3.27-44.827-660.23 465.908-16.36-42.08 690.79-181.541-10.42" fill="#272826"/><path d="M627.399 1402.73s211.141 173.92 423.831-51.63l-423.831 51.63Z" fill="#121212"/><path d="M1066.89 898.696c26.84 70.567 80.44 84.766 119.25 35.025 38.8-49.741 49.21-142.769 24.61-208.947-24.61-66.178-77.44-83.734-117.53-37.779-40.1 45.955-52.92 141.134-26.33 211.701Z" fill="#D09F78"/><path d="M499.458 558.425s235.662-140.015 299.159 35.37l-12.045 19.621s-65.132-89.413-287.114-54.991Z" fill="#231F20"/><path d="M1155.68 556.274c-12.56 149.309-7.14 381.75 12.56 516.346 19.71 134.59-63.41 276.24-184.294 314.54-120.885 38.29-282.725 45.35-358.698 15.57-75.973-29.77-169.239-181.32-207.785-337.77-38.546-156.454-57.474-394.918-43.02-530.028 14.455-135.11 77.952-280.547 141.793-322.715 63.841-42.168 221.982-45.954 351.643-7.659 129.661 38.296 252.611 71.686 273.351 74.44 20.73 2.753 27.01 127.967 14.45 277.276Z" fill="#E9C09B"/><path d="M763.599 936.991s89.137 70.569 232.306 0c.087 0-116.411 182.699-232.306 0Z" fill="#D09F78"/><path d="M422.367 915.649c-38.287 89.151-109.356 99.571-158.054 25.817-48.698-73.751-57.819-199.222-22.456-282.87 35.362-83.648 105.054-98.535 156.419-30.378 51.366 68.157 62.379 197.932 24.091 287.431Z" fill="#E9C09B"/><path d="M358.354 868.059s51.624-297.586-101.699-117.64c-.516 0 112.626-86.918 101.699 117.64Z" fill="#D09F78"/><path d="M358.87 869.178s-3.786-161.96-89.137 3.27c-.516 0 67.885-99.568 89.137-3.27Z" fill="#D09F78"/><path d="M765.234 1102.14s-41.041 155.93 28.995 206.53c0 0-123.638 30.12-137.663 20.83 0 0-19.703-8.61-21.854-62.91 0 0 3.786-174.52 21.854-225.9-.172-.34 81.91 63.08 108.668 61.45Z" fill="#CA8B84"/><path d="M729.7 1320.38s-45.429-149.31-93.009-113.17c0 0-9.808 131.24 32.867 124.1l60.142-10.93Z" fill="#6C2E29"/><path d="m882.764 1290.86-17.208-59.04-222.842 80.38a29.204 29.204 0 0 0 12.418 17.43 29.22 29.22 0 0 0 20.965 4.26l206.667-43.03Z" fill="#fff"/><path d="M706.727 1003.69s-83.114-22.982-95.159 76.59a109.59 109.59 0 0 1 35.925-52.78 109.575 109.575 0 0 1 59.234-23.81Z" fill="#A58060"/><path d="m1008.04 1103.77 14.8 58s-216.565 118.16-377.545-63.42l11.099-57.06c0-.94 193.073 164.2 351.646 62.48Z" fill="#fff"/><path d="M877.601 1332.94c53.603 5.51 19.187-45.35 19.187-45.35s-156.419 36.06-227.488 44.83c-71.068 8.78-12.906-291.13-12.906-291.13 211.657 148.8 332.542 96.82 398.106 20.74" stroke="#A58060" stroke-width="2.598"/><path d="m644.951 1196.8 4.904 40.45-8.776 2.23 1.635 9.3 30.114-5.51-3.27-13.68-10.927.51-2.237-27.28-11.443-6.02Z" fill="#CA8B84"/><path d="M392.253 963.239s35.535-43.803 38.804-72.202c0 0 3.872 70.567-32.265 100.084l-6.539-27.882Zm425.121-170.135s-153.322-215.488-276.359 24.44c0 0 171.133 205.336 276.359-24.44Z" fill="#D09F78"/><path d="M817.374 793.104s-136.373-150.945-266.722 20.825c-.861.517 113.4 104.99 266.722-20.825Z" fill="#fff"/><mask id="mask0_4_2" style="mask-type:luminance" maskUnits="userSpaceOnUse" x="520" y="718" width="327" height="151"><path d="M846.713 793.104s-166.228-183.733-325.917 25.817c.516-.086 139.47 127.709 325.917-25.817Z" fill="#fff"/></mask><g mask="url(#mask0_4_2)"><path d="M631.271 807.905a49.141 49.141 0 0 1 31.662-60.24 45.855 45.855 0 0 1 48.483 15.987 45.865 45.865 0 0 1 8.045 16.027c.039.429.039.861 0 1.291a49.15 49.15 0 0 1-3.717 36.49 49.137 49.137 0 0 1-27.945 23.75 46.2 46.2 0 0 1-56.356-32.272s-.086-.774-.172-1.033Z" fill="#096D7A"/></g><mask id="mask1_4_2" style="mask-type:luminance" maskUnits="userSpaceOnUse" x="520" y="718" width="327" height="151"><path d="M846.713 793.104s-166.228-183.733-325.917 25.817c.516-.086 139.47 127.709 325.917-25.817Z" fill="#fff"/></mask><g mask="url(#mask1_4_2)"><path d="M656.91 800.332a20.664 20.664 0 0 1 1.749-15.37 20.648 20.648 0 0 1 11.932-9.844 19.178 19.178 0 0 1 14.555 1.595 19.191 19.191 0 0 1 9.192 11.399c.038.43.038.862 0 1.291a20.572 20.572 0 0 1-13.681 25.129 19.098 19.098 0 0 1-23.747-12.995 6.22 6.22 0 0 0 0-1.205Z" fill="#000"/></g><mask id="mask2_4_2" style="mask-type:luminance" maskUnits="userSpaceOnUse" x="520" y="718" width="327" height="151"><path d="M846.713 793.104s-166.228-183.733-325.917 25.817c.516-.086 139.47 127.709 325.917-25.817Z" fill="#fff"/></mask><g mask="url(#mask2_4_2)"><path d="M645.983 786.563a11.797 11.797 0 0 1 1.12-8.682 11.783 11.783 0 0 1 6.796-5.517 10.497 10.497 0 0 1 13.078 7.401 11.7 11.7 0 0 1-7.657 14.199 10.146 10.146 0 0 1-7.769-.606 10.14 10.14 0 0 1-5.051-5.934 5.565 5.565 0 0 1-.517-.861Z" fill="#fff"/></g><path d="M1127.12 771.761s-129.064-182.097-233.946 20.826c0 0 144.376 172.803 233.946-20.826Z" fill="#D09F78"/><path d="M1127.12 771.761s-115.47-127.967-226.46 17.212c.172.344 96.45 88.811 226.46-17.212Z" fill="#fff"/><path d="m497.824 722.02-17.208-43.803s152.548-154.214 309.741-10.929l-6.022 6.626c0 .517-180.941-80.119-286.511 48.106Zm644.776-24.956 16.35-45.438s-146.27-120.481-271.196 19.19l1.635 5.422s150.401-81.152 253.211 20.826Z" fill="#3B2416"/><mask id="mask3_4_2" style="mask-type:luminance" maskUnits="userSpaceOnUse" x="864" y="712" width="269" height="124"><path d="M1132.19 773.999s-136.715-151.547-268.011 20.74c0 0 114.346 104.473 268.011-20.74Z" fill="#fff"/></mask><g mask="url(#mask3_4_2)"><path d="M955.037 785.444a40.274 40.274 0 0 1 26.328-49.224 38.189 38.189 0 0 1 40.285 13.619 38.124 38.124 0 0 1 6.61 13.403 40.308 40.308 0 0 1-3.22 29.892 40.289 40.289 0 0 1-23.03 19.333 37.132 37.132 0 0 1-14.449 1.416 37.173 37.173 0 0 1-31.922-26.287c-.602-.43-.602-1.291-.602-2.152Z" fill="#096D7A"/></g><mask id="mask4_4_2" style="mask-type:luminance" maskUnits="userSpaceOnUse" x="864" y="712" width="269" height="124"><path d="M1132.19 773.999s-136.715-151.547-268.011 20.74c0 0 114.346 104.473 268.011-20.74Z" fill="#fff"/></mask><g mask="url(#mask4_4_2)"><path d="M975.772 779.42a17.212 17.212 0 0 1 10.927-20.739 15.576 15.576 0 0 1 11.883 1.17 15.442 15.442 0 0 1 4.698 3.867 15.535 15.535 0 0 1 2.86 5.376v1.032a17.21 17.21 0 0 1-10.923 20.826 15.993 15.993 0 0 1-12.166-1.607 16.015 16.015 0 0 1-7.451-9.752l.172-.173Z" fill="#000"/></g><mask id="mask5_4_2" style="mask-type:luminance" maskUnits="userSpaceOnUse" x="864" y="712" width="269" height="124"><path d="M1132.19 773.999s-136.715-151.547-268.011 20.74c0 0 114.346 104.473 268.011-20.74Z" fill="#fff"/></mask><g mask="url(#mask5_4_2)"><path d="M966.48 767.975a10.072 10.072 0 0 1 6.023-11.532 8.605 8.605 0 0 1 10.841 6.196 9.896 9.896 0 0 1-6.023 11.446 8.603 8.603 0 0 1-10.841-6.11Z" fill="#fff"/></g><path d="m392.253 963.239 28.479-4.906 12.562-513.675 696.916-99.482 17.21 295.864s12.13-383.385 134.57-613.674c0 0-143.78 106.625-253.13 162.476L942.991 0l-53.086 97.33-73.822-60.24-57.99 64.544s-83.631-57.917-235.146-19.019c0 0 30.114 25.129 46.547 36.058 0 0-228.606 20.826-288.231 142.769 0 0 33.383-31.153 66.164-31.153 0 0-89.137 212.734-22.973 317.207 0 0 36.653 41.566 36.653 80.464l31.146 335.279Z" fill="#3B2416"/><path opacity=".55" d="m437.08 521.851 693.48-176.675-697.266 99.482 3.786 83.217" fill="#D09F78"/><mask id="mask6_4_2" style="mask-type:luminance" maskUnits="userSpaceOnUse" x="758" y="1549" width="149" height="195"><path d="M906.258 1549H758v194.46h148.258V1549Z" fill="#fff"/></mask><g mask="url(#mask6_4_2)" fill="#fff"><path d="M883.241 1636.84c5.246-7.28 8.462-15.57 8.462-24.2 0-17.27-18.955-31.15-37.234-31.15-18.278 0-29.787 8.3-45.188 12.87 3.554 4.06 4.908 8.46 5.585 14.72.169.85.169 3.05.169 6.43 1.693-.17 3.385-.5 5.416-.67 6.601-.85 12.863-1.7 14.894-2.2 1.015-.17 1.861-.51 2.708-.85v-10.16c3.892-2.03 8.462-3.38 13.37-3.38 9.985 0 20.14 7.95 20.14 18.62 0 15.91-10.324 32.15-27.587 39.43v3.89c10.493-1.35 20.986-6.09 29.279-13.03 8.124 6.6 11.001 17.26 11.001 31.14 0 14.73-8.631 29.79-23.356 33.51-7.277 1.7-16.924 2.88-24.201 3.39.338-1.19.677-2.2.846-3.89.508-19.47.508-36.73.338-61.61 0-5.08 0-12.19-.169-18.11h.339c5.077 0 9.477 1.36 11.508 4.91l1.693-.34c-.339-7.45 2.031-22.34 4.908-28.77l-1.524-.85c-4.908 6.27-10.831 10.33-18.447 12.02-4.231.85-20.309 2.71-33.341 4.74v-2.03c-.17-15.91-.17-30.97 0-38.59 15.401-9.65 43.665-11.51 60.758-7.28 2.708-6.77 13.878-19.29 20.987-22.51-9.816-4.91-23.695-4.74-34.357-1.69-14.555 4.91-41.126 13.37-58.051 13.37-7.277.51-17.77-2.03-19.463-3.05 0 0-1.861 2.04-2.538 2.88 4.231 3.72 9.139 10.16 9.647 16.08.676 6.43 1.015 94.61-.17 108.65-.338 5.25-1.861 10.67-3.892 11.68-.847-3.89-4.062-6.09-8.632-5.58-4.908.5-9.139 5.58-9.139 10.83 0 4.23 3.554 8.29 8.124 8.97 1.184.17 2.369.17 3.723 0 5.247-.51 10.832-3.39 13.878-6.6 2.031.84 3.385 1.86 4.231 3.21l.339.34 1.354-.17.169-.34c6.093-6.26 15.232-11.5 25.556-14.55-.169 9.82-.339 17.43-.677 20.65-.339 5.24-1.862 10.66-3.893 11.68-.846-3.9-4.062-6.1-8.631-5.59-4.739.51-8.97 5.59-9.139 10.66 0 4.23 3.554 8.3 8.123 8.97 1.185.17 2.37.17 3.724 0 5.246-.51 10.831-3.38 13.878-6.6 2.031.85 3.385 1.86 4.231 3.22l.338.34 1.354-.17.169-.34c1.354-2.03 3.216-4.4 7.616-5.93 9.14-3.04 20.31-3.72 27.249-4.4 28.264-2.87 46.711-25.38 46.711-51.11-.169-18.78-8.801-35.2-23.186-41.46Zm-80.222 45.86c.508-6.94.508-25.72.508-45.69 3.892-1.02 7.954-1.86 12.016-2.54v44.34c-4.739 1.02-9.139 2.2-12.524 3.89Z"/><path d="m860.901 1697.77 1.184-.51.169-.51c2.539-7.45 8.632-23.86 14.048-34.86l.338-.68-2.538-2.37-.677.68c-.17.17-12.186 13.71-22.679 14.89-1.693.17-3.893.34-6.431.68v18.28c5.415.5 10.323 2.03 16.247 4.06l.339.34Z"/></g></g><defs><clipPath id="clip0_4_2"><path fill="#fff" d="M0 0h1452v2330H0z"/></clipPath></defs></svg>