<svg width="182" height="182" viewBox="0 0 182 182" fill="none" xmlns="http://www.w3.org/2000/svg">
<circle cx="91" cy="91" r="91" fill="#B51524"/>
<mask id="mask0_1_64" style="mask-type:alpha" maskUnits="userSpaceOnUse" x="0" y="0" width="182" height="182">
<circle cx="91" cy="91" r="91" fill="white"/>
</mask>
<g mask="url(#mask0_1_64)">
<mask id="mask1_1_64" style="mask-type:alpha" maskUnits="userSpaceOnUse" x="8" y="0" width="182" height="182">
<circle cx="99" cy="91" r="91" fill="#B51F24"/>
</mask>
<g mask="url(#mask1_1_64)">
</g>
<g clip-path="url(#clip0_1_64)">
<path d="M179.144 10.5874H4.96492V183.878H179.144V10.5874Z" fill="#B51F24"/>
<path d="M115.585 142.788C115.585 142.788 179.592 179.553 139.353 187.14L139.104 191.043C139.104 191.043 196.007 185.735 116.085 138.206L115.585 142.788Z" fill="#E9C09B"/>
<path d="M141.687 187.093C142.468 189.435 142.031 191.777 140.79 192.354C139.549 192.932 138.261 195.032 137.862 197.038C137.464 199.044 136.176 200.511 134.99 200.316C133.804 200.121 133.429 198.232 134.092 196.148C134.756 194.064 133.499 193.166 131.212 194.111L129.877 194.657C127.59 195.602 125.358 195.305 124.866 194.064C124.374 192.823 125.857 191.082 128.191 190.239L129.526 189.747C131.813 188.904 131.868 187.913 129.581 187.515C127.294 187.117 125.459 185.876 125.514 184.783C125.569 183.69 127.543 183.097 129.979 183.448L132.406 183.792C134.834 184.143 136.309 183.347 135.677 182.004C135.012 180.744 135.398 179.185 136.575 178.382C137.714 177.742 139.205 179.163 139.9 181.458L141.687 187.093Z" fill="#E9C09B"/>
<path d="M122.189 135.919C128.378 140.203 134.339 144.807 140.048 149.712L132.157 157.518L121.229 148.885L122.189 135.919Z" fill="#272826"/>
<path d="M93.3154 141.149C93.3154 141.149 9.9662 164.02 39.6825 125.225L37.0051 121.869C37.0051 121.869 -8.93918 172.473 96.2425 145.192L93.3154 141.149Z" fill="#E9C09B"/>
<path d="M95.4932 147.901C95.4932 147.901 70.2418 155.785 63.9894 154.2L63.1464 142.687L82.3484 140.704H87.7577L95.4932 147.901Z" fill="#272826"/>
<path d="M36.006 126.068C33.7267 125.124 32.2358 123.344 32.6886 122.103C33.1413 120.862 32.5871 118.575 31.4943 117.092C30.4015 115.609 30.3 113.72 31.1977 112.971C32.0953 112.221 33.6253 113.072 34.5698 114.86C35.5142 116.647 37.0051 116.194 37.895 113.915L38.3945 112.721C39.2844 110.441 40.9704 108.904 42.1647 109.302C43.359 109.7 43.4995 111.878 42.5081 114.11L41.9617 115.304C40.9704 117.537 41.6183 118.185 43.398 116.741C45.1777 115.297 47.2228 114.657 47.9643 115.351C48.7059 116.046 47.7692 117.966 45.8802 119.527L44.0459 121.088C42.2115 122.65 41.7666 124.258 43.0545 124.609C44.3339 124.893 45.1496 126.15 44.8889 127.434C44.5923 128.629 42.5472 128.871 40.2055 127.934L36.006 126.068Z" fill="#E9C09B"/>
<path d="M98.1705 193.393L85.4707 193.096L81.4039 133.211L123.672 131.728L119.855 194.384L103.385 193.439" fill="#272826"/>
<path d="M83.933 147.628C83.933 147.628 103.088 163.403 122.384 142.944L83.933 147.628Z" fill="#121212"/>
<path d="M123.804 101.91C126.24 108.311 131.103 109.598 134.623 105.087C138.143 100.575 139.088 92.1371 136.856 86.1346C134.623 80.132 129.83 78.5396 126.193 82.7079C122.556 86.8761 121.392 95.5092 123.804 101.91Z" fill="#D09F78"/>
<path d="M72.3259 71.0462C72.3259 71.0462 93.7057 58.3463 99.4663 74.2543L98.3735 76.034C98.3735 76.034 92.4646 67.9239 72.3259 71.0462Z" fill="#231F20"/>
<path d="M131.86 70.851C130.72 84.3939 131.212 105.477 133 117.685C134.787 129.893 127.247 142.741 116.28 146.215C105.313 149.689 90.6302 150.329 83.7378 147.628C76.8454 144.927 68.384 131.181 64.8871 116.99C61.3901 102.8 59.6729 81.1701 60.9842 68.9152C62.2956 56.6603 68.0562 43.4686 73.848 39.6438C79.6398 35.8191 93.9867 35.4756 105.75 38.9491C117.513 42.4227 128.667 45.4513 130.549 45.7011C132.43 45.9508 133 57.3081 131.86 70.851Z" fill="#E9C09B"/>
<path d="M96.2894 105.383C96.2894 105.383 104.376 111.784 117.365 105.383C117.373 105.383 106.804 121.955 96.2894 105.383Z" fill="#D09F78"/>
<path d="M65.332 103.448C61.8585 111.534 55.411 112.479 50.9929 105.789C46.5749 99.0998 45.7475 87.7191 48.9556 80.132C52.1638 72.5448 58.4864 71.1945 63.1464 77.3766C67.8064 83.5587 68.8055 95.3297 65.332 103.448Z" fill="#E9C09B"/>
<path d="M59.5246 99.131C59.5246 99.131 64.208 72.1389 50.2982 88.4606C50.2514 88.4606 60.5159 80.5769 59.5246 99.131Z" fill="#D09F78"/>
<path d="M59.5714 99.2325C59.5714 99.2325 59.2279 84.5422 51.4847 99.5291C51.4379 99.5291 57.6434 90.4979 59.5714 99.2325Z" fill="#D09F78"/>
<path d="M96.4377 120.363C96.4377 120.363 92.7144 134.506 99.0682 139.096C99.0682 139.096 87.8514 141.828 86.5791 140.985C86.5791 140.985 84.7916 140.205 84.5964 135.279C84.5964 135.279 84.9399 119.449 86.5791 114.789C86.5635 114.758 94.0101 120.511 96.4377 120.363Z" fill="#CA8B84"/>
<path d="M93.2139 140.158C93.2139 140.158 89.0925 126.615 84.776 129.893C84.776 129.893 83.8861 141.797 87.7577 141.149L93.2139 140.158Z" fill="#6C2E29"/>
<path d="M107.1 137.48L105.539 132.126L85.3224 139.416C85.658 140.766 86.9811 141.625 88.351 141.383L107.1 137.48Z" fill="white"/>
<path d="M91.1298 111.433C91.1298 111.433 83.5895 109.349 82.4967 118.38C83.698 114.527 87.1091 111.782 91.1298 111.433Z" fill="#A58060"/>
<path d="M118.465 120.511L119.808 125.772C119.808 125.772 100.161 136.489 85.5565 120.019L86.5635 114.844C86.5635 114.758 104.079 129.737 118.465 120.511Z" fill="white"/>
<path d="M106.632 141.297C111.495 141.797 108.373 137.184 108.373 137.184C108.373 137.184 94.1818 140.454 87.7343 141.251C81.2868 142.047 86.5635 114.844 86.5635 114.844C105.765 128.34 116.732 123.625 122.68 116.725" stroke="#A58060" stroke-width="2"/>
<path d="M85.5253 128.949L85.9702 132.617L85.1741 132.82L85.3224 133.663L88.0544 133.164L87.7577 131.923L86.7664 131.97L86.5635 129.495L85.5253 128.949Z" fill="#CA8B84"/>
<path d="M62.6 107.764C62.6 107.764 65.8237 103.791 66.1204 101.215C66.1204 101.215 66.4716 107.616 63.1932 110.293L62.6 107.764ZM101.168 92.3323C101.168 92.3323 87.2582 72.7868 76.096 94.5491C76.096 94.5491 91.6216 113.173 101.168 92.3323Z" fill="#D09F78"/>
<path d="M101.168 92.3323C101.168 92.3323 88.7959 78.6411 76.9703 94.2213C76.8922 94.2681 87.2582 103.744 101.168 92.3323Z" fill="white"/>
<path d="M84.2842 93.6749C83.6215 91.3776 84.8892 88.9672 87.1567 88.2109C88.2222 87.9143 89.361 88.0532 90.3235 88.598C91.2859 89.1429 91.9916 90.0483 92.2851 91.1146C92.289 91.1536 92.289 91.1926 92.2851 91.2317C92.9478 93.5289 91.6801 95.9393 89.4126 96.6957C87.1942 97.2842 84.9157 95.9791 84.2998 93.7685C84.2998 93.7685 84.292 93.6983 84.2842 93.6749Z" fill="#096D7A"/>
<path d="M86.6103 92.988C86.341 92.0161 86.8898 91.0045 87.8514 90.7009C88.7717 90.4339 89.7342 90.9608 90.0058 91.8795C90.0097 91.9186 90.0097 91.9576 90.0058 91.9966C90.2751 92.9669 89.7256 93.9754 88.7647 94.2759C88.3229 94.4063 87.8467 94.3555 87.4424 94.1338C87.0381 93.9129 86.7391 93.5398 86.6103 93.0972C86.6134 93.0606 86.6134 93.0246 86.6103 92.988Z" fill="black"/>
<path d="M85.619 91.739C85.4769 91.1872 85.793 90.6205 86.3371 90.4511C86.5838 90.3793 86.8484 90.4105 87.0716 90.537C87.2949 90.6634 87.458 90.8742 87.5236 91.1224C87.6719 91.668 87.3667 92.2347 86.8289 92.4103C86.5962 92.4868 86.3426 92.4665 86.124 92.3557C85.9054 92.2441 85.7407 92.0505 85.6658 91.8171C85.6479 91.7929 85.6322 91.7664 85.619 91.739Z" fill="white"/>
<path d="M129.268 90.3965C129.268 90.3965 117.56 73.8796 108.045 92.2854C108.045 92.2854 121.143 107.959 129.268 90.3965Z" fill="#D09F78"/>
<path d="M129.268 90.3965C129.268 90.3965 118.793 78.7894 108.724 91.9576C108.739 91.9888 117.474 100.013 129.268 90.3965Z" fill="white"/>
<path d="M72.1776 85.8848L70.6164 81.9117C70.6164 81.9117 84.4559 67.9239 98.7169 80.9204L98.1705 81.5214C98.1705 81.5682 81.7552 74.2543 72.1776 85.8848ZM130.673 83.6211L132.157 79.4997C132.157 79.4997 118.887 68.5718 107.553 81.2404L107.701 81.7322C107.701 81.7322 121.346 74.3714 130.673 83.6211Z" fill="#3B2416"/>
<path d="M113.657 91.6376C113.125 89.7494 114.18 87.7784 116.046 87.1727C116.935 86.9323 117.883 87.0548 118.682 87.5154C119.479 87.9751 120.062 88.7339 120.3 89.6237C120.832 91.5096 119.781 93.4797 117.919 94.0886C117.062 94.3485 116.137 94.2564 115.348 93.8333C114.558 93.4102 113.969 92.6906 113.712 91.8327C113.657 91.7937 113.657 91.7156 113.657 91.6376Z" fill="#096D7A"/>
<path d="M115.538 91.0912C115.324 90.3012 115.757 89.4801 116.53 89.21C116.889 89.1007 117.277 89.139 117.608 89.3162C117.938 89.4934 118.185 89.7947 118.294 90.1545V90.2482C118.512 91.0404 118.078 91.8663 117.302 92.1371C116.93 92.2371 116.533 92.1848 116.199 91.9912C115.864 91.7984 115.622 91.4799 115.523 91.1068L115.538 91.0912Z" fill="black"/>
<path d="M114.695 90.053C114.598 89.6175 114.829 89.1757 115.242 89.0071C115.447 88.9454 115.668 88.9704 115.854 89.0765C116.04 89.1827 116.174 89.3607 116.225 89.5691C116.326 90.0031 116.093 90.4449 115.679 90.6072C115.475 90.6689 115.254 90.6455 115.068 90.5401C114.883 90.4355 114.747 90.2599 114.695 90.053Z" fill="white"/>
<path d="M62.6 107.764L65.1837 107.319L66.3233 60.727L129.549 51.7036L131.111 78.5396C131.111 78.5396 132.211 43.7652 143.319 22.8772C143.319 22.8772 130.275 32.5485 120.354 37.6144L112.564 20.395L107.748 29.2232L101.051 23.7593L95.7898 29.6135C95.7898 29.6135 88.2027 24.3603 74.4568 27.8885C74.4568 27.8885 77.1888 30.1677 78.6797 31.1591C78.6797 31.1591 57.94 33.048 52.5307 44.1087C52.5307 44.1087 55.5593 41.283 58.5332 41.283C58.5332 41.283 50.4465 60.5787 56.4491 70.0548C56.4491 70.0548 59.7743 73.825 59.7743 77.3531L62.6 107.764Z" fill="#3B2416"/>
<path d="M66.6668 67.7287L129.581 51.7036L66.3233 60.727L66.6668 68.2751" fill="#D09F78" fill-opacity="0.55"/>
<mask id="mask2_1_64" style="mask-type:luminance" maskUnits="userSpaceOnUse" x="94" y="160" width="18" height="23">
<path d="M111.704 160.228H94.5529V182.724H111.704V160.228Z" fill="white"/>
</mask>
<g mask="url(#mask2_1_64)">
<path d="M109.041 170.389C109.648 169.547 110.02 168.588 110.02 167.59C110.02 165.593 107.827 163.987 105.713 163.987C103.598 163.987 102.267 164.947 100.485 165.475C100.896 165.945 101.053 166.454 101.131 167.178C101.151 167.276 101.151 167.531 101.151 167.922C101.347 167.903 101.542 167.864 101.777 167.844C102.541 167.746 103.265 167.648 103.5 167.59C103.618 167.57 103.716 167.531 103.814 167.492V166.317C104.264 166.082 104.792 165.925 105.36 165.925C106.515 165.925 107.69 166.846 107.69 168.079C107.69 169.919 106.496 171.799 104.499 172.641V173.091C105.713 172.935 106.927 172.386 107.886 171.584C108.826 172.347 109.158 173.581 109.158 175.186C109.158 176.889 108.16 178.632 106.457 179.063C105.615 179.258 104.499 179.395 103.657 179.454C103.696 179.317 103.735 179.2 103.755 179.004C103.814 176.752 103.814 174.755 103.794 171.877C103.794 171.29 103.794 170.468 103.774 169.782H103.814C104.401 169.782 104.91 169.939 105.145 170.35L105.341 170.311C105.302 169.45 105.576 167.727 105.908 166.983L105.732 166.885C105.164 167.609 104.479 168.079 103.598 168.275C103.109 168.373 101.249 168.588 99.7413 168.823V168.588C99.7217 166.748 99.7217 165.005 99.7413 164.124C101.523 163.008 104.792 162.793 106.77 163.282C107.083 162.499 108.375 161.05 109.198 160.678C108.062 160.111 106.457 160.13 105.223 160.483C103.539 161.05 100.466 162.029 98.5078 162.029C97.6659 162.088 96.4521 161.794 96.2563 161.677C96.2563 161.677 96.0409 161.912 95.9626 162.01C96.4521 162.44 97.0198 163.184 97.0786 163.87C97.1569 164.614 97.196 174.814 97.059 176.439C97.0198 177.046 96.8436 177.673 96.6087 177.79C96.5108 177.34 96.1388 177.085 95.6102 177.144C95.0424 177.203 94.553 177.79 94.553 178.397C94.553 178.886 94.9641 179.356 95.4927 179.435C95.6298 179.454 95.7668 179.454 95.9234 179.435C96.5304 179.376 97.1765 179.043 97.5289 178.671C97.7638 178.769 97.9205 178.886 98.0183 179.043L98.0575 179.082L98.2141 179.063L98.2337 179.023C98.9385 178.299 99.9958 177.692 101.19 177.34C101.17 178.475 101.151 179.356 101.112 179.728C101.073 180.335 100.896 180.962 100.661 181.079C100.564 180.629 100.192 180.374 99.6629 180.433C99.1147 180.492 98.6253 181.079 98.6057 181.667C98.6057 182.156 99.0168 182.626 99.5455 182.704C99.6825 182.724 99.8196 182.724 99.9762 182.704C100.583 182.645 101.229 182.313 101.582 181.941C101.817 182.039 101.973 182.156 102.071 182.313L102.11 182.352L102.267 182.332L102.286 182.293C102.443 182.058 102.658 181.784 103.167 181.608C104.225 181.255 105.517 181.177 106.32 181.099C109.589 180.766 111.723 178.162 111.723 175.186C111.704 173.013 110.705 171.114 109.041 170.389ZM99.7608 175.695C99.8196 174.892 99.8196 172.719 99.8196 170.409C100.27 170.291 100.74 170.194 101.21 170.115V175.245C100.661 175.362 100.152 175.499 99.7608 175.695Z" fill="white"/>
<path d="M106.457 177.437L106.594 177.379L106.613 177.32C106.907 176.458 107.612 174.559 108.238 173.287L108.277 173.208L107.984 172.934L107.905 173.013C107.886 173.032 106.496 174.599 105.282 174.736C105.086 174.755 104.832 174.775 104.538 174.814V176.928C105.164 176.987 105.732 177.163 106.418 177.398L106.457 177.437Z" fill="white"/>
</g>
</g>
</g>
<defs>
<clipPath id="clip0_1_64">
<rect width="166" height="166" fill="white" transform="translate(10 15)"/>
</clipPath>
</defs>
</svg>
