<?xml version="1.0" encoding="UTF-8" standalone="no"?>
<svg
   xmlns:dc="http://purl.org/dc/elements/1.1/"
   xmlns:cc="http://web.resource.org/cc/"
   xmlns:rdf="http://www.w3.org/1999/02/22-rdf-syntax-ns#"
   xmlns:svg="http://www.w3.org/2000/svg"
   xmlns="http://www.w3.org/2000/svg"
   xmlns:sodipodi="http://sodipodi.sourceforge.net/DTD/sodipodi-0.dtd"
   xmlns:inkscape="http://www.inkscape.org/namespaces/inkscape"
   xml:space="preserve"
   width="267.97653"
   height="66.235352"
   style="shape-rendering:geometricPrecision; text-rendering:geometricPrecision; image-rendering:optimizeQuality; fill-rule:evenodd; clip-rule:evenodd"
   viewBox="0 0 297 210"
   id="svg2"
   sodipodi:version="0.32"
   inkscape:version="0.45.1"
   sodipodi:docname="ltvrdik_Barbed_wire.svg"
   sodipodi:docbase="/Users/johnolsen/Desktop"
   inkscape:output_extension="org.inkscape.output.svg.inkscape"
   version="1.0"><metadata
   id="metadata83"><rdf:RDF><cc:Work
       rdf:about=""><dc:format>image/svg+xml</dc:format><dc:type
         rdf:resource="http://purl.org/dc/dcmitype/StillImage" /></cc:Work></rdf:RDF></metadata><sodipodi:namedview
   inkscape:window-height="860"
   inkscape:window-width="970"
   inkscape:pageshadow="2"
   inkscape:pageopacity="0.0"
   guidetolerance="10.0"
   gridtolerance="10.0"
   objecttolerance="10.0"
   borderopacity="1.0"
   bordercolor="#666666"
   pagecolor="#ffffff"
   id="base"
   inkscape:zoom="1.0042473"
   inkscape:cx="449.09256"
   inkscape:cy="111.00153"
   inkscape:window-x="0"
   inkscape:window-y="22"
   inkscape:current-layer="svg2" />
 <defs
   id="defs4">
  <style
   type="text/css"
   id="style6">
   
    .str0 {stroke:#1F1A17;stroke-width:2.8222}
    .str1 {stroke:#1F1A17;stroke-width:2.8222;stroke-linecap:round}
    .fil0 {fill:none}
    .fil1 {fill:#1F1A17;fill-rule:nonzero}
   
  </style>
 </defs>
 <g
   id="Layer_x0020_1"
   transform="matrix(3.3041112,0,0,3.3041112,-330.14121,-211.85669)">
  <metadata
   id="CorelCorpID_0Corel-Layer" />
  <path
   class="fil0 str0"
   d="M 19.0479,85.1499 C 31.6296,85.7222 46.5136,93.584 61.2134,91.8922 C 67.9468,91.1172 75.5523,88.9596 82.0343,88.9596 C 90.595,88.9596 96.0813,95.3704 103.4479,95.3704"
   id="path10"
   style="fill:none;stroke:#1f1a17;stroke-width:2.82220006" />
  <path
   class="fil0 str0"
   d="M 19.3529,90.6274 C 20.5611,87.4246 50.8968,83.76 62.0039,90.4693 C 71.8949,96.444 90.9673,89.5757 103.4479,92.3665"
   id="path12"
   style="fill:none;stroke:#1f1a17;stroke-width:2.82220006" />
  <g
   id="g14">
   <path
   class="fil1"
   d="M 55.8262,76.7068 L 53.004,76.7068 L 53.004,66.8291 L 53.5402,70.1311 L 54.0595,64.7124 L 54.4151,72.8291 L 55.1207,66.1235 L 55.273,71.0793 L 55.8262,66.8291 L 55.8262,76.7068 L 55.8262,76.7068 z M 56.7417,82.7409 L 53.9857,83.3363 L 53.9857,83.3363 L 53.9038,82.9325 L 53.8213,82.53 L 53.749,82.1286 L 53.6756,81.7338 L 53.6122,81.3344 L 53.5476,80.9358 L 53.4925,80.5434 L 53.4414,80.1461 L 53.3887,79.7548 L 53.345,79.3637 L 53.3049,78.9674 L 53.2682,78.5768 L 53.2292,78.1862 L 53.1988,77.7953 L 53.1713,77.4044 L 53.1465,77.0131 L 53.1244,76.6213 L 53.1048,76.2344 L 53.0876,75.8414 L 53.0725,75.4531 L 53.0595,75.064 L 53.0484,74.6682 L 53.039,74.2769 L 53.0312,73.8842 L 53.0249,73.4902 L 53.02,73.0948 L 53.0162,72.7033 L 53.0134,72.3046 L 53.0115,71.9095 L 53.0103,71.507 L 53.0097,71.108 L 53.004,70.7068 L 55.8262,70.7068 L 55.8209,71.108 L 55.8215,71.507 L 55.8227,71.8985 L 55.8246,72.2936 L 55.8274,72.6813 L 55.8312,73.0728 L 55.8361,73.4572 L 55.8424,73.8402 L 55.8502,74.2217 L 55.8596,74.602 L 55.8707,74.9758 L 55.8837,75.3539 L 55.8988,75.7312 L 55.916,76.1022 L 55.9356,76.4779 L 55.9577,76.8477 L 55.9825,77.217 L 56.01,77.5859 L 56.0404,77.9546 L 56.0684,78.3232 L 56.1051,78.6918 L 56.1452,79.0551 L 56.1889,79.424 L 56.2306,79.7933 L 56.2817,80.1576 L 56.3368,80.528 L 56.3904,80.8934 L 56.4538,81.2598 L 56.516,81.6326 L 56.5883,82.0008 L 56.6598,82.3703 L 56.7417,82.7409 L 56.7417,82.7409 L 56.7417,82.7409 z M 60.698,94.5123 L 58.2506,95.9123 L 58.0887,95.6167 L 57.9253,95.3083 L 57.7665,94.9828 L 57.6069,94.6469 L 57.4522,94.3016 L 57.2916,93.9367 L 57.1364,93.5645 L 56.9813,93.186 L 56.8267,92.7911 L 56.6726,92.3922 L 56.5195,91.9845 L 56.3674,91.5692 L 56.2221,91.1474 L 56.0729,90.7202 L 55.9311,90.2885 L 55.7857,89.8589 L 55.6482,89.4214 L 55.5077,88.9882 L 55.3755,88.5493 L 55.2408,88.1167 L 55.1148,87.6861 L 54.9869,87.2527 L 54.8682,86.829 L 54.7535,86.4048 L 54.6375,85.9923 L 54.5314,85.5813 L 54.4246,85.1842 L 54.3282,84.7906 L 54.2369,84.4131 L 54.1456,84.0414 L 54.0655,83.6821 L 53.9857,83.3363 L 56.7417,82.7409 L 56.8105,83.0647 L 56.8906,83.402 L 56.9709,83.7517 L 57.0622,84.1182 L 57.1586,84.4896 L 57.2544,84.8757 L 57.3605,85.2647 L 57.4655,85.6662 L 57.5802,86.0684 L 57.6989,86.4811 L 57.8158,86.8923 L 57.9418,87.3119 L 58.0655,87.7335 L 58.1977,88.1504 L 58.327,88.5726 L 58.4645,88.9879 L 58.5989,89.4065 L 58.7407,89.8162 L 58.8789,90.2214 L 59.0242,90.6212 L 59.1653,91.0143 L 59.3074,91.4 L 59.4505,91.7769 L 59.5941,92.1386 L 59.7382,92.4951 L 59.8822,92.8343 L 60.0208,93.155 L 60.1645,93.4673 L 60.3021,93.7592 L 60.4389,94.0295 L 60.5691,94.2827 L 60.698,94.5123 L 60.698,94.5123 z "
   id="path16"
   style="fill:#1f1a17;fill-rule:nonzero" />
  </g>
  <path
   class="fil0 str1"
   d="M 59.3162,82.8805 C 59.0935,83.8458 59.0556,85.0763 59,86.0425 C 58.8877,87.9908 58.6949,89.5037 58.8419,91.4179 C 58.8709,91.7955 59.2836,94.958 59.4743,95.2123"
   id="path18"
   style="fill:none;stroke:#1f1a17;stroke-width:2.82220006;stroke-linecap:round" />
  <path
   class="fil0 str1"
   d="M 64.6916,83.9872 C 64.6916,86.109 65.324,88.0021 65.324,90.1531 C 65.324,92.1552 65.9564,94.0299 65.9564,95.8447"
   id="path20"
   style="fill:none;stroke:#1f1a17;stroke-width:2.82220006;stroke-linecap:round" />
  <path
   class="fil0 str1"
   d="M 68.486,85.0939 C 68.486,86.9204 68.6441,88.6283 68.6441,90.4693 C 68.6441,92.0475 69.191,94.1619 69.191,95.6296"
   id="path22"
   style="fill:none;stroke:#1f1a17;stroke-width:2.82220006;stroke-linecap:round" />
  <g
   id="g24">
   <path
   class="fil1"
   d="M 73.8441,98.1115 L 71.0329,98.3209 L 71.0329,98.3209 L 71.0043,98.0367 L 70.9662,97.7413 L 70.9086,97.4296 L 70.8432,97.1131 L 70.7656,96.7865 L 70.6711,96.4502 L 70.5718,96.1103 L 70.4577,95.7559 L 70.3404,95.3983 L 70.2101,95.0382 L 70.073,94.6701 L 69.9303,94.2946 L 69.7827,93.9174 L 69.6258,93.5392 L 69.4714,93.1544 L 69.3094,92.7692 L 69.1465,92.3783 L 68.9833,91.9876 L 68.8209,91.5975 L 68.6602,91.2029 L 68.4966,90.804 L 68.3366,90.4123 L 68.1866,90.0116 L 68.0365,89.6189 L 67.8872,89.2234 L 67.7507,88.8255 L 67.6224,88.4256 L 67.4976,88.0296 L 67.383,87.6323 L 67.2848,87.2395 L 67.1931,86.8407 L 67.1141,86.4472 L 69.8923,85.9622 L 69.9491,86.2675 L 70.0188,86.5781 L 70.106,86.9047 L 70.1986,87.2358 L 70.3012,87.5768 L 70.4185,87.9215 L 70.544,88.2754 L 70.6713,88.6377 L 70.8104,89.0084 L 70.9604,89.3761 L 71.1094,89.7566 L 71.262,90.1335 L 71.4227,90.5171 L 71.5851,90.9072 L 71.7483,91.2979 L 71.9112,91.6888 L 72.0732,92.085 L 72.2386,92.4808 L 72.3955,92.8812 L 72.5541,93.2804 L 72.7078,93.6779 L 72.8559,94.079 L 72.9972,94.4833 L 73.1365,94.8849 L 73.2618,95.2835 L 73.3831,95.6896 L 73.4886,96.0919 L 73.5882,96.4957 L 73.6756,96.9004 L 73.7444,97.3003 L 73.8045,97.7059 L 73.8441,98.1115 L 73.8441,98.1115 L 73.8441,98.1115 z M 74.9398,107.1876 L 72.1506,107.5844 L 72.1105,107.3034 L 72.0703,107.0216 L 72.0301,106.7389 L 71.9899,106.4501 L 71.9498,106.166 L 71.9098,105.8813 L 71.8699,105.596 L 71.8302,105.3101 L 71.7907,105.0182 L 71.7516,104.7314 L 71.7127,104.4442 L 71.6741,104.1511 L 71.636,103.8632 L 71.5983,103.5695 L 71.5611,103.2812 L 71.5244,102.9926 L 71.4828,102.6984 L 71.4473,102.4042 L 71.4125,102.1155 L 71.3783,101.8212 L 71.3449,101.5326 L 71.3123,101.2385 L 71.2805,100.9446 L 71.2495,100.651 L 71.2195,100.3631 L 71.1904,100.07 L 71.1624,99.7773 L 71.1353,99.485 L 71.1094,99.1932 L 71.079,98.9019 L 71.0554,98.6111 L 71.0329,98.3209 L 73.8441,98.1115 L 73.8666,98.3907 L 73.8902,98.6703 L 73.9096,98.9506 L 73.9355,99.2314 L 73.9626,99.5127 L 73.9906,99.7944 L 74.0197,100.0765 L 74.0497,100.3644 L 74.0807,100.647 L 74.1125,100.9299 L 74.1451,101.2128 L 74.1785,101.5014 L 74.2127,101.7847 L 74.2475,102.0734 L 74.283,102.3566 L 74.3136,102.6398 L 74.3503,102.9284 L 74.3875,103.2167 L 74.4252,103.4994 L 74.4633,103.7873 L 74.5019,104.0694 L 74.5408,104.3566 L 74.5799,104.6434 L 74.6194,104.9243 L 74.6591,105.2102 L 74.699,105.4955 L 74.739,105.7802 L 74.7791,106.0643 L 74.8193,106.3421 L 74.8595,106.6248 L 74.8997,106.9066 L 74.9398,107.1876 L 74.9398,107.1876 z M 74.0933,101.2575 L 75.4868,111.0191 L 74.3405,106.8968 L 74.889,111.8158 L 73.2458,105.2887 L 74.0394,113.3601 L 72.7618,108.0784 L 72.6977,111.4172 L 71.3042,101.6556 L 74.0933,101.2575 L 74.0933,101.2575 z "
   id="path26"
   style="fill:#1f1a17;fill-rule:nonzero" />
  </g>
  <g
   id="g28">
   <path
   class="fil1"
   d="M 50.082,96.9517 L 52.2565,98.7344 L 46.0172,106.3451 L 47.6897,103.4622 L 43.8669,107.3092 L 48.7199,100.8308 L 43.9406,105.5517 L 46.9536,101.637 L 43.8427,104.5624 L 50.082,96.9517 L 50.082,96.9517 z M 51.3321,95.1373 L 53.7465,96.5815 L 53.7465,96.5815 L 53.5433,96.9199 L 53.3501,97.2315 L 53.1662,97.5288 L 52.9906,97.8075 L 52.8227,98.069 L 52.6562,98.3145 L 52.4958,98.5455 L 52.3463,98.769 L 52.196,98.9805 L 52.0495,99.176 L 51.9061,99.3679 L 51.765,99.552 L 51.6256,99.7241 L 51.4869,99.8967 L 51.3484,100.0599 L 51.2091,100.2207 L 51.0739,100.3749 L 50.9365,100.535 L 50.7961,100.6911 L 50.652,100.8447 L 50.5089,101.0026 L 50.3605,101.1661 L 50.2117,101.3366 L 50.0505,101.51 L 49.8874,101.6986 L 49.7104,101.8926 L 49.5299,102.0991 L 49.3396,102.3194 L 49.1387,102.5492 L 48.9266,102.8009 L 48.7023,103.0704 L 48.4652,103.359 L 46.2934,101.573 L 46.5415,101.2734 L 46.7768,100.9929 L 47.0001,100.7302 L 47.212,100.4784 L 47.4133,100.2471 L 47.6048,100.0296 L 47.7818,99.8244 L 47.9559,99.6358 L 48.1171,99.4514 L 48.2769,99.2809 L 48.4253,99.1174 L 48.5684,98.9595 L 48.7015,98.8059 L 48.8309,98.6608 L 48.9573,98.5229 L 49.0815,98.3797 L 49.1986,98.2409 L 49.3151,98.0997 L 49.4318,97.9603 L 49.5492,97.8102 L 49.6681,97.6591 L 49.7895,97.5004 L 49.914,97.3269 L 50.0423,97.1484 L 50.1808,96.9581 L 50.319,96.7491 L 50.4635,96.5256 L 50.6204,96.2861 L 50.785,96.0296 L 50.9579,95.7543 L 51.1401,95.4537 L 51.3321,95.1373 L 51.3321,95.1373 z M 54.6045,85.1841 L 57.3385,85.8677 L 57.2946,86.0469 L 57.2373,86.2535 L 57.178,86.4857 L 57.1115,86.7418 L 57.0382,87.0146 L 56.9531,87.3131 L 56.8675,87.6301 L 56.7763,87.9584 L 56.6798,88.3072 L 56.5785,88.6691 L 56.4672,89.0426 L 56.3573,89.4201 L 56.2437,89.8109 L 56.1268,90.2078 L 56.0014,90.609 L 55.879,91.0127 L 55.7544,91.4172 L 55.6225,91.8261 L 55.4947,92.2267 L 55.3603,92.6227 L 55.2309,93.0177 L 55.0956,93.4046 L 54.9605,93.7815 L 54.8314,94.1468 L 54.6976,94.504 L 54.5597,94.8459 L 54.4288,95.1763 L 54.2944,95.4878 L 54.1625,95.7843 L 54.0279,96.0638 L 53.8909,96.3301 L 53.7465,96.5815 L 51.3321,95.1373 L 51.4105,94.9961 L 51.5033,94.818 L 51.6049,94.6047 L 51.7148,94.3634 L 51.827,94.0959 L 51.9469,93.8097 L 52.0628,93.5008 L 52.1856,93.1766 L 52.3147,92.8335 L 52.4388,92.4786 L 52.5631,92.1137 L 52.6925,91.7407 L 52.8159,91.3557 L 52.9437,90.9663 L 53.0644,90.5794 L 53.189,90.1859 L 53.3114,89.7932 L 53.4258,89.403 L 53.5427,89.0171 L 53.6563,88.6373 L 53.7662,88.2598 L 53.8665,87.8975 L 53.9678,87.5466 L 54.0643,87.2088 L 54.1555,86.8805 L 54.2411,86.5745 L 54.3152,86.287 L 54.3885,86.0142 L 54.455,85.7691 L 54.5143,85.5479 L 54.5606,85.3523 L 54.6045,85.1841 L 54.6045,85.1841 z "
   id="path30"
   style="fill:#1f1a17;fill-rule:nonzero" />
  </g>
  <path
   class="fil0 str1"
   d="M 62.0256,83.4893 C 61.8244,84.4284 61.7822,87.4211 62.0478,88.3778 C 62.5107,90.0454 62.0046,90.6794 62.4621,92.3273 C 62.9233,93.9885 62.4451,93.8584 63.0101,95.6733"
   id="path32"
   style="fill:none;stroke:#1f1a17;stroke-width:2.82220006;stroke-linecap:round" />
  <path
   class="fil0 str0"
   d="M 102.294,92.1385 C 114.4182,91.3383 129.1304,100.2245 143.83,98.5328 C 150.5633,97.758 158.1689,95.6002 164.6509,95.6002 C 173.2116,95.6002 178.6095,101.0764 185.6686,102.7968"
   id="path34"
   style="fill:none;stroke:#1f1a17;stroke-width:2.82220006" />
  <path
   class="fil0 str0"
   d="M 100.959,95.1328 C 104.0915,97.1517 133.1553,89.7666 144.6203,97.1099 C 154.3507,103.3422 175.3944,98.397 187.5704,99.453"
   id="path36"
   style="fill:none;stroke:#1f1a17;stroke-width:2.82220006" />
  <g
   id="g38">
   <path
   class="fil1"
   d="M 138.443,83.3474 L 135.6208,83.3474 L 135.6208,73.4697 L 136.157,76.7717 L 136.6763,71.353 L 137.0319,79.4697 L 137.7375,72.7641 L 137.8898,77.7199 L 138.443,73.4697 L 138.443,83.3474 L 138.443,83.3474 z M 139.3585,89.3815 L 136.6025,89.9769 L 136.6025,89.9769 L 136.5206,89.5731 L 136.4381,89.1706 L 136.3658,88.7692 L 136.2924,88.3744 L 136.229,87.975 L 136.1644,87.5764 L 136.1093,87.184 L 136.0582,86.7867 L 136.0055,86.3954 L 135.9618,86.0043 L 135.9217,85.608 L 135.885,85.2174 L 135.846,84.8268 L 135.8156,84.4359 L 135.7881,84.045 L 135.7633,83.6537 L 135.7412,83.2619 L 135.7216,82.875 L 135.7044,82.482 L 135.6893,82.0937 L 135.6763,81.7046 L 135.6652,81.3088 L 135.6558,80.9175 L 135.648,80.5248 L 135.6417,80.1308 L 135.6368,79.7354 L 135.633,79.3439 L 135.6302,78.9452 L 135.6283,78.5501 L 135.6271,78.1476 L 135.6265,77.7486 L 135.6208,77.3474 L 138.443,77.3474 L 138.4377,77.7486 L 138.4383,78.1476 L 138.4395,78.5391 L 138.4414,78.9342 L 138.4442,79.3219 L 138.448,79.7134 L 138.4529,80.0978 L 138.4592,80.4808 L 138.467,80.8623 L 138.4764,81.2426 L 138.4875,81.6164 L 138.5005,81.9945 L 138.5156,82.3718 L 138.5328,82.7428 L 138.5524,83.1185 L 138.5745,83.4883 L 138.5993,83.8576 L 138.6268,84.2265 L 138.6572,84.5952 L 138.6852,84.9638 L 138.7219,85.3324 L 138.762,85.6957 L 138.8057,86.0646 L 138.8474,86.4339 L 138.8985,86.7982 L 138.9536,87.1686 L 139.0072,87.534 L 139.0706,87.9004 L 139.1328,88.2732 L 139.2051,88.6414 L 139.2766,89.0109 L 139.3585,89.3815 L 139.3585,89.3815 L 139.3585,89.3815 z M 143.3148,101.1529 L 140.8674,102.5529 L 140.7055,102.2573 L 140.5421,101.9489 L 140.3833,101.6234 L 140.2237,101.2875 L 140.069,100.9422 L 139.9084,100.5773 L 139.7532,100.2051 L 139.5981,99.8266 L 139.4435,99.4317 L 139.2894,99.0328 L 139.1363,98.6251 L 138.9842,98.2098 L 138.8389,97.788 L 138.6897,97.3608 L 138.5479,96.9291 L 138.4025,96.4995 L 138.265,96.062 L 138.1245,95.6288 L 137.9923,95.1899 L 137.8576,94.7573 L 137.7316,94.3267 L 137.6037,93.8933 L 137.485,93.4696 L 137.3703,93.0454 L 137.2543,92.6329 L 137.1482,92.2219 L 137.0414,91.8248 L 136.945,91.4312 L 136.8537,91.0537 L 136.7624,90.682 L 136.6823,90.3227 L 136.6025,89.9769 L 139.3585,89.3815 L 139.4273,89.7053 L 139.5074,90.0426 L 139.5877,90.3923 L 139.679,90.7588 L 139.7754,91.1302 L 139.8712,91.5163 L 139.9773,91.9053 L 140.0823,92.3068 L 140.197,92.709 L 140.3157,93.1217 L 140.4326,93.5329 L 140.5586,93.9525 L 140.6823,94.3741 L 140.8145,94.791 L 140.9438,95.2132 L 141.0813,95.6285 L 141.2157,96.0471 L 141.3575,96.4568 L 141.4957,96.862 L 141.641,97.2618 L 141.7821,97.6549 L 141.9242,98.0406 L 142.0673,98.4175 L 142.2109,98.7792 L 142.355,99.1357 L 142.499,99.4749 L 142.6376,99.7956 L 142.7813,100.1079 L 142.9189,100.3998 L 143.0557,100.6701 L 143.1859,100.9233 L 143.3148,101.1529 L 143.3148,101.1529 z "
   id="path40"
   style="fill:#1f1a17;fill-rule:nonzero" />
  </g>
  <path
   class="fil0 str1"
   d="M 141.933,89.5211 C 141.7103,90.4864 141.6724,91.7169 141.6168,92.6831 C 141.5045,94.6314 141.3117,96.1443 141.4587,98.0585 C 141.4877,98.4361 141.9004,101.5986 142.0911,101.8529"
   id="path42"
   style="fill:none;stroke:#1f1a17;stroke-width:2.82220006;stroke-linecap:round" />
  <path
   class="fil0 str1"
   d="M 147.308,90.6278 C 147.308,92.7496 147.9404,94.6427 147.9404,96.7937 C 147.9404,98.7958 148.5728,100.6705 148.5728,102.4853"
   id="path44"
   style="fill:none;stroke:#1f1a17;stroke-width:2.82220006;stroke-linecap:round" />
  <path
   class="fil0 str1"
   d="M 151.102,91.7345 C 151.102,93.561 151.2601,95.2689 151.2601,97.1099 C 151.2601,98.6881 151.807,100.8025 151.807,102.2702"
   id="path46"
   style="fill:none;stroke:#1f1a17;stroke-width:2.82220006;stroke-linecap:round" />
  <g
   id="g48">
   <path
   class="fil1"
   d="M 156.46,104.752 L 153.6488,104.9614 L 153.6488,104.9614 L 153.6202,104.6772 L 153.5821,104.3818 L 153.5245,104.0701 L 153.4591,103.7536 L 153.3815,103.427 L 153.287,103.0907 L 153.1877,102.7508 L 153.0736,102.3964 L 152.9563,102.0388 L 152.826,101.6787 L 152.6889,101.3106 L 152.5462,100.9351 L 152.3986,100.5579 L 152.2417,100.1797 L 152.0873,99.7949 L 151.9254,99.4097 L 151.7624,99.0188 L 151.5992,98.6281 L 151.4368,98.238 L 151.2761,97.8434 L 151.1125,97.4445 L 150.9525,97.0528 L 150.8025,96.6521 L 150.6524,96.2594 L 150.5031,95.8639 L 150.3666,95.466 L 150.2383,95.0661 L 150.1135,94.6701 L 149.9989,94.2728 L 149.9007,93.88 L 149.809,93.4812 L 149.73,93.0877 L 152.5082,92.6027 L 152.565,92.908 L 152.6347,93.2186 L 152.7219,93.5452 L 152.8145,93.8763 L 152.9171,94.2173 L 153.0344,94.562 L 153.1599,94.9159 L 153.2872,95.2782 L 153.4263,95.6489 L 153.5763,96.0166 L 153.7253,96.3971 L 153.8779,96.774 L 154.0386,97.1576 L 154.201,97.5477 L 154.3642,97.9384 L 154.5272,98.3293 L 154.6891,98.7255 L 154.8545,99.1213 L 155.0114,99.5217 L 155.17,99.9209 L 155.3237,100.3184 L 155.4718,100.7195 L 155.6131,101.1238 L 155.7524,101.5254 L 155.8777,101.924 L 155.999,102.3301 L 156.1045,102.7324 L 156.2041,103.1362 L 156.2915,103.5409 L 156.3603,103.9408 L 156.4204,104.3464 L 156.46,104.752 L 156.46,104.752 L 156.46,104.752 z M 157.5557,113.8281 L 154.7665,114.2249 L 154.7264,113.9439 L 154.6862,113.6621 L 154.646,113.3739 L 154.6059,113.0906 L 154.5657,112.8065 L 154.5257,112.5218 L 154.4858,112.2365 L 154.4461,111.9506 L 154.4066,111.6587 L 154.3675,111.3719 L 154.3286,111.0847 L 154.29,110.7916 L 154.2519,110.5037 L 154.2142,110.21 L 154.177,109.9217 L 154.1403,109.6331 L 154.0987,109.3389 L 154.0632,109.0447 L 154.0284,108.756 L 153.9942,108.4617 L 153.9608,108.1731 L 153.9282,107.879 L 153.8964,107.5851 L 153.8654,107.2915 L 153.8354,107.0036 L 153.8063,106.7105 L 153.7783,106.4178 L 153.7512,106.1255 L 153.7253,105.8337 L 153.6949,105.5424 L 153.6713,105.2516 L 153.6488,104.9614 L 156.46,104.752 L 156.4825,105.0312 L 156.5061,105.3108 L 156.5255,105.5911 L 156.5514,105.8719 L 156.5785,106.1532 L 156.6065,106.4349 L 156.6356,106.717 L 156.6656,107.0049 L 156.6966,107.2875 L 156.7284,107.5704 L 156.761,107.8533 L 156.7944,108.1419 L 156.8286,108.4252 L 156.8634,108.7139 L 156.8989,108.9971 L 156.9295,109.2803 L 156.9662,109.5689 L 157.0034,109.8572 L 157.0411,110.1399 L 157.0792,110.4278 L 157.1178,110.7099 L 157.1567,110.9971 L 157.1958,111.2839 L 157.2353,111.5648 L 157.275,111.8507 L 157.3149,112.136 L 157.3549,112.4207 L 157.3951,112.7048 L 157.4352,112.9881 L 157.4754,113.2653 L 157.5156,113.5471 L 157.5557,113.8281 L 157.5557,113.8281 z M 156.7092,107.898 L 158.1027,117.6596 L 156.9564,113.5373 L 157.5049,118.4563 L 155.8617,111.9292 L 156.6553,120.0006 L 155.3777,114.7189 L 155.3136,118.0577 L 153.9201,108.2961 L 156.7092,107.898 L 156.7092,107.898 z "
   id="path50"
   style="fill:#1f1a17;fill-rule:nonzero" />
  </g>
  <g
   id="g52">
   <path
   class="fil1"
   d="M 132.698,103.592 L 134.8725,105.3747 L 128.6332,112.9854 L 130.3057,110.1025 L 126.4829,113.9495 L 131.3359,107.4711 L 126.5566,112.192 L 129.5696,108.2773 L 126.4587,111.2027 L 132.698,103.592 L 132.698,103.592 z M 133.9481,101.7776 L 136.3625,103.2218 L 136.3625,103.2218 L 136.1593,103.5602 L 135.9661,103.8718 L 135.7822,104.1691 L 135.6066,104.4478 L 135.4387,104.7093 L 135.2722,104.9548 L 135.1118,105.1858 L 134.9623,105.4093 L 134.812,105.6208 L 134.6655,105.8163 L 134.5221,106.0082 L 134.381,106.1923 L 134.2416,106.3644 L 134.1029,106.537 L 133.9644,106.7002 L 133.8251,106.861 L 133.6899,107.0152 L 133.5525,107.1753 L 133.4121,107.3314 L 133.268,107.485 L 133.1249,107.6429 L 132.9765,107.8064 L 132.8277,107.9769 L 132.6665,108.1503 L 132.5034,108.3389 L 132.3264,108.5329 L 132.1459,108.7394 L 131.9556,108.9597 L 131.7547,109.1895 L 131.5426,109.4412 L 131.3183,109.7107 L 131.0812,109.9993 L 128.9094,108.2133 L 129.1575,107.9137 L 129.3928,107.6332 L 129.6161,107.3705 L 129.828,107.1187 L 130.0293,106.8874 L 130.2208,106.6699 L 130.3978,106.4647 L 130.5719,106.2761 L 130.7331,106.0917 L 130.8929,105.9212 L 131.0413,105.7577 L 131.1844,105.5998 L 131.3175,105.4462 L 131.4469,105.3011 L 131.5733,105.1632 L 131.6975,105.02 L 131.8146,104.8812 L 131.9311,104.74 L 132.0478,104.6006 L 132.1652,104.4505 L 132.2841,104.2994 L 132.4055,104.1407 L 132.53,103.9672 L 132.6583,103.7887 L 132.7968,103.5984 L 132.935,103.3894 L 133.0795,103.1659 L 133.2364,102.9264 L 133.401,102.6699 L 133.5739,102.3946 L 133.7561,102.094 L 133.9481,101.7776 L 133.9481,101.7776 L 133.9481,101.7776 z M 137.2205,91.8244 L 139.9545,92.508 L 139.9106,92.6872 L 139.8533,92.8938 L 139.794,93.126 L 139.7275,93.3821 L 139.6542,93.6549 L 139.5691,93.9534 L 139.4835,94.2704 L 139.3923,94.5987 L 139.2958,94.9475 L 139.1945,95.3094 L 139.0832,95.6829 L 138.9733,96.0604 L 138.8597,96.4512 L 138.7428,96.8481 L 138.6174,97.2493 L 138.495,97.653 L 138.3704,98.0575 L 138.2385,98.4664 L 138.1107,98.867 L 137.9763,99.263 L 137.8469,99.658 L 137.7116,100.0449 L 137.5765,100.4218 L 137.4474,100.7871 L 137.3136,101.1443 L 137.1757,101.4862 L 137.0448,101.8166 L 136.9104,102.1281 L 136.7785,102.4246 L 136.6439,102.7041 L 136.5069,102.9704 L 136.3625,103.2218 L 133.9481,101.7776 L 134.0265,101.6364 L 134.1193,101.4583 L 134.2209,101.245 L 134.3308,101.0037 L 134.443,100.7362 L 134.5629,100.45 L 134.6788,100.1411 L 134.8016,99.8169 L 134.9307,99.4738 L 135.0548,99.1189 L 135.1791,98.754 L 135.3085,98.381 L 135.4319,97.996 L 135.5597,97.6066 L 135.6804,97.2197 L 135.805,96.8262 L 135.9274,96.4335 L 136.0418,96.0433 L 136.1587,95.6574 L 136.2723,95.2776 L 136.3822,94.9001 L 136.4825,94.5378 L 136.5838,94.1869 L 136.6803,93.8491 L 136.7715,93.5208 L 136.8571,93.2148 L 136.9312,92.9273 L 137.0045,92.6545 L 137.071,92.4094 L 137.1303,92.1882 L 137.1766,91.9926 L 137.2205,91.8244 L 137.2205,91.8244 z "
   id="path54"
   style="fill:#1f1a17;fill-rule:nonzero" />
  </g>
  <path
   class="fil0 str1"
   d="M 144.642,90.1299 C 144.4408,91.069 144.3986,94.0617 144.6642,95.0184 C 145.1271,96.686 144.621,97.32 145.0785,98.9679 C 145.5397,100.6291 145.0615,100.499 145.6265,102.3139"
   id="path56"
   style="fill:none;stroke:#1f1a17;stroke-width:2.82220006;stroke-linecap:round" />
  <path
   class="fil0 str0"
   d="M 185.943,99.5041 C 198.0672,98.7039 212.7794,107.5901 227.479,105.8984 C 234.2123,105.1236 241.8179,102.9658 248.2999,102.9658 C 256.8606,102.9658 262.3469,109.3766 269.7135,109.3766"
   id="path58"
   style="fill:none;stroke:#1f1a17;stroke-width:2.82220006" />
  <path
   class="fil0 str0"
   d="M 184.608,102.498 C 187.7405,104.5169 216.8043,97.1317 228.2693,104.4751 C 237.9998,110.7074 257.2327,103.5815 269.7133,106.3723"
   id="path60"
   style="fill:none;stroke:#1f1a17;stroke-width:2.82220006" />
  <g
   id="g62">
   <path
   class="fil1"
   d="M 222.092,90.713 L 219.2698,90.713 L 219.2698,80.8353 L 219.806,84.1373 L 220.3253,78.7186 L 220.6809,86.8353 L 221.3865,80.1297 L 221.5388,85.0855 L 222.092,80.8353 L 222.092,90.713 L 222.092,90.713 z M 223.0075,96.7471 L 220.2515,97.3425 L 220.2515,97.3425 L 220.1696,96.9387 L 220.0871,96.5362 L 220.0148,96.1348 L 219.9414,95.74 L 219.878,95.3406 L 219.8134,94.942 L 219.7583,94.5496 L 219.7072,94.1523 L 219.6545,93.761 L 219.6108,93.3699 L 219.5707,92.9736 L 219.534,92.583 L 219.495,92.1924 L 219.4646,91.8015 L 219.4371,91.4106 L 219.4123,91.0193 L 219.3902,90.6275 L 219.3706,90.2406 L 219.3534,89.8476 L 219.3383,89.4593 L 219.3253,89.0702 L 219.3142,88.6744 L 219.3048,88.2831 L 219.297,87.8904 L 219.2907,87.4964 L 219.2858,87.101 L 219.282,86.7095 L 219.2792,86.3108 L 219.2773,85.9157 L 219.2761,85.5132 L 219.2755,85.1142 L 219.2698,84.713 L 222.092,84.713 L 222.0867,85.1142 L 222.0873,85.5132 L 222.0885,85.9047 L 222.0904,86.2998 L 222.0932,86.6875 L 222.097,87.079 L 222.1019,87.4634 L 222.1082,87.8464 L 222.116,88.2279 L 222.1254,88.6082 L 222.1365,88.982 L 222.1495,89.3601 L 222.1646,89.7374 L 222.1818,90.1084 L 222.2014,90.4841 L 222.2235,90.8539 L 222.2483,91.2232 L 222.2758,91.5921 L 222.3062,91.9608 L 222.3342,92.3294 L 222.3709,92.698 L 222.411,93.0613 L 222.4547,93.4302 L 222.4964,93.7995 L 222.5475,94.1638 L 222.6026,94.5342 L 222.6562,94.8996 L 222.7196,95.266 L 222.7818,95.6388 L 222.8541,96.007 L 222.9256,96.3765 L 223.0075,96.7471 L 223.0075,96.7471 L 223.0075,96.7471 z M 226.9638,108.5185 L 224.5164,109.9185 L 224.3545,109.6229 L 224.1911,109.3145 L 224.0323,108.989 L 223.8727,108.6531 L 223.718,108.3078 L 223.5574,107.9429 L 223.4022,107.5707 L 223.2471,107.1922 L 223.0925,106.7973 L 222.9384,106.3984 L 222.7853,105.9907 L 222.6332,105.5754 L 222.4879,105.1536 L 222.3387,104.7264 L 222.1969,104.2947 L 222.0516,103.8651 L 221.914,103.4276 L 221.7735,102.9944 L 221.6413,102.5555 L 221.5066,102.1229 L 221.3806,101.6923 L 221.2527,101.2589 L 221.134,100.8352 L 221.0193,100.411 L 220.9033,99.9985 L 220.7972,99.5875 L 220.6904,99.1904 L 220.594,98.7968 L 220.5027,98.4193 L 220.4114,98.0476 L 220.3313,97.6883 L 220.2515,97.3425 L 223.0075,96.7471 L 223.0763,97.0709 L 223.1564,97.4082 L 223.2367,97.7579 L 223.328,98.1244 L 223.4244,98.4958 L 223.5202,98.8819 L 223.6263,99.2709 L 223.7313,99.6724 L 223.846,100.0746 L 223.9647,100.4873 L 224.0816,100.8985 L 224.2076,101.3181 L 224.3313,101.7397 L 224.4635,102.1566 L 224.5928,102.5788 L 224.7304,102.9941 L 224.8647,103.4127 L 225.0065,103.8224 L 225.1447,104.2276 L 225.29,104.6274 L 225.4311,105.0205 L 225.5732,105.4062 L 225.7163,105.7831 L 225.8599,106.1448 L 226.004,106.5013 L 226.148,106.8405 L 226.2866,107.1612 L 226.4303,107.4735 L 226.5679,107.7654 L 226.7047,108.0357 L 226.8349,108.2889 L 226.9638,108.5185 L 226.9638,108.5185 z "
   id="path64"
   style="fill:#1f1a17;fill-rule:nonzero" />
  </g>
  <path
   class="fil0 str1"
   d="M 225.582,96.8867 C 225.3593,97.852 225.3214,99.0825 225.2658,100.0487 C 225.1535,101.997 224.9607,103.5099 225.1077,105.4241 C 225.1367,105.8017 225.5494,108.9642 225.7401,109.2185"
   id="path66"
   style="fill:none;stroke:#1f1a17;stroke-width:2.82220006;stroke-linecap:round" />
  <path
   class="fil0 str1"
   d="M 230.957,97.9934 C 230.957,100.1152 231.5894,102.0083 231.5894,104.1593 C 231.5894,106.1614 232.2218,108.0361 232.2218,109.8509"
   id="path68"
   style="fill:none;stroke:#1f1a17;stroke-width:2.82220006;stroke-linecap:round" />
  <path
   class="fil0 str1"
   d="M 234.751,99.1001 C 234.751,100.9266 234.9091,102.6345 234.9091,104.4755 C 234.9091,106.0537 235.456,108.1681 235.456,109.6358"
   id="path70"
   style="fill:none;stroke:#1f1a17;stroke-width:2.82220006;stroke-linecap:round" />
  <g
   id="g72">
   <path
   class="fil1"
   d="M 240.11,112.118 L 237.2988,112.3274 L 237.2988,112.3274 L 237.2702,112.0432 L 237.2321,111.7478 L 237.1745,111.4361 L 237.1091,111.1196 L 237.0315,110.793 L 236.937,110.4567 L 236.8377,110.1168 L 236.7236,109.7624 L 236.6063,109.4048 L 236.476,109.0447 L 236.3389,108.6766 L 236.1962,108.3011 L 236.0486,107.9239 L 235.8917,107.5457 L 235.7373,107.1609 L 235.5754,106.7757 L 235.4124,106.3848 L 235.2492,105.9941 L 235.0868,105.604 L 234.9261,105.2094 L 234.7625,104.8105 L 234.6025,104.4188 L 234.4525,104.0181 L 234.3024,103.6254 L 234.1531,103.2299 L 234.0166,102.832 L 233.8883,102.4321 L 233.7635,102.0361 L 233.6489,101.6388 L 233.5507,101.246 L 233.459,100.8472 L 233.38,100.4537 L 236.1582,99.9687 L 236.215,100.274 L 236.2847,100.5846 L 236.3719,100.9112 L 236.4645,101.2423 L 236.5671,101.5833 L 236.6844,101.928 L 236.8099,102.2819 L 236.9372,102.6442 L 237.0763,103.0149 L 237.2263,103.3826 L 237.3753,103.7631 L 237.5279,104.14 L 237.6886,104.5236 L 237.851,104.9137 L 238.0142,105.3044 L 238.1772,105.6953 L 238.3391,106.0915 L 238.5045,106.4873 L 238.6614,106.8877 L 238.82,107.2869 L 238.9737,107.6844 L 239.1218,108.0855 L 239.2631,108.4898 L 239.4024,108.8914 L 239.5277,109.29 L 239.649,109.6961 L 239.7545,110.0984 L 239.8541,110.5022 L 239.9415,110.9069 L 240.0103,111.3068 L 240.0704,111.7124 L 240.11,112.118 L 240.11,112.118 L 240.11,112.118 z M 241.2057,121.1941 L 238.4165,121.5909 L 238.3764,121.3099 L 238.3362,121.0281 L 238.296,120.7399 L 238.2559,120.4566 L 238.2157,120.1725 L 238.1757,119.8878 L 238.1358,119.6025 L 238.0961,119.3166 L 238.0566,119.0247 L 238.0175,118.7379 L 237.9786,118.4507 L 237.94,118.1576 L 237.9019,117.8697 L 237.8642,117.576 L 237.827,117.2877 L 237.7903,116.9991 L 237.7487,116.7049 L 237.7132,116.4107 L 237.6784,116.122 L 237.6442,115.8277 L 237.6108,115.5391 L 237.5782,115.245 L 237.5464,114.9511 L 237.5154,114.6575 L 237.4854,114.3696 L 237.4563,114.0765 L 237.4283,113.7838 L 237.4012,113.4915 L 237.3753,113.1997 L 237.3449,112.9084 L 237.3213,112.6176 L 237.2988,112.3274 L 240.11,112.118 L 240.1325,112.3972 L 240.1561,112.6768 L 240.1755,112.9571 L 240.2014,113.2379 L 240.2285,113.5192 L 240.2565,113.8009 L 240.2856,114.083 L 240.3156,114.3709 L 240.3466,114.6535 L 240.3784,114.9364 L 240.411,115.2193 L 240.4444,115.5079 L 240.4786,115.7912 L 240.5134,116.0799 L 240.5489,116.3631 L 240.5795,116.6463 L 240.6162,116.9349 L 240.6534,117.2232 L 240.6911,117.5059 L 240.7292,117.7938 L 240.7678,118.0759 L 240.8067,118.3631 L 240.8458,118.6499 L 240.8853,118.9308 L 240.925,119.2167 L 240.9649,119.502 L 241.0049,119.7867 L 241.0451,120.0708 L 241.0852,120.3541 L 241.1254,120.6313 L 241.1656,120.9131 L 241.2057,121.1941 L 241.2057,121.1941 z M 240.3592,115.264 L 241.7527,125.0256 L 240.6064,120.9033 L 241.1549,125.8223 L 239.5117,119.2952 L 240.3053,127.3666 L 239.0277,122.0849 L 238.9636,125.4237 L 237.5701,115.6621 L 240.3592,115.264 L 240.3592,115.264 z "
   id="path74"
   style="fill:#1f1a17;fill-rule:nonzero" />
  </g>
  <g
   id="g76">
   <path
   class="fil1"
   d="M 216.347,110.958 L 218.5215,112.7407 L 212.2822,120.3514 L 213.9547,117.4685 L 210.1319,121.3155 L 214.9849,114.8371 L 210.2056,119.558 L 213.2186,115.6433 L 210.1077,118.5687 L 216.347,110.958 L 216.347,110.958 z M 217.5971,109.1436 L 220.0115,110.5878 L 220.0115,110.5878 L 219.8083,110.9262 L 219.6151,111.2378 L 219.4312,111.5351 L 219.2556,111.8138 L 219.0877,112.0753 L 218.9212,112.3208 L 218.7608,112.5518 L 218.6113,112.7753 L 218.461,112.9868 L 218.3145,113.1823 L 218.1711,113.3742 L 218.03,113.5583 L 217.8906,113.7304 L 217.7519,113.903 L 217.6134,114.0662 L 217.4741,114.227 L 217.3389,114.3812 L 217.2015,114.5413 L 217.0611,114.6974 L 216.917,114.851 L 216.7739,115.0089 L 216.6255,115.1724 L 216.4767,115.3429 L 216.3155,115.5163 L 216.1524,115.7049 L 215.9754,115.8989 L 215.7949,116.1054 L 215.6046,116.3257 L 215.4037,116.5555 L 215.1916,116.8072 L 214.9673,117.0767 L 214.7302,117.3653 L 212.5584,115.5793 L 212.8065,115.2797 L 213.0418,114.9992 L 213.2651,114.7365 L 213.477,114.4847 L 213.6783,114.2534 L 213.8698,114.0359 L 214.0468,113.8307 L 214.2209,113.6421 L 214.3821,113.4577 L 214.5419,113.2872 L 214.6903,113.1237 L 214.8334,112.9658 L 214.9665,112.8122 L 215.0959,112.6671 L 215.2223,112.5292 L 215.3465,112.386 L 215.4636,112.2472 L 215.5801,112.106 L 215.6968,111.9666 L 215.8142,111.8165 L 215.9331,111.6654 L 216.0545,111.5067 L 216.179,111.3332 L 216.3073,111.1547 L 216.4458,110.9644 L 216.584,110.7554 L 216.7285,110.5319 L 216.8854,110.2924 L 217.05,110.0359 L 217.2229,109.7606 L 217.4051,109.46 L 217.5971,109.1436 L 217.5971,109.1436 L 217.5971,109.1436 z M 220.8695,99.1904 L 223.6035,99.874 L 223.5596,100.0532 L 223.5023,100.2598 L 223.443,100.492 L 223.3765,100.7481 L 223.3032,101.0209 L 223.2181,101.3194 L 223.1325,101.6364 L 223.0413,101.9647 L 222.9448,102.3135 L 222.8435,102.6754 L 222.7322,103.0489 L 222.6223,103.4264 L 222.5087,103.8172 L 222.3918,104.2141 L 222.2664,104.6153 L 222.144,105.019 L 222.0194,105.4235 L 221.8875,105.8324 L 221.7597,106.233 L 221.6253,106.629 L 221.4959,107.024 L 221.3606,107.4109 L 221.2255,107.7878 L 221.0964,108.1531 L 220.9626,108.5103 L 220.8247,108.8522 L 220.6938,109.1826 L 220.5594,109.4941 L 220.4275,109.7906 L 220.2929,110.0701 L 220.1559,110.3364 L 220.0115,110.5878 L 217.5971,109.1436 L 217.6755,109.0024 L 217.7683,108.8243 L 217.8699,108.611 L 217.9798,108.3697 L 218.092,108.1022 L 218.2119,107.816 L 218.3278,107.5071 L 218.4506,107.1829 L 218.5797,106.8398 L 218.7038,106.4849 L 218.8281,106.12 L 218.9575,105.747 L 219.0809,105.362 L 219.2087,104.9726 L 219.3294,104.5857 L 219.454,104.1922 L 219.5764,103.7995 L 219.6908,103.4093 L 219.8077,103.0234 L 219.9213,102.6436 L 220.0312,102.2661 L 220.1315,101.9038 L 220.2328,101.5529 L 220.3293,101.2151 L 220.4205,100.8868 L 220.5061,100.5808 L 220.5802,100.2933 L 220.6535,100.0205 L 220.72,99.7754 L 220.7793,99.5542 L 220.8256,99.3586 L 220.8695,99.1904 L 220.8695,99.1904 z "
   id="path78"
   style="fill:#1f1a17;fill-rule:nonzero" />
  </g>
  <path
   class="fil0 str1"
   d="M 228.291,97.4955 C 228.0898,98.4346 228.0476,101.4273 228.3132,102.384 C 228.7761,104.0516 228.27,104.6856 228.7275,106.3335 C 229.1887,107.9947 228.7105,107.8646 229.2755,109.6795"
   id="path80"
   style="fill:none;stroke:#1f1a17;stroke-width:2.82220006;stroke-linecap:round" />
 </g>
</svg>